<?xml version="1.0" encoding="UTF-8" standalone="no"?>
<!-- Created with Inkscape (http://www.inkscape.org/) -->

<svg
   width="530mm"
   height="980mm"
   viewBox="0 0 530 980"
   version="1.1"
   id="svg1"
   xml:space="preserve"
   sodipodi:docname="briscola card.svg"
   inkscape:version="1.4 (86a8ad7, 2024-10-11)"
   xmlns:inkscape="http://www.inkscape.org/namespaces/inkscape"
   xmlns:sodipodi="http://sodipodi.sourceforge.net/DTD/sodipodi-0.dtd"
   xmlns="http://www.w3.org/2000/svg"
   xmlns:svg="http://www.w3.org/2000/svg"><sodipodi:namedview
     id="namedview1"
     pagecolor="#ffffff"
     bordercolor="#111111"
     borderopacity="1"
     inkscape:showpageshadow="0"
     inkscape:pageopacity="0"
     inkscape:pagecheckerboard="1"
     inkscape:deskcolor="#d1d1d1"
     inkscape:document-units="mm"
     inkscape:zoom="0.12834787"
     inkscape:cx="-210.36579"
     inkscape:cy="2839.9381"
     inkscape:window-width="1920"
     inkscape:window-height="1017"
     inkscape:window-x="-8"
     inkscape:window-y="32"
     inkscape:window-maximized="1"
     inkscape:current-layer="layer1" /><defs
     id="defs1" /><g
     inkscape:label="Layer 1"
     inkscape:groupmode="layer"
     id="layer1"
     style="fill:#ffffff"><path
       id="rect4"
       style="display:inline;fill:#ffffff;stroke:none;stroke-width:2.365;stroke-opacity:1;stroke-linejoin:bevel;fill-opacity:1"
       d="M 53.211222 0 A 53.211304 53.211304 0 0 0 0 53.211222 L 0 926.78891 A 53.211304 53.211304 0 0 0 53.211222 980.00013 L 476.78847 980.00013 A 53.211304 53.211304 0 0 0 530.00021 926.78891 L 530.00021 53.211222 A 53.211304 53.211304 0 0 0 476.78847 0 L 53.211222 0 z " /><path
       id="path7"
       style="display:inline;fill:none;fill-opacity:1;stroke:#000000;stroke-width:2.09502;stroke-linejoin:bevel;stroke-opacity:1"
       d="M 84.38306,39.04751 A 45.33562,49.009618 0 0 0 39.04751,88.057052 V 892.65504 a 45.33562,49.009618 0 0 0 45.33555,49.00955 H 445.26759 A 45.33562,49.009618 0 0 0 490.6036,892.65504 V 88.057052 A 45.33562,49.009618 0 0 0 445.26759,39.04751 Z" /></g></svg>
