<?xml version="1.0" encoding="UTF-8" standalone="no"?>
<!-- Created with Inkscape (http://www.inkscape.org/) -->

<svg
   width="530mm"
   height="980mm"
   viewBox="0 0 530 980"
   version="1.1"
   id="svg1"
   xml:space="preserve"
   sodipodi:docname="11_b.svg"
   inkscape:version="1.4 (86a8ad7, 2024-10-11)"
   xmlns:inkscape="http://www.inkscape.org/namespaces/inkscape"
   xmlns:sodipodi="http://sodipodi.sourceforge.net/DTD/sodipodi-0.dtd"
   xmlns="http://www.w3.org/2000/svg"
   xmlns:svg="http://www.w3.org/2000/svg"><sodipodi:namedview
     id="namedview1"
     pagecolor="#ffffff"
     bordercolor="#000000"
     borderopacity="0.25"
     inkscape:showpageshadow="2"
     inkscape:pageopacity="0.0"
     inkscape:pagecheckerboard="0"
     inkscape:deskcolor="#d1d1d1"
     inkscape:document-units="mm"
     inkscape:zoom="0.22003614"
     inkscape:cx="999.83575"
     inkscape:cy="1851.9685"
     inkscape:window-width="1920"
     inkscape:window-height="1017"
     inkscape:window-x="-8"
     inkscape:window-y="32"
     inkscape:window-maximized="1"
     inkscape:current-layer="g1537" /><defs
     id="defs1"><rect
       x="276.59204"
       y="280.4877"
       width="272.69638"
       height="292.17471"
       id="rect221" /><linearGradient
       id="swatch181"><stop
         style="stop-color:#0f70ff;stop-opacity:1;"
         offset="0"
         id="stop181" /></linearGradient><rect
       x="276.59204"
       y="280.4877"
       width="272.69638"
       height="292.17471"
       id="rect222" /><rect
       x="276.59204"
       y="280.4877"
       width="272.69638"
       height="292.17471"
       id="rect85" /><rect
       x="276.59204"
       y="280.4877"
       width="272.69638"
       height="292.17471"
       id="rect86" /><rect
       x="276.59204"
       y="280.4877"
       width="272.69638"
       height="292.17471"
       id="rect144" /><rect
       x="276.59204"
       y="280.4877"
       width="272.69638"
       height="292.17471"
       id="rect145" /><rect
       x="276.59204"
       y="280.4877"
       width="272.69638"
       height="292.17471"
       id="rect227" /><rect
       x="276.59204"
       y="280.4877"
       width="272.69638"
       height="292.17471"
       id="rect228" /><rect
       x="276.59204"
       y="280.4877"
       width="272.69638"
       height="292.17471"
       id="rect336" /><rect
       x="276.59204"
       y="280.4877"
       width="272.69638"
       height="292.17471"
       id="rect337" /><rect
       x="276.59204"
       y="280.4877"
       width="272.69638"
       height="292.17471"
       id="rect392" /><rect
       x="276.59204"
       y="280.4877"
       width="272.69638"
       height="292.17471"
       id="rect393" /><rect
       x="276.59204"
       y="280.4877"
       width="272.69638"
       height="292.17471"
       id="rect422" /><rect
       x="276.59204"
       y="280.4877"
       width="272.69638"
       height="292.17471"
       id="rect423" /><rect
       x="276.59204"
       y="280.4877"
       width="272.69638"
       height="292.17471"
       id="rect1304" /><rect
       x="276.59204"
       y="280.4877"
       width="272.69638"
       height="292.17471"
       id="rect1305" /><rect
       x="276.59204"
       y="280.4877"
       width="272.69638"
       height="292.17471"
       id="rect1174" /><rect
       x="276.59204"
       y="280.4877"
       width="272.69638"
       height="292.17471"
       id="rect1175" /><rect
       x="276.59204"
       y="280.4877"
       width="272.69638"
       height="292.17471"
       id="rect834" /><rect
       x="276.59204"
       y="280.4877"
       width="272.69638"
       height="292.17471"
       id="rect835" /><rect
       x="276.59204"
       y="280.4877"
       width="272.69638"
       height="292.17471"
       id="rect620" /><rect
       x="276.59204"
       y="280.4877"
       width="272.69638"
       height="292.17471"
       id="rect621" /><rect
       x="276.59204"
       y="280.4877"
       width="272.69638"
       height="292.17471"
       id="rect365" /><rect
       x="276.59204"
       y="280.4877"
       width="272.69638"
       height="292.17471"
       id="rect364" /><rect
       x="276.59204"
       y="280.4877"
       width="272.69638"
       height="292.17471"
       id="rect221-7" /><rect
       x="276.59204"
       y="280.4877"
       width="272.69638"
       height="292.17471"
       id="rect222-6" /><rect
       x="276.59204"
       y="280.4877"
       width="272.69638"
       height="292.17471"
       id="rect190" /><rect
       x="276.59204"
       y="280.4877"
       width="272.69638"
       height="292.17471"
       id="rect189" /><rect
       x="276.59204"
       y="280.4877"
       width="272.69638"
       height="292.17471"
       id="rect234" /><rect
       x="276.59204"
       y="280.4877"
       width="272.69638"
       height="292.17471"
       id="rect235" /><rect
       x="276.59204"
       y="280.4877"
       width="272.69638"
       height="292.17471"
       id="rect885" /><rect
       x="276.59204"
       y="280.4877"
       width="272.69638"
       height="292.17471"
       id="rect886" /><rect
       x="276.59204"
       y="280.4877"
       width="1712.1638"
       height="367.93616"
       id="rect888" /><rect
       x="276.59204"
       y="280.4877"
       width="272.69638"
       height="292.17471"
       id="rect1322" /><rect
       x="276.59204"
       y="280.4877"
       width="272.69638"
       height="292.17471"
       id="rect1323" /><rect
       x="276.59204"
       y="280.4877"
       width="1712.1638"
       height="367.93616"
       id="rect1324" /><rect
       x="276.59204"
       y="280.4877"
       width="272.69638"
       height="292.17471"
       id="rect1395" /><rect
       x="276.59204"
       y="280.4877"
       width="272.69638"
       height="292.17471"
       id="rect1423" /><rect
       x="276.59204"
       y="280.4877"
       width="272.69638"
       height="292.17471"
       id="rect1424" /><rect
       x="276.59204"
       y="280.4877"
       width="272.69638"
       height="292.17471"
       id="rect1425" /><rect
       x="276.59204"
       y="280.4877"
       width="272.69638"
       height="292.17471"
       id="rect1464" /><rect
       x="276.59204"
       y="280.4877"
       width="272.69638"
       height="292.17471"
       id="rect1465" /><rect
       x="276.59204"
       y="280.4877"
       width="272.69638"
       height="292.17471"
       id="rect1466" /><rect
       x="276.59204"
       y="280.4877"
       width="272.69638"
       height="292.17471"
       id="rect591" /><rect
       x="276.59204"
       y="280.4877"
       width="272.69638"
       height="292.17471"
       id="rect592" /><rect
       x="276.59204"
       y="280.4877"
       width="272.69638"
       height="292.17471"
       id="rect593" /><rect
       x="276.59204"
       y="280.4877"
       width="272.69638"
       height="292.17471"
       id="rect803" /><rect
       x="276.59204"
       y="280.4877"
       width="272.69638"
       height="292.17471"
       id="rect804" /><rect
       x="276.59204"
       y="280.4877"
       width="272.69638"
       height="292.17471"
       id="rect805" /><rect
       x="276.59204"
       y="280.4877"
       width="272.69638"
       height="292.17471"
       id="rect903" /><rect
       x="276.59204"
       y="280.4877"
       width="272.69638"
       height="292.17471"
       id="rect904" /><rect
       x="276.59204"
       y="280.4877"
       width="272.69638"
       height="292.17471"
       id="rect905" /><rect
       x="276.59204"
       y="280.4877"
       width="272.69638"
       height="292.17471"
       id="rect1538" /><rect
       x="276.59204"
       y="280.4877"
       width="272.69638"
       height="292.17471"
       id="rect1539" /><rect
       x="276.59204"
       y="280.4877"
       width="1712.1638"
       height="367.93616"
       id="rect1540" /></defs><g
     id="g220"
     style="display:inline"><g
       id="layer1"
       style="display:inline;fill:#ffffff"><path
         id="rect4"
         style="display:inline;fill:#ffffff;fill-opacity:1;stroke:none;stroke-width:2.365;stroke-linejoin:bevel;stroke-opacity:1"
         d="M 53.211222,0 A 53.211304,53.211304 0 0 0 0,53.211222 V 926.78891 a 53.211304,53.211304 0 0 0 53.211222,53.21122 H 476.78847 a 53.211304,53.211304 0 0 0 53.21174,-53.21122 V 53.211222 A 53.211304,53.211304 0 0 0 476.78847,0 Z" /><path
         id="path7"
         style="display:inline;fill:none;fill-opacity:1;stroke:#000000;stroke-width:4;stroke-linejoin:bevel;stroke-dasharray:none;stroke-opacity:1"
         d="M 84.38306,39.04751 A 45.33562,49.009618 0 0 0 39.04751,88.057052 V 892.65504 a 45.33562,49.009618 0 0 0 45.33555,49.00955 H 445.26759 A 45.33562,49.009618 0 0 0 490.6036,892.65504 V 88.057052 A 45.33562,49.009618 0 0 0 445.26759,39.04751 Z" /></g></g><g
     id="g1538"
     transform="translate(-0.07639736,0.07586746)"
     style="display:inline"><text
       xml:space="preserve"
       transform="matrix(-0.26458333,0,0,-0.26458333,532.81123,1002.2008)"
       id="text1477"
       style="font-size:192px;line-height:1.25;font-family:sans-serif;white-space:pre;shape-inside:url(#rect1538);display:inline;fill:#ffffff"><tspan
         x="276.5918"
         y="455.18432"
         id="tspan8"><tspan
           style="font-family:Centaur;-inkscape-font-specification:Centaur;fill:#000000"
           id="tspan7">11</tspan></tspan></text><text
       xml:space="preserve"
       transform="matrix(0.26458333,0,0,0.26458333,0,-21.566009)"
       id="text1479"
       style="font-size:192px;line-height:1.25;font-family:sans-serif;white-space:pre;shape-inside:url(#rect1539);display:inline;fill:#ffffff"><tspan
         x="276.5918"
         y="455.18432"
         id="tspan10"><tspan
           style="font-family:Centaur;-inkscape-font-specification:Centaur;fill:#000000"
           id="tspan9">11</tspan></tspan></text><text
       xml:space="preserve"
       transform="matrix(0.26458333,0,0,0.26458333,-5.7952451,394.26009)"
       id="text1481"
       style="font-size:146.667px;line-height:1.25;font-family:sans-serif;letter-spacing:10px;white-space:pre;shape-inside:url(#rect1540);display:inline;fill:#ffffff"><tspan
         x="276.5918"
         y="413.93695"
         id="tspan12"><tspan
           dx="0 0 0 0 0 0 0 0 0 0 0 0 0 0 0 0.00010681152"
           style="font-family:'Noto Serif';-inkscape-font-specification:'Noto Serif';fill:#000000"
           id="tspan11">FANTE DI BASTONI</tspan></tspan></text><g
       id="g1537"
       transform="matrix(0.99789474,0,0,1.0000108,0.28031437,-0.53214746)"
       style="display:inline"><path
         style="display:inline;fill:#e7d06c;fill-opacity:1;stroke:#000000;stroke-width:4;stroke-linecap:butt;stroke-linejoin:round;stroke-dasharray:none;stroke-opacity:1"
         d="m 169.78974,252.56868 60.08575,219.00437 h 71.06996 l 81.32993,-227.09022 c 0,0 -12.63839,-9.61571 -63.93215,-13.54642 -22.30563,-1.70931 -19.78327,9.20098 -26.63973,9.24143 -4.49903,0.0265 -74.57125,-3.31565 -81.77594,-5.87556 -7.59865,-2.69989 -40.13782,18.2664 -40.13782,18.2664 z"
         id="path1517" /><path
         style="display:inline;fill:#f39f33;fill-opacity:1;stroke:#000000;stroke-width:4;stroke-linecap:butt;stroke-linejoin:miter;stroke-dasharray:none;stroke-opacity:1"
         d="m 382.27538,244.48283 c 0,0 -68.35954,111.0727 -79.56843,170.91422 -3.58459,19.13721 -1.7615,56.176 -1.7615,56.176 h 190.27304 l -0.53851,-82.56024 c 0,0 -23.22816,-51.58732 -39.64067,-74.39481 -35.92697,-49.9256 -68.76393,-70.13517 -68.76393,-70.13517 z"
         id="path1544" /><path
         style="display:inline;fill:#f39f33;fill-opacity:1;stroke:#000000;stroke-width:4;stroke-linecap:butt;stroke-linejoin:miter;stroke-dasharray:none;stroke-opacity:1"
         d="m 169.78974,252.56868 c 0,0 46.44719,102.98685 57.65608,162.82837 3.58459,19.13721 2.42967,56.176 2.42967,56.176 H 38.934277 l 0.18963,-82.56024 c 0,0 49.343412,-62.98075 56.962198,-72.41514 43.655805,-54.05926 73.703635,-64.02899 73.703635,-64.02899 z"
         id="path1545" /><path
         style="display:inline;fill:#dc1436;fill-opacity:1;stroke:#000000;stroke-width:4;stroke-linecap:butt;stroke-linejoin:miter;stroke-dasharray:none;stroke-opacity:1"
         d="m 39.123907,383.72114 c 0,0 41.010257,-5.39233 61.552133,-4.34672 23.86376,1.2147 70.62357,12.28423 70.62357,12.28423 0,0 -2.74849,26.66328 1.5119,38.93155 5.54485,15.96702 29.86012,40.98285 29.86012,40.98285 H 38.934277 Z"
         id="path1546" /><path
         style="display:inline;fill:#dc1436;fill-opacity:1;stroke:#000000;stroke-width:4;stroke-linecap:butt;stroke-linejoin:miter;stroke-dasharray:none;stroke-opacity:1"
         d="m 201.91974,395.13719 c 0,0 -41.32394,-20.54551 -49.76098,-6.11964 -2.95041,5.04471 10.39622,14.11749 10.39622,14.11749 0,0 -10.19168,11.12865 -8.26382,17.18569 2.14094,6.72651 18.52035,10.26947 18.52035,10.26947 0,0 -11.96163,16.51352 -7.67813,23.58523 4.32449,7.13937 24.69324,4.1583 24.69324,4.1583 l 1.61052,13.23932 c 3.42683,0 16.06664,0 16.06664,0 10.18272,-8.7714 12.10062,-29.21471 12.10062,-29.21471 z"
         id="path1522" /><path
         style="display:inline;fill:#dc1436;fill-opacity:1;stroke:#000000;stroke-width:4;stroke-linecap:butt;stroke-linejoin:miter;stroke-dasharray:none;stroke-opacity:1"
         d="m 491.02888,383.72114 c 0,0 -49.57348,12.17168 -67.97774,21.35566 -34.0745,17.00365 -54.89185,29.64385 -95.56999,66.49625 h 163.73736 z"
         id="path1547" /><path
         style="display:inline;fill:#f7ab89;fill-opacity:1;stroke:#000000;stroke-width:4;stroke-linecap:butt;stroke-linejoin:miter;stroke-dasharray:none;stroke-opacity:1"
         d="m 245.32314,223.13928 -15.72575,16.25408 c 0,0 19.41923,7.41358 44.35741,5.94389 33.48,-1.97309 44.38844,-14.40084 44.38844,-14.40084 l -12.76991,-9.88848 c 0,0 -24.52794,15.50388 -38.07314,14.51083 -8.44992,-0.61949 -22.17705,-12.41948 -22.17705,-12.41948 z"
         id="path1541" /><path
         style="display:inline;fill:#f7ab89;fill-opacity:1;stroke:#000000;stroke-width:4;stroke-linecap:butt;stroke-linejoin:miter;stroke-dasharray:none;stroke-opacity:1"
         d="m 267.50019,235.55876 c -25.53173,-2.53516 -32.1686,-30.64269 -36.77019,-48.55133 -1.85965,-7.23746 0.10779,-12.5393 -0.3335,-20.05374 -0.78789,-13.41666 0.2271,-25.95097 3.5332,-37.45081 1.94995,-6.78264 51.38697,-0.23518 77.22371,-0.35343 3.69853,-0.0169 5.2534,9.5326 5.74251,20.0567 0.22915,4.93072 -1.96562,18.05227 -0.63967,25.23961 1.88636,10.22507 2.34153,18.36852 1.61703,25.40403 -0.26721,2.59483 -6.68061,17.41674 -12.29994,21.19814 -14.17021,9.53551 -34.85921,14.82996 -38.07315,14.51083 z"
         id="path1540" /><path
         style="fill:#1f70ab;fill-opacity:1;stroke:#000000;stroke-width:4;stroke-linecap:butt;stroke-linejoin:miter;stroke-dasharray:none;stroke-opacity:1"
         d="m 214.31364,129.59266 c 0,0 -20.96207,-36.935859 -6.56757,-39.12734 66.95312,-10.193233 71.67943,-10.895527 137.54934,-2.318657 15.12397,1.969281 -4.32509,40.866327 -4.32509,40.866327 0,0 -37.34666,0.02 -63.61021,-1.39643 -20.9953,-1.13229 -63.04647,1.9761 -63.04647,1.9761 z"
         id="path1537" /><g
         id="g1544"><path
           style="display:inline;fill:#6c5a58;fill-opacity:1;stroke:#000000;stroke-width:4;stroke-linecap:butt;stroke-linejoin:miter;stroke-dasharray:none;stroke-opacity:1"
           d="m 214.31364,129.59266 c 0,0 -3.83309,24.30966 -3.89613,36.56774 -0.0479,9.30795 2.6727,27.79603 2.6727,27.79603 0,0 -13.6034,14.88504 -13.36348,24.05426 0.1676,6.40503 10.20083,16.29159 10.20083,16.29159 l 19.66983,5.09108 15.72575,-16.25408 c 0,0 -12.47075,-23.31724 -14.59314,-36.13185 -0.91215,-5.50738 -0.0937,-8.72591 -0.29503,-16.12473 -0.26992,-9.91994 3.49473,-41.37982 3.49473,-41.37982 z"
           id="path1542" /><path
           style="fill:#6c5a58;fill-opacity:1;stroke:#000000;stroke-width:4;stroke-linecap:butt;stroke-linejoin:miter;stroke-dasharray:none;stroke-opacity:1"
           d="m 311.15339,129.14945 29.81693,-0.13646 c 0,0 2.20589,11.00403 2.68642,16.58316 1.44346,16.75895 0.56698,50.45982 0.56698,50.45982 0,0 8.93882,16.53486 7.9375,25.32441 -0.54303,4.76666 -7.28332,12.41357 -7.28332,12.41357 l -26.53466,-2.85754 -12.76991,-9.88848 c 0,0 10.42879,-13.24593 12.29995,-21.19814 1.94349,-8.25958 -1.00824,-16.94075 -1.61703,-25.40403 -0.42857,-5.95794 -0.071,-13.74074 0.63966,-25.23961 0.42897,-6.94095 -5.74252,-20.0567 -5.74252,-20.0567 z"
           id="path1543" /></g><g
         id="g1565"
         style="display:inline"
         transform="matrix(-0.72016387,0.39952631,0.50291574,0.90489812,166.64739,-32.348732)"><path
           style="display:inline;fill:#1f70ab;fill-opacity:1;stroke:#000000;stroke-width:4.33198;stroke-linejoin:bevel;stroke-dasharray:none;stroke-opacity:1"
           d="m 138.47853,156.1623 h 86.00244 c 0,0 7.41857,-50.47177 -43.00122,-50.47177 -50.41974,0 -43.00122,50.47177 -43.00122,50.47177 z"
           id="path1562" /><circle
           style="display:inline;fill:#e7d06c;fill-opacity:1;stroke:#000000;stroke-width:3.24899;stroke-linejoin:bevel;stroke-dasharray:none;stroke-opacity:1"
           id="circle1562"
           cx="181.47974"
           cy="98.721024"
           r="6.9695058" /><path
           id="path1563"
           style="fill:#e7d06c;fill-opacity:1;stroke:#000000;stroke-width:4.33198;stroke-linejoin:bevel;stroke-dasharray:none;stroke-opacity:1"
           d="m 138.02127,163.91296 7.2192,51.17259 h 36.23913 36.23965 l 7.21919,-51.17259 H 181.4796 Z" /><rect
           style="display:inline;fill:#dc1436;fill-opacity:1;stroke:#000000;stroke-width:3.24899;stroke-linejoin:bevel;stroke-dasharray:none;stroke-opacity:1"
           id="rect1563"
           width="103.94265"
           height="11.984084"
           x="129.50842"
           y="151.92899" /><path
           id="path1564"
           style="fill:#dc1436;fill-opacity:1;stroke:#000000;stroke-width:4.33198;stroke-linejoin:bevel;stroke-dasharray:none;stroke-opacity:1"
           d="m 145.23995,215.39901 13.77149,227.36704 22.19593,-0.17983 22.19661,-0.17983 14.31527,-227.32084 -36.23991,0.15702 z" /><rect
           style="display:inline;fill:#1f70ab;fill-opacity:1;stroke:#000000;stroke-width:3.24899;stroke-linejoin:bevel;stroke-dasharray:none;stroke-opacity:1"
           id="rect1564"
           width="95.696815"
           height="11.984084"
           x="133.63132"
           y="214.84229"
           transform="translate(1.3654965e-5)" /><path
           style="display:inline;fill:#e7d06c;fill-opacity:1;stroke:#000000;stroke-width:3.24899;stroke-linejoin:bevel;stroke-dasharray:none;stroke-opacity:1"
           d="m 158.97979,442.24357 44.46541,0.14716 c 0,0 3.74922,26.10785 -22.31907,26.02158 -26.06826,-0.0863 -22.14634,-26.16874 -22.14634,-26.16874 z"
           id="path1565" /></g><path
         style="fill:#f0aa83;fill-opacity:1;stroke:#000000;stroke-width:4;stroke-linecap:butt;stroke-linejoin:miter;stroke-dasharray:none;stroke-opacity:1"
         d="m 201.91974,395.13717 c 0,0 10.29389,-19.52547 19.27273,-25.02315 6.4488,-3.94856 22.30059,-4.15774 22.30059,-4.15774 0,0 20.22164,2.10605 21.16667,9.82736 0.30508,2.49268 -5.86643,4.72692 -5.86643,4.72692 0,0 7.94362,3.11561 8.55261,6.68173 0.44513,2.6066 -4.2763,6.68174 -4.2763,6.68174 0,0 6.69611,0.61774 7.75081,3.20725 1.02373,2.51346 -3.20723,7.48353 -3.20723,7.48353 0,0 5.23877,3.97329 6.94901,7.48357 1.36795,2.80772 -4.00904,7.48353 -4.00904,7.48353 0,0 -1.79082,-2.62051 -4.81084,-3.47451 -4.89327,-1.38371 -12.02714,1e-5 -12.02714,1e-5 l -34.11078,26.30093 z"
         id="path1549" /></g><g
       id="g598"
       transform="matrix(-0.9970584,0,0,-1.000015,529.23401,980.38161)"
       style="display:inline"><path
         style="display:none;fill:#dc1436;fill-opacity:1;stroke:#000000;stroke-width:4;stroke-linecap:butt;stroke-linejoin:round;stroke-dasharray:none;stroke-opacity:1"
         d="m 116.33309,294.39715 c 27.17052,-25.49522 37.08659,-37.34871 93.59447,-60.09487 20.11182,5.23427 34.18262,10.74922 64.02724,11.03497 27.316,0.26154 44.38843,-14.40084 44.38843,-14.40084 0,0 50.01198,3.18721 63.93215,13.54642 C 468.58404,308.71264 490.68,390.57772 490.68,390.57772 l -0.58869,80.46616 -450.627866,0.52917 -0.339537,-77.24597 c 0,0 48.764976,-73.23955 77.209183,-99.92993 z"
         id="path217" /><path
         style="display:inline;fill:#e7d06c;fill-opacity:1;stroke:#000000;stroke-width:4;stroke-linecap:butt;stroke-linejoin:round;stroke-dasharray:none;stroke-opacity:1"
         d="m 169.78974,252.56868 60.08575,219.00437 h 71.06996 l 81.32993,-227.09022 c 0,0 -12.63839,-9.61571 -63.93215,-13.54642 -22.30563,-1.70931 -19.78327,9.20098 -26.63973,9.24143 -4.49903,0.0265 -74.57125,-3.31565 -81.77594,-5.87556 -7.59865,-2.69989 -40.13782,18.2664 -40.13782,18.2664 z"
         id="path218" /><path
         style="display:inline;fill:#f39f33;fill-opacity:1;stroke:#000000;stroke-width:4;stroke-linecap:butt;stroke-linejoin:miter;stroke-dasharray:none;stroke-opacity:1"
         d="m 382.27538,244.48283 c 0,0 -68.35954,111.0727 -79.56843,170.91422 -3.58459,19.13721 -1.7615,56.176 -1.7615,56.176 h 190.27304 l -0.53851,-82.56024 c 0,0 -23.22816,-51.58732 -39.64067,-74.39481 -35.92697,-49.9256 -68.76393,-70.13517 -68.76393,-70.13517 z"
         id="path219" /><path
         style="display:inline;fill:#f39f33;fill-opacity:1;stroke:#000000;stroke-width:4;stroke-linecap:butt;stroke-linejoin:miter;stroke-dasharray:none;stroke-opacity:1"
         d="m 169.78974,252.56868 c 0,0 46.44719,102.98685 57.65608,162.82837 3.58459,19.13721 2.42967,56.176 2.42967,56.176 H 38.934277 l 0.18963,-82.56024 c 0,0 49.343412,-62.98075 56.962198,-72.41514 43.655805,-54.05926 73.703635,-64.02899 73.703635,-64.02899 z"
         id="path220" /><path
         style="display:inline;fill:#dc1436;fill-opacity:1;stroke:#000000;stroke-width:4;stroke-linecap:butt;stroke-linejoin:miter;stroke-dasharray:none;stroke-opacity:1"
         d="m 39.123907,383.72114 c 0,0 41.010257,-5.39233 61.552133,-4.34672 23.86376,1.2147 70.62357,12.28423 70.62357,12.28423 0,0 -2.74849,26.66328 1.5119,38.93155 5.54485,15.96702 29.86012,40.98285 29.86012,40.98285 H 38.934277 Z"
         id="path221" /><path
         style="display:inline;fill:#dc1436;fill-opacity:1;stroke:#000000;stroke-width:4;stroke-linecap:butt;stroke-linejoin:miter;stroke-dasharray:none;stroke-opacity:1"
         d="m 201.91974,395.13719 c 0,0 -41.32394,-20.54551 -49.76098,-6.11964 -2.95041,5.04471 10.39622,14.11749 10.39622,14.11749 0,0 -10.19168,11.12865 -8.26382,17.18569 2.14094,6.72651 18.52035,10.26947 18.52035,10.26947 0,0 -11.96163,16.51352 -7.67813,23.58523 4.32449,7.13937 24.69324,4.1583 24.69324,4.1583 l 1.61052,13.23932 c 3.42683,0 16.06664,0 16.06664,0 10.18272,-8.7714 12.10062,-29.21471 12.10062,-29.21471 z"
         id="path222" /><path
         style="display:inline;fill:#dc1436;fill-opacity:1;stroke:#000000;stroke-width:4;stroke-linecap:butt;stroke-linejoin:miter;stroke-dasharray:none;stroke-opacity:1"
         d="m 491.02888,383.72114 c 0,0 -49.57348,12.17168 -67.97774,21.35566 -34.0745,17.00365 -54.89185,29.64385 -95.56999,66.49625 h 163.73736 z"
         id="path223" /><path
         style="display:none;fill:#dc1436;fill-opacity:1;stroke:#000000;stroke-width:4;stroke-linecap:butt;stroke-linejoin:miter;stroke-dasharray:none;stroke-opacity:1"
         d="m 328.23304,395.13719 c 0,0 41.32394,-20.54551 49.76098,-6.11964 2.95041,5.04471 -10.39622,14.11749 -10.39622,14.11749 0,0 10.19168,11.12865 8.26382,17.18569 -2.14094,6.72651 -18.52035,10.26947 -18.52035,10.26947 0,0 11.96163,16.51352 7.67813,23.58523 -4.32449,7.13937 -24.69324,4.1583 -24.69324,4.1583 l -1.61052,13.23932 c -3.42683,0 -16.06664,0 -16.06664,0 -10.18272,-8.7714 -12.10062,-29.21471 -12.10062,-29.21471 z"
         id="path224" /><path
         style="display:inline;fill:#f7ab89;fill-opacity:1;stroke:#000000;stroke-width:4;stroke-linecap:butt;stroke-linejoin:miter;stroke-dasharray:none;stroke-opacity:1"
         d="m 245.32314,223.13928 -15.72575,16.25408 c 0,0 19.41923,7.41358 44.35741,5.94389 33.48,-1.97309 44.38844,-14.40084 44.38844,-14.40084 l -12.76991,-9.88848 c 0,0 -24.52794,15.50388 -38.07314,14.51083 -8.44992,-0.61949 -22.17705,-12.41948 -22.17705,-12.41948 z"
         id="path225" /><path
         style="display:inline;fill:#f7ab89;fill-opacity:1;stroke:#000000;stroke-width:4;stroke-linecap:butt;stroke-linejoin:miter;stroke-dasharray:none;stroke-opacity:1"
         d="m 267.50019,235.55876 c -25.53173,-2.53516 -32.1686,-30.64269 -36.77019,-48.55133 -1.85965,-7.23746 0.10779,-12.5393 -0.3335,-20.05374 -0.78789,-13.41666 0.2271,-25.95097 3.5332,-37.45081 1.94995,-6.78264 51.38697,-0.23518 77.22371,-0.35343 3.69853,-0.0169 5.2534,9.5326 5.74251,20.0567 0.22915,4.93072 -1.96562,18.05227 -0.63967,25.23961 1.88636,10.22507 2.34153,18.36852 1.61703,25.40403 -0.26721,2.59483 -6.68061,17.41674 -12.29994,21.19814 -14.17021,9.53551 -34.85921,14.82996 -38.07315,14.51083 z"
         id="path226" /><path
         style="fill:#1f70ab;fill-opacity:1;stroke:#000000;stroke-width:4;stroke-linecap:butt;stroke-linejoin:miter;stroke-dasharray:none;stroke-opacity:1"
         d="m 214.31364,129.59266 c 0,0 -20.96207,-36.935859 -6.56757,-39.12734 66.95312,-10.193233 71.67943,-10.895527 137.54934,-2.318657 15.12397,1.969281 -4.32509,40.866327 -4.32509,40.866327 0,0 -37.34666,0.02 -63.61021,-1.39643 -20.9953,-1.13229 -63.04647,1.9761 -63.04647,1.9761 z"
         id="path227" /><g
         id="g395"><path
           style="display:inline;fill:#6c5a58;fill-opacity:1;stroke:#000000;stroke-width:4;stroke-linecap:butt;stroke-linejoin:miter;stroke-dasharray:none;stroke-opacity:1"
           d="m 214.31364,129.59266 c 0,0 -3.83309,24.30966 -3.89613,36.56774 -0.0479,9.30795 2.6727,27.79603 2.6727,27.79603 0,0 -13.6034,14.88504 -13.36348,24.05426 0.1676,6.40503 10.20083,16.29159 10.20083,16.29159 l 19.66983,5.09108 15.72575,-16.25408 c 0,0 -12.47075,-23.31724 -14.59314,-36.13185 -0.91215,-5.50738 -0.0937,-8.72591 -0.29503,-16.12473 -0.26992,-9.91994 3.49473,-41.37982 3.49473,-41.37982 z"
           id="path390" /><path
           style="fill:#6c5a58;fill-opacity:1;stroke:#000000;stroke-width:4;stroke-linecap:butt;stroke-linejoin:miter;stroke-dasharray:none;stroke-opacity:1"
           d="m 311.15339,129.14945 29.81693,-0.13646 c 0,0 2.20589,11.00403 2.68642,16.58316 1.44346,16.75895 0.56698,50.45982 0.56698,50.45982 0,0 8.93882,16.53486 7.9375,25.32441 -0.54303,4.76666 -7.28332,12.41357 -7.28332,12.41357 l -26.53466,-2.85754 -12.76991,-9.88848 c 0,0 10.42879,-13.24593 12.29995,-21.19814 1.94349,-8.25958 -1.00824,-16.94075 -1.61703,-25.40403 -0.42857,-5.95794 -0.071,-13.74074 0.63966,-25.23961 0.42897,-6.94095 -5.74252,-20.0567 -5.74252,-20.0567 z"
           id="path395" /></g><g
         id="g573"
         style="display:none;stroke:#000000;stroke-width:7.58097;stroke-linecap:round;stroke-linejoin:round;stroke-dasharray:none;stroke-opacity:1;paint-order:normal"
         transform="matrix(-0.72016388,0.39952631,0.50291575,0.90489812,166.64739,-32.348731)"><path
           style="display:inline;fill:#dc1436;fill-opacity:1;stroke:#000000;stroke-width:7.58097;stroke-linecap:round;stroke-linejoin:round;stroke-dasharray:none;stroke-opacity:1;paint-order:normal"
           d="m 138.47853,156.1623 h 86.00244 c 0,0 7.41857,-50.47177 -43.00122,-50.47177 -50.41974,0 -43.00122,50.47177 -43.00122,50.47177 z"
           id="path396" /><circle
           style="display:inline;fill:#c8ab37;fill-opacity:1;stroke:#000000;stroke-width:7.58097;stroke-linecap:round;stroke-linejoin:round;stroke-dasharray:none;stroke-opacity:1;paint-order:normal"
           id="circle396"
           cx="181.47974"
           cy="98.721024"
           r="6.9695058" /><path
           id="path397"
           style="fill:#c8ab37;fill-opacity:1;stroke:#000000;stroke-width:7.58097;stroke-linecap:round;stroke-linejoin:round;stroke-dasharray:none;stroke-opacity:1;paint-order:normal"
           d="m 138.02127,163.91296 7.2192,51.17259 h 36.23913 36.23965 l 7.21919,-51.17259 H 181.4796 Z" /><rect
           style="display:inline;fill:#1f70ab;fill-opacity:1;stroke:#000000;stroke-width:7.58097;stroke-linecap:round;stroke-linejoin:round;stroke-dasharray:none;stroke-opacity:1;paint-order:normal"
           id="rect535"
           width="103.94265"
           height="11.984084"
           x="129.50842"
           y="151.92899" /><path
           id="path545"
           style="fill:#c8ab37;fill-opacity:1;stroke:#000000;stroke-width:7.58097;stroke-linecap:round;stroke-linejoin:round;stroke-dasharray:none;stroke-opacity:1;paint-order:normal"
           d="m 145.23995,215.39901 13.77149,227.36704 22.19593,-0.17983 22.19661,-0.17983 14.31527,-227.32084 -36.23991,0.15702 z" /><rect
           style="display:inline;fill:#dc1436;fill-opacity:1;stroke:#000000;stroke-width:7.58097;stroke-linecap:round;stroke-linejoin:round;stroke-dasharray:none;stroke-opacity:1;paint-order:normal"
           id="rect571"
           width="95.696815"
           height="11.984084"
           x="133.63132"
           y="214.84229"
           transform="translate(1.3654965e-5)" /><path
           style="display:inline;fill:#dc1436;fill-opacity:1;stroke:#000000;stroke-width:7.58097;stroke-linecap:round;stroke-linejoin:round;stroke-dasharray:none;stroke-opacity:1;paint-order:normal"
           d="m 158.97979,442.24357 44.46541,0.14716 c 0,0 3.74922,26.10785 -22.31907,26.02158 -26.06826,-0.0863 -22.14634,-26.16874 -22.14634,-26.16874 z"
           id="path573" /></g><g
         id="g595"
         style="display:inline"
         transform="matrix(-0.72016387,0.39952631,0.50291574,0.90489812,166.64739,-32.348732)"><path
           style="display:inline;fill:#1f70ab;fill-opacity:1;stroke:#000000;stroke-width:4.33198;stroke-linejoin:bevel;stroke-dasharray:none;stroke-opacity:1"
           d="m 138.47853,156.1623 h 86.00244 c 0,0 7.41857,-50.47177 -43.00122,-50.47177 -50.41974,0 -43.00122,50.47177 -43.00122,50.47177 z"
           id="path577" /><circle
           style="display:inline;fill:#e7d06c;fill-opacity:1;stroke:#000000;stroke-width:3.24899;stroke-linejoin:bevel;stroke-dasharray:none;stroke-opacity:1"
           id="circle577"
           cx="181.47974"
           cy="98.721024"
           r="6.9695058" /><path
           id="path580"
           style="fill:#e7d06c;fill-opacity:1;stroke:#000000;stroke-width:4.33198;stroke-linejoin:bevel;stroke-dasharray:none;stroke-opacity:1"
           d="m 138.02127,163.91296 7.2192,51.17259 h 36.23913 36.23965 l 7.21919,-51.17259 H 181.4796 Z" /><rect
           style="display:inline;fill:#dc1436;fill-opacity:1;stroke:#000000;stroke-width:3.24899;stroke-linejoin:bevel;stroke-dasharray:none;stroke-opacity:1"
           id="rect585"
           width="103.94265"
           height="11.984084"
           x="129.50842"
           y="151.92899" /><path
           id="path591"
           style="fill:#dc1436;fill-opacity:1;stroke:#000000;stroke-width:4.33198;stroke-linejoin:bevel;stroke-dasharray:none;stroke-opacity:1"
           d="m 145.23995,215.39901 13.77149,227.36704 22.19593,-0.17983 22.19661,-0.17983 14.31527,-227.32084 -36.23991,0.15702 z" /><rect
           style="display:inline;fill:#1f70ab;fill-opacity:1;stroke:#000000;stroke-width:3.24899;stroke-linejoin:bevel;stroke-dasharray:none;stroke-opacity:1"
           id="rect595"
           width="95.696815"
           height="11.984084"
           x="133.63132"
           y="214.84229"
           transform="translate(1.3654965e-5)" /><path
           style="display:inline;fill:#e7d06c;fill-opacity:1;stroke:#000000;stroke-width:3.24899;stroke-linejoin:bevel;stroke-dasharray:none;stroke-opacity:1"
           d="m 158.97979,442.24357 44.46541,0.14716 c 0,0 3.74922,26.10785 -22.31907,26.02158 -26.06826,-0.0863 -22.14634,-26.16874 -22.14634,-26.16874 z"
           id="path595" /></g><path
         style="fill:#f0aa83;fill-opacity:1;stroke:#000000;stroke-width:4;stroke-linecap:butt;stroke-linejoin:miter;stroke-dasharray:none;stroke-opacity:1"
         d="m 201.91974,395.13717 c 0,0 10.29389,-19.52547 19.27273,-25.02315 6.4488,-3.94856 22.30059,-4.15774 22.30059,-4.15774 0,0 20.22164,2.10605 21.16667,9.82736 0.30508,2.49268 -5.86643,4.72692 -5.86643,4.72692 0,0 7.94362,3.11561 8.55261,6.68173 0.44513,2.6066 -4.2763,6.68174 -4.2763,6.68174 0,0 6.69611,0.61774 7.75081,3.20725 1.02373,2.51346 -3.20723,7.48353 -3.20723,7.48353 0,0 5.23877,3.97329 6.94901,7.48357 1.36795,2.80772 -4.00904,7.48353 -4.00904,7.48353 0,0 -1.79082,-2.62051 -4.81084,-3.47451 -4.89327,-1.38371 -12.02714,1e-5 -12.02714,1e-5 l -34.11078,26.30093 z"
         id="path598" /></g><rect
       style="display:inline;fill:none;stroke:#000000;stroke-width:3.89609;stroke-dasharray:none;stroke-opacity:1"
       id="rect1481"
       width="451.33173"
       height="37.764404"
       x="39.410522"
       y="471.04193" /><path
       id="path599"
       style="display:inline;fill:none;fill-opacity:1;stroke:#000000;stroke-width:4;stroke-linejoin:bevel;stroke-dasharray:none;stroke-opacity:1"
       d="M 84.38306,39.04751 A 45.33562,49.009618 0 0 0 39.04751,88.057052 V 892.65504 a 45.33562,49.009618 0 0 0 45.33555,49.00955 H 445.26759 A 45.33562,49.009618 0 0 0 490.6036,892.65504 V 88.057052 A 45.33562,49.009618 0 0 0 445.26759,39.04751 Z"
       transform="translate(0.07639736,-0.07586746)" /></g></svg>
