<?xml version="1.0" encoding="UTF-8" standalone="no"?>
<!-- Created with Inkscape (http://www.inkscape.org/) -->

<svg
   width="530mm"
   height="980mm"
   viewBox="0 0 530 980"
   version="1.1"
   id="svg1"
   xml:space="preserve"
   sodipodi:docname="12_b.svg"
   inkscape:version="1.4 (86a8ad7, 2024-10-11)"
   xmlns:inkscape="http://www.inkscape.org/namespaces/inkscape"
   xmlns:sodipodi="http://sodipodi.sourceforge.net/DTD/sodipodi-0.dtd"
   xmlns="http://www.w3.org/2000/svg"
   xmlns:svg="http://www.w3.org/2000/svg"><sodipodi:namedview
     id="namedview1"
     pagecolor="#ffffff"
     bordercolor="#000000"
     borderopacity="0.25"
     inkscape:showpageshadow="2"
     inkscape:pageopacity="0.0"
     inkscape:pagecheckerboard="0"
     inkscape:deskcolor="#d1d1d1"
     inkscape:document-units="mm"
     inkscape:zoom="0.22003614"
     inkscape:cx="999.83576"
     inkscape:cy="1851.9685"
     inkscape:window-width="1920"
     inkscape:window-height="1017"
     inkscape:window-x="-8"
     inkscape:window-y="32"
     inkscape:window-maximized="1"
     inkscape:current-layer="svg1" /><defs
     id="defs1"><rect
       x="276.59204"
       y="280.4877"
       width="272.69638"
       height="292.17471"
       id="rect221" /><linearGradient
       id="swatch181"><stop
         style="stop-color:#0f70ff;stop-opacity:1;"
         offset="0"
         id="stop181" /></linearGradient><rect
       x="276.59204"
       y="280.4877"
       width="272.69638"
       height="292.17471"
       id="rect222" /><rect
       x="276.59204"
       y="280.4877"
       width="272.69638"
       height="292.17471"
       id="rect85" /><rect
       x="276.59204"
       y="280.4877"
       width="272.69638"
       height="292.17471"
       id="rect86" /><rect
       x="276.59204"
       y="280.4877"
       width="272.69638"
       height="292.17471"
       id="rect144" /><rect
       x="276.59204"
       y="280.4877"
       width="272.69638"
       height="292.17471"
       id="rect145" /><rect
       x="276.59204"
       y="280.4877"
       width="272.69638"
       height="292.17471"
       id="rect227" /><rect
       x="276.59204"
       y="280.4877"
       width="272.69638"
       height="292.17471"
       id="rect228" /><rect
       x="276.59204"
       y="280.4877"
       width="272.69638"
       height="292.17471"
       id="rect336" /><rect
       x="276.59204"
       y="280.4877"
       width="272.69638"
       height="292.17471"
       id="rect337" /><rect
       x="276.59204"
       y="280.4877"
       width="272.69638"
       height="292.17471"
       id="rect392" /><rect
       x="276.59204"
       y="280.4877"
       width="272.69638"
       height="292.17471"
       id="rect393" /><rect
       x="276.59204"
       y="280.4877"
       width="272.69638"
       height="292.17471"
       id="rect422" /><rect
       x="276.59204"
       y="280.4877"
       width="272.69638"
       height="292.17471"
       id="rect423" /><rect
       x="276.59204"
       y="280.4877"
       width="272.69638"
       height="292.17471"
       id="rect1304" /><rect
       x="276.59204"
       y="280.4877"
       width="272.69638"
       height="292.17471"
       id="rect1305" /><rect
       x="276.59204"
       y="280.4877"
       width="272.69638"
       height="292.17471"
       id="rect1174" /><rect
       x="276.59204"
       y="280.4877"
       width="272.69638"
       height="292.17471"
       id="rect1175" /><rect
       x="276.59204"
       y="280.4877"
       width="272.69638"
       height="292.17471"
       id="rect834" /><rect
       x="276.59204"
       y="280.4877"
       width="272.69638"
       height="292.17471"
       id="rect835" /><rect
       x="276.59204"
       y="280.4877"
       width="272.69638"
       height="292.17471"
       id="rect620" /><rect
       x="276.59204"
       y="280.4877"
       width="272.69638"
       height="292.17471"
       id="rect621" /><rect
       x="276.59204"
       y="280.4877"
       width="272.69638"
       height="292.17471"
       id="rect365" /><rect
       x="276.59204"
       y="280.4877"
       width="272.69638"
       height="292.17471"
       id="rect364" /><rect
       x="276.59204"
       y="280.4877"
       width="272.69638"
       height="292.17471"
       id="rect221-7" /><rect
       x="276.59204"
       y="280.4877"
       width="272.69638"
       height="292.17471"
       id="rect222-6" /><rect
       x="276.59204"
       y="280.4877"
       width="272.69638"
       height="292.17471"
       id="rect190" /><rect
       x="276.59204"
       y="280.4877"
       width="272.69638"
       height="292.17471"
       id="rect189" /><rect
       x="276.59204"
       y="280.4877"
       width="272.69638"
       height="292.17471"
       id="rect234" /><rect
       x="276.59204"
       y="280.4877"
       width="272.69638"
       height="292.17471"
       id="rect235" /><rect
       x="276.59204"
       y="280.4877"
       width="272.69638"
       height="292.17471"
       id="rect885" /><rect
       x="276.59204"
       y="280.4877"
       width="272.69638"
       height="292.17471"
       id="rect886" /><rect
       x="276.59204"
       y="280.4877"
       width="1712.1638"
       height="367.93616"
       id="rect888" /><rect
       x="276.59204"
       y="280.4877"
       width="272.69638"
       height="292.17471"
       id="rect1322" /><rect
       x="276.59204"
       y="280.4877"
       width="272.69638"
       height="292.17471"
       id="rect1323" /><rect
       x="276.59204"
       y="280.4877"
       width="1712.1638"
       height="367.93616"
       id="rect1324" /><rect
       x="276.59204"
       y="280.4877"
       width="272.69638"
       height="292.17471"
       id="rect1395" /><rect
       x="276.59204"
       y="280.4877"
       width="272.69638"
       height="292.17471"
       id="rect1423" /><rect
       x="276.59204"
       y="280.4877"
       width="272.69638"
       height="292.17471"
       id="rect1424" /><rect
       x="276.59204"
       y="280.4877"
       width="272.69638"
       height="292.17471"
       id="rect1425" /><rect
       x="276.59204"
       y="280.4877"
       width="272.69638"
       height="292.17471"
       id="rect1464" /><rect
       x="276.59204"
       y="280.4877"
       width="272.69638"
       height="292.17471"
       id="rect1465" /><rect
       x="276.59204"
       y="280.4877"
       width="272.69638"
       height="292.17471"
       id="rect1466" /><rect
       x="276.59204"
       y="280.4877"
       width="272.69638"
       height="292.17471"
       id="rect591" /><rect
       x="276.59204"
       y="280.4877"
       width="272.69638"
       height="292.17471"
       id="rect592" /><rect
       x="276.59204"
       y="280.4877"
       width="272.69638"
       height="292.17471"
       id="rect593" /><rect
       x="276.59204"
       y="280.4877"
       width="272.69638"
       height="292.17471"
       id="rect803" /><rect
       x="276.59204"
       y="280.4877"
       width="272.69638"
       height="292.17471"
       id="rect804" /><rect
       x="276.59204"
       y="280.4877"
       width="272.69638"
       height="292.17471"
       id="rect805" /><rect
       x="276.59204"
       y="280.4877"
       width="272.69638"
       height="292.17471"
       id="rect903" /><rect
       x="276.59204"
       y="280.4877"
       width="272.69638"
       height="292.17471"
       id="rect904" /><rect
       x="276.59204"
       y="280.4877"
       width="272.69638"
       height="292.17471"
       id="rect905" /><rect
       x="276.59204"
       y="280.4877"
       width="272.69638"
       height="292.17471"
       id="rect1538" /><rect
       x="276.59204"
       y="280.4877"
       width="272.69638"
       height="292.17471"
       id="rect1539" /><rect
       x="276.59204"
       y="280.4877"
       width="1712.1638"
       height="367.93616"
       id="rect1540" /><rect
       x="276.59204"
       y="280.4877"
       width="272.69638"
       height="292.17471"
       id="rect750" /><rect
       x="276.59204"
       y="280.4877"
       width="272.69638"
       height="292.17471"
       id="rect751" /><rect
       x="276.59204"
       y="280.4877"
       width="272.69638"
       height="292.17471"
       id="rect752" /><rect
       x="276.59204"
       y="280.4877"
       width="272.69638"
       height="292.17471"
       id="rect1002" /><rect
       x="276.59204"
       y="280.4877"
       width="272.69638"
       height="292.17471"
       id="rect1003" /><rect
       x="276.59204"
       y="280.4877"
       width="272.69638"
       height="292.17471"
       id="rect537" /><rect
       x="276.59204"
       y="280.4877"
       width="272.69638"
       height="292.17471"
       id="rect538" /><rect
       x="276.59204"
       y="280.4877"
       width="272.69638"
       height="292.17471"
       id="rect539" /><rect
       x="276.59204"
       y="280.4877"
       width="272.69638"
       height="292.17471"
       id="rect540" /><rect
       x="276.59204"
       y="280.4877"
       width="1712.1638"
       height="367.93616"
       id="rect541" /><rect
       x="276.59204"
       y="280.4877"
       width="272.69638"
       height="292.17471"
       id="rect670" /><rect
       x="276.59204"
       y="280.4877"
       width="272.69638"
       height="292.17471"
       id="rect671" /><rect
       x="276.59204"
       y="280.4877"
       width="1712.1638"
       height="367.93616"
       id="rect672" /><rect
       x="276.59204"
       y="280.4877"
       width="272.69638"
       height="292.17471"
       id="rect1476" /><rect
       x="276.59204"
       y="280.4877"
       width="272.69638"
       height="292.17471"
       id="rect1477" /><rect
       x="276.59204"
       y="280.4877"
       width="1712.1638"
       height="367.93616"
       id="rect1478" /></defs><g
     id="g220"
     style="display:inline"><g
       id="layer1"
       style="display:inline;fill:#ffffff"><path
         id="rect4"
         style="display:inline;fill:#ffffff;fill-opacity:1;stroke:none;stroke-width:2.365;stroke-linejoin:bevel;stroke-opacity:1"
         d="M 53.211222,0 A 53.211304,53.211304 0 0 0 0,53.211222 V 926.78891 a 53.211304,53.211304 0 0 0 53.211222,53.21122 H 476.78847 a 53.211304,53.211304 0 0 0 53.21174,-53.21122 V 53.211222 A 53.211304,53.211304 0 0 0 476.78847,0 Z" /><path
         id="path7"
         style="display:inline;fill:none;fill-opacity:1;stroke:#000000;stroke-width:4;stroke-linejoin:bevel;stroke-dasharray:none;stroke-opacity:1"
         d="M 84.38306,39.04751 A 45.33562,49.009618 0 0 0 39.04751,88.057052 V 892.65504 a 45.33562,49.009618 0 0 0 45.33555,49.00955 H 445.26759 A 45.33562,49.009618 0 0 0 490.6036,892.65504 V 88.057052 A 45.33562,49.009618 0 0 0 445.26759,39.04751 Z" /></g></g><g
     id="g1476"
     transform="translate(-0.07639736,0.07586746)"
     style="display:inline"><g
       id="g1486"><text
         xml:space="preserve"
         transform="matrix(-0.26458333,0,0,-0.26458333,532.81123,1002.2008)"
         id="text1383"
         style="font-size:192px;line-height:1.25;font-family:sans-serif;white-space:pre;shape-inside:url(#rect1476);display:inline;fill:#ffffff"><tspan
           x="276.5918"
           y="455.18432"
           id="tspan2"><tspan
             style="font-family:Centaur;-inkscape-font-specification:Centaur;fill:#000000"
             id="tspan1">12</tspan></tspan></text><text
         xml:space="preserve"
         transform="matrix(0.26458333,0,0,0.26458333,0,-21.566009)"
         id="text1385"
         style="font-size:192px;line-height:1.25;font-family:sans-serif;white-space:pre;shape-inside:url(#rect1477);display:inline;fill:#ffffff"><tspan
           x="276.5918"
           y="455.18432"
           id="tspan4"><tspan
             style="font-family:Centaur;-inkscape-font-specification:Centaur;fill:#000000"
             id="tspan3">12</tspan></tspan></text><text
         xml:space="preserve"
         transform="matrix(0.26458333,0,0,0.26458333,-4.9608714,394.26009)"
         id="text1387"
         style="font-size:146.667px;line-height:1.25;font-family:sans-serif;letter-spacing:10px;white-space:pre;shape-inside:url(#rect1478);display:inline;fill:#ffffff"><tspan
           x="276.5918"
           y="413.93695"
           id="tspan6"><tspan
             style="font-family:'Noto Serif';-inkscape-font-specification:'Noto Serif';fill:#000000"
             id="tspan5">CAVAL DI BASTONI</tspan></tspan></text></g><g
       id="g1577"
       transform="matrix(-0.99789475,0,0,-1.0000108,529.39893,980.38448)"
       style="display:inline"><path
         style="display:none;fill:#dc1436;fill-opacity:1;stroke:#000000;stroke-width:4;stroke-linecap:butt;stroke-linejoin:round;stroke-dasharray:none;stroke-opacity:1"
         d="m 116.33309,294.39715 c 27.17052,-25.49522 37.08659,-37.34871 93.59447,-60.09487 20.11182,5.23427 34.18262,10.74922 64.02724,11.03497 27.316,0.26154 44.38843,-14.40084 44.38843,-14.40084 0,0 50.01198,3.18721 63.93215,13.54642 C 468.58404,308.71264 490.68,390.57772 490.68,390.57772 l -0.58869,80.46616 -450.627866,0.52917 -0.339537,-77.24597 c 0,0 48.764976,-73.23955 77.209183,-99.92993 z"
         id="path1529" /><path
         style="display:inline;fill:#f39f33;fill-opacity:1;stroke:#000000;stroke-width:4;stroke-linecap:butt;stroke-linejoin:round;stroke-dasharray:none;stroke-opacity:1"
         d="m 169.78974,252.56868 60.08575,219.00437 h 71.06996 l 81.32993,-227.09022 c 0,0 -9.88863,-12.04762 -61.18239,-15.97833 -22.30563,-1.70931 -23.21572,5.22775 -30.21954,7.31215 -4.31145,1.28312 -61.65995,-2.5012 -68.86464,-5.06111 -7.59865,-2.69989 -52.21907,21.81314 -52.21907,21.81314 z"
         id="path1530" /><path
         style="display:inline;fill:#dc1436;fill-opacity:1;stroke:#000000;stroke-width:4;stroke-linecap:butt;stroke-linejoin:miter;stroke-dasharray:none;stroke-opacity:1"
         d="m 382.27538,244.48283 c 0,0 -68.35954,111.0727 -79.56843,170.91422 -3.58459,19.13721 -1.7615,56.176 -1.7615,56.176 h 190.27304 l -0.53851,-82.56024 c 0,0 -23.22816,-51.58732 -39.64067,-74.39481 -35.92697,-49.9256 -68.76393,-70.13517 -68.76393,-70.13517 z"
         id="path1531" /><path
         style="display:inline;fill:#e7d06c;fill-opacity:1;stroke:#000000;stroke-width:4;stroke-linecap:butt;stroke-linejoin:miter;stroke-dasharray:none;stroke-opacity:1"
         d="m 169.78974,252.56868 c 0,0 46.44719,102.98685 57.65608,162.82837 3.58459,19.13721 2.42967,56.176 2.42967,56.176 H 38.934277 l 0.18963,-82.56024 c 0,0 49.343412,-62.98075 56.962198,-72.41514 43.655805,-54.05926 73.703635,-64.02899 73.703635,-64.02899 z"
         id="path1532" /><path
         style="display:inline;fill:#f39f33;fill-opacity:1;stroke:#000000;stroke-width:4;stroke-linecap:butt;stroke-linejoin:miter;stroke-dasharray:none;stroke-opacity:1"
         d="m 39.123907,383.72114 c 0,0 41.010257,-5.39233 61.552133,-4.34672 23.86376,1.2147 70.62357,12.28423 70.62357,12.28423 0,0 -2.74849,26.66328 1.5119,38.93155 5.54485,15.96702 29.86012,40.98285 29.86012,40.98285 H 38.934277 Z"
         id="path1533" /><path
         style="display:inline;fill:#dc1436;fill-opacity:1;stroke:#000000;stroke-width:4;stroke-linecap:butt;stroke-linejoin:miter;stroke-dasharray:none;stroke-opacity:1"
         d="m 201.91974,395.13719 c 0,0 -41.32394,-20.54551 -49.76098,-6.11964 -2.95041,5.04471 10.39622,14.11749 10.39622,14.11749 0,0 -10.19168,11.12865 -8.26382,17.18569 2.14094,6.72651 18.52035,10.26947 18.52035,10.26947 0,0 -11.96163,16.51352 -7.67813,23.58523 4.32449,7.13937 24.69324,4.1583 24.69324,4.1583 l 1.61052,13.23932 c 3.42683,0 16.06664,0 16.06664,0 10.18272,-8.7714 12.10062,-29.21471 12.10062,-29.21471 z"
         id="path1534" /><path
         style="display:inline;fill:#dc1436;fill-opacity:1;stroke:#000000;stroke-width:4;stroke-linecap:butt;stroke-linejoin:miter;stroke-dasharray:none;stroke-opacity:1"
         d="m 491.02888,383.72114 c 0,0 -49.57348,12.17168 -67.97774,21.35566 -34.0745,17.00365 -33.72686,29.64173 -74.405,66.49413 l 142.57237,0.002 z"
         id="path1535" /><path
         style="display:none;fill:#dc1436;fill-opacity:1;stroke:#000000;stroke-width:4;stroke-linecap:butt;stroke-linejoin:miter;stroke-dasharray:none;stroke-opacity:1"
         d="m 328.23304,395.13719 c 0,0 41.32394,-20.54551 49.76098,-6.11964 2.95041,5.04471 -10.39622,14.11749 -10.39622,14.11749 0,0 10.19168,11.12865 8.26382,17.18569 -2.14094,6.72651 -18.52035,10.26947 -18.52035,10.26947 0,0 11.96163,16.51352 7.67813,23.58523 -4.32449,7.13937 -24.69324,4.1583 -24.69324,4.1583 l -1.61052,13.23932 c -3.42683,0 -16.06664,0 -16.06664,0 -10.18272,-8.7714 -12.10062,-29.21471 -12.10062,-29.21471 z"
         id="path1536" /><path
         style="display:none;fill:#f7ab89;fill-opacity:1;stroke:#000000;stroke-width:4;stroke-linecap:butt;stroke-linejoin:miter;stroke-dasharray:none;stroke-opacity:1"
         d="m 245.32314,223.13928 -15.72575,16.25408 c 0,0 19.41923,7.41358 44.35741,5.94389 33.48,-1.97309 44.38844,-14.40084 44.38844,-14.40084 l -12.76991,-9.88848 c 0,0 -24.52794,15.50388 -38.07314,14.51083 -8.44992,-0.61949 -22.17705,-12.41948 -22.17705,-12.41948 z"
         id="path1538" /><g
         id="g1554"
         style="display:none;stroke:#000000;stroke-width:7.58097;stroke-linecap:round;stroke-linejoin:round;stroke-dasharray:none;stroke-opacity:1;paint-order:normal"
         transform="matrix(-0.72016388,0.39952631,0.50291575,0.90489812,166.64739,-32.348731)"><path
           style="display:inline;fill:#dc1436;fill-opacity:1;stroke:#000000;stroke-width:7.58097;stroke-linecap:round;stroke-linejoin:round;stroke-dasharray:none;stroke-opacity:1;paint-order:normal"
           d="m 138.47853,156.1623 h 86.00244 c 0,0 7.41857,-50.47177 -43.00122,-50.47177 -50.41974,0 -43.00122,50.47177 -43.00122,50.47177 z"
           id="path1539" /><circle
           style="display:inline;fill:#c8ab37;fill-opacity:1;stroke:#000000;stroke-width:7.58097;stroke-linecap:round;stroke-linejoin:round;stroke-dasharray:none;stroke-opacity:1;paint-order:normal"
           id="circle1539"
           cx="181.47974"
           cy="98.721024"
           r="6.9695058" /><path
           id="path1550"
           style="fill:#c8ab37;fill-opacity:1;stroke:#000000;stroke-width:7.58097;stroke-linecap:round;stroke-linejoin:round;stroke-dasharray:none;stroke-opacity:1;paint-order:normal"
           d="m 138.02127,163.91296 7.2192,51.17259 h 36.23913 36.23965 l 7.21919,-51.17259 H 181.4796 Z" /><rect
           style="display:inline;fill:#1f70ab;fill-opacity:1;stroke:#000000;stroke-width:7.58097;stroke-linecap:round;stroke-linejoin:round;stroke-dasharray:none;stroke-opacity:1;paint-order:normal"
           id="rect1550"
           width="103.94265"
           height="11.984084"
           x="129.50842"
           y="151.92899" /><path
           id="path1553"
           style="fill:#c8ab37;fill-opacity:1;stroke:#000000;stroke-width:7.58097;stroke-linecap:round;stroke-linejoin:round;stroke-dasharray:none;stroke-opacity:1;paint-order:normal"
           d="m 145.23995,215.39901 13.77149,227.36704 22.19593,-0.17983 22.19661,-0.17983 14.31527,-227.32084 -36.23991,0.15702 z" /><rect
           style="display:inline;fill:#dc1436;fill-opacity:1;stroke:#000000;stroke-width:7.58097;stroke-linecap:round;stroke-linejoin:round;stroke-dasharray:none;stroke-opacity:1;paint-order:normal"
           id="rect1554"
           width="95.696815"
           height="11.984084"
           x="133.63132"
           y="214.84229"
           transform="translate(1.3654965e-5)" /><path
           style="display:inline;fill:#dc1436;fill-opacity:1;stroke:#000000;stroke-width:7.58097;stroke-linecap:round;stroke-linejoin:round;stroke-dasharray:none;stroke-opacity:1;paint-order:normal"
           d="m 158.97979,442.24357 44.46541,0.14716 c 0,0 3.74922,26.10785 -22.31907,26.02158 -26.06826,-0.0863 -22.14634,-26.16874 -22.14634,-26.16874 z"
           id="path1554" /></g><g
         id="g1558"
         style="display:inline"
         transform="matrix(-0.72016387,0.39952631,0.50291574,0.90489812,166.64739,-32.348732)"><path
           style="display:inline;fill:#1f70ab;fill-opacity:1;stroke:#000000;stroke-width:4.33198;stroke-linejoin:bevel;stroke-dasharray:none;stroke-opacity:1"
           d="m 138.47853,156.1623 h 86.00244 c 0,0 7.41857,-50.47177 -43.00122,-50.47177 -50.41974,0 -43.00122,50.47177 -43.00122,50.47177 z"
           id="path1555" /><circle
           style="display:inline;fill:#e7d06c;fill-opacity:1;stroke:#000000;stroke-width:3.24899;stroke-linejoin:bevel;stroke-dasharray:none;stroke-opacity:1"
           id="circle1555"
           cx="181.47974"
           cy="98.721024"
           r="6.9695058" /><path
           id="path1556"
           style="fill:#e7d06c;fill-opacity:1;stroke:#000000;stroke-width:4.33198;stroke-linejoin:bevel;stroke-dasharray:none;stroke-opacity:1"
           d="m 138.02127,163.91296 7.2192,51.17259 h 36.23913 36.23965 l 7.21919,-51.17259 H 181.4796 Z" /><rect
           style="display:inline;fill:#dc1436;fill-opacity:1;stroke:#000000;stroke-width:3.24899;stroke-linejoin:bevel;stroke-dasharray:none;stroke-opacity:1"
           id="rect1556"
           width="103.94265"
           height="11.984084"
           x="129.50842"
           y="151.92899" /><path
           id="path1557"
           style="fill:#dc1436;fill-opacity:1;stroke:#000000;stroke-width:4.33198;stroke-linejoin:bevel;stroke-dasharray:none;stroke-opacity:1"
           d="m 145.23995,215.39901 13.77149,227.36704 22.19593,-0.17983 22.19661,-0.17983 14.31527,-227.32084 -36.23991,0.15702 z" /><rect
           style="display:inline;fill:#1f70ab;fill-opacity:1;stroke:#000000;stroke-width:3.24899;stroke-linejoin:bevel;stroke-dasharray:none;stroke-opacity:1"
           id="rect1557"
           width="95.696815"
           height="11.984084"
           x="133.63132"
           y="214.84229"
           transform="translate(1.3654965e-5)" /><path
           style="display:inline;fill:#e7d06c;fill-opacity:1;stroke:#000000;stroke-width:3.24899;stroke-linejoin:bevel;stroke-dasharray:none;stroke-opacity:1"
           d="m 158.97979,442.24357 44.46541,0.14716 c 0,0 3.74922,26.10785 -22.31907,26.02158 -26.06826,-0.0863 -22.14634,-26.16874 -22.14634,-26.16874 z"
           id="path1558" /></g><path
         style="fill:#f0aa83;fill-opacity:1;stroke:#000000;stroke-width:4;stroke-linecap:butt;stroke-linejoin:miter;stroke-dasharray:none;stroke-opacity:1"
         d="m 201.91974,395.13717 c 0,0 10.29389,-19.52547 19.27273,-25.02315 6.4488,-3.94856 22.30059,-4.15774 22.30059,-4.15774 0,0 20.22164,2.10605 21.16667,9.82736 0.30508,2.49268 -5.86643,4.72692 -5.86643,4.72692 0,0 7.94362,3.11561 8.55261,6.68173 0.44513,2.6066 -4.2763,6.68174 -4.2763,6.68174 0,0 6.69611,0.61774 7.75081,3.20725 1.02373,2.51346 -3.20723,7.48353 -3.20723,7.48353 0,0 5.23877,3.97329 6.94901,7.48357 1.36795,2.80772 -4.00904,7.48353 -4.00904,7.48353 0,0 -1.79082,-2.62051 -4.81084,-3.47451 -4.89327,-1.38371 -12.02714,1e-5 -12.02714,1e-5 l -34.11078,26.30093 z"
         id="path1559" /><g
         id="g1568"
         transform="translate(-24.647203,0.88564373)"><path
           style="display:inline;fill:#f7ab89;fill-opacity:1;stroke:#000000;stroke-width:4;stroke-linecap:butt;stroke-linejoin:miter;stroke-dasharray:none;stroke-opacity:1"
           d="m 309.907,128.02996 51.59015,1.73899 c 0,0 -0.87237,28.30862 8.40512,52.1698 2.10061,5.40264 -17.38992,0 -17.38992,0 0,0 0.60558,11.13922 -0.57968,16.52043 -0.85683,3.89012 -4.6373,11.01363 -4.6373,11.01363 0,0 4.67228,6.95161 4.05765,10.72379 -0.51364,3.15235 -6.06039,7.42173 -6.06039,7.42173 0,0 -24.01901,4.40332 -35.14972,9.17097 -23.55717,10.09031 -36.79831,1.35964 -36.79831,1.35964 l 10.00577,-62.3582 z"
           id="path1566"
           transform="matrix(1.0021097,0,0,0.99998921,-0.28090575,0.00298075)" /><path
           style="display:inline;fill:#6c5a58;fill-opacity:1;stroke:#000000;stroke-width:4;stroke-linecap:butt;stroke-linejoin:miter;stroke-dasharray:none;stroke-opacity:1"
           d="m 273.34459,238.14894 -26.92754,-8.27954 -32.04386,9.78736 c 0,0 -3.35511,-15.73383 -3.00913,-23.51781 0.44782,-10.07512 11.88312,-27.82389 11.88312,-27.82389 0,0 -2.55245,-13.1639 -1.73899,-19.70859 1.66573,-13.40166 13.33228,-38.25785 13.33228,-38.25785 l 75.06653,-2.31866 -17.38993,44.92399 c 0,0 6.25884,18.44105 4.3475,27.53406 -3.05799,14.54807 -23.51998,37.66093 -23.51998,37.66093 z"
           id="path1567"
           transform="matrix(1.0021097,0,0,0.99998921,-0.28090575,0.00298075)" /><path
           style="display:inline;fill:#1f70ab;fill-opacity:1;stroke:#000000;stroke-width:4;stroke-linecap:butt;stroke-linejoin:miter;stroke-dasharray:none;stroke-opacity:1"
           d="m 234.84047,130.34862 c 0,0 -29.28558,-28.41987 -19.41876,-39.127348 36.48439,-39.592881 129.64871,-38.691558 166.65351,-2.318657 10.87701,10.691272 -20.57807,40.866335 -20.57807,40.866335 z"
           id="path1568"
           transform="matrix(1.0021097,0,0,0.99998921,-0.28090575,0.00298075)" /></g><g
         id="g1576"
         style="display:inline"
         transform="matrix(1.0021097,0,0,0.99998921,-0.28090575,0.53214171)"><path
           style="display:inline;opacity:1;fill:#9b6655;fill-opacity:1;stroke:#000000;stroke-width:4;stroke-linejoin:bevel;stroke-dasharray:none;stroke-opacity:1"
           d="m 490.67998,415.26099 c 0,0 -5.8854,-68.04117 -17.00199,-99.95882 -7.55372,-21.68803 -33.14142,-60.40291 -33.14142,-60.40291 0,0 2.18887,-14.64077 2.26819,-22.01878 0.0888,-8.25719 -2.00813,-24.69147 -2.00813,-24.69147 l -18.89881,31.37203 c 0,0 -15.89698,-6.81186 -25.01127,-7.2464 -7.72616,-0.36836 -23.74766,3.84461 -23.74766,3.84461 L 354.99604,203.6533 c 0,0 -5.97388,16.7911 -4.91371,25.3244 0.84083,6.76786 8.69347,18.52084 8.69347,18.52084 0,0 -13.9012,17.62308 -17.76489,27.97024 -3.56534,9.54818 -4.32336,20.04818 -4.5357,30.23809 -0.13824,6.63411 2.65581,12.11615 2.13027,19.79234 -0.44851,6.55122 -3.7364,15.18477 -4.7761,22.91898 -1.23264,9.1695 0.43556,18.62992 -1.71434,27.70294 -2.19573,9.26645 -10.66969,16.56228 -11.13687,25.96966 -0.49806,10.02914 1.5516,22.0716 9.07145,28.72619 8.25356,7.30388 32.50594,6.04763 32.50594,6.04763 l -14.3631,34.17927 141.89885,-0.52917"
           id="path1569" /><path
           style="fill:#493029;fill-opacity:1;stroke-width:4.99999;stroke-linejoin:bevel"
           d="m 350.19947,424.61541 c -2.63739,-0.47662 -2.59365,-5.10969 -2.13816,-7.75081 0.73927,-4.28664 3.26695,-9.62213 7.48356,-10.69078 2.12415,-0.53834 5.35859,0.81154 5.87991,2.93994 1.51775,6.19657 -4.94727,16.6362 -11.22531,15.50165 z"
           id="path1570" /><path
           style="fill:#493029;fill-opacity:1;stroke-width:4.99999;stroke-linejoin:bevel"
           d="m 396.57341,314.7783 c -2.02621,0.19392 -2.35244,3.63594 -2.26785,5.66965 0.082,1.97038 0.67392,5.26572 2.64583,5.29166 2.14168,0.0282 3.11095,-3.52955 3.02382,-5.66965 -0.0853,-2.09519 -1.31441,-5.49144 -3.4018,-5.29166 z"
           id="path1571" /><path
           style="fill:#493029;fill-opacity:1;stroke-width:4.99999;stroke-linejoin:bevel"
           d="m 385.21178,323.72116 c 0,0 2.38217,-7.26093 5.3454,-9.22081 4.23046,-2.79802 15.10072,-1.87087 15.10072,-1.87087 0,0 -4.90088,0.73842 -13.0962,3.87539 -5.47394,2.09529 -7.34992,7.21629 -7.34992,7.21629 z"
           id="path1572" /><path
           style="fill:#493029;fill-opacity:1;stroke:none;stroke-width:3;stroke-linejoin:bevel;stroke-dasharray:none;stroke-opacity:1"
           d="m 375.93014,402.08246 c 0,0 12.02621,19.61806 19.32035,27.03364 7.48774,7.6124 16.34104,14.40199 26.26934,18.33184 12.60778,4.99045 26.75636,7.14758 40.25448,5.85862 10.25052,-0.97884 29.17491,-10.15413 29.17491,-10.15413 l -0.26924,-4.39795 c 0,0 -18.81754,8.48872 -28.90567,9.26041 -13.22841,1.01191 -27.05077,-1.16334 -39.30952,-6.2366 -9.41931,-3.89817 -17.49216,-10.803 -24.75746,-17.95385 -7.38335,-7.26704 -20.7809,-25.40146 -20.7809,-25.40146 z"
           id="path1573" /><path
           style="fill:#493029;fill-opacity:1;stroke-width:4.99999;stroke-linejoin:bevel"
           d="m 344.28928,278.28825 c 0,0 1.59893,18.53932 3.2375,26.85768 1.75026,8.88536 7.21627,26.19242 7.21627,26.19242 0,0 -9.32569,9.81901 -13.36347,15.23437 -3.0197,4.04994 -8.06712,12.82994 -8.06712,12.82994 l -0.0916,8.03449 c 0,0 6.6448,-12.65815 11.09871,-18.19174 3.55582,-4.41779 12.29439,-11.75986 12.29439,-11.75986 0,0 2.42796,11.07457 4.00904,16.83796 1.75999,6.41554 4.60404,13.21484 8.15173,18.84251 3.79278,6.01646 12.83802,15.99612 12.83802,15.99612 l 4.91493,-6.40347 c 0,0 -9.66807,-8.28592 -13.20938,-13.46806 -3.66972,-5.37004 -4.03658,-8.86323 -6.81538,-17.90705 -1.69921,-5.53019 -3.47448,-19.24342 -3.47448,-19.24342 0,0 5.85269,-7.21357 9.08714,-11.49257 2.96687,-3.925 6.68809,-9.09216 10.42353,-12.29441 5.17774,-4.43868 10.23565,-7.31021 16.30345,-10.42351 6.86193,-3.52075 22.86308,-9.04494 22.86308,-9.04494 l -2.66912,-2.58037 c 0,0 -15.43291,3.96278 -21.79758,6.81445 -6.02406,2.69906 -11.69003,6.2916 -16.83798,10.42352 -3.78321,3.03653 -6.79288,6.92766 -10.15625,10.4235 -3.40789,3.54211 -10.15624,10.69078 -10.15624,10.69078 0,0 -4.32341,-10.37933 -5.87994,-15.7689 -1.818,-6.29492 -2.69254,-12.82482 -4.00904,-19.24338 -0.86835,-4.23359 -3.03822,-13.55921 -3.03822,-13.55921 z"
           id="path1574" /><path
           style="fill:#493029;fill-opacity:1;stroke:none;stroke-width:2;stroke-linejoin:bevel;stroke-dasharray:none;stroke-opacity:1"
           d="m 362.47916,436.94048 c 0,0 9.12151,-7.46384 11.4309,-13.18466 4.23703,-10.49598 2.36639,-17.75478 5.94675,-24.98968 5.76623,-11.65192 12.28255,-17.24944 14.69981,-19.5775 9.95768,-9.59023 30.08474,-15.40719 38.15275,-29.33283 5.25126,-9.06384 4.76808,-39.99455 2.2473,-45.98368 -1.81416,-4.31027 -5.29239,-8.07529 -5.29239,-8.07529 0,0 1.21769,4.62748 2.90333,9.31396 1.80417,5.01603 2.6416,33.81293 -3.06548,43.00776 -8.04072,12.9546 -25.46066,16.98877 -36.34866,27.6624 -6.65604,6.52499 -13.26448,13.90637 -16.30344,22.71789 -2.99202,8.67541 -1.1695,12.13671 -4.81084,22.58428 -2.3505,6.74396 -9.56003,15.85735 -9.56003,15.85735 z"
           id="path1575"
           transform="translate(0.07639736,-0.07586746)" /><path
           style="fill:#493029;fill-opacity:1;stroke:none;stroke-width:4;stroke-linejoin:bevel;stroke-dasharray:none;stroke-opacity:1"
           d="m 340.20306,286.07726 c 0,0 10.71621,-14.77976 19.32587,-16.44816 15.42926,-2.98991 25.8714,0.44705 38.15469,5.0758 14.44747,5.44429 30.75127,23.1269 36.59961,29.86446 0.42758,1.096 1.18235,2.97435 1.18235,2.97435 0,0 -0.88969,-2.6929 -0.50891,-3.67158 -2.27293,-4.87115 -7.83845,-17.74404 -6.78534,-26.60293 1.05628,-8.88554 10.96593,-21.16015 10.96593,-21.16015 0,0 -11.34149,11.89794 -17.88279,8.85226 -5.50059,-2.56111 -5.41234,-9.57812 -3.30729,-17.3869 0.95032,-3.52526 3.59076,-6.3311 3.59076,-6.3311 0,0 -16.34733,-6.43593 -25.01127,-6.96292 -8.00416,-0.48686 -16.50193,1.65533 -24.50361,4.41158 -5.76733,1.98661 -9.10165,6.31955 -12.94568,11.0558 -5.88801,7.25464 -11.54362,15.00626 -16.1585,25.04093 -2.60979,5.67479 -2.71582,11.28856 -2.71582,11.28856 z"
           id="path1576"
           transform="translate(0.07639736,-0.07586746)" /></g></g><g
       id="g1448"
       transform="matrix(0.99789474,0,0,1.0000108,0.28031437,-0.53214746)"
       style="display:inline"><path
         style="display:none;fill:#dc1436;fill-opacity:1;stroke:#000000;stroke-width:4;stroke-linecap:butt;stroke-linejoin:round;stroke-dasharray:none;stroke-opacity:1"
         d="m 116.33309,294.39715 c 27.17052,-25.49522 37.08659,-37.34871 93.59447,-60.09487 20.11182,5.23427 34.18262,10.74922 64.02724,11.03497 27.316,0.26154 44.38843,-14.40084 44.38843,-14.40084 0,0 50.01198,3.18721 63.93215,13.54642 C 468.58404,308.71264 490.68,390.57772 490.68,390.57772 l -0.58869,80.46616 -450.627866,0.52917 -0.339537,-77.24597 c 0,0 48.764976,-73.23955 77.209183,-99.92993 z"
         id="path1387" /><path
         style="display:inline;fill:#f39f33;fill-opacity:1;stroke:#000000;stroke-width:4;stroke-linecap:butt;stroke-linejoin:round;stroke-dasharray:none;stroke-opacity:1"
         d="m 169.78974,252.56868 60.08575,219.00437 h 71.06996 l 81.32993,-227.09022 c 0,0 -9.88863,-12.04762 -61.18239,-15.97833 -22.30563,-1.70931 -23.21572,5.22775 -30.21954,7.31215 -4.31145,1.28312 -61.65995,-2.5012 -68.86464,-5.06111 -7.59865,-2.69989 -52.21907,21.81314 -52.21907,21.81314 z"
         id="path1388" /><path
         style="display:inline;fill:#dc1436;fill-opacity:1;stroke:#000000;stroke-width:4;stroke-linecap:butt;stroke-linejoin:miter;stroke-dasharray:none;stroke-opacity:1"
         d="m 382.27538,244.48283 c 0,0 -68.35954,111.0727 -79.56843,170.91422 -3.58459,19.13721 -1.7615,56.176 -1.7615,56.176 h 190.27304 l -0.53851,-82.56024 c 0,0 -23.22816,-51.58732 -39.64067,-74.39481 -35.92697,-49.9256 -68.76393,-70.13517 -68.76393,-70.13517 z"
         id="path1391" /><path
         style="display:inline;fill:#e7d06c;fill-opacity:1;stroke:#000000;stroke-width:4;stroke-linecap:butt;stroke-linejoin:miter;stroke-dasharray:none;stroke-opacity:1"
         d="m 169.78974,252.56868 c 0,0 46.44719,102.98685 57.65608,162.82837 3.58459,19.13721 2.42967,56.176 2.42967,56.176 H 38.934277 l 0.18963,-82.56024 c 0,0 49.343412,-62.98075 56.962198,-72.41514 43.655805,-54.05926 73.703635,-64.02899 73.703635,-64.02899 z"
         id="path1392" /><path
         style="display:inline;fill:#f39f33;fill-opacity:1;stroke:#000000;stroke-width:4;stroke-linecap:butt;stroke-linejoin:miter;stroke-dasharray:none;stroke-opacity:1"
         d="m 39.123907,383.72114 c 0,0 41.010257,-5.39233 61.552133,-4.34672 23.86376,1.2147 70.62357,12.28423 70.62357,12.28423 0,0 -2.74849,26.66328 1.5119,38.93155 5.54485,15.96702 29.86012,40.98285 29.86012,40.98285 H 38.934277 Z"
         id="path1393" /><path
         style="display:inline;fill:#dc1436;fill-opacity:1;stroke:#000000;stroke-width:4;stroke-linecap:butt;stroke-linejoin:miter;stroke-dasharray:none;stroke-opacity:1"
         d="m 201.91974,395.13719 c 0,0 -41.32394,-20.54551 -49.76098,-6.11964 -2.95041,5.04471 10.39622,14.11749 10.39622,14.11749 0,0 -10.19168,11.12865 -8.26382,17.18569 2.14094,6.72651 18.52035,10.26947 18.52035,10.26947 0,0 -11.96163,16.51352 -7.67813,23.58523 4.32449,7.13937 24.69324,4.1583 24.69324,4.1583 l 1.61052,13.23932 c 3.42683,0 16.06664,0 16.06664,0 10.18272,-8.7714 12.10062,-29.21471 12.10062,-29.21471 z"
         id="path1395" /><path
         style="display:inline;fill:#dc1436;fill-opacity:1;stroke:#000000;stroke-width:4;stroke-linecap:butt;stroke-linejoin:miter;stroke-dasharray:none;stroke-opacity:1"
         d="m 491.02888,383.72114 c 0,0 -49.57348,12.17168 -67.97774,21.35566 -34.0745,17.00365 -33.72686,29.64173 -74.405,66.49413 l 142.57237,0.002 z"
         id="path1396" /><path
         style="display:none;fill:#dc1436;fill-opacity:1;stroke:#000000;stroke-width:4;stroke-linecap:butt;stroke-linejoin:miter;stroke-dasharray:none;stroke-opacity:1"
         d="m 328.23304,395.13719 c 0,0 41.32394,-20.54551 49.76098,-6.11964 2.95041,5.04471 -10.39622,14.11749 -10.39622,14.11749 0,0 10.19168,11.12865 8.26382,17.18569 -2.14094,6.72651 -18.52035,10.26947 -18.52035,10.26947 0,0 11.96163,16.51352 7.67813,23.58523 -4.32449,7.13937 -24.69324,4.1583 -24.69324,4.1583 l -1.61052,13.23932 c -3.42683,0 -16.06664,0 -16.06664,0 -10.18272,-8.7714 -12.10062,-29.21471 -12.10062,-29.21471 z"
         id="path1397" /><path
         style="display:none;fill:#f7ab89;fill-opacity:1;stroke:#000000;stroke-width:4;stroke-linecap:butt;stroke-linejoin:miter;stroke-dasharray:none;stroke-opacity:1"
         d="m 245.32314,223.13928 -15.72575,16.25408 c 0,0 19.41923,7.41358 44.35741,5.94389 33.48,-1.97309 44.38844,-14.40084 44.38844,-14.40084 l -12.76991,-9.88848 c 0,0 -24.52794,15.50388 -38.07314,14.51083 -8.44992,-0.61949 -22.17705,-12.41948 -22.17705,-12.41948 z"
         id="path1398" /><g
         id="g1439"
         style="display:none;stroke:#000000;stroke-width:7.58097;stroke-linecap:round;stroke-linejoin:round;stroke-dasharray:none;stroke-opacity:1;paint-order:normal"
         transform="matrix(-0.72016388,0.39952631,0.50291575,0.90489812,166.64739,-32.348731)"><path
           style="display:inline;fill:#dc1436;fill-opacity:1;stroke:#000000;stroke-width:7.58097;stroke-linecap:round;stroke-linejoin:round;stroke-dasharray:none;stroke-opacity:1;paint-order:normal"
           d="m 138.47853,156.1623 h 86.00244 c 0,0 7.41857,-50.47177 -43.00122,-50.47177 -50.41974,0 -43.00122,50.47177 -43.00122,50.47177 z"
           id="path1408" /><circle
           style="display:inline;fill:#c8ab37;fill-opacity:1;stroke:#000000;stroke-width:7.58097;stroke-linecap:round;stroke-linejoin:round;stroke-dasharray:none;stroke-opacity:1;paint-order:normal"
           id="circle1408"
           cx="181.47974"
           cy="98.721024"
           r="6.9695058" /><path
           id="path1409"
           style="fill:#c8ab37;fill-opacity:1;stroke:#000000;stroke-width:7.58097;stroke-linecap:round;stroke-linejoin:round;stroke-dasharray:none;stroke-opacity:1;paint-order:normal"
           d="m 138.02127,163.91296 7.2192,51.17259 h 36.23913 36.23965 l 7.21919,-51.17259 H 181.4796 Z" /><rect
           style="display:inline;fill:#1f70ab;fill-opacity:1;stroke:#000000;stroke-width:7.58097;stroke-linecap:round;stroke-linejoin:round;stroke-dasharray:none;stroke-opacity:1;paint-order:normal"
           id="rect1438"
           width="103.94265"
           height="11.984084"
           x="129.50842"
           y="151.92899" /><path
           id="path1438"
           style="fill:#c8ab37;fill-opacity:1;stroke:#000000;stroke-width:7.58097;stroke-linecap:round;stroke-linejoin:round;stroke-dasharray:none;stroke-opacity:1;paint-order:normal"
           d="m 145.23995,215.39901 13.77149,227.36704 22.19593,-0.17983 22.19661,-0.17983 14.31527,-227.32084 -36.23991,0.15702 z" /><rect
           style="display:inline;fill:#dc1436;fill-opacity:1;stroke:#000000;stroke-width:7.58097;stroke-linecap:round;stroke-linejoin:round;stroke-dasharray:none;stroke-opacity:1;paint-order:normal"
           id="rect1439"
           width="95.696815"
           height="11.984084"
           x="133.63132"
           y="214.84229"
           transform="translate(1.3654965e-5)" /><path
           style="display:inline;fill:#dc1436;fill-opacity:1;stroke:#000000;stroke-width:7.58097;stroke-linecap:round;stroke-linejoin:round;stroke-dasharray:none;stroke-opacity:1;paint-order:normal"
           d="m 158.97979,442.24357 44.46541,0.14716 c 0,0 3.74922,26.10785 -22.31907,26.02158 -26.06826,-0.0863 -22.14634,-26.16874 -22.14634,-26.16874 z"
           id="path1439" /></g><g
         id="g1445"
         style="display:inline"
         transform="matrix(-0.72016387,0.39952631,0.50291574,0.90489812,166.64739,-32.348732)"><path
           style="display:inline;fill:#1f70ab;fill-opacity:1;stroke:#000000;stroke-width:4.33198;stroke-linejoin:bevel;stroke-dasharray:none;stroke-opacity:1"
           d="m 138.47853,156.1623 h 86.00244 c 0,0 7.41857,-50.47177 -43.00122,-50.47177 -50.41974,0 -43.00122,50.47177 -43.00122,50.47177 z"
           id="path1440" /><circle
           style="display:inline;fill:#e7d06c;fill-opacity:1;stroke:#000000;stroke-width:3.24899;stroke-linejoin:bevel;stroke-dasharray:none;stroke-opacity:1"
           id="circle1440"
           cx="181.47974"
           cy="98.721024"
           r="6.9695058" /><path
           id="path1441"
           style="fill:#e7d06c;fill-opacity:1;stroke:#000000;stroke-width:4.33198;stroke-linejoin:bevel;stroke-dasharray:none;stroke-opacity:1"
           d="m 138.02127,163.91296 7.2192,51.17259 h 36.23913 36.23965 l 7.21919,-51.17259 H 181.4796 Z" /><rect
           style="display:inline;fill:#dc1436;fill-opacity:1;stroke:#000000;stroke-width:3.24899;stroke-linejoin:bevel;stroke-dasharray:none;stroke-opacity:1"
           id="rect1441"
           width="103.94265"
           height="11.984084"
           x="129.50842"
           y="151.92899" /><path
           id="path1444"
           style="fill:#dc1436;fill-opacity:1;stroke:#000000;stroke-width:4.33198;stroke-linejoin:bevel;stroke-dasharray:none;stroke-opacity:1"
           d="m 145.23995,215.39901 13.77149,227.36704 22.19593,-0.17983 22.19661,-0.17983 14.31527,-227.32084 -36.23991,0.15702 z" /><rect
           style="display:inline;fill:#1f70ab;fill-opacity:1;stroke:#000000;stroke-width:3.24899;stroke-linejoin:bevel;stroke-dasharray:none;stroke-opacity:1"
           id="rect1445"
           width="95.696815"
           height="11.984084"
           x="133.63132"
           y="214.84229"
           transform="translate(1.3654965e-5)" /><path
           style="display:inline;fill:#e7d06c;fill-opacity:1;stroke:#000000;stroke-width:3.24899;stroke-linejoin:bevel;stroke-dasharray:none;stroke-opacity:1"
           d="m 158.97979,442.24357 44.46541,0.14716 c 0,0 3.74922,26.10785 -22.31907,26.02158 -26.06826,-0.0863 -22.14634,-26.16874 -22.14634,-26.16874 z"
           id="path1445" /></g><path
         style="fill:#f0aa83;fill-opacity:1;stroke:#000000;stroke-width:4;stroke-linecap:butt;stroke-linejoin:miter;stroke-dasharray:none;stroke-opacity:1"
         d="m 201.91974,395.13717 c 0,0 10.29389,-19.52547 19.27273,-25.02315 6.4488,-3.94856 22.30059,-4.15774 22.30059,-4.15774 0,0 20.22164,2.10605 21.16667,9.82736 0.30508,2.49268 -5.86643,4.72692 -5.86643,4.72692 0,0 7.94362,3.11561 8.55261,6.68173 0.44513,2.6066 -4.2763,6.68174 -4.2763,6.68174 0,0 6.69611,0.61774 7.75081,3.20725 1.02373,2.51346 -3.20723,7.48353 -3.20723,7.48353 0,0 5.23877,3.97329 6.94901,7.48357 1.36795,2.80772 -4.00904,7.48353 -4.00904,7.48353 0,0 -1.79082,-2.62051 -4.81084,-3.47451 -4.89327,-1.38371 -12.02714,1e-5 -12.02714,1e-5 l -34.11078,26.30093 z"
         id="path1448" /><g
         id="g1488"
         transform="translate(-24.647203,0.88564373)"><path
           style="display:inline;fill:#f7ab89;fill-opacity:1;stroke:#000000;stroke-width:4;stroke-linecap:butt;stroke-linejoin:miter;stroke-dasharray:none;stroke-opacity:1"
           d="m 309.907,128.02996 51.59015,1.73899 c 0,0 -0.87237,28.30862 8.40512,52.1698 2.10061,5.40264 -17.38992,0 -17.38992,0 0,0 0.60558,11.13922 -0.57968,16.52043 -0.85683,3.89012 -4.6373,11.01363 -4.6373,11.01363 0,0 4.67228,6.95161 4.05765,10.72379 -0.51364,3.15235 -6.06039,7.42173 -6.06039,7.42173 0,0 -24.01901,4.40332 -35.14972,9.17097 -23.55717,10.09031 -36.79831,1.35964 -36.79831,1.35964 l 10.00577,-62.3582 z"
           id="path1486"
           transform="matrix(1.0021097,0,0,0.99998921,-0.28090575,0.00298075)" /><path
           style="display:inline;fill:#6c5a58;fill-opacity:1;stroke:#000000;stroke-width:4;stroke-linecap:butt;stroke-linejoin:miter;stroke-dasharray:none;stroke-opacity:1"
           d="m 273.34459,238.14894 -26.92754,-8.27954 -32.04386,9.78736 c 0,0 -3.35511,-15.73383 -3.00913,-23.51781 0.44782,-10.07512 11.88312,-27.82389 11.88312,-27.82389 0,0 -2.55245,-13.1639 -1.73899,-19.70859 1.66573,-13.40166 13.33228,-38.25785 13.33228,-38.25785 l 75.06653,-2.31866 -17.38993,44.92399 c 0,0 6.25884,18.44105 4.3475,27.53406 -3.05799,14.54807 -23.51998,37.66093 -23.51998,37.66093 z"
           id="path1487"
           transform="matrix(1.0021097,0,0,0.99998921,-0.28090575,0.00298075)" /><path
           style="display:inline;fill:#1f70ab;fill-opacity:1;stroke:#000000;stroke-width:4;stroke-linecap:butt;stroke-linejoin:miter;stroke-dasharray:none;stroke-opacity:1"
           d="m 234.84047,130.34862 c 0,0 -29.28558,-28.41987 -19.41876,-39.127348 36.48439,-39.592881 129.64871,-38.691558 166.65351,-2.318657 10.87701,10.691272 -20.57807,40.866335 -20.57807,40.866335 z"
           id="path1488"
           transform="matrix(1.0021097,0,0,0.99998921,-0.28090575,0.00298075)" /></g><g
         id="g1485"
         style="display:inline"
         transform="matrix(1.0021097,0,0,0.99998921,-0.28090575,0.53214171)"><path
           style="display:inline;opacity:1;fill:#9b6655;fill-opacity:1;stroke:#000000;stroke-width:4;stroke-linejoin:bevel;stroke-dasharray:none;stroke-opacity:1"
           d="m 490.67998,415.26099 c 0,0 -5.8854,-68.04117 -17.00199,-99.95882 -7.55372,-21.68803 -33.14142,-60.40291 -33.14142,-60.40291 0,0 2.18887,-14.64077 2.26819,-22.01878 0.0888,-8.25719 -2.00813,-24.69147 -2.00813,-24.69147 l -18.89881,31.37203 c 0,0 -15.89698,-6.81186 -25.01127,-7.2464 -7.72616,-0.36836 -23.74766,3.84461 -23.74766,3.84461 L 354.99604,203.6533 c 0,0 -5.97388,16.7911 -4.91371,25.3244 0.84083,6.76786 8.69347,18.52084 8.69347,18.52084 0,0 -13.9012,17.62308 -17.76489,27.97024 -3.56534,9.54818 -4.32336,20.04818 -4.5357,30.23809 -0.13824,6.63411 2.65581,12.11615 2.13027,19.79234 -0.44851,6.55122 -3.7364,15.18477 -4.7761,22.91898 -1.23264,9.1695 0.43556,18.62992 -1.71434,27.70294 -2.19573,9.26645 -10.66969,16.56228 -11.13687,25.96966 -0.49806,10.02914 1.5516,22.0716 9.07145,28.72619 8.25356,7.30388 32.50594,6.04763 32.50594,6.04763 l -14.3631,34.17927 141.89885,-0.52917"
           id="path1478" /><path
           style="fill:#493029;fill-opacity:1;stroke-width:4.99999;stroke-linejoin:bevel"
           d="m 350.19947,424.61541 c -2.63739,-0.47662 -2.59365,-5.10969 -2.13816,-7.75081 0.73927,-4.28664 3.26695,-9.62213 7.48356,-10.69078 2.12415,-0.53834 5.35859,0.81154 5.87991,2.93994 1.51775,6.19657 -4.94727,16.6362 -11.22531,15.50165 z"
           id="path1479" /><path
           style="fill:#493029;fill-opacity:1;stroke-width:4.99999;stroke-linejoin:bevel"
           d="m 396.57341,314.7783 c -2.02621,0.19392 -2.35244,3.63594 -2.26785,5.66965 0.082,1.97038 0.67392,5.26572 2.64583,5.29166 2.14168,0.0282 3.11095,-3.52955 3.02382,-5.66965 -0.0853,-2.09519 -1.31441,-5.49144 -3.4018,-5.29166 z"
           id="path1480" /><path
           style="fill:#493029;fill-opacity:1;stroke-width:4.99999;stroke-linejoin:bevel"
           d="m 385.21178,323.72116 c 0,0 2.38217,-7.26093 5.3454,-9.22081 4.23046,-2.79802 15.10072,-1.87087 15.10072,-1.87087 0,0 -4.90088,0.73842 -13.0962,3.87539 -5.47394,2.09529 -7.34992,7.21629 -7.34992,7.21629 z"
           id="path1481" /><path
           style="fill:#493029;fill-opacity:1;stroke:none;stroke-width:3;stroke-linejoin:bevel;stroke-dasharray:none;stroke-opacity:1"
           d="m 375.93014,402.08246 c 0,0 12.02621,19.61806 19.32035,27.03364 7.48774,7.6124 16.34104,14.40199 26.26934,18.33184 12.60778,4.99045 26.75636,7.14758 40.25448,5.85862 10.25052,-0.97884 29.17491,-10.15413 29.17491,-10.15413 l -0.26924,-4.39795 c 0,0 -18.81754,8.48872 -28.90567,9.26041 -13.22841,1.01191 -27.05077,-1.16334 -39.30952,-6.2366 -9.41931,-3.89817 -17.49216,-10.803 -24.75746,-17.95385 -7.38335,-7.26704 -20.7809,-25.40146 -20.7809,-25.40146 z"
           id="path1482" /><path
           style="fill:#493029;fill-opacity:1;stroke-width:4.99999;stroke-linejoin:bevel"
           d="m 344.28928,278.28825 c 0,0 1.59893,18.53932 3.2375,26.85768 1.75026,8.88536 7.21627,26.19242 7.21627,26.19242 0,0 -9.32569,9.81901 -13.36347,15.23437 -3.0197,4.04994 -8.06712,12.82994 -8.06712,12.82994 l -0.0916,8.03449 c 0,0 6.6448,-12.65815 11.09871,-18.19174 3.55582,-4.41779 12.29439,-11.75986 12.29439,-11.75986 0,0 2.42796,11.07457 4.00904,16.83796 1.75999,6.41554 4.60404,13.21484 8.15173,18.84251 3.79278,6.01646 12.83802,15.99612 12.83802,15.99612 l 4.91493,-6.40347 c 0,0 -9.66807,-8.28592 -13.20938,-13.46806 -3.66972,-5.37004 -4.03658,-8.86323 -6.81538,-17.90705 -1.69921,-5.53019 -3.47448,-19.24342 -3.47448,-19.24342 0,0 5.85269,-7.21357 9.08714,-11.49257 2.96687,-3.925 6.68809,-9.09216 10.42353,-12.29441 5.17774,-4.43868 10.23565,-7.31021 16.30345,-10.42351 6.86193,-3.52075 22.86308,-9.04494 22.86308,-9.04494 l -2.66912,-2.58037 c 0,0 -15.43291,3.96278 -21.79758,6.81445 -6.02406,2.69906 -11.69003,6.2916 -16.83798,10.42352 -3.78321,3.03653 -6.79288,6.92766 -10.15625,10.4235 -3.40789,3.54211 -10.15624,10.69078 -10.15624,10.69078 0,0 -4.32341,-10.37933 -5.87994,-15.7689 -1.818,-6.29492 -2.69254,-12.82482 -4.00904,-19.24338 -0.86835,-4.23359 -3.03822,-13.55921 -3.03822,-13.55921 z"
           id="path1483" /><path
           style="fill:#493029;fill-opacity:1;stroke:none;stroke-width:2;stroke-linejoin:bevel;stroke-dasharray:none;stroke-opacity:1"
           d="m 362.47916,436.94048 c 0,0 9.12151,-7.46384 11.4309,-13.18466 4.23703,-10.49598 2.36639,-17.75478 5.94675,-24.98968 5.76623,-11.65192 12.28255,-17.24944 14.69981,-19.5775 9.95768,-9.59023 30.08474,-15.40719 38.15275,-29.33283 5.25126,-9.06384 4.76808,-39.99455 2.2473,-45.98368 -1.81416,-4.31027 -5.29239,-8.07529 -5.29239,-8.07529 0,0 1.21769,4.62748 2.90333,9.31396 1.80417,5.01603 2.6416,33.81293 -3.06548,43.00776 -8.04072,12.9546 -25.46066,16.98877 -36.34866,27.6624 -6.65604,6.52499 -13.26448,13.90637 -16.30344,22.71789 -2.99202,8.67541 -1.1695,12.13671 -4.81084,22.58428 -2.3505,6.74396 -9.56003,15.85735 -9.56003,15.85735 z"
           id="path1484"
           transform="translate(0.07639736,-0.07586746)" /><path
           style="fill:#493029;fill-opacity:1;stroke:none;stroke-width:4;stroke-linejoin:bevel;stroke-dasharray:none;stroke-opacity:1"
           d="m 340.20306,286.07726 c 0,0 10.71621,-14.77976 19.32587,-16.44816 15.42926,-2.98991 25.8714,0.44705 38.15469,5.0758 14.44747,5.44429 30.75127,23.1269 36.59961,29.86446 0.42758,1.096 1.18235,2.97435 1.18235,2.97435 0,0 -0.88969,-2.6929 -0.50891,-3.67158 -2.27293,-4.87115 -7.83845,-17.74404 -6.78534,-26.60293 1.05628,-8.88554 10.96593,-21.16015 10.96593,-21.16015 0,0 -11.34149,11.89794 -17.88279,8.85226 -5.50059,-2.56111 -5.41234,-9.57812 -3.30729,-17.3869 0.95032,-3.52526 3.59076,-6.3311 3.59076,-6.3311 0,0 -16.34733,-6.43593 -25.01127,-6.96292 -8.00416,-0.48686 -16.50193,1.65533 -24.50361,4.41158 -5.76733,1.98661 -9.10165,6.31955 -12.94568,11.0558 -5.88801,7.25464 -11.54362,15.00626 -16.1585,25.04093 -2.60979,5.67479 -2.71582,11.28856 -2.71582,11.28856 z"
           id="path1485"
           transform="translate(0.07639736,-0.07586746)" /></g></g><rect
       style="display:inline;fill:none;stroke:#000000;stroke-width:3.89609;stroke-dasharray:none;stroke-opacity:1"
       id="rect1475"
       width="451.33173"
       height="37.764404"
       x="39.410522"
       y="471.04193" /><path
       id="path1476"
       style="display:inline;fill:none;fill-opacity:1;stroke:#000000;stroke-width:4;stroke-linejoin:bevel;stroke-dasharray:none;stroke-opacity:1"
       d="M 84.38306,39.04751 A 45.33562,49.009618 0 0 0 39.04751,88.057052 V 892.65504 a 45.33562,49.009618 0 0 0 45.33555,49.00955 H 445.26759 A 45.33562,49.009618 0 0 0 490.6036,892.65504 V 88.057052 A 45.33562,49.009618 0 0 0 445.26759,39.04751 Z"
       transform="translate(0.07639736,-0.07586746)" /></g></svg>
