<?xml version="1.0" encoding="UTF-8" standalone="no"?>
<!-- Created with Inkscape (http://www.inkscape.org/) -->

<svg
   width="530mm"
   height="980mm"
   viewBox="0 0 530 980"
   version="1.1"
   id="svg1"
   xml:space="preserve"
   sodipodi:docname="1_b.svg"
   inkscape:version="1.4 (86a8ad7, 2024-10-11)"
   xmlns:inkscape="http://www.inkscape.org/namespaces/inkscape"
   xmlns:sodipodi="http://sodipodi.sourceforge.net/DTD/sodipodi-0.dtd"
   xmlns:xlink="http://www.w3.org/1999/xlink"
   xmlns="http://www.w3.org/2000/svg"
   xmlns:svg="http://www.w3.org/2000/svg"><sodipodi:namedview
     id="namedview1"
     pagecolor="#ffffff"
     bordercolor="#000000"
     borderopacity="0.25"
     inkscape:showpageshadow="2"
     inkscape:pageopacity="0.0"
     inkscape:pagecheckerboard="0"
     inkscape:deskcolor="#d1d1d1"
     inkscape:document-units="mm"
     inkscape:zoom="0.22003614"
     inkscape:cx="999.83576"
     inkscape:cy="1851.9685"
     inkscape:window-width="1920"
     inkscape:window-height="1017"
     inkscape:window-x="-8"
     inkscape:window-y="32"
     inkscape:window-maximized="1"
     inkscape:current-layer="svg1" /><defs
     id="defs1"><pattern
       xlink:href="#pattern9132"
       id="pattern2029"
       patternTransform="matrix(9.1093692,0,0,9.1093692,262.69725,400.18932)" /><pattern
       patternUnits="userSpaceOnUse"
       width="10"
       height="10"
       style="fill:#000000"
       patternTransform="translate(125,600) scale(2)"
       id="pattern9132"><path
         id="path8348-2"
         style="opacity:1;stroke:none;stroke-width:4.8561;stroke-linecap:square;paint-order:stroke markers fill;stop-color:#000000"
         d="m 5,5 v 5 H 0 Z m 5,5 V 5 H 5 Z M 5,5 V 0 h 5 z M 0,0 v 5 h 5 z" /></pattern><linearGradient
       id="swatch1960"><stop
         style="stop-color:#ffffff;stop-opacity:1;"
         offset="0"
         id="stop1960" /></linearGradient><pattern
       xlink:href="#pattern34-30"
       preserveAspectRatio="xMidYMid"
       id="pattern1956"
       patternTransform="matrix(2,0,0,2,1100,535)"
       x="0"
       y="0" /><pattern
       patternUnits="userSpaceOnUse"
       width="10"
       height="10"
       patternTransform="translate(1100,535) scale(2)"
       preserveAspectRatio="xMidYMid"
       style="fill:#000000"
       id="pattern34-30"><path
         id="path34-4"
         style="paint-order:stroke markers fill;stop-color:#000000"
         d="m 10,9.99997 -5,-2e-5 C 8,9.99997 10,7.99999 10,5 Z m -5,-5 h 5 c -3,0 -5,2 -5,5 z m 0,0 -5,2e-5 c 3,-2e-5 5,1.99996 5,4.99995 z m -5,5 h 5 c -3,0 -5,-2 -5,-5 z M 10,0 5,2e-5 C 8,0 10,1.99998 10,4.99997 Z M 5,5 h 5 C 7,5 5,3 5,0 Z m 0,0 -5,-2e-5 C 3,5 5,3.00002 5,3e-5 Z M 0,0 H 5 C 2,0 0,2 0,5 Z" /></pattern><rect
       x="276.59204"
       y="280.4877"
       width="272.69638"
       height="292.17471"
       id="rect221" /><linearGradient
       id="swatch181"><stop
         style="stop-color:#0f70ff;stop-opacity:1;"
         offset="0"
         id="stop181" /></linearGradient><rect
       x="276.59204"
       y="280.4877"
       width="272.69638"
       height="292.17471"
       id="rect222" /><rect
       x="276.59204"
       y="280.4877"
       width="272.69638"
       height="292.17471"
       id="rect85" /><rect
       x="276.59204"
       y="280.4877"
       width="272.69638"
       height="292.17471"
       id="rect86" /><rect
       x="276.59204"
       y="280.4877"
       width="272.69638"
       height="292.17471"
       id="rect144" /><rect
       x="276.59204"
       y="280.4877"
       width="272.69638"
       height="292.17471"
       id="rect145" /><rect
       x="276.59204"
       y="280.4877"
       width="272.69638"
       height="292.17471"
       id="rect227" /><rect
       x="276.59204"
       y="280.4877"
       width="272.69638"
       height="292.17471"
       id="rect228" /><rect
       x="276.59204"
       y="280.4877"
       width="272.69638"
       height="292.17471"
       id="rect336" /><rect
       x="276.59204"
       y="280.4877"
       width="272.69638"
       height="292.17471"
       id="rect337" /><rect
       x="276.59204"
       y="280.4877"
       width="272.69638"
       height="292.17471"
       id="rect392" /><rect
       x="276.59204"
       y="280.4877"
       width="272.69638"
       height="292.17471"
       id="rect393" /><rect
       x="276.59204"
       y="280.4877"
       width="272.69638"
       height="292.17471"
       id="rect422" /><rect
       x="276.59204"
       y="280.4877"
       width="272.69638"
       height="292.17471"
       id="rect423" /><rect
       x="276.59204"
       y="280.4877"
       width="272.69638"
       height="292.17471"
       id="rect1304" /><rect
       x="276.59204"
       y="280.4877"
       width="272.69638"
       height="292.17471"
       id="rect1305" /><rect
       x="276.59204"
       y="280.4877"
       width="272.69638"
       height="292.17471"
       id="rect1174" /><rect
       x="276.59204"
       y="280.4877"
       width="272.69638"
       height="292.17471"
       id="rect1175" /><rect
       x="276.59204"
       y="280.4877"
       width="272.69638"
       height="292.17471"
       id="rect834" /><rect
       x="276.59204"
       y="280.4877"
       width="272.69638"
       height="292.17471"
       id="rect835" /><rect
       x="276.59204"
       y="280.4877"
       width="272.69638"
       height="292.17471"
       id="rect620" /><rect
       x="276.59204"
       y="280.4877"
       width="272.69638"
       height="292.17471"
       id="rect621" /><rect
       x="276.59204"
       y="280.4877"
       width="272.69638"
       height="292.17471"
       id="rect365" /><rect
       x="276.59204"
       y="280.4877"
       width="272.69638"
       height="292.17471"
       id="rect364" /><rect
       x="276.59204"
       y="280.4877"
       width="272.69638"
       height="292.17471"
       id="rect221-7" /><rect
       x="276.59204"
       y="280.4877"
       width="272.69638"
       height="292.17471"
       id="rect222-6" /><rect
       x="276.59204"
       y="280.4877"
       width="272.69638"
       height="292.17471"
       id="rect190" /><rect
       x="276.59204"
       y="280.4877"
       width="272.69638"
       height="292.17471"
       id="rect189" /><rect
       x="276.59204"
       y="280.4877"
       width="272.69638"
       height="292.17471"
       id="rect234" /><rect
       x="276.59204"
       y="280.4877"
       width="272.69638"
       height="292.17471"
       id="rect235" /><rect
       x="276.59204"
       y="280.4877"
       width="272.69638"
       height="292.17471"
       id="rect885" /><rect
       x="276.59204"
       y="280.4877"
       width="272.69638"
       height="292.17471"
       id="rect886" /><rect
       x="276.59204"
       y="280.4877"
       width="1712.1638"
       height="367.93616"
       id="rect888" /><rect
       x="276.59204"
       y="280.4877"
       width="272.69638"
       height="292.17471"
       id="rect1322" /><rect
       x="276.59204"
       y="280.4877"
       width="272.69638"
       height="292.17471"
       id="rect1323" /><rect
       x="276.59204"
       y="280.4877"
       width="1712.1638"
       height="367.93616"
       id="rect1324" /><rect
       x="276.59204"
       y="280.4877"
       width="272.69638"
       height="292.17471"
       id="rect1395" /><rect
       x="276.59204"
       y="280.4877"
       width="272.69638"
       height="292.17471"
       id="rect1423" /><rect
       x="276.59204"
       y="280.4877"
       width="272.69638"
       height="292.17471"
       id="rect1424" /><rect
       x="276.59204"
       y="280.4877"
       width="272.69638"
       height="292.17471"
       id="rect1425" /><rect
       x="276.59204"
       y="280.4877"
       width="272.69638"
       height="292.17471"
       id="rect1464" /><rect
       x="276.59204"
       y="280.4877"
       width="272.69638"
       height="292.17471"
       id="rect1465" /><rect
       x="276.59204"
       y="280.4877"
       width="272.69638"
       height="292.17471"
       id="rect1466" /><rect
       x="276.59204"
       y="280.4877"
       width="272.69638"
       height="292.17471"
       id="rect591" /><rect
       x="276.59204"
       y="280.4877"
       width="272.69638"
       height="292.17471"
       id="rect592" /><rect
       x="276.59204"
       y="280.4877"
       width="272.69638"
       height="292.17471"
       id="rect593" /><rect
       x="276.59204"
       y="280.4877"
       width="272.69638"
       height="292.17471"
       id="rect803" /><rect
       x="276.59204"
       y="280.4877"
       width="272.69638"
       height="292.17471"
       id="rect804" /><rect
       x="276.59204"
       y="280.4877"
       width="272.69638"
       height="292.17471"
       id="rect805" /><rect
       x="276.59204"
       y="280.4877"
       width="272.69638"
       height="292.17471"
       id="rect903" /><rect
       x="276.59204"
       y="280.4877"
       width="272.69638"
       height="292.17471"
       id="rect904" /><rect
       x="276.59204"
       y="280.4877"
       width="272.69638"
       height="292.17471"
       id="rect905" /><rect
       x="276.59204"
       y="280.4877"
       width="272.69638"
       height="292.17471"
       id="rect1538" /><rect
       x="276.59204"
       y="280.4877"
       width="272.69638"
       height="292.17471"
       id="rect1539" /><rect
       x="276.59204"
       y="280.4877"
       width="1712.1638"
       height="367.93616"
       id="rect1540" /><rect
       x="276.59204"
       y="280.4877"
       width="272.69638"
       height="292.17471"
       id="rect750" /><rect
       x="276.59204"
       y="280.4877"
       width="272.69638"
       height="292.17471"
       id="rect751" /><rect
       x="276.59204"
       y="280.4877"
       width="272.69638"
       height="292.17471"
       id="rect752" /><rect
       x="276.59204"
       y="280.4877"
       width="272.69638"
       height="292.17471"
       id="rect1002" /><rect
       x="276.59204"
       y="280.4877"
       width="272.69638"
       height="292.17471"
       id="rect1003" /><rect
       x="276.59204"
       y="280.4877"
       width="272.69638"
       height="292.17471"
       id="rect537" /><rect
       x="276.59204"
       y="280.4877"
       width="272.69638"
       height="292.17471"
       id="rect538" /><rect
       x="276.59204"
       y="280.4877"
       width="272.69638"
       height="292.17471"
       id="rect539" /><rect
       x="276.59204"
       y="280.4877"
       width="272.69638"
       height="292.17471"
       id="rect540" /><rect
       x="276.59204"
       y="280.4877"
       width="1712.1638"
       height="367.93616"
       id="rect541" /><rect
       x="276.59204"
       y="280.4877"
       width="272.69638"
       height="292.17471"
       id="rect670" /><rect
       x="276.59204"
       y="280.4877"
       width="272.69638"
       height="292.17471"
       id="rect671" /><rect
       x="276.59204"
       y="280.4877"
       width="1712.1638"
       height="367.93616"
       id="rect672" /><rect
       x="276.59204"
       y="280.4877"
       width="272.69638"
       height="292.17471"
       id="rect1476" /><rect
       x="276.59204"
       y="280.4877"
       width="272.69638"
       height="292.17471"
       id="rect1477" /><rect
       x="276.59204"
       y="280.4877"
       width="1712.1638"
       height="367.93616"
       id="rect1478" /><rect
       x="276.59204"
       y="280.4877"
       width="272.69638"
       height="292.17471"
       id="rect1351" /><rect
       x="276.59204"
       y="280.4877"
       width="272.69638"
       height="292.17471"
       id="rect1352" /><rect
       x="276.59204"
       y="280.4877"
       width="1712.1638"
       height="367.93616"
       id="rect1353" /><rect
       x="276.59204"
       y="280.4877"
       width="272.69638"
       height="292.17471"
       id="rect1558" /><rect
       x="276.59204"
       y="280.4877"
       width="272.69638"
       height="292.17471"
       id="rect1559" /><rect
       x="276.59204"
       y="280.4877"
       width="1712.1638"
       height="367.93616"
       id="rect1560" /><rect
       x="276.59204"
       y="280.4877"
       width="272.69638"
       height="292.17471"
       id="rect1913" /><rect
       x="276.59204"
       y="280.4877"
       width="272.69638"
       height="292.17471"
       id="rect1914" /><rect
       x="276.59204"
       y="280.4877"
       width="1712.1638"
       height="367.93616"
       id="rect1915" /><rect
       x="276.59204"
       y="280.4877"
       width="272.69638"
       height="292.17471"
       id="rect579" /><rect
       x="276.59204"
       y="280.4877"
       width="272.69638"
       height="292.17471"
       id="rect586" /><rect
       x="276.59204"
       y="280.4877"
       width="272.69638"
       height="292.17471"
       id="rect916" /><rect
       x="276.59204"
       y="280.4877"
       width="272.69638"
       height="292.17471"
       id="rect917" /><rect
       x="276.59204"
       y="280.4877"
       width="1108.6964"
       height="448.17471"
       id="rect1054" /><rect
       x="276.59204"
       y="280.4877"
       width="272.69638"
       height="292.17471"
       id="rect2219" /><rect
       x="276.59204"
       y="280.4877"
       width="272.69638"
       height="292.17471"
       id="rect2220" /><rect
       x="276.59204"
       y="280.4877"
       width="1712.1638"
       height="367.93616"
       id="rect2221" /><rect
       x="276.59204"
       y="280.4877"
       width="272.69638"
       height="292.17471"
       id="rect2222" /><rect
       x="276.59204"
       y="280.4877"
       width="272.69638"
       height="292.17471"
       id="rect2223" /><rect
       x="276.59204"
       y="280.4877"
       width="1712.1638"
       height="367.93616"
       id="rect2224" /><rect
       x="276.59204"
       y="280.4877"
       width="272.69638"
       height="292.17471"
       id="rect2225" /><rect
       x="276.59204"
       y="280.4877"
       width="272.69638"
       height="292.17471"
       id="rect2226" /><rect
       x="276.59204"
       y="280.4877"
       width="1712.1638"
       height="367.93616"
       id="rect2227" /><rect
       x="276.59204"
       y="280.4877"
       width="272.69638"
       height="292.17471"
       id="rect596" /><rect
       x="276.59204"
       y="280.4877"
       width="272.69638"
       height="292.17471"
       id="rect599" /><rect
       x="276.59204"
       y="280.4877"
       width="272.69638"
       height="292.17471"
       id="rect919" /><rect
       x="276.59204"
       y="280.4877"
       width="272.69638"
       height="292.17471"
       id="rect960" /><rect
       x="276.59204"
       y="280.4877"
       width="1108.6964"
       height="448.17471"
       id="rect1055" /><rect
       x="276.59204"
       y="280.4877"
       width="272.69638"
       height="292.17471"
       id="rect1258" /><rect
       x="276.59204"
       y="280.4877"
       width="272.69638"
       height="292.17471"
       id="rect1259" /><rect
       x="276.59204"
       y="280.4877"
       width="272.69638"
       height="292.17471"
       id="rect1261" /><rect
       x="276.59204"
       y="280.4877"
       width="272.69638"
       height="292.17471"
       id="rect1302" /><rect
       x="276.59204"
       y="280.4877"
       width="272.69638"
       height="292.17471"
       id="rect1438" /><rect
       x="276.59204"
       y="280.4877"
       width="272.69638"
       height="292.17471"
       id="rect1439" /><rect
       x="276.59204"
       y="280.4877"
       width="272.69638"
       height="292.17471"
       id="rect1482" /><rect
       x="276.59204"
       y="280.4877"
       width="272.69638"
       height="292.17471"
       id="rect1555" /><rect
       x="276.59204"
       y="280.4877"
       width="272.69638"
       height="292.17471"
       id="rect1608" /><rect
       x="276.59204"
       y="280.4877"
       width="272.69638"
       height="292.17471"
       id="rect1609" /><rect
       x="276.59204"
       y="280.4877"
       width="272.69638"
       height="292.17471"
       id="rect1647" /><rect
       x="276.59204"
       y="280.4877"
       width="272.69638"
       height="292.17471"
       id="rect1725" /><rect
       x="276.59204"
       y="280.4877"
       width="272.69638"
       height="292.17471"
       id="rect1783" /><rect
       x="276.59204"
       y="280.4877"
       width="2235.6248"
       height="450.56662"
       id="rect716" /><rect
       x="276.59204"
       y="280.4877"
       width="2235.6248"
       height="450.56662"
       id="rect921" /></defs><g
     id="g220"
     style="display:inline"><g
       id="layer1"
       style="display:inline;fill:#ffffff"><path
         id="rect4"
         style="display:inline;fill:#ffffff;fill-opacity:1;stroke:none;stroke-width:2.365;stroke-linejoin:bevel;stroke-opacity:1"
         d="M 53.211222,0 A 53.211304,53.211304 0 0 0 0,53.211222 V 926.78891 a 53.211304,53.211304 0 0 0 53.211222,53.21122 H 476.78847 a 53.211304,53.211304 0 0 0 53.21174,-53.21122 V 53.211222 A 53.211304,53.211304 0 0 0 476.78847,0 Z" /><path
         id="path7"
         style="display:inline;fill:none;fill-opacity:1;stroke:#000000;stroke-width:4;stroke-linejoin:bevel;stroke-dasharray:none;stroke-opacity:1"
         d="M 84.38306,39.04751 A 45.33562,49.009618 0 0 0 39.04751,88.057052 V 892.65504 a 45.33562,49.009618 0 0 0 45.33555,49.00955 H 445.26759 A 45.33562,49.009618 0 0 0 490.6036,892.65504 V 88.057052 A 45.33562,49.009618 0 0 0 445.26759,39.04751 Z" /></g></g><g
     id="g721"
     style="display:inline"><text
       xml:space="preserve"
       transform="matrix(-0.26458333,0,0,-0.26458333,532.81125,1002.2008)"
       id="text600"
       style="font-size:192px;line-height:1.25;font-family:sans-serif;white-space:pre;shape-inside:url(#rect750);display:inline;fill:#ffffff"><tspan
         x="276.5918"
         y="455.18432"
         id="tspan2"><tspan
           style="font-family:Centaur;-inkscape-font-specification:Centaur;fill:#000000"
           id="tspan1">1</tspan></tspan></text><text
       xml:space="preserve"
       transform="matrix(0.26458333,0,0,0.26458333,0,-21.566005)"
       id="text602"
       style="font-size:192px;line-height:1.25;font-family:sans-serif;white-space:pre;shape-inside:url(#rect751);display:inline;fill:#ffffff"><tspan
         x="276.5918"
         y="455.18432"
         id="tspan4"><tspan
           style="font-family:Centaur;-inkscape-font-specification:Centaur;fill:#000000"
           id="tspan3">1</tspan></tspan></text><g
       id="g616"
       style="display:none"
       transform="rotate(23.262743,183.63237,682.38874)"><rect
         style="display:inline;fill:#1f70ab;fill-opacity:1;stroke:none;stroke-width:0.851334;stroke-linejoin:bevel;stroke-dasharray:none;stroke-opacity:0.867537"
         id="rect603"
         width="72.602997"
         height="494.32437"
         x="145.17822"
         y="226.34238" /><path
         style="display:inline;fill:#1f70ab;fill-opacity:1;stroke:none;stroke-width:1.08339;stroke-linejoin:bevel;stroke-dasharray:none;stroke-opacity:0.867537"
         d="m 138.47853,156.1623 h 86.00244 c 0,0 7.41857,-50.47177 -43.00122,-50.47177 -50.41974,0 -43.00122,50.47177 -43.00122,50.47177 z"
         id="path603" /><rect
         style="display:inline;fill:#1f70ab;fill-opacity:1;stroke:none;stroke-width:0.612623;stroke-linejoin:bevel;stroke-dasharray:none;stroke-opacity:0.867537"
         id="rect604"
         width="95.696815"
         height="11.984084"
         x="133.63132"
         y="214.84229" /><rect
         style="display:inline;fill:#dc1436;fill-opacity:1;stroke:none;stroke-width:0.638472;stroke-linejoin:bevel;stroke-dasharray:none;stroke-opacity:0.867537"
         id="rect607"
         width="103.94265"
         height="11.984084"
         x="129.50842"
         y="151.92899" /><path
         style="display:inline;fill:#dc1436;fill-opacity:1;stroke:none;stroke-width:1.08339;stroke-linejoin:bevel;stroke-dasharray:none;stroke-opacity:0.867537"
         d="m 138.47853,156.1623 h 86.00244 c 0,0 7.41857,-50.47177 -43.00122,-50.47177 -50.41974,0 -43.00122,50.47177 -43.00122,50.47177 z"
         id="path607" /><circle
         style="display:inline;fill:#c8ab37;fill-opacity:1;stroke:none;stroke-width:1;stroke-linejoin:bevel;stroke-dasharray:none;stroke-opacity:0.867537"
         id="circle607"
         cx="181.47974"
         cy="98.721024"
         r="6.9695058" /><path
         id="path608"
         style="fill:#c8ab37;fill-opacity:1;stroke:none;stroke-width:1;stroke-linejoin:bevel;stroke-dasharray:none;stroke-opacity:0.867537"
         d="m 138.02127,163.91296 7.2192,51.17259 h 36.23913 36.23965 l 7.21919,-51.17259 H 181.4796 Z" /><rect
         style="display:inline;fill:#dc1436;fill-opacity:1;stroke:none;stroke-width:0.612623;stroke-linejoin:bevel;stroke-dasharray:none;stroke-opacity:0.867537"
         id="rect608"
         width="95.696815"
         height="11.984084"
         x="133.63132"
         y="214.84229" /><rect
         style="display:inline;fill:#1f70ab;fill-opacity:1;stroke:none;stroke-width:0.638472;stroke-linejoin:bevel;stroke-dasharray:none;stroke-opacity:0.867537"
         id="rect609"
         width="103.94265"
         height="11.984084"
         x="129.50842"
         y="151.92899" /><rect
         style="display:inline;fill:#1f70ab;fill-opacity:1;stroke:none;stroke-width:0.612623;stroke-linejoin:bevel;stroke-dasharray:none;stroke-opacity:0.867537"
         id="rect610"
         width="95.696815"
         height="11.984084"
         x="133.63132"
         y="-732.65082"
         transform="scale(1,-1)" /><rect
         style="display:inline;fill:#dc1436;fill-opacity:1;stroke:none;stroke-width:0.638472;stroke-linejoin:bevel;stroke-dasharray:none;stroke-opacity:0.867537"
         id="rect611"
         width="103.94265"
         height="11.984084"
         x="129.50842"
         y="-795.56409"
         transform="scale(1,-1)" /><path
         style="display:inline;fill:#dc1436;fill-opacity:1;stroke:none;stroke-width:1.08339;stroke-linejoin:bevel;stroke-dasharray:none;stroke-opacity:0.867537"
         d="m 138.47853,791.33081 h 86.00244 c 0,0 7.41857,50.47177 -43.00122,50.47177 -50.41974,0 -43.00122,-50.47177 -43.00122,-50.47177 z"
         id="path611" /><circle
         style="display:inline;fill:#dc1436;fill-opacity:1;stroke:none;stroke-width:1;stroke-linejoin:bevel;stroke-dasharray:none;stroke-opacity:0.867537"
         id="circle611"
         cx="181.47974"
         cy="-848.77209"
         r="6.9695058"
         transform="scale(1,-1)" /><path
         id="path612"
         style="fill:#c8ab37;fill-opacity:1;stroke:none;stroke-width:1;stroke-linejoin:bevel;stroke-dasharray:none;stroke-opacity:0.867537"
         d="m 138.02127,783.58015 7.2192,-51.17259 h 36.23913 36.23965 l 7.21919,51.17259 H 181.4796 Z" /><rect
         style="display:inline;fill:#dc1436;fill-opacity:1;stroke:none;stroke-width:0.612623;stroke-linejoin:bevel;stroke-dasharray:none;stroke-opacity:0.867537"
         id="rect612"
         width="95.696815"
         height="11.984084"
         x="133.63132"
         y="-732.65082"
         transform="scale(1,-1)" /><rect
         style="display:inline;fill:#dc1436;fill-opacity:1;stroke:none;stroke-width:0.638472;stroke-linejoin:bevel;stroke-dasharray:none;stroke-opacity:0.867537"
         id="rect613"
         width="103.94265"
         height="11.984084"
         x="129.50842"
         y="-795.56409"
         transform="scale(1,-1)" /><rect
         style="display:none;fill:#000000;fill-opacity:1;stroke:none;stroke-width:0.357985;stroke-linejoin:bevel;stroke-dasharray:none;stroke-opacity:0.867537"
         id="rect614"
         width="1.6483803"
         height="470.78189"
         x="197.86714"
         y="238.1136" /><rect
         style="display:none;fill:#000000;fill-opacity:1;stroke:none;stroke-width:0.378583;stroke-linejoin:bevel;stroke-dasharray:none;stroke-opacity:0.867537"
         id="rect615"
         width="1.843538"
         height="470.78189"
         x="180.55797"
         y="238.1136" /><rect
         style="display:none;fill:#000000;fill-opacity:1;stroke:none;stroke-width:0.357985;stroke-linejoin:bevel;stroke-dasharray:none;stroke-opacity:0.867537"
         id="rect616"
         width="1.6483803"
         height="470.78189"
         x="163.44397"
         y="238.1136" /></g><g
       id="g711"
       style="display:none"
       transform="matrix(-0.91870339,0.39494819,0.39494819,0.91870339,243.67833,-17.049384)"><rect
         style="display:inline;fill:#dc1436;fill-opacity:1;stroke:none;stroke-width:0.851334;stroke-linejoin:bevel;stroke-dasharray:none;stroke-opacity:0.867537"
         id="rect617"
         width="72.602997"
         height="494.32437"
         x="145.17822"
         y="226.34238" /><path
         style="display:inline;fill:#1f70ab;fill-opacity:1;stroke:none;stroke-width:1.08339;stroke-linejoin:bevel;stroke-dasharray:none;stroke-opacity:0.867537"
         d="m 138.47853,156.1623 h 86.00244 c 0,0 7.41857,-50.47177 -43.00122,-50.47177 -50.41974,0 -43.00122,50.47177 -43.00122,50.47177 z"
         id="path617" /><rect
         style="display:inline;fill:#1f70ab;fill-opacity:1;stroke:none;stroke-width:0.612623;stroke-linejoin:bevel;stroke-dasharray:none;stroke-opacity:0.867537"
         id="rect624"
         width="95.696815"
         height="11.984084"
         x="133.63132"
         y="214.84229" /><rect
         style="display:inline;fill:#dc1436;fill-opacity:1;stroke:none;stroke-width:0.638472;stroke-linejoin:bevel;stroke-dasharray:none;stroke-opacity:0.867537"
         id="rect625"
         width="103.94265"
         height="11.984084"
         x="129.50842"
         y="151.92899" /><path
         style="display:inline;fill:#1f70ab;fill-opacity:1;stroke:none;stroke-width:1.08339;stroke-linejoin:bevel;stroke-dasharray:none;stroke-opacity:0.867537"
         d="m 138.47853,156.1623 h 86.00244 c 0,0 7.41857,-50.47177 -43.00122,-50.47177 -50.41974,0 -43.00122,50.47177 -43.00122,50.47177 z"
         id="path636" /><circle
         style="display:inline;fill:#c8ab37;fill-opacity:1;stroke:none;stroke-width:1;stroke-linejoin:bevel;stroke-dasharray:none;stroke-opacity:0.867537"
         id="circle636"
         cx="181.47974"
         cy="98.721024"
         r="6.9695058" /><path
         id="path637"
         style="fill:#c8ab37;fill-opacity:1;stroke:none;stroke-width:1;stroke-linejoin:bevel;stroke-dasharray:none;stroke-opacity:0.867537"
         d="m 138.02127,163.91296 7.2192,51.17259 h 36.23913 36.23965 l 7.21919,-51.17259 H 181.4796 Z" /><rect
         style="display:inline;fill:#1f70ab;fill-opacity:1;stroke:none;stroke-width:0.612623;stroke-linejoin:bevel;stroke-dasharray:none;stroke-opacity:0.867537"
         id="rect666"
         width="95.696815"
         height="11.984084"
         x="133.63132"
         y="214.84229" /><rect
         style="display:inline;fill:#dc1436;fill-opacity:1;stroke:none;stroke-width:0.638472;stroke-linejoin:bevel;stroke-dasharray:none;stroke-opacity:0.867537"
         id="rect667"
         width="103.94265"
         height="11.984084"
         x="129.50842"
         y="151.92899" /><rect
         style="display:inline;fill:#1f70ab;fill-opacity:1;stroke:none;stroke-width:0.612623;stroke-linejoin:bevel;stroke-dasharray:none;stroke-opacity:0.867537"
         id="rect668"
         width="95.696815"
         height="11.984084"
         x="133.63132"
         y="-732.65082"
         transform="scale(1,-1)" /><rect
         style="display:inline;fill:#dc1436;fill-opacity:1;stroke:none;stroke-width:0.638472;stroke-linejoin:bevel;stroke-dasharray:none;stroke-opacity:0.867537"
         id="rect669"
         width="103.94265"
         height="11.984084"
         x="129.50842"
         y="-795.56409"
         transform="scale(1,-1)" /><path
         style="display:inline;fill:#1f70ab;fill-opacity:1;stroke:none;stroke-width:1.08339;stroke-linejoin:bevel;stroke-dasharray:none;stroke-opacity:0.867537"
         d="m 138.47853,791.33081 h 86.00244 c 0,0 7.41857,50.47177 -43.00122,50.47177 -50.41974,0 -43.00122,-50.47177 -43.00122,-50.47177 z"
         id="path678" /><circle
         style="display:inline;fill:#1f70ab;fill-opacity:1;stroke:none;stroke-width:1;stroke-linejoin:bevel;stroke-dasharray:none;stroke-opacity:0.867537"
         id="circle678"
         cx="181.47974"
         cy="-848.77209"
         r="6.9695058"
         transform="scale(1,-1)" /><path
         id="path679"
         style="fill:#c8ab37;fill-opacity:1;stroke:none;stroke-width:1;stroke-linejoin:bevel;stroke-dasharray:none;stroke-opacity:0.867537"
         d="m 138.02127,783.58015 7.2192,-51.17259 h 36.23913 36.23965 l 7.21919,51.17259 H 181.4796 Z" /><rect
         style="display:inline;fill:#1f70ab;fill-opacity:1;stroke:none;stroke-width:0.612623;stroke-linejoin:bevel;stroke-dasharray:none;stroke-opacity:0.867537"
         id="rect707"
         width="95.696815"
         height="11.984084"
         x="133.63132"
         y="-732.65082"
         transform="scale(1,-1)" /><rect
         style="display:inline;fill:#3077a4;fill-opacity:1;stroke:none;stroke-width:0.638472;stroke-linejoin:bevel;stroke-dasharray:none;stroke-opacity:0.867537"
         id="rect708"
         width="103.94265"
         height="11.984084"
         x="129.50842"
         y="-795.56409"
         transform="scale(1,-1)" /><rect
         style="display:none;fill:#000000;fill-opacity:1;stroke:none;stroke-width:0.357985;stroke-linejoin:bevel;stroke-dasharray:none;stroke-opacity:0.867537"
         id="rect709"
         width="1.6483803"
         height="470.78189"
         x="197.86714"
         y="238.1136" /><rect
         style="display:none;fill:#000000;fill-opacity:1;stroke:none;stroke-width:0.378583;stroke-linejoin:bevel;stroke-dasharray:none;stroke-opacity:0.867537"
         id="rect710"
         width="1.843538"
         height="470.78189"
         x="180.55797"
         y="238.1136" /><rect
         style="display:none;fill:#000000;fill-opacity:1;stroke:none;stroke-width:0.357985;stroke-linejoin:bevel;stroke-dasharray:none;stroke-opacity:0.867537"
         id="rect711"
         width="1.6483803"
         height="470.78189"
         x="163.44397"
         y="238.1136" /></g><path
       style="display:none;fill:#c8ab37;fill-opacity:1;stroke:#ffffff;stroke-width:4;stroke-linecap:butt;stroke-linejoin:miter;stroke-dasharray:none;stroke-opacity:1"
       d="m 264.06646,402.70033 37.50598,87.02623 -37.51476,87.26256 -37.43706,-87.09093 z"
       id="path720" /><text
       xml:space="preserve"
       transform="matrix(0.4591074,0,0,0.4591074,116.7092,307.55649)"
       id="text721"
       style="font-size:192px;line-height:1.25;font-family:sans-serif;white-space:pre;shape-inside:url(#rect752);display:none;fill:#ffffff"><tspan
         x="276.5918"
         y="455.18432"
         id="tspan6"><tspan
           style="font-family:Centaur;-inkscape-font-specification:Centaur;fill:#000000"
           id="tspan5">2</tspan></tspan></text><g
       id="g799"
       style="display:none"
       transform="matrix(-1.6045816,0.0051031,0.00433335,2.0193049,555.51474,-76.496597)"><path
         style="display:inline;fill:#1f70ab;fill-opacity:1;stroke:#000000;stroke-width:4.33198;stroke-linejoin:bevel;stroke-dasharray:none;stroke-opacity:1"
         d="m 138.47853,156.1623 h 86.00244 c 0,0 7.41857,-50.47177 -43.00122,-50.47177 -50.41974,0 -43.00122,50.47177 -43.00122,50.47177 z"
         id="path762" /><circle
         style="display:inline;fill:#e7d06c;fill-opacity:1;stroke:#000000;stroke-width:3.24899;stroke-linejoin:bevel;stroke-dasharray:none;stroke-opacity:1"
         id="circle762"
         cx="181.47974"
         cy="98.721024"
         r="6.9695058" /><path
         id="path763"
         style="fill:#e7d06c;fill-opacity:1;stroke:#000000;stroke-width:4.33198;stroke-linejoin:bevel;stroke-dasharray:none;stroke-opacity:1"
         d="m 138.02127,163.91296 7.2192,51.17259 h 36.23913 36.23965 l 7.21919,-51.17259 H 181.4796 Z" /><rect
         style="display:inline;fill:#dc1436;fill-opacity:1;stroke:#000000;stroke-width:3.24899;stroke-linejoin:bevel;stroke-dasharray:none;stroke-opacity:1"
         id="rect793"
         width="103.94265"
         height="11.984084"
         x="129.50842"
         y="151.92899" /><path
         id="path797"
         style="fill:#dc1436;fill-opacity:1;stroke:#000000;stroke-width:4.33198;stroke-linejoin:bevel;stroke-dasharray:none;stroke-opacity:1"
         d="m 145.23995,215.39901 13.77149,227.36704 22.19593,-0.17983 22.19661,-0.17983 14.31527,-227.32084 -36.23991,0.15702 z" /><rect
         style="display:inline;fill:#1f70ab;fill-opacity:1;stroke:#000000;stroke-width:3.24899;stroke-linejoin:bevel;stroke-dasharray:none;stroke-opacity:1"
         id="rect798"
         width="95.696815"
         height="11.984084"
         x="133.63132"
         y="214.84229"
         transform="translate(1.3654965e-5)" /><path
         style="display:inline;fill:#e7d06c;fill-opacity:1;stroke:#000000;stroke-width:3.24899;stroke-linejoin:bevel;stroke-dasharray:none;stroke-opacity:1"
         d="m 158.97979,442.24357 44.46541,0.14716 c 0,0 3.74922,26.10785 -22.31907,26.02158 -26.06826,-0.0863 -22.14634,-26.16874 -22.14634,-26.16874 z"
         id="path799" /></g><g
       id="g687"
       style="display:inline"
       transform="matrix(-1.4957858,-0.58080373,-0.73286406,1.8816273,742.20955,68.587789)"><path
         style="display:inline;fill:#1f70ab;fill-opacity:1;stroke:#000000;stroke-width:4.33198;stroke-linejoin:bevel;stroke-dasharray:none;stroke-opacity:1"
         d="m 138.47853,156.1623 h 86.00244 c 0,0 7.41857,-50.47177 -43.00122,-50.47177 -50.41974,0 -43.00122,50.47177 -43.00122,50.47177 z"
         id="path516" /><circle
         style="display:inline;fill:#e7d06c;fill-opacity:1;stroke:#000000;stroke-width:3.24899;stroke-linejoin:bevel;stroke-dasharray:none;stroke-opacity:1"
         id="circle516"
         cx="181.47974"
         cy="98.721024"
         r="6.9695058" /><path
         id="path529"
         style="fill:#e7d06c;fill-opacity:1;stroke:#000000;stroke-width:4.33198;stroke-linejoin:bevel;stroke-dasharray:none;stroke-opacity:1"
         d="m 138.02127,163.91296 7.2192,51.17259 h 36.23913 36.23965 l 7.21919,-51.17259 H 181.4796 Z" /><rect
         style="display:inline;fill:#dc1436;fill-opacity:1;stroke:#000000;stroke-width:3.24899;stroke-linejoin:bevel;stroke-dasharray:none;stroke-opacity:1"
         id="rect600"
         width="103.94265"
         height="11.984084"
         x="129.50842"
         y="151.92899" /><path
         id="path649"
         style="fill:#dc1436;fill-opacity:1;stroke:#000000;stroke-width:4.33198;stroke-linejoin:bevel;stroke-dasharray:none;stroke-opacity:1"
         d="m 145.23995,215.39901 13.77149,227.36704 22.19593,-0.17983 22.19661,-0.17983 14.31527,-227.32084 -36.23991,0.15702 z" /><rect
         style="display:inline;fill:#1f70ab;fill-opacity:1;stroke:#000000;stroke-width:3.24899;stroke-linejoin:bevel;stroke-dasharray:none;stroke-opacity:1"
         id="rect673"
         width="95.696815"
         height="11.984084"
         x="133.63132"
         y="214.84229"
         transform="translate(1.3654965e-5)" /><path
         style="display:inline;fill:#e7d06c;fill-opacity:1;stroke:#000000;stroke-width:3.24899;stroke-linejoin:bevel;stroke-dasharray:none;stroke-opacity:1"
         d="m 158.97979,442.24357 44.46541,0.14716 c 0,0 3.74922,26.10785 -22.31907,26.02158 -26.06826,-0.0863 -22.14634,-26.16874 -22.14634,-26.16874 z"
         id="path687" /></g><text
       xml:space="preserve"
       transform="matrix(0.0918611,-0.24812471,0.24812471,0.0918611,-45.945603,689.45852)"
       id="text688"
       style="font-size:133.333px;line-height:1.25;font-family:sans-serif;text-align:start;writing-mode:lr-tb;direction:ltr;white-space:pre;shape-inside:url(#rect716);display:inline;fill:#ffffff"
       x="771.5448"
       y="0"><tspan
         x="276.5918"
         y="401.80466"
         id="tspan8"><tspan
           dx="0 0 0 0 0 0 0 0 0 0 0 0 0 0 0 0 0.00010681152"
           style="font-family:Centaur;-inkscape-font-specification:Centaur;fill:#000000"
           id="tspan7">MOLTE VOLTE LE GIUOCATE</tspan></tspan></text><text
       xml:space="preserve"
       transform="matrix(0.09091304,-0.24847365,0.24847365,0.09091304,200.56467,774.04767)"
       id="text716"
       style="font-size:133.333px;line-height:1.25;font-family:sans-serif;text-align:start;writing-mode:lr-tb;direction:ltr;white-space:pre;shape-inside:url(#rect921);display:inline;fill:#ffffff"
       x="771.5448"
       y="0"><tspan
         x="276.5918"
         y="401.80466"
         id="tspan10"><tspan
           style="font-family:Centaur;-inkscape-font-specification:Centaur;fill:#000000"
           id="tspan9">VAN FINIRE A BASTONATE</tspan></tspan></text></g></svg>
