<?xml version="1.0" encoding="UTF-8" standalone="no"?>
<!-- Created with Inkscape (http://www.inkscape.org/) -->

<svg
   width="530mm"
   height="980mm"
   viewBox="0 0 530 980"
   version="1.1"
   id="svg1"
   xml:space="preserve"
   sodipodi:docname="2_b.svg"
   inkscape:version="1.4 (86a8ad7, 2024-10-11)"
   xmlns:inkscape="http://www.inkscape.org/namespaces/inkscape"
   xmlns:sodipodi="http://sodipodi.sourceforge.net/DTD/sodipodi-0.dtd"
   xmlns="http://www.w3.org/2000/svg"
   xmlns:svg="http://www.w3.org/2000/svg"><sodipodi:namedview
     id="namedview1"
     pagecolor="#ffffff"
     bordercolor="#000000"
     borderopacity="0.25"
     inkscape:showpageshadow="2"
     inkscape:pageopacity="0.0"
     inkscape:pagecheckerboard="0"
     inkscape:deskcolor="#d1d1d1"
     inkscape:document-units="mm"
     inkscape:zoom="0.22003614"
     inkscape:cx="999.83576"
     inkscape:cy="1851.9685"
     inkscape:window-width="1920"
     inkscape:window-height="1017"
     inkscape:window-x="-8"
     inkscape:window-y="32"
     inkscape:window-maximized="1"
     inkscape:current-layer="svg1" /><defs
     id="defs1"><rect
       x="276.59204"
       y="280.4877"
       width="272.69638"
       height="292.17471"
       id="rect221" /><linearGradient
       id="swatch181"><stop
         style="stop-color:#0f70ff;stop-opacity:1;"
         offset="0"
         id="stop181" /></linearGradient><rect
       x="276.59204"
       y="280.4877"
       width="272.69638"
       height="292.17471"
       id="rect222" /><rect
       x="276.59204"
       y="280.4877"
       width="272.69638"
       height="292.17471"
       id="rect85" /><rect
       x="276.59204"
       y="280.4877"
       width="272.69638"
       height="292.17471"
       id="rect86" /><rect
       x="276.59204"
       y="280.4877"
       width="272.69638"
       height="292.17471"
       id="rect144" /><rect
       x="276.59204"
       y="280.4877"
       width="272.69638"
       height="292.17471"
       id="rect145" /><rect
       x="276.59204"
       y="280.4877"
       width="272.69638"
       height="292.17471"
       id="rect227" /><rect
       x="276.59204"
       y="280.4877"
       width="272.69638"
       height="292.17471"
       id="rect228" /><rect
       x="276.59204"
       y="280.4877"
       width="272.69638"
       height="292.17471"
       id="rect336" /><rect
       x="276.59204"
       y="280.4877"
       width="272.69638"
       height="292.17471"
       id="rect337" /><rect
       x="276.59204"
       y="280.4877"
       width="272.69638"
       height="292.17471"
       id="rect392" /><rect
       x="276.59204"
       y="280.4877"
       width="272.69638"
       height="292.17471"
       id="rect393" /><rect
       x="276.59204"
       y="280.4877"
       width="272.69638"
       height="292.17471"
       id="rect422" /><rect
       x="276.59204"
       y="280.4877"
       width="272.69638"
       height="292.17471"
       id="rect423" /><rect
       x="276.59204"
       y="280.4877"
       width="272.69638"
       height="292.17471"
       id="rect1304" /><rect
       x="276.59204"
       y="280.4877"
       width="272.69638"
       height="292.17471"
       id="rect1305" /><rect
       x="276.59204"
       y="280.4877"
       width="272.69638"
       height="292.17471"
       id="rect1174" /><rect
       x="276.59204"
       y="280.4877"
       width="272.69638"
       height="292.17471"
       id="rect1175" /><rect
       x="276.59204"
       y="280.4877"
       width="272.69638"
       height="292.17471"
       id="rect834" /><rect
       x="276.59204"
       y="280.4877"
       width="272.69638"
       height="292.17471"
       id="rect835" /><rect
       x="276.59204"
       y="280.4877"
       width="272.69638"
       height="292.17471"
       id="rect620" /><rect
       x="276.59204"
       y="280.4877"
       width="272.69638"
       height="292.17471"
       id="rect621" /><rect
       x="276.59204"
       y="280.4877"
       width="272.69638"
       height="292.17471"
       id="rect365" /><rect
       x="276.59204"
       y="280.4877"
       width="272.69638"
       height="292.17471"
       id="rect364" /><rect
       x="276.59204"
       y="280.4877"
       width="272.69638"
       height="292.17471"
       id="rect221-7" /><rect
       x="276.59204"
       y="280.4877"
       width="272.69638"
       height="292.17471"
       id="rect222-6" /><rect
       x="276.59204"
       y="280.4877"
       width="272.69638"
       height="292.17471"
       id="rect190" /><rect
       x="276.59204"
       y="280.4877"
       width="272.69638"
       height="292.17471"
       id="rect189" /><rect
       x="276.59204"
       y="280.4877"
       width="272.69638"
       height="292.17471"
       id="rect234" /><rect
       x="276.59204"
       y="280.4877"
       width="272.69638"
       height="292.17471"
       id="rect235" /><rect
       x="276.59204"
       y="280.4877"
       width="272.69638"
       height="292.17471"
       id="rect885" /><rect
       x="276.59204"
       y="280.4877"
       width="272.69638"
       height="292.17471"
       id="rect886" /><rect
       x="276.59204"
       y="280.4877"
       width="1712.1638"
       height="367.93616"
       id="rect888" /><rect
       x="276.59204"
       y="280.4877"
       width="272.69638"
       height="292.17471"
       id="rect1322" /><rect
       x="276.59204"
       y="280.4877"
       width="272.69638"
       height="292.17471"
       id="rect1323" /><rect
       x="276.59204"
       y="280.4877"
       width="1712.1638"
       height="367.93616"
       id="rect1324" /><rect
       x="276.59204"
       y="280.4877"
       width="272.69638"
       height="292.17471"
       id="rect1395" /><rect
       x="276.59204"
       y="280.4877"
       width="272.69638"
       height="292.17471"
       id="rect1423" /><rect
       x="276.59204"
       y="280.4877"
       width="272.69638"
       height="292.17471"
       id="rect1424" /><rect
       x="276.59204"
       y="280.4877"
       width="272.69638"
       height="292.17471"
       id="rect1425" /><rect
       x="276.59204"
       y="280.4877"
       width="272.69638"
       height="292.17471"
       id="rect1464" /><rect
       x="276.59204"
       y="280.4877"
       width="272.69638"
       height="292.17471"
       id="rect1465" /><rect
       x="276.59204"
       y="280.4877"
       width="272.69638"
       height="292.17471"
       id="rect1466" /></defs><g
     id="g220"
     style="display:inline"><g
       id="layer1"
       style="display:inline;fill:#ffffff"><path
         id="rect4"
         style="display:inline;fill:#ffffff;fill-opacity:1;stroke:none;stroke-width:2.365;stroke-linejoin:bevel;stroke-opacity:1"
         d="M 53.211222,0 A 53.211304,53.211304 0 0 0 0,53.211222 V 926.78891 a 53.211304,53.211304 0 0 0 53.211222,53.21122 H 476.78847 a 53.211304,53.211304 0 0 0 53.21174,-53.21122 V 53.211222 A 53.211304,53.211304 0 0 0 476.78847,0 Z" /><path
         id="path7"
         style="display:inline;fill:none;fill-opacity:1;stroke:#000000;stroke-width:4;stroke-linejoin:bevel;stroke-dasharray:none;stroke-opacity:1"
         d="M 84.38306,39.04751 A 45.33562,49.009618 0 0 0 39.04751,88.057052 V 892.65504 a 45.33562,49.009618 0 0 0 45.33555,49.00955 H 445.26759 A 45.33562,49.009618 0 0 0 490.6036,892.65504 V 88.057052 A 45.33562,49.009618 0 0 0 445.26759,39.04751 Z" /></g></g><g
     id="g496"
     style="display:inline"><text
       xml:space="preserve"
       transform="matrix(-0.26458333,0,0,-0.26458333,532.81125,1002.2008)"
       id="text229"
       style="font-size:192px;line-height:1.25;font-family:sans-serif;white-space:pre;shape-inside:url(#rect235);display:inline;fill:#ffffff"><tspan
         x="276.5918"
         y="455.18432"
         id="tspan2"><tspan
           style="font-family:Centaur;-inkscape-font-specification:Centaur;fill:#000000"
           id="tspan1">2</tspan></tspan></text><text
       xml:space="preserve"
       transform="matrix(0.26458333,0,0,0.26458333,0,-21.566005)"
       id="text227"
       style="font-size:192px;line-height:1.25;font-family:sans-serif;white-space:pre;shape-inside:url(#rect234);display:inline;fill:#ffffff"><tspan
         x="276.5918"
         y="455.18432"
         id="tspan4"><tspan
           style="font-family:Centaur;-inkscape-font-specification:Centaur;fill:#000000"
           id="tspan3">2</tspan></tspan></text><g
       id="g495"
       style="display:inline"
       transform="rotate(23.262743,183.63237,682.38874)"><rect
         style="display:inline;fill:#1f70ab;fill-opacity:1;stroke:none;stroke-width:0.851334;stroke-linejoin:bevel;stroke-dasharray:none;stroke-opacity:0.867537"
         id="rect369"
         width="72.602997"
         height="494.32437"
         x="145.17822"
         y="226.34238" /><path
         style="display:inline;fill:#1f70ab;fill-opacity:1;stroke:none;stroke-width:1.08339;stroke-linejoin:bevel;stroke-dasharray:none;stroke-opacity:0.867537"
         d="m 138.47853,156.1623 h 86.00244 c 0,0 7.41857,-50.47177 -43.00122,-50.47177 -50.41974,0 -43.00122,50.47177 -43.00122,50.47177 z"
         id="path388" /><rect
         style="display:inline;fill:#1f70ab;fill-opacity:1;stroke:none;stroke-width:0.612623;stroke-linejoin:bevel;stroke-dasharray:none;stroke-opacity:0.867537"
         id="rect406"
         width="95.696815"
         height="11.984084"
         x="133.63132"
         y="214.84229" /><rect
         style="display:inline;fill:#dc1436;fill-opacity:1;stroke:none;stroke-width:0.638472;stroke-linejoin:bevel;stroke-dasharray:none;stroke-opacity:0.867537"
         id="rect407"
         width="103.94265"
         height="11.984084"
         x="129.50842"
         y="151.92899" /><path
         style="display:inline;fill:#dc1436;fill-opacity:1;stroke:none;stroke-width:1.08339;stroke-linejoin:bevel;stroke-dasharray:none;stroke-opacity:0.867537"
         d="m 138.47853,156.1623 h 86.00244 c 0,0 7.41857,-50.47177 -43.00122,-50.47177 -50.41974,0 -43.00122,50.47177 -43.00122,50.47177 z"
         id="path420" /><circle
         style="display:inline;fill:#c8ab37;fill-opacity:1;stroke:none;stroke-width:1;stroke-linejoin:bevel;stroke-dasharray:none;stroke-opacity:0.867537"
         id="circle420"
         cx="181.47974"
         cy="98.721024"
         r="6.9695058" /><path
         id="path421"
         style="fill:#c8ab37;fill-opacity:1;stroke:none;stroke-width:1;stroke-linejoin:bevel;stroke-dasharray:none;stroke-opacity:0.867537"
         d="m 138.02127,163.91296 7.2192,51.17259 h 36.23913 36.23965 l 7.21919,-51.17259 H 181.4796 Z" /><rect
         style="display:inline;fill:#dc1436;fill-opacity:1;stroke:none;stroke-width:0.612623;stroke-linejoin:bevel;stroke-dasharray:none;stroke-opacity:0.867537"
         id="rect448"
         width="95.696815"
         height="11.984084"
         x="133.63132"
         y="214.84229" /><rect
         style="display:inline;fill:#1f70ab;fill-opacity:1;stroke:none;stroke-width:0.638472;stroke-linejoin:bevel;stroke-dasharray:none;stroke-opacity:0.867537"
         id="rect449"
         width="103.94265"
         height="11.984084"
         x="129.50842"
         y="151.92899" /><rect
         style="display:inline;fill:#1f70ab;fill-opacity:1;stroke:none;stroke-width:0.612623;stroke-linejoin:bevel;stroke-dasharray:none;stroke-opacity:0.867537"
         id="rect451"
         width="95.696815"
         height="11.984084"
         x="133.63132"
         y="-732.65082"
         transform="scale(1,-1)" /><rect
         style="display:inline;fill:#dc1436;fill-opacity:1;stroke:none;stroke-width:0.638472;stroke-linejoin:bevel;stroke-dasharray:none;stroke-opacity:0.867537"
         id="rect452"
         width="103.94265"
         height="11.984084"
         x="129.50842"
         y="-795.56409"
         transform="scale(1,-1)" /><path
         style="display:inline;fill:#dc1436;fill-opacity:1;stroke:none;stroke-width:1.08339;stroke-linejoin:bevel;stroke-dasharray:none;stroke-opacity:0.867537"
         d="m 138.47853,791.33081 h 86.00244 c 0,0 7.41857,50.47177 -43.00122,50.47177 -50.41974,0 -43.00122,-50.47177 -43.00122,-50.47177 z"
         id="path462" /><circle
         style="display:inline;fill:#dc1436;fill-opacity:1;stroke:none;stroke-width:1;stroke-linejoin:bevel;stroke-dasharray:none;stroke-opacity:0.867537"
         id="circle462"
         cx="181.47974"
         cy="-848.77209"
         r="6.9695058"
         transform="scale(1,-1)" /><path
         id="path463"
         style="fill:#c8ab37;fill-opacity:1;stroke:none;stroke-width:1;stroke-linejoin:bevel;stroke-dasharray:none;stroke-opacity:0.867537"
         d="m 138.02127,783.58015 7.2192,-51.17259 h 36.23913 36.23965 l 7.21919,51.17259 H 181.4796 Z" /><rect
         style="display:inline;fill:#dc1436;fill-opacity:1;stroke:none;stroke-width:0.612623;stroke-linejoin:bevel;stroke-dasharray:none;stroke-opacity:0.867537"
         id="rect490"
         width="95.696815"
         height="11.984084"
         x="133.63132"
         y="-732.65082"
         transform="scale(1,-1)" /><rect
         style="display:inline;fill:#dc1436;fill-opacity:1;stroke:none;stroke-width:0.638472;stroke-linejoin:bevel;stroke-dasharray:none;stroke-opacity:0.867537"
         id="rect491"
         width="103.94265"
         height="11.984084"
         x="129.50842"
         y="-795.56409"
         transform="scale(1,-1)" /><rect
         style="display:none;fill:#000000;fill-opacity:1;stroke:none;stroke-width:0.357985;stroke-linejoin:bevel;stroke-dasharray:none;stroke-opacity:0.867537"
         id="rect493"
         width="1.6483803"
         height="470.78189"
         x="197.86714"
         y="238.1136" /><rect
         style="display:none;fill:#000000;fill-opacity:1;stroke:none;stroke-width:0.378583;stroke-linejoin:bevel;stroke-dasharray:none;stroke-opacity:0.867537"
         id="rect494"
         width="1.843538"
         height="470.78189"
         x="180.55797"
         y="238.1136" /><rect
         style="display:none;fill:#000000;fill-opacity:1;stroke:none;stroke-width:0.357985;stroke-linejoin:bevel;stroke-dasharray:none;stroke-opacity:0.867537"
         id="rect495"
         width="1.6483803"
         height="470.78189"
         x="163.44397"
         y="238.1136" /></g><g
       id="g1394"
       style="display:inline"
       transform="matrix(-0.91870339,0.39494819,0.39494819,0.91870339,243.67833,-17.049384)"><rect
         style="display:inline;fill:#dc1436;fill-opacity:1;stroke:none;stroke-width:0.851334;stroke-linejoin:bevel;stroke-dasharray:none;stroke-opacity:0.867537"
         id="rect1383"
         width="72.602997"
         height="494.32437"
         x="145.17822"
         y="226.34238" /><path
         style="display:inline;fill:#1f70ab;fill-opacity:1;stroke:none;stroke-width:1.08339;stroke-linejoin:bevel;stroke-dasharray:none;stroke-opacity:0.867537"
         d="m 138.47853,156.1623 h 86.00244 c 0,0 7.41857,-50.47177 -43.00122,-50.47177 -50.41974,0 -43.00122,50.47177 -43.00122,50.47177 z"
         id="path1383" /><rect
         style="display:inline;fill:#1f70ab;fill-opacity:1;stroke:none;stroke-width:0.612623;stroke-linejoin:bevel;stroke-dasharray:none;stroke-opacity:0.867537"
         id="rect1384"
         width="95.696815"
         height="11.984084"
         x="133.63132"
         y="214.84229" /><rect
         style="display:inline;fill:#dc1436;fill-opacity:1;stroke:none;stroke-width:0.638472;stroke-linejoin:bevel;stroke-dasharray:none;stroke-opacity:0.867537"
         id="rect1385"
         width="103.94265"
         height="11.984084"
         x="129.50842"
         y="151.92899" /><path
         style="display:inline;fill:#1f70ab;fill-opacity:1;stroke:none;stroke-width:1.08339;stroke-linejoin:bevel;stroke-dasharray:none;stroke-opacity:0.867537"
         d="m 138.47853,156.1623 h 86.00244 c 0,0 7.41857,-50.47177 -43.00122,-50.47177 -50.41974,0 -43.00122,50.47177 -43.00122,50.47177 z"
         id="path1385" /><circle
         style="display:inline;fill:#c8ab37;fill-opacity:1;stroke:none;stroke-width:1;stroke-linejoin:bevel;stroke-dasharray:none;stroke-opacity:0.867537"
         id="circle1385"
         cx="181.47974"
         cy="98.721024"
         r="6.9695058" /><path
         id="path1386"
         style="fill:#c8ab37;fill-opacity:1;stroke:none;stroke-width:1;stroke-linejoin:bevel;stroke-dasharray:none;stroke-opacity:0.867537"
         d="m 138.02127,163.91296 7.2192,51.17259 h 36.23913 36.23965 l 7.21919,-51.17259 H 181.4796 Z" /><rect
         style="display:inline;fill:#1f70ab;fill-opacity:1;stroke:none;stroke-width:0.612623;stroke-linejoin:bevel;stroke-dasharray:none;stroke-opacity:0.867537"
         id="rect1386"
         width="95.696815"
         height="11.984084"
         x="133.63132"
         y="214.84229" /><rect
         style="display:inline;fill:#dc1436;fill-opacity:1;stroke:none;stroke-width:0.638472;stroke-linejoin:bevel;stroke-dasharray:none;stroke-opacity:0.867537"
         id="rect1387"
         width="103.94265"
         height="11.984084"
         x="129.50842"
         y="151.92899" /><rect
         style="display:inline;fill:#1f70ab;fill-opacity:1;stroke:none;stroke-width:0.612623;stroke-linejoin:bevel;stroke-dasharray:none;stroke-opacity:0.867537"
         id="rect1388"
         width="95.696815"
         height="11.984084"
         x="133.63132"
         y="-732.65082"
         transform="scale(1,-1)" /><rect
         style="display:inline;fill:#dc1436;fill-opacity:1;stroke:none;stroke-width:0.638472;stroke-linejoin:bevel;stroke-dasharray:none;stroke-opacity:0.867537"
         id="rect1389"
         width="103.94265"
         height="11.984084"
         x="129.50842"
         y="-795.56409"
         transform="scale(1,-1)" /><path
         style="display:inline;fill:#1f70ab;fill-opacity:1;stroke:none;stroke-width:1.08339;stroke-linejoin:bevel;stroke-dasharray:none;stroke-opacity:0.867537"
         d="m 138.47853,791.33081 h 86.00244 c 0,0 7.41857,50.47177 -43.00122,50.47177 -50.41974,0 -43.00122,-50.47177 -43.00122,-50.47177 z"
         id="path1389" /><circle
         style="display:inline;fill:#1f70ab;fill-opacity:1;stroke:none;stroke-width:1;stroke-linejoin:bevel;stroke-dasharray:none;stroke-opacity:0.867537"
         id="circle1389"
         cx="181.47974"
         cy="-848.77209"
         r="6.9695058"
         transform="scale(1,-1)" /><path
         id="path1390"
         style="fill:#c8ab37;fill-opacity:1;stroke:none;stroke-width:1;stroke-linejoin:bevel;stroke-dasharray:none;stroke-opacity:0.867537"
         d="m 138.02127,783.58015 7.2192,-51.17259 h 36.23913 36.23965 l 7.21919,51.17259 H 181.4796 Z" /><rect
         style="display:inline;fill:#1f70ab;fill-opacity:1;stroke:none;stroke-width:0.612623;stroke-linejoin:bevel;stroke-dasharray:none;stroke-opacity:0.867537"
         id="rect1390"
         width="95.696815"
         height="11.984084"
         x="133.63132"
         y="-732.65082"
         transform="scale(1,-1)" /><rect
         style="display:inline;fill:#3077a4;fill-opacity:1;stroke:none;stroke-width:0.638472;stroke-linejoin:bevel;stroke-dasharray:none;stroke-opacity:0.867537"
         id="rect1391"
         width="103.94265"
         height="11.984084"
         x="129.50842"
         y="-795.56409"
         transform="scale(1,-1)" /><rect
         style="display:none;fill:#000000;fill-opacity:1;stroke:none;stroke-width:0.357985;stroke-linejoin:bevel;stroke-dasharray:none;stroke-opacity:0.867537"
         id="rect1392"
         width="1.6483803"
         height="470.78189"
         x="197.86714"
         y="238.1136" /><rect
         style="display:none;fill:#000000;fill-opacity:1;stroke:none;stroke-width:0.378583;stroke-linejoin:bevel;stroke-dasharray:none;stroke-opacity:0.867537"
         id="rect1393"
         width="1.843538"
         height="470.78189"
         x="180.55797"
         y="238.1136" /><rect
         style="display:none;fill:#000000;fill-opacity:1;stroke:none;stroke-width:0.357985;stroke-linejoin:bevel;stroke-dasharray:none;stroke-opacity:0.867537"
         id="rect1394"
         width="1.6483803"
         height="470.78189"
         x="163.44397"
         y="238.1136" /></g><path
       style="display:inline;fill:#c8ab37;fill-opacity:1;stroke:#ffffff;stroke-width:4;stroke-linecap:butt;stroke-linejoin:miter;stroke-dasharray:none;stroke-opacity:1"
       d="m 264.06646,402.70033 37.50598,87.02623 -37.51476,87.26256 -37.43706,-87.09093 z"
       id="path1394" /><text
       xml:space="preserve"
       transform="matrix(0.4591074,0,0,0.4591074,116.7092,307.55649)"
       id="text1395"
       style="font-size:192px;line-height:1.25;font-family:sans-serif;white-space:pre;shape-inside:url(#rect1395);display:inline;fill:#ffffff"><tspan
         x="276.5918"
         y="455.18432"
         id="tspan6"><tspan
           style="font-family:Centaur;-inkscape-font-specification:Centaur;fill:#000000"
           id="tspan5">2</tspan></tspan></text></g></svg>
