<?xml version="1.0" encoding="UTF-8" standalone="no"?>
<!-- Created with Inkscape (http://www.inkscape.org/) -->

<svg
   width="530mm"
   height="980mm"
   viewBox="0 0 530 980"
   version="1.1"
   id="svg1"
   xml:space="preserve"
   sodipodi:docname="4_b.svg"
   inkscape:version="1.4 (86a8ad7, 2024-10-11)"
   xmlns:inkscape="http://www.inkscape.org/namespaces/inkscape"
   xmlns:sodipodi="http://sodipodi.sourceforge.net/DTD/sodipodi-0.dtd"
   xmlns="http://www.w3.org/2000/svg"
   xmlns:svg="http://www.w3.org/2000/svg"><sodipodi:namedview
     id="namedview1"
     pagecolor="#ffffff"
     bordercolor="#000000"
     borderopacity="0.25"
     inkscape:showpageshadow="2"
     inkscape:pageopacity="0.0"
     inkscape:pagecheckerboard="0"
     inkscape:deskcolor="#d1d1d1"
     inkscape:document-units="mm"
     inkscape:zoom="0.22003614"
     inkscape:cx="999.83576"
     inkscape:cy="1851.9685"
     inkscape:window-width="1920"
     inkscape:window-height="1017"
     inkscape:window-x="-8"
     inkscape:window-y="32"
     inkscape:window-maximized="1"
     inkscape:current-layer="svg1" /><defs
     id="defs1"><rect
       x="276.59204"
       y="280.4877"
       width="272.69638"
       height="292.17471"
       id="rect221" /><linearGradient
       id="swatch181"><stop
         style="stop-color:#0f70ff;stop-opacity:1;"
         offset="0"
         id="stop181" /></linearGradient><rect
       x="276.59204"
       y="280.4877"
       width="272.69638"
       height="292.17471"
       id="rect222" /><rect
       x="276.59204"
       y="280.4877"
       width="272.69638"
       height="292.17471"
       id="rect85" /><rect
       x="276.59204"
       y="280.4877"
       width="272.69638"
       height="292.17471"
       id="rect86" /><rect
       x="276.59204"
       y="280.4877"
       width="272.69638"
       height="292.17471"
       id="rect144" /><rect
       x="276.59204"
       y="280.4877"
       width="272.69638"
       height="292.17471"
       id="rect145" /><rect
       x="276.59204"
       y="280.4877"
       width="272.69638"
       height="292.17471"
       id="rect227" /><rect
       x="276.59204"
       y="280.4877"
       width="272.69638"
       height="292.17471"
       id="rect228" /><rect
       x="276.59204"
       y="280.4877"
       width="272.69638"
       height="292.17471"
       id="rect336" /><rect
       x="276.59204"
       y="280.4877"
       width="272.69638"
       height="292.17471"
       id="rect337" /><rect
       x="276.59204"
       y="280.4877"
       width="272.69638"
       height="292.17471"
       id="rect392" /><rect
       x="276.59204"
       y="280.4877"
       width="272.69638"
       height="292.17471"
       id="rect393" /><rect
       x="276.59204"
       y="280.4877"
       width="272.69638"
       height="292.17471"
       id="rect422" /><rect
       x="276.59204"
       y="280.4877"
       width="272.69638"
       height="292.17471"
       id="rect423" /><rect
       x="276.59204"
       y="280.4877"
       width="272.69638"
       height="292.17471"
       id="rect1304" /><rect
       x="276.59204"
       y="280.4877"
       width="272.69638"
       height="292.17471"
       id="rect1305" /><rect
       x="276.59204"
       y="280.4877"
       width="272.69638"
       height="292.17471"
       id="rect1174" /><rect
       x="276.59204"
       y="280.4877"
       width="272.69638"
       height="292.17471"
       id="rect1175" /><rect
       x="276.59204"
       y="280.4877"
       width="272.69638"
       height="292.17471"
       id="rect834" /><rect
       x="276.59204"
       y="280.4877"
       width="272.69638"
       height="292.17471"
       id="rect835" /><rect
       x="276.59204"
       y="280.4877"
       width="272.69638"
       height="292.17471"
       id="rect620" /><rect
       x="276.59204"
       y="280.4877"
       width="272.69638"
       height="292.17471"
       id="rect621" /><rect
       x="276.59204"
       y="280.4877"
       width="272.69638"
       height="292.17471"
       id="rect365" /><rect
       x="276.59204"
       y="280.4877"
       width="272.69638"
       height="292.17471"
       id="rect364" /><rect
       x="276.59204"
       y="280.4877"
       width="272.69638"
       height="292.17471"
       id="rect221-7" /><rect
       x="276.59204"
       y="280.4877"
       width="272.69638"
       height="292.17471"
       id="rect222-6" /><rect
       x="276.59204"
       y="280.4877"
       width="272.69638"
       height="292.17471"
       id="rect190" /><rect
       x="276.59204"
       y="280.4877"
       width="272.69638"
       height="292.17471"
       id="rect189" /><rect
       x="276.59204"
       y="280.4877"
       width="272.69638"
       height="292.17471"
       id="rect234" /><rect
       x="276.59204"
       y="280.4877"
       width="272.69638"
       height="292.17471"
       id="rect235" /><rect
       x="276.59204"
       y="280.4877"
       width="272.69638"
       height="292.17471"
       id="rect885" /><rect
       x="276.59204"
       y="280.4877"
       width="272.69638"
       height="292.17471"
       id="rect886" /><rect
       x="276.59204"
       y="280.4877"
       width="1712.1638"
       height="367.93616"
       id="rect888" /><rect
       x="276.59204"
       y="280.4877"
       width="272.69638"
       height="292.17471"
       id="rect1322" /><rect
       x="276.59204"
       y="280.4877"
       width="272.69638"
       height="292.17471"
       id="rect1323" /><rect
       x="276.59204"
       y="280.4877"
       width="1712.1638"
       height="367.93616"
       id="rect1324" /><rect
       x="276.59204"
       y="280.4877"
       width="272.69638"
       height="292.17471"
       id="rect1395" /><rect
       x="276.59204"
       y="280.4877"
       width="272.69638"
       height="292.17471"
       id="rect1423" /><rect
       x="276.59204"
       y="280.4877"
       width="272.69638"
       height="292.17471"
       id="rect1424" /><rect
       x="276.59204"
       y="280.4877"
       width="272.69638"
       height="292.17471"
       id="rect1425" /><rect
       x="276.59204"
       y="280.4877"
       width="272.69638"
       height="292.17471"
       id="rect1464" /><rect
       x="276.59204"
       y="280.4877"
       width="272.69638"
       height="292.17471"
       id="rect1465" /><rect
       x="276.59204"
       y="280.4877"
       width="272.69638"
       height="292.17471"
       id="rect1466" /></defs><g
     id="g220"><g
       id="layer1"
       style="display:inline;fill:#ffffff"><path
         id="rect4"
         style="display:inline;fill:#ffffff;fill-opacity:1;stroke:none;stroke-width:2.365;stroke-linejoin:bevel;stroke-opacity:1"
         d="M 53.211222,0 A 53.211304,53.211304 0 0 0 0,53.211222 V 926.78891 a 53.211304,53.211304 0 0 0 53.211222,53.21122 H 476.78847 a 53.211304,53.211304 0 0 0 53.21174,-53.21122 V 53.211222 A 53.211304,53.211304 0 0 0 476.78847,0 Z" /><path
         id="path7"
         style="display:inline;fill:none;fill-opacity:1;stroke:#000000;stroke-width:4;stroke-linejoin:bevel;stroke-dasharray:none;stroke-opacity:1"
         d="M 84.38306,39.04751 A 45.33562,49.009618 0 0 0 39.04751,88.057052 V 892.65504 a 45.33562,49.009618 0 0 0 45.33555,49.00955 H 445.26759 A 45.33562,49.009618 0 0 0 490.6036,892.65504 V 88.057052 A 45.33562,49.009618 0 0 0 445.26759,39.04751 Z" /></g></g><g
     id="g1464"
     style="display:inline"><text
       xml:space="preserve"
       transform="matrix(-0.26458333,0,0,-0.26458333,532.81125,1002.2008)"
       id="text1438"
       style="font-size:192px;line-height:1.25;font-family:sans-serif;white-space:pre;shape-inside:url(#rect1464);display:inline;fill:#ffffff"><tspan
         x="276.5918"
         y="455.18432"
         id="tspan2"><tspan
           style="font-family:Centaur;-inkscape-font-specification:Centaur;fill:#000000"
           id="tspan1">4</tspan></tspan></text><text
       xml:space="preserve"
       transform="matrix(0.26458333,0,0,0.26458333,0,-21.566005)"
       id="text1440"
       style="font-size:192px;line-height:1.25;font-family:sans-serif;white-space:pre;shape-inside:url(#rect1465);display:inline;fill:#ffffff"><tspan
         x="276.5918"
         y="455.18432"
         id="tspan4"><tspan
           style="font-family:Centaur;-inkscape-font-specification:Centaur;fill:#000000"
           id="tspan3">4</tspan></tspan></text><g
       id="g1451"
       style="display:inline"
       transform="matrix(0.8851879,0.38053997,-0.38053997,0.8851879,332.49399,16.569613)"><rect
         style="display:inline;fill:#1f70ab;fill-opacity:1;stroke:none;stroke-width:0.851334;stroke-linejoin:bevel;stroke-dasharray:none;stroke-opacity:0.867537"
         id="rect1440"
         width="72.602997"
         height="494.32437"
         x="145.17822"
         y="226.34238" /><path
         style="display:inline;fill:#dc1436;fill-opacity:1;stroke:none;stroke-width:0.275949px;stroke-linecap:butt;stroke-linejoin:miter;stroke-opacity:1"
         d="m 218.08194,720.53749 -1e-5,-31.98371 -72.95929,-69.70923 v 101.69293 z"
         id="path213" /><path
         style="display:inline;fill:#1f70ab;fill-opacity:1;stroke:none;stroke-width:1.08339;stroke-linejoin:bevel;stroke-dasharray:none;stroke-opacity:0.867537"
         d="m 138.47853,156.1623 h 86.00244 c 0,0 7.41857,-50.47177 -43.00122,-50.47177 -50.41974,0 -43.00122,50.47177 -43.00122,50.47177 z"
         id="path1442" /><circle
         style="display:inline;fill:#c8ab37;fill-opacity:1;stroke:none;stroke-width:1;stroke-linejoin:bevel;stroke-dasharray:none;stroke-opacity:0.867537"
         id="circle1442"
         cx="181.47974"
         cy="98.721024"
         r="6.9695058" /><path
         id="path1443"
         style="fill:#c8ab37;fill-opacity:1;stroke:none;stroke-width:1;stroke-linejoin:bevel;stroke-dasharray:none;stroke-opacity:0.867537"
         d="m 138.02127,163.91296 7.2192,51.17259 h 36.23913 36.23965 l 7.21919,-51.17259 H 181.4796 Z" /><rect
         style="display:inline;fill:#1f70ab;fill-opacity:1;stroke:none;stroke-width:0.612623;stroke-linejoin:bevel;stroke-dasharray:none;stroke-opacity:0.867537"
         id="rect1443"
         width="95.696815"
         height="11.984084"
         x="133.63132"
         y="214.84229" /><rect
         style="display:inline;fill:#1f70ab;fill-opacity:1;stroke:none;stroke-width:0.64106;stroke-linejoin:bevel;stroke-dasharray:none;stroke-opacity:0.867537"
         id="rect1444"
         width="104.36403"
         height="12.032667"
         x="129.29773"
         y="151.90469" /><path
         style="display:inline;fill:#1f70ab;fill-opacity:1;stroke:none;stroke-width:1.08339;stroke-linejoin:bevel;stroke-dasharray:none;stroke-opacity:0.867537"
         d="m 138.47853,791.33081 h 86.00244 c 0,0 7.41857,50.47177 -43.00122,50.47177 -50.41974,0 -43.00122,-50.47177 -43.00122,-50.47177 z"
         id="path1446" /><circle
         style="display:inline;fill:#c8ab37;fill-opacity:1;stroke:none;stroke-width:1;stroke-linejoin:bevel;stroke-dasharray:none;stroke-opacity:0.867537"
         id="circle1446"
         cx="181.47974"
         cy="-848.77209"
         r="6.9695058"
         transform="scale(1,-1)" /><path
         id="path1447"
         style="fill:#c8ab37;fill-opacity:1;stroke:none;stroke-width:1;stroke-linejoin:bevel;stroke-dasharray:none;stroke-opacity:0.867537"
         d="m 138.02127,783.58015 7.2192,-51.17259 h 36.23913 36.23965 l 7.21919,51.17259 H 181.4796 Z" /><rect
         style="display:inline;fill:#1f70ab;fill-opacity:1;stroke:none;stroke-width:0.64949;stroke-linejoin:bevel;stroke-dasharray:none;stroke-opacity:0.867537"
         id="rect1447"
         width="95.696823"
         height="13.469859"
         x="122.9734"
         y="-735.99512"
         transform="matrix(0.9998909,-0.01477101,-0.01464025,-0.99989283,0,0)" /><rect
         style="display:inline;fill:#1f70ab;fill-opacity:1;stroke:none;stroke-width:0.638472;stroke-linejoin:bevel;stroke-dasharray:none;stroke-opacity:0.867537"
         id="rect1448"
         width="103.94265"
         height="11.984084"
         x="129.50842"
         y="-795.56409"
         transform="scale(1,-1)" /></g><g
       id="g1463"
       style="display:inline"
       transform="matrix(-0.88518789,0.38053997,0.38053997,0.88518789,197.13656,16.56958)"><rect
         style="display:inline;fill:#dc1436;fill-opacity:1;stroke:none;stroke-width:0.851334;stroke-linejoin:bevel;stroke-dasharray:none;stroke-opacity:0.867537"
         id="rect1452"
         width="72.602997"
         height="494.32437"
         x="145.17822"
         y="226.34238" /><path
         style="display:inline;fill:#dc1436;fill-opacity:1;stroke:none;stroke-width:1.08339;stroke-linejoin:bevel;stroke-dasharray:none;stroke-opacity:0.867537"
         d="m 138.47853,156.1623 h 86.00244 c 0,0 7.41857,-50.47177 -43.00122,-50.47177 -50.41974,0 -43.00122,50.47177 -43.00122,50.47177 z"
         id="path1454" /><path
         style="display:inline;fill:#1f70ab;fill-opacity:1;stroke:none;stroke-width:0.275949px;stroke-linecap:butt;stroke-linejoin:miter;stroke-opacity:1"
         d="m 217.76883,720.76108 -1e-5,-31.98371 -72.95929,-69.70923 v 101.69293 z"
         id="path214" /><circle
         style="display:inline;fill:#c8ab37;fill-opacity:1;stroke:none;stroke-width:1;stroke-linejoin:bevel;stroke-dasharray:none;stroke-opacity:0.867537"
         id="circle1454"
         cx="181.47974"
         cy="98.721024"
         r="6.9695058" /><path
         id="path1455"
         style="fill:#c8ab37;fill-opacity:1;stroke:none;stroke-width:1;stroke-linejoin:bevel;stroke-dasharray:none;stroke-opacity:0.867537"
         d="m 138.02127,163.91296 7.2192,51.17259 h 36.23913 36.23965 l 7.21919,-51.17259 H 181.4796 Z" /><rect
         style="display:inline;fill:#dc1436;fill-opacity:1;stroke:none;stroke-width:0.612623;stroke-linejoin:bevel;stroke-dasharray:none;stroke-opacity:1"
         id="rect1455"
         width="95.696815"
         height="11.984084"
         x="133.63132"
         y="214.84229" /><rect
         style="display:inline;fill:#dc1436;fill-opacity:1;stroke:none;stroke-width:0.638472;stroke-linejoin:bevel;stroke-dasharray:none;stroke-opacity:1"
         id="rect1456"
         width="103.94265"
         height="11.984084"
         x="129.50842"
         y="151.92899" /><path
         style="display:inline;fill:#1f70ab;fill-opacity:1;stroke:none;stroke-width:1.08339;stroke-linejoin:bevel;stroke-dasharray:none;stroke-opacity:0.867537"
         d="m 138.47853,791.33081 h 86.00244 c 0,0 7.41857,50.47177 -43.00122,50.47177 -50.41974,0 -43.00122,-50.47177 -43.00122,-50.47177 z"
         id="path1458" /><circle
         style="display:inline;fill:#c8ab37;fill-opacity:1;stroke:none;stroke-width:1;stroke-linejoin:bevel;stroke-dasharray:none;stroke-opacity:0.867537"
         id="circle1458"
         cx="181.47974"
         cy="-848.77209"
         r="6.9695058"
         transform="scale(1,-1)" /><path
         id="path1459"
         style="fill:#c8ab37;fill-opacity:1;stroke:none;stroke-width:1;stroke-linejoin:bevel;stroke-dasharray:none;stroke-opacity:0.867537"
         d="m 138.02127,783.58015 7.2192,-51.17259 h 36.23913 36.23965 l 7.21919,51.17259 H 181.4796 Z" /><rect
         style="display:inline;fill:#dc1436;fill-opacity:1;stroke:none;stroke-width:0.612623;stroke-linejoin:bevel;stroke-dasharray:none;stroke-opacity:0.867537"
         id="rect1459"
         width="95.696815"
         height="11.984084"
         x="133.63132"
         y="-732.65082"
         transform="scale(1,-1)" /><rect
         style="display:inline;fill:#1f70ab;fill-opacity:1;stroke:none;stroke-width:0.638472;stroke-linejoin:bevel;stroke-dasharray:none;stroke-opacity:0.867537"
         id="rect1460"
         width="103.94265"
         height="11.984084"
         x="129.50842"
         y="-795.56409"
         transform="scale(1,-1)" /></g><g
       id="g1501"
       style="display:inline"
       transform="matrix(0.8851879,0.38053997,-0.38053997,0.8851879,240.53784,-22.978348)"><rect
         style="display:inline;fill:#dc1436;fill-opacity:1;stroke:none;stroke-width:0.851334;stroke-linejoin:bevel;stroke-dasharray:none;stroke-opacity:0.867537"
         id="rect1490"
         width="72.602997"
         height="494.32437"
         x="145.17822"
         y="226.34238" /><path
         style="display:inline;fill:#dc1436;fill-opacity:1;stroke:none;stroke-width:1.08339;stroke-linejoin:bevel;stroke-dasharray:none;stroke-opacity:0.867537"
         d="m 138.47853,156.1623 h 86.00244 c 0,0 7.41857,-50.47177 -43.00122,-50.47177 -50.41974,0 -43.00122,50.47177 -43.00122,50.47177 z"
         id="path1492" /><circle
         style="display:inline;fill:#c8ab37;fill-opacity:1;stroke:none;stroke-width:1;stroke-linejoin:bevel;stroke-dasharray:none;stroke-opacity:0.867537"
         id="circle1492"
         cx="181.47974"
         cy="98.721024"
         r="6.9695058" /><path
         id="path1493"
         style="fill:#c8ab37;fill-opacity:1;stroke:none;stroke-width:1;stroke-linejoin:bevel;stroke-dasharray:none;stroke-opacity:0.867537"
         d="m 138.02127,163.91296 7.2192,51.17259 h 36.23913 36.23965 l 7.21919,-51.17259 H 181.4796 Z" /><path
         style="display:inline;fill:#1f70ab;fill-opacity:1;stroke:none;stroke-width:0.277377px;stroke-linecap:butt;stroke-linejoin:miter;stroke-opacity:1"
         d="m 217.78122,720.82448 -73.33689,-10e-6 -2e-5,-200.99537 73.33691,69.50639 z"
         id="path216" /><rect
         style="display:inline;fill:#dc1436;fill-opacity:1;stroke:none;stroke-width:0.612623;stroke-linejoin:bevel;stroke-dasharray:none;stroke-opacity:0.867537"
         id="rect1493"
         width="95.696815"
         height="11.984084"
         x="133.63132"
         y="214.84229" /><rect
         style="display:inline;fill:#dc1436;fill-opacity:1;stroke:none;stroke-width:0.642506;stroke-linejoin:bevel;stroke-dasharray:none;stroke-opacity:0.867537"
         id="rect1494"
         width="104.5993"
         height="12.059793"
         x="129.1801"
         y="151.89113" /><path
         style="display:inline;fill:#1f70ab;fill-opacity:1;stroke:none;stroke-width:1.08339;stroke-linejoin:bevel;stroke-dasharray:none;stroke-opacity:0.867537"
         d="m 138.47853,791.33081 h 86.00244 c 0,0 7.41857,50.47177 -43.00122,50.47177 -50.41974,0 -43.00122,-50.47177 -43.00122,-50.47177 z"
         id="path1496" /><circle
         style="display:inline;fill:#c8ab37;fill-opacity:1;stroke:none;stroke-width:1;stroke-linejoin:bevel;stroke-dasharray:none;stroke-opacity:0.867537"
         id="circle1496"
         cx="181.47974"
         cy="-848.77209"
         r="6.9695058"
         transform="scale(1,-1)" /><path
         id="path1497"
         style="fill:#c8ab37;fill-opacity:1;stroke:none;stroke-width:1;stroke-linejoin:bevel;stroke-dasharray:none;stroke-opacity:0.867537"
         d="m 138.02127,783.58015 7.2192,-51.17259 h 36.23913 36.23965 l 7.21919,51.17259 H 181.4796 Z" /><rect
         style="display:inline;fill:#dc1436;fill-opacity:1;stroke:none;stroke-width:0.612623;stroke-linejoin:bevel;stroke-dasharray:none;stroke-opacity:0.867537"
         id="rect1497"
         width="95.696815"
         height="11.984084"
         x="134.13586"
         y="-732.4339"
         transform="scale(1,-1)" /><rect
         style="display:inline;fill:#1f70ab;fill-opacity:1;stroke:none;stroke-width:0.638472;stroke-linejoin:bevel;stroke-dasharray:none;stroke-opacity:0.867537"
         id="rect1498"
         width="103.94265"
         height="11.984084"
         x="129.50842"
         y="-795.56409"
         transform="scale(1,-1)" /></g><g
       id="g1513"
       style="display:inline"
       transform="matrix(-0.88518789,0.38053998,0.38053998,0.88518789,289.08661,-22.945525)"><rect
         style="display:inline;fill:#1f70ab;fill-opacity:1;stroke:none;stroke-width:0.851334;stroke-linejoin:bevel;stroke-dasharray:none;stroke-opacity:0.867537"
         id="rect1502"
         width="72.602997"
         height="494.32437"
         x="145.17822"
         y="226.34238" /><path
         style="display:inline;fill:#dc1436;fill-opacity:1;stroke:none;stroke-width:0.277377px;stroke-linecap:butt;stroke-linejoin:miter;stroke-opacity:1"
         d="m 218.27437,721.61821 -73.3369,-10e-6 -1e-5,-200.99537 73.3369,69.50638 z"
         id="path215" /><path
         style="display:inline;fill:#1f70ab;fill-opacity:1;stroke:none;stroke-width:1.08339;stroke-linejoin:bevel;stroke-dasharray:none;stroke-opacity:0.867537"
         d="m 138.47853,156.1623 h 86.00244 c 0,0 7.41857,-50.47177 -43.00122,-50.47177 -50.41974,0 -43.00122,50.47177 -43.00122,50.47177 z"
         id="path1502" /><path
         style="display:inline;fill:#1f70ab;fill-opacity:1;stroke:none;stroke-width:1.08339;stroke-linejoin:bevel;stroke-dasharray:none;stroke-opacity:0.867537"
         d="m 138.47853,156.1623 h 86.00244 c 0,0 7.41857,-50.47177 -43.00122,-50.47177 -50.41974,0 -43.00122,50.47177 -43.00122,50.47177 z"
         id="path1504" /><circle
         style="display:inline;fill:#c8ab37;fill-opacity:1;stroke:none;stroke-width:1;stroke-linejoin:bevel;stroke-dasharray:none;stroke-opacity:0.867537"
         id="circle1504"
         cx="181.47974"
         cy="98.721024"
         r="6.9695058" /><path
         id="path1505"
         style="fill:#c8ab37;fill-opacity:1;stroke:none;stroke-width:1;stroke-linejoin:bevel;stroke-dasharray:none;stroke-opacity:0.867537"
         d="m 138.02127,163.91296 7.2192,51.17259 h 36.23913 36.23965 l 7.21919,-51.17259 H 181.4796 Z" /><rect
         style="display:inline;fill:#1f70ab;fill-opacity:1;stroke:none;stroke-width:0.612623;stroke-linejoin:bevel;stroke-dasharray:none;stroke-opacity:0.867537"
         id="rect1505"
         width="95.696815"
         height="11.984084"
         x="133.63132"
         y="214.84229" /><rect
         style="display:inline;fill:#1f70ab;fill-opacity:1;stroke:none;stroke-width:0.638472;stroke-linejoin:bevel;stroke-dasharray:none;stroke-opacity:0.867537"
         id="rect1506"
         width="103.94265"
         height="11.984084"
         x="129.50842"
         y="151.92899" /><path
         style="display:inline;fill:#1f70ab;fill-opacity:1;stroke:none;stroke-width:1.08339;stroke-linejoin:bevel;stroke-dasharray:none;stroke-opacity:0.867537"
         d="m 138.47853,791.33081 h 86.00244 c 0,0 7.41857,50.47177 -43.00122,50.47177 -50.41974,0 -43.00122,-50.47177 -43.00122,-50.47177 z"
         id="path1508" /><circle
         style="display:inline;fill:#c8ab37;fill-opacity:1;stroke:none;stroke-width:1;stroke-linejoin:bevel;stroke-dasharray:none;stroke-opacity:0.867537"
         id="circle1508"
         cx="181.47974"
         cy="-848.77209"
         r="6.9695058"
         transform="scale(1,-1)" /><path
         id="path1509"
         style="fill:#c8ab37;fill-opacity:1;stroke:none;stroke-width:1;stroke-linejoin:bevel;stroke-dasharray:none;stroke-opacity:0.867537"
         d="m 138.02127,783.58015 7.2192,-51.17259 h 36.23913 36.23965 l 7.21919,51.17259 H 181.4796 Z" /><rect
         style="display:inline;fill:#1f70ab;fill-opacity:1;stroke:none;stroke-width:0.612623;stroke-linejoin:bevel;stroke-dasharray:none;stroke-opacity:0.867537"
         id="rect1509"
         width="95.696815"
         height="11.984084"
         x="134.13586"
         y="-732.4339"
         transform="scale(1,-1)" /><rect
         style="display:inline;fill:#1f70ab;fill-opacity:1;stroke:none;stroke-width:0.638472;stroke-linejoin:bevel;stroke-dasharray:none;stroke-opacity:0.867537"
         id="rect1510"
         width="103.94265"
         height="11.984084"
         x="129.50842"
         y="-795.56409"
         transform="scale(1,-1)" /></g><path
       style="display:inline;fill:#c8ab37;fill-opacity:1;stroke:#ffffff;stroke-width:9.66862;stroke-linecap:butt;stroke-linejoin:miter;stroke-dasharray:none;stroke-opacity:1"
       d="M 264.92656,279.3547 355.58431,489.71054 264.90534,700.63763 174.41418,490.1254 Z"
       id="path1463" /><text
       xml:space="preserve"
       transform="matrix(0.88955696,0,0,0.88955696,-31.975073,139.2533)"
       id="text1464"
       style="font-size:192px;line-height:1.25;font-family:sans-serif;white-space:pre;shape-inside:url(#rect1466);display:inline;fill:#ffffff"><tspan
         x="276.5918"
         y="455.18432"
         id="tspan6"><tspan
           style="font-family:Centaur;-inkscape-font-specification:Centaur;fill:#000000"
           id="tspan5">4</tspan></tspan></text></g></svg>
