<?xml version="1.0" encoding="UTF-8" standalone="no"?>
<!-- Created with Inkscape (http://www.inkscape.org/) -->

<svg
   width="530mm"
   height="980mm"
   viewBox="0 0 530 980"
   version="1.1"
   id="svg1"
   xml:space="preserve"
   sodipodi:docname="5_b.svg"
   inkscape:version="1.4 (86a8ad7, 2024-10-11)"
   xmlns:inkscape="http://www.inkscape.org/namespaces/inkscape"
   xmlns:sodipodi="http://sodipodi.sourceforge.net/DTD/sodipodi-0.dtd"
   xmlns="http://www.w3.org/2000/svg"
   xmlns:svg="http://www.w3.org/2000/svg"><sodipodi:namedview
     id="namedview1"
     pagecolor="#ffffff"
     bordercolor="#000000"
     borderopacity="0.25"
     inkscape:showpageshadow="2"
     inkscape:pageopacity="0.0"
     inkscape:pagecheckerboard="0"
     inkscape:deskcolor="#d1d1d1"
     inkscape:document-units="mm"
     inkscape:zoom="0.22003614"
     inkscape:cx="999.83576"
     inkscape:cy="1851.9685"
     inkscape:window-width="1920"
     inkscape:window-height="1017"
     inkscape:window-x="-8"
     inkscape:window-y="32"
     inkscape:window-maximized="1"
     inkscape:current-layer="svg1" /><defs
     id="defs1"><rect
       x="276.59204"
       y="280.4877"
       width="272.69638"
       height="292.17471"
       id="rect221" /><linearGradient
       id="swatch181"><stop
         style="stop-color:#0f70ff;stop-opacity:1;"
         offset="0"
         id="stop181" /></linearGradient><rect
       x="276.59204"
       y="280.4877"
       width="272.69638"
       height="292.17471"
       id="rect222" /><rect
       x="276.59204"
       y="280.4877"
       width="272.69638"
       height="292.17471"
       id="rect85" /><rect
       x="276.59204"
       y="280.4877"
       width="272.69638"
       height="292.17471"
       id="rect86" /><rect
       x="276.59204"
       y="280.4877"
       width="272.69638"
       height="292.17471"
       id="rect144" /><rect
       x="276.59204"
       y="280.4877"
       width="272.69638"
       height="292.17471"
       id="rect145" /><rect
       x="276.59204"
       y="280.4877"
       width="272.69638"
       height="292.17471"
       id="rect227" /><rect
       x="276.59204"
       y="280.4877"
       width="272.69638"
       height="292.17471"
       id="rect228" /><rect
       x="276.59204"
       y="280.4877"
       width="272.69638"
       height="292.17471"
       id="rect336" /><rect
       x="276.59204"
       y="280.4877"
       width="272.69638"
       height="292.17471"
       id="rect337" /><rect
       x="276.59204"
       y="280.4877"
       width="272.69638"
       height="292.17471"
       id="rect392" /><rect
       x="276.59204"
       y="280.4877"
       width="272.69638"
       height="292.17471"
       id="rect393" /><rect
       x="276.59204"
       y="280.4877"
       width="272.69638"
       height="292.17471"
       id="rect422" /><rect
       x="276.59204"
       y="280.4877"
       width="272.69638"
       height="292.17471"
       id="rect423" /><rect
       x="276.59204"
       y="280.4877"
       width="272.69638"
       height="292.17471"
       id="rect1304" /><rect
       x="276.59204"
       y="280.4877"
       width="272.69638"
       height="292.17471"
       id="rect1305" /><rect
       x="276.59204"
       y="280.4877"
       width="272.69638"
       height="292.17471"
       id="rect1174" /><rect
       x="276.59204"
       y="280.4877"
       width="272.69638"
       height="292.17471"
       id="rect1175" /><rect
       x="276.59204"
       y="280.4877"
       width="272.69638"
       height="292.17471"
       id="rect834" /><rect
       x="276.59204"
       y="280.4877"
       width="272.69638"
       height="292.17471"
       id="rect835" /><rect
       x="276.59204"
       y="280.4877"
       width="272.69638"
       height="292.17471"
       id="rect620" /><rect
       x="276.59204"
       y="280.4877"
       width="272.69638"
       height="292.17471"
       id="rect621" /><rect
       x="276.59204"
       y="280.4877"
       width="272.69638"
       height="292.17471"
       id="rect365" /><rect
       x="276.59204"
       y="280.4877"
       width="272.69638"
       height="292.17471"
       id="rect364" /><rect
       x="276.59204"
       y="280.4877"
       width="272.69638"
       height="292.17471"
       id="rect221-7" /><rect
       x="276.59204"
       y="280.4877"
       width="272.69638"
       height="292.17471"
       id="rect222-6" /><rect
       x="276.59204"
       y="280.4877"
       width="272.69638"
       height="292.17471"
       id="rect190" /><rect
       x="276.59204"
       y="280.4877"
       width="272.69638"
       height="292.17471"
       id="rect189" /><rect
       x="276.59204"
       y="280.4877"
       width="272.69638"
       height="292.17471"
       id="rect234" /><rect
       x="276.59204"
       y="280.4877"
       width="272.69638"
       height="292.17471"
       id="rect235" /><rect
       x="276.59204"
       y="280.4877"
       width="272.69638"
       height="292.17471"
       id="rect885" /><rect
       x="276.59204"
       y="280.4877"
       width="272.69638"
       height="292.17471"
       id="rect886" /><rect
       x="276.59204"
       y="280.4877"
       width="1712.1638"
       height="367.93616"
       id="rect888" /><rect
       x="276.59204"
       y="280.4877"
       width="272.69638"
       height="292.17471"
       id="rect1322" /><rect
       x="276.59204"
       y="280.4877"
       width="272.69638"
       height="292.17471"
       id="rect1323" /><rect
       x="276.59204"
       y="280.4877"
       width="1712.1638"
       height="367.93616"
       id="rect1324" /><rect
       x="276.59204"
       y="280.4877"
       width="272.69638"
       height="292.17471"
       id="rect1395" /><rect
       x="276.59204"
       y="280.4877"
       width="272.69638"
       height="292.17471"
       id="rect1423" /><rect
       x="276.59204"
       y="280.4877"
       width="272.69638"
       height="292.17471"
       id="rect1424" /><rect
       x="276.59204"
       y="280.4877"
       width="272.69638"
       height="292.17471"
       id="rect1425" /><rect
       x="276.59204"
       y="280.4877"
       width="272.69638"
       height="292.17471"
       id="rect1464" /><rect
       x="276.59204"
       y="280.4877"
       width="272.69638"
       height="292.17471"
       id="rect1465" /><rect
       x="276.59204"
       y="280.4877"
       width="272.69638"
       height="292.17471"
       id="rect1466" /><rect
       x="276.59204"
       y="280.4877"
       width="272.69638"
       height="292.17471"
       id="rect591" /><rect
       x="276.59204"
       y="280.4877"
       width="272.69638"
       height="292.17471"
       id="rect592" /><rect
       x="276.59204"
       y="280.4877"
       width="272.69638"
       height="292.17471"
       id="rect593" /><rect
       x="276.59204"
       y="280.4877"
       width="272.69638"
       height="292.17471"
       id="rect803" /><rect
       x="276.59204"
       y="280.4877"
       width="272.69638"
       height="292.17471"
       id="rect804" /><rect
       x="276.59204"
       y="280.4877"
       width="272.69638"
       height="292.17471"
       id="rect805" /><rect
       x="276.59204"
       y="280.4877"
       width="272.69638"
       height="292.17471"
       id="rect903" /><rect
       x="276.59204"
       y="280.4877"
       width="272.69638"
       height="292.17471"
       id="rect904" /><rect
       x="276.59204"
       y="280.4877"
       width="272.69638"
       height="292.17471"
       id="rect905" /></defs><g
     id="g220"><g
       id="layer1"
       style="display:inline;fill:#ffffff"><path
         id="rect4"
         style="display:inline;fill:#ffffff;fill-opacity:1;stroke:none;stroke-width:2.365;stroke-linejoin:bevel;stroke-opacity:1"
         d="M 53.211222,0 A 53.211304,53.211304 0 0 0 0,53.211222 V 926.78891 a 53.211304,53.211304 0 0 0 53.211222,53.21122 H 476.78847 a 53.211304,53.211304 0 0 0 53.21174,-53.21122 V 53.211222 A 53.211304,53.211304 0 0 0 476.78847,0 Z" /><path
         id="path7"
         style="display:inline;fill:none;fill-opacity:1;stroke:#000000;stroke-width:4;stroke-linejoin:bevel;stroke-dasharray:none;stroke-opacity:1"
         d="M 84.38306,39.04751 A 45.33562,49.009618 0 0 0 39.04751,88.057052 V 892.65504 a 45.33562,49.009618 0 0 0 45.33555,49.00955 H 445.26759 A 45.33562,49.009618 0 0 0 490.6036,892.65504 V 88.057052 A 45.33562,49.009618 0 0 0 445.26759,39.04751 Z" /></g></g><g
     id="g591"
     style="display:inline"><text
       xml:space="preserve"
       transform="matrix(-0.26458333,0,0,-0.26458333,532.81125,1002.2008)"
       id="text217"
       style="font-size:192px;line-height:1.25;font-family:sans-serif;white-space:pre;shape-inside:url(#rect591);display:inline;fill:#ffffff"><tspan
         x="276.5918"
         y="455.18432"
         id="tspan2"><tspan
           style="font-family:Centaur;-inkscape-font-specification:Centaur;fill:#000000"
           id="tspan1">5</tspan></tspan></text><text
       xml:space="preserve"
       transform="matrix(0.26458333,0,0,0.26458333,0,-21.566005)"
       id="text219"
       style="font-size:192px;line-height:1.25;font-family:sans-serif;white-space:pre;shape-inside:url(#rect592);display:inline;fill:#ffffff"><tspan
         x="276.5918"
         y="455.18432"
         id="tspan4"><tspan
           style="font-family:Centaur;-inkscape-font-specification:Centaur;fill:#000000"
           id="tspan3">5</tspan></tspan></text><g
       id="g605"
       style="display:inline;stroke-width:1.85137;stroke-dasharray:none"
       transform="matrix(-1.0802825,-3.4819173e-4,-3.4819173e-4,1.0802825,460.27196,-21.716928)"><rect
         style="display:inline;fill:#c8ab37;fill-opacity:1;stroke:none;stroke-width:1.85137;stroke-linejoin:bevel;stroke-dasharray:none;stroke-opacity:1"
         id="rect594"
         width="72.565323"
         height="502.6835"
         x="145.19966"
         y="222.16383" /><path
         style="display:inline;fill:#dc1436;fill-opacity:1;stroke:none;stroke-width:1.85137;stroke-linejoin:bevel;stroke-dasharray:none;stroke-opacity:0.867537"
         d="m 138.47853,156.1623 h 86.00244 c 0,0 7.41857,-50.47177 -43.00122,-50.47177 -50.41974,0 -43.00122,50.47177 -43.00122,50.47177 z"
         id="path596" /><circle
         style="display:inline;fill:#c8ab37;fill-opacity:1;stroke:none;stroke-width:1.85137;stroke-linejoin:bevel;stroke-dasharray:none;stroke-opacity:0.867537"
         id="circle596"
         cx="181.47974"
         cy="98.721024"
         r="6.9695058" /><path
         id="path597"
         style="fill:#c8ab37;fill-opacity:1;stroke:none;stroke-width:1.85137;stroke-linejoin:bevel;stroke-dasharray:none;stroke-opacity:0.867537"
         d="m 138.02127,163.91296 7.2192,51.17259 h 36.23913 36.23965 l 7.21919,-51.17259 H 181.4796 Z" /><rect
         style="display:inline;fill:#dc1436;fill-opacity:1;stroke:none;stroke-width:1.85137;stroke-linejoin:bevel;stroke-dasharray:none;stroke-opacity:0.867537"
         id="rect597"
         width="95.696815"
         height="11.984084"
         x="133.63132"
         y="214.84229" /><rect
         style="display:inline;fill:#dc1436;fill-opacity:1;stroke:none;stroke-width:1.85137;stroke-linejoin:bevel;stroke-dasharray:none;stroke-opacity:0.867537"
         id="rect598"
         width="103.94265"
         height="11.984084"
         x="129.50842"
         y="151.92899" /><path
         style="display:inline;fill:#dc1436;fill-opacity:1;stroke:none;stroke-width:1.85137;stroke-linejoin:bevel;stroke-dasharray:none;stroke-opacity:0.867537"
         d="m 138.47853,791.33081 h 86.00244 c 0,0 7.41857,50.47177 -43.00122,50.47177 -50.41974,0 -43.00122,-50.47177 -43.00122,-50.47177 z"
         id="path600" /><circle
         style="display:inline;fill:#c8ab37;fill-opacity:1;stroke:none;stroke-width:1.85137;stroke-linejoin:bevel;stroke-dasharray:none;stroke-opacity:0.867537"
         id="circle600"
         cx="181.47974"
         cy="-848.77209"
         r="6.9695058"
         transform="scale(1,-1)" /><path
         id="path601"
         style="fill:#c8ab37;fill-opacity:1;stroke:none;stroke-width:1.85137;stroke-linejoin:bevel;stroke-dasharray:none;stroke-opacity:0.867537"
         d="m 138.02127,783.58015 7.2192,-51.17259 h 36.23913 36.23965 l 7.21919,51.17259 H 181.4796 Z" /><rect
         style="display:inline;fill:#dc1436;fill-opacity:1;stroke:none;stroke-width:1.85137;stroke-linejoin:bevel;stroke-dasharray:none;stroke-opacity:0.867537"
         id="rect601"
         width="95.696815"
         height="11.984084"
         x="133.63132"
         y="-732.65082"
         transform="scale(1,-1)" /><rect
         style="display:inline;fill:#dc1436;fill-opacity:1;stroke:none;stroke-width:1.85137;stroke-linejoin:bevel;stroke-dasharray:none;stroke-opacity:0.867537"
         id="rect602"
         width="103.94265"
         height="11.984084"
         x="129.50842"
         y="-795.56409"
         transform="scale(1,-1)" /></g><g
       id="g609"
       transform="translate(-1.7152305,4.8125233)"><g
         id="g572"
         style="display:inline"
         transform="matrix(0.6919485,0.54573779,-0.54573779,0.6919485,435.62097,86.692579)"><rect
           style="display:inline;fill:#1f70ab;fill-opacity:1;stroke:none;stroke-width:0.851334;stroke-linejoin:bevel;stroke-dasharray:none;stroke-opacity:0.867537"
           id="rect238"
           width="72.602997"
           height="494.32437"
           x="145.17822"
           y="226.34238" /><path
           style="display:inline;fill:#1f70ab;fill-opacity:1;stroke:none;stroke-width:1.08339;stroke-linejoin:bevel;stroke-dasharray:none;stroke-opacity:0.867537"
           d="m 138.47853,156.1623 h 86.00244 c 0,0 7.41857,-50.47177 -43.00122,-50.47177 -50.41974,0 -43.00122,50.47177 -43.00122,50.47177 z"
           id="path391" /><circle
           style="display:inline;fill:#c8ab37;fill-opacity:1;stroke:none;stroke-width:1;stroke-linejoin:bevel;stroke-dasharray:none;stroke-opacity:0.867537"
           id="circle391"
           cx="181.47974"
           cy="98.721024"
           r="6.9695058" /><path
           id="path392"
           style="fill:#c8ab37;fill-opacity:1;stroke:none;stroke-width:1;stroke-linejoin:bevel;stroke-dasharray:none;stroke-opacity:0.867537"
           d="m 138.02127,163.91296 7.2192,51.17259 h 36.23913 36.23965 l 7.21919,-51.17259 H 181.4796 Z" /><rect
           style="display:inline;fill:#1f70ab;fill-opacity:1;stroke:none;stroke-width:0.612623;stroke-linejoin:bevel;stroke-dasharray:none;stroke-opacity:0.867537"
           id="rect533"
           width="95.696815"
           height="11.984084"
           x="133.63132"
           y="214.84229" /><rect
           style="display:inline;fill:#1f70ab;fill-opacity:1;stroke:none;stroke-width:0.64106;stroke-linejoin:bevel;stroke-dasharray:none;stroke-opacity:0.867537"
           id="rect534"
           width="104.36403"
           height="12.032667"
           x="129.29773"
           y="151.90469" /><path
           style="display:inline;fill:#1f70ab;fill-opacity:1;stroke:none;stroke-width:1.08339;stroke-linejoin:bevel;stroke-dasharray:none;stroke-opacity:0.867537"
           d="m 138.47853,791.33081 h 86.00244 c 0,0 7.41857,50.47177 -43.00122,50.47177 -50.41974,0 -43.00122,-50.47177 -43.00122,-50.47177 z"
           id="path534" /><circle
           style="display:inline;fill:#c8ab37;fill-opacity:1;stroke:none;stroke-width:1;stroke-linejoin:bevel;stroke-dasharray:none;stroke-opacity:0.867537"
           id="circle534"
           cx="181.47974"
           cy="-848.77209"
           r="6.9695058"
           transform="scale(1,-1)" /><path
           id="path544"
           style="fill:#c8ab37;fill-opacity:1;stroke:none;stroke-width:1;stroke-linejoin:bevel;stroke-dasharray:none;stroke-opacity:0.867537"
           d="m 138.02127,783.58015 7.2192,-51.17259 h 36.23913 36.23965 l 7.21919,51.17259 H 181.4796 Z" /><rect
           style="display:inline;fill:#1f70ab;fill-opacity:1;stroke:none;stroke-width:0.64949;stroke-linejoin:bevel;stroke-dasharray:none;stroke-opacity:0.867537"
           id="rect569"
           width="95.696823"
           height="13.469859"
           x="122.9734"
           y="-735.99512"
           transform="matrix(0.9998909,-0.01477101,-0.01464025,-0.99989283,0,0)" /><rect
           style="display:inline;fill:#1f70ab;fill-opacity:1;stroke:none;stroke-width:0.638472;stroke-linejoin:bevel;stroke-dasharray:none;stroke-opacity:0.867537"
           id="rect570"
           width="103.94265"
           height="11.984084"
           x="129.50842"
           y="-795.56409"
           transform="scale(1,-1)" /></g><g
         id="g583"
         style="display:inline"
         transform="matrix(0.6919485,0.54573779,-0.54573779,0.6919485,363.74299,29.985232)"><rect
           style="display:inline;fill:#dc1436;fill-opacity:1;stroke:none;stroke-width:0.851334;stroke-linejoin:bevel;stroke-dasharray:none;stroke-opacity:0.867537"
           id="rect578"
           width="72.602997"
           height="494.32437"
           x="145.17822"
           y="226.34238" /><path
           style="display:inline;fill:#dc1436;fill-opacity:1;stroke:none;stroke-width:1.08339;stroke-linejoin:bevel;stroke-dasharray:none;stroke-opacity:0.867537"
           d="m 138.47853,156.1623 h 86.00244 c 0,0 7.41857,-50.47177 -43.00122,-50.47177 -50.41974,0 -43.00122,50.47177 -43.00122,50.47177 z"
           id="path578" /><circle
           style="display:inline;fill:#c8ab37;fill-opacity:1;stroke:none;stroke-width:1;stroke-linejoin:bevel;stroke-dasharray:none;stroke-opacity:0.867537"
           id="circle578"
           cx="181.47974"
           cy="98.721024"
           r="6.9695058" /><path
           id="path579"
           style="fill:#c8ab37;fill-opacity:1;stroke:none;stroke-width:1;stroke-linejoin:bevel;stroke-dasharray:none;stroke-opacity:0.867537"
           d="m 138.02127,163.91296 7.2192,51.17259 h 36.23913 36.23965 l 7.21919,-51.17259 H 181.4796 Z" /><rect
           style="display:inline;fill:#dc1436;fill-opacity:1;stroke:none;stroke-width:0.612623;stroke-linejoin:bevel;stroke-dasharray:none;stroke-opacity:0.867537"
           id="rect580"
           width="95.696815"
           height="11.984084"
           x="133.63132"
           y="214.84229" /><rect
           style="display:inline;fill:#dc1436;fill-opacity:1;stroke:none;stroke-width:0.642506;stroke-linejoin:bevel;stroke-dasharray:none;stroke-opacity:0.867537"
           id="rect581"
           width="104.5993"
           height="12.059793"
           x="129.1801"
           y="151.89113" /><path
           style="display:inline;fill:#1f70ab;fill-opacity:1;stroke:none;stroke-width:1.08339;stroke-linejoin:bevel;stroke-dasharray:none;stroke-opacity:0.867537"
           d="m 138.47853,791.33081 h 86.00244 c 0,0 7.41857,50.47177 -43.00122,50.47177 -50.41974,0 -43.00122,-50.47177 -43.00122,-50.47177 z"
           id="path581" /><circle
           style="display:inline;fill:#c8ab37;fill-opacity:1;stroke:none;stroke-width:1;stroke-linejoin:bevel;stroke-dasharray:none;stroke-opacity:0.867537"
           id="circle581"
           cx="181.47974"
           cy="-848.77209"
           r="6.9695058"
           transform="scale(1,-1)" /><path
           id="path582"
           style="fill:#c8ab37;fill-opacity:1;stroke:none;stroke-width:1;stroke-linejoin:bevel;stroke-dasharray:none;stroke-opacity:0.867537"
           d="m 138.02127,783.58015 7.2192,-51.17259 h 36.23913 36.23965 l 7.21919,51.17259 H 181.4796 Z" /><rect
           style="display:inline;fill:#dc1436;fill-opacity:1;stroke:none;stroke-width:0.612623;stroke-linejoin:bevel;stroke-dasharray:none;stroke-opacity:0.867537"
           id="rect582"
           width="95.696815"
           height="11.984084"
           x="134.13586"
           y="-732.4339"
           transform="scale(1,-1)" /><rect
           style="display:inline;fill:#1f70ab;fill-opacity:1;stroke:none;stroke-width:0.638472;stroke-linejoin:bevel;stroke-dasharray:none;stroke-opacity:0.867537"
           id="rect583"
           width="103.94265"
           height="11.984084"
           x="129.50842"
           y="-795.56409"
           transform="scale(1,-1)" /></g></g><g
       id="g610"
       transform="translate(2.0677031,4.7743621)"><g
         id="g577"
         style="display:inline"
         transform="matrix(-0.69194849,0.54573779,0.54573779,0.69194849,94.025363,86.715507)"><rect
           style="display:inline;fill:#dc1436;fill-opacity:1;stroke:none;stroke-width:0.855766;stroke-linejoin:bevel;stroke-dasharray:none;stroke-opacity:0.867537"
           id="rect572"
           width="72.978897"
           height="496.91187"
           x="144.9239"
           y="226.50471"
           transform="matrix(0.99999999,1.1818271e-4,1.1817602e-4,0.99999999,0,0)" /><path
           style="display:inline;fill:#dc1436;fill-opacity:1;stroke:none;stroke-width:1.08339;stroke-linejoin:bevel;stroke-dasharray:none;stroke-opacity:0.867537"
           d="m 138.47853,156.1623 h 86.00244 c 0,0 7.41857,-50.47177 -43.00122,-50.47177 -50.41974,0 -43.00122,50.47177 -43.00122,50.47177 z"
           id="path572" /><circle
           style="display:inline;fill:#c8ab37;fill-opacity:1;stroke:none;stroke-width:1;stroke-linejoin:bevel;stroke-dasharray:none;stroke-opacity:0.867537"
           id="circle573"
           cx="181.47974"
           cy="98.721024"
           r="6.9695058" /><path
           id="path574"
           style="fill:#c8ab37;fill-opacity:1;stroke:none;stroke-width:1;stroke-linejoin:bevel;stroke-dasharray:none;stroke-opacity:0.867537"
           d="m 138.02127,163.91296 7.2192,51.17259 h 36.23913 36.23965 l 7.21919,-51.17259 H 181.4796 Z" /><rect
           style="display:inline;fill:#dc1436;fill-opacity:1;stroke:none;stroke-width:0.612623;stroke-linejoin:bevel;stroke-dasharray:none;stroke-opacity:1"
           id="rect574"
           width="95.696815"
           height="11.984084"
           x="133.63132"
           y="214.84229" /><rect
           style="display:inline;fill:#dc1436;fill-opacity:1;stroke:none;stroke-width:0.638472;stroke-linejoin:bevel;stroke-dasharray:none;stroke-opacity:1"
           id="rect575"
           width="103.94265"
           height="11.984084"
           x="129.50842"
           y="151.92899" /><path
           style="display:inline;fill:#1f70ab;fill-opacity:1;stroke:none;stroke-width:1.08339;stroke-linejoin:bevel;stroke-dasharray:none;stroke-opacity:0.867537"
           d="m 138.47853,791.33081 h 86.00244 c 0,0 7.41857,50.47177 -43.00122,50.47177 -50.41974,0 -43.00122,-50.47177 -43.00122,-50.47177 z"
           id="path575" /><circle
           style="display:inline;fill:#c8ab37;fill-opacity:1;stroke:none;stroke-width:1;stroke-linejoin:bevel;stroke-dasharray:none;stroke-opacity:0.867537"
           id="circle575"
           cx="181.47974"
           cy="-848.77209"
           r="6.9695058"
           transform="scale(1,-1)" /><path
           id="path576"
           style="fill:#c8ab37;fill-opacity:1;stroke:none;stroke-width:1;stroke-linejoin:bevel;stroke-dasharray:none;stroke-opacity:0.867537"
           d="m 138.02127,783.58015 7.2192,-51.17259 h 36.23913 36.23965 l 7.21919,51.17259 H 181.4796 Z" /><rect
           style="display:inline;fill:#dc1436;fill-opacity:1;stroke:none;stroke-width:0.612623;stroke-linejoin:bevel;stroke-dasharray:none;stroke-opacity:0.867537"
           id="rect576"
           width="95.696815"
           height="11.984084"
           x="133.63132"
           y="-732.65082"
           transform="scale(1,-1)" /><rect
           style="display:inline;fill:#1f70ab;fill-opacity:1;stroke:none;stroke-width:0.638472;stroke-linejoin:bevel;stroke-dasharray:none;stroke-opacity:0.867537"
           id="rect577"
           width="103.94265"
           height="11.984084"
           x="129.50842"
           y="-795.56409"
           transform="scale(1,-1)" /></g><g
         id="g590"
         style="display:inline"
         transform="matrix(-0.69194849,0.5457378,0.5457378,0.69194849,165.90572,30.038634)"><rect
           style="display:inline;fill:#1f70ab;fill-opacity:1;stroke:none;stroke-width:0.855401;stroke-linejoin:bevel;stroke-dasharray:none;stroke-opacity:0.867537"
           id="rect584"
           width="72.976532"
           height="496.50388"
           x="145.24065"
           y="226.78885"
           transform="matrix(0.99999883,-0.00152761,-0.00152873,0.99999883,0,0)" /><path
           style="display:inline;fill:#1f70ab;fill-opacity:1;stroke:none;stroke-width:1.08339;stroke-linejoin:bevel;stroke-dasharray:none;stroke-opacity:0.867537"
           d="m 138.47853,156.1623 h 86.00244 c 0,0 7.41857,-50.47177 -43.00122,-50.47177 -50.41974,0 -43.00122,50.47177 -43.00122,50.47177 z"
           id="path585" /><path
           style="display:inline;fill:#1f70ab;fill-opacity:1;stroke:none;stroke-width:1.08339;stroke-linejoin:bevel;stroke-dasharray:none;stroke-opacity:0.867537"
           d="m 138.47853,156.1623 h 86.00244 c 0,0 7.41857,-50.47177 -43.00122,-50.47177 -50.41974,0 -43.00122,50.47177 -43.00122,50.47177 z"
           id="path586" /><circle
           style="display:inline;fill:#c8ab37;fill-opacity:1;stroke:none;stroke-width:1;stroke-linejoin:bevel;stroke-dasharray:none;stroke-opacity:0.867537"
           id="circle586"
           cx="181.47974"
           cy="98.721024"
           r="6.9695058" /><path
           id="path587"
           style="fill:#c8ab37;fill-opacity:1;stroke:none;stroke-width:1;stroke-linejoin:bevel;stroke-dasharray:none;stroke-opacity:0.867537"
           d="m 138.02127,163.91296 7.2192,51.17259 h 36.23913 36.23965 l 7.21919,-51.17259 H 181.4796 Z" /><rect
           style="display:inline;fill:#1f70ab;fill-opacity:1;stroke:none;stroke-width:0.612623;stroke-linejoin:bevel;stroke-dasharray:none;stroke-opacity:0.867537"
           id="rect587"
           width="95.696815"
           height="11.984084"
           x="133.63132"
           y="214.84229" /><rect
           style="display:inline;fill:#1f70ab;fill-opacity:1;stroke:none;stroke-width:0.638472;stroke-linejoin:bevel;stroke-dasharray:none;stroke-opacity:0.867537"
           id="rect588"
           width="103.94265"
           height="11.984084"
           x="129.50842"
           y="151.92899" /><path
           style="display:inline;fill:#1f70ab;fill-opacity:1;stroke:none;stroke-width:1.08339;stroke-linejoin:bevel;stroke-dasharray:none;stroke-opacity:0.867537"
           d="m 138.47853,791.33081 h 86.00244 c 0,0 7.41857,50.47177 -43.00122,50.47177 -50.41974,0 -43.00122,-50.47177 -43.00122,-50.47177 z"
           id="path588" /><circle
           style="display:inline;fill:#c8ab37;fill-opacity:1;stroke:none;stroke-width:1;stroke-linejoin:bevel;stroke-dasharray:none;stroke-opacity:0.867537"
           id="circle588"
           cx="181.47974"
           cy="-848.77209"
           r="6.9695058"
           transform="scale(1,-1)" /><path
           id="path589"
           style="fill:#c8ab37;fill-opacity:1;stroke:none;stroke-width:1;stroke-linejoin:bevel;stroke-dasharray:none;stroke-opacity:0.867537"
           d="m 138.02127,783.58015 7.2192,-51.17259 h 36.23913 36.23965 l 7.21919,51.17259 H 181.4796 Z" /><rect
           style="display:inline;fill:#1f70ab;fill-opacity:1;stroke:none;stroke-width:0.612623;stroke-linejoin:bevel;stroke-dasharray:none;stroke-opacity:0.867537"
           id="rect589"
           width="95.696815"
           height="11.984084"
           x="134.13586"
           y="-732.4339"
           transform="scale(1,-1)" /><rect
           style="display:inline;fill:#1f70ab;fill-opacity:1;stroke:none;stroke-width:0.638472;stroke-linejoin:bevel;stroke-dasharray:none;stroke-opacity:0.867537"
           id="rect590"
           width="103.94265"
           height="11.984084"
           x="129.50842"
           y="-795.56409"
           transform="scale(1,-1)" /></g></g><path
       style="display:inline;fill:#c8ab37;fill-opacity:1;stroke:#ffffff;stroke-width:7.49943;stroke-linecap:butt;stroke-linejoin:miter;stroke-dasharray:none;stroke-opacity:1"
       d="M 264.92285,369.31528 360.12164,489.83496 264.90055,610.68192 169.87667,490.07266 Z"
       id="path590" /><text
       xml:space="preserve"
       transform="matrix(0.88955696,0,0,0.88955696,-22.617047,139.2533)"
       id="text591"
       style="font-size:192px;line-height:1.25;font-family:sans-serif;white-space:pre;shape-inside:url(#rect593);display:inline;fill:#ffffff"><tspan
         x="276.5918"
         y="455.18432"
         id="tspan6"><tspan
           style="font-family:Centaur;-inkscape-font-specification:Centaur;fill:#000000"
           id="tspan5">5</tspan></tspan></text><rect
       style="fill:#ffffff;fill-opacity:1;stroke:none;stroke-width:5.83121;stroke-linejoin:round;stroke-miterlimit:0"
       id="rect605"
       width="38.078087"
       height="490.11566"
       x="0"
       y="242.97171" /><rect
       style="fill:#ffffff;fill-opacity:1;stroke:none;stroke-width:6.0667;stroke-linejoin:round;stroke-miterlimit:0"
       id="rect606"
       width="37.322132"
       height="541.24548"
       x="492.67786"
       y="218.56885" /><path
       id="path911"
       style="display:inline;fill:none;fill-opacity:1;stroke:#000000;stroke-width:4;stroke-linejoin:bevel;stroke-dasharray:none;stroke-opacity:1"
       d="M 84.38306,39.04751 A 45.33562,49.009618 0 0 0 39.04751,88.057052 V 892.65504 a 45.33562,49.009618 0 0 0 45.33555,49.00955 H 445.26759 A 45.33562,49.009618 0 0 0 490.6036,892.65504 V 88.057052 A 45.33562,49.009618 0 0 0 445.26759,39.04751 Z" /></g></svg>
