<?xml version="1.0" encoding="UTF-8" standalone="no"?>
<!-- Created with Inkscape (http://www.inkscape.org/) -->

<svg
   width="530mm"
   height="980mm"
   viewBox="0 0 530 980"
   version="1.1"
   id="svg1"
   xml:space="preserve"
   sodipodi:docname="7_b.svg"
   inkscape:version="1.4 (86a8ad7, 2024-10-11)"
   xmlns:inkscape="http://www.inkscape.org/namespaces/inkscape"
   xmlns:sodipodi="http://sodipodi.sourceforge.net/DTD/sodipodi-0.dtd"
   xmlns="http://www.w3.org/2000/svg"
   xmlns:svg="http://www.w3.org/2000/svg"><sodipodi:namedview
     id="namedview1"
     pagecolor="#ffffff"
     bordercolor="#000000"
     borderopacity="0.25"
     inkscape:showpageshadow="2"
     inkscape:pageopacity="0.0"
     inkscape:pagecheckerboard="0"
     inkscape:deskcolor="#d1d1d1"
     inkscape:document-units="mm"
     inkscape:zoom="0.22003614"
     inkscape:cx="999.83576"
     inkscape:cy="1851.9685"
     inkscape:window-width="1920"
     inkscape:window-height="1017"
     inkscape:window-x="-8"
     inkscape:window-y="32"
     inkscape:window-maximized="1"
     inkscape:current-layer="svg1" /><defs
     id="defs1"><rect
       x="276.59204"
       y="280.4877"
       width="272.69638"
       height="292.17471"
       id="rect221" /><linearGradient
       id="swatch181"><stop
         style="stop-color:#0f70ff;stop-opacity:1;"
         offset="0"
         id="stop181" /></linearGradient><rect
       x="276.59204"
       y="280.4877"
       width="272.69638"
       height="292.17471"
       id="rect222" /><rect
       x="276.59204"
       y="280.4877"
       width="272.69638"
       height="292.17471"
       id="rect85" /><rect
       x="276.59204"
       y="280.4877"
       width="272.69638"
       height="292.17471"
       id="rect86" /><rect
       x="276.59204"
       y="280.4877"
       width="272.69638"
       height="292.17471"
       id="rect144" /><rect
       x="276.59204"
       y="280.4877"
       width="272.69638"
       height="292.17471"
       id="rect145" /><rect
       x="276.59204"
       y="280.4877"
       width="272.69638"
       height="292.17471"
       id="rect227" /><rect
       x="276.59204"
       y="280.4877"
       width="272.69638"
       height="292.17471"
       id="rect228" /><rect
       x="276.59204"
       y="280.4877"
       width="272.69638"
       height="292.17471"
       id="rect336" /><rect
       x="276.59204"
       y="280.4877"
       width="272.69638"
       height="292.17471"
       id="rect337" /><rect
       x="276.59204"
       y="280.4877"
       width="272.69638"
       height="292.17471"
       id="rect392" /><rect
       x="276.59204"
       y="280.4877"
       width="272.69638"
       height="292.17471"
       id="rect393" /><rect
       x="276.59204"
       y="280.4877"
       width="272.69638"
       height="292.17471"
       id="rect422" /><rect
       x="276.59204"
       y="280.4877"
       width="272.69638"
       height="292.17471"
       id="rect423" /><rect
       x="276.59204"
       y="280.4877"
       width="272.69638"
       height="292.17471"
       id="rect1304" /><rect
       x="276.59204"
       y="280.4877"
       width="272.69638"
       height="292.17471"
       id="rect1305" /><rect
       x="276.59204"
       y="280.4877"
       width="272.69638"
       height="292.17471"
       id="rect1174" /><rect
       x="276.59204"
       y="280.4877"
       width="272.69638"
       height="292.17471"
       id="rect1175" /><rect
       x="276.59204"
       y="280.4877"
       width="272.69638"
       height="292.17471"
       id="rect834" /><rect
       x="276.59204"
       y="280.4877"
       width="272.69638"
       height="292.17471"
       id="rect835" /><rect
       x="276.59204"
       y="280.4877"
       width="272.69638"
       height="292.17471"
       id="rect620" /><rect
       x="276.59204"
       y="280.4877"
       width="272.69638"
       height="292.17471"
       id="rect621" /><rect
       x="276.59204"
       y="280.4877"
       width="272.69638"
       height="292.17471"
       id="rect365" /><rect
       x="276.59204"
       y="280.4877"
       width="272.69638"
       height="292.17471"
       id="rect364" /><rect
       x="276.59204"
       y="280.4877"
       width="272.69638"
       height="292.17471"
       id="rect221-7" /><rect
       x="276.59204"
       y="280.4877"
       width="272.69638"
       height="292.17471"
       id="rect222-6" /><rect
       x="276.59204"
       y="280.4877"
       width="272.69638"
       height="292.17471"
       id="rect190" /><rect
       x="276.59204"
       y="280.4877"
       width="272.69638"
       height="292.17471"
       id="rect189" /><rect
       x="276.59204"
       y="280.4877"
       width="272.69638"
       height="292.17471"
       id="rect234" /><rect
       x="276.59204"
       y="280.4877"
       width="272.69638"
       height="292.17471"
       id="rect235" /><rect
       x="276.59204"
       y="280.4877"
       width="272.69638"
       height="292.17471"
       id="rect885" /><rect
       x="276.59204"
       y="280.4877"
       width="272.69638"
       height="292.17471"
       id="rect886" /><rect
       x="276.59204"
       y="280.4877"
       width="1712.1638"
       height="367.93616"
       id="rect888" /><rect
       x="276.59204"
       y="280.4877"
       width="272.69638"
       height="292.17471"
       id="rect1322" /><rect
       x="276.59204"
       y="280.4877"
       width="272.69638"
       height="292.17471"
       id="rect1323" /><rect
       x="276.59204"
       y="280.4877"
       width="1712.1638"
       height="367.93616"
       id="rect1324" /><rect
       x="276.59204"
       y="280.4877"
       width="272.69638"
       height="292.17471"
       id="rect1395" /><rect
       x="276.59204"
       y="280.4877"
       width="272.69638"
       height="292.17471"
       id="rect1423" /><rect
       x="276.59204"
       y="280.4877"
       width="272.69638"
       height="292.17471"
       id="rect1424" /><rect
       x="276.59204"
       y="280.4877"
       width="272.69638"
       height="292.17471"
       id="rect1425" /><rect
       x="276.59204"
       y="280.4877"
       width="272.69638"
       height="292.17471"
       id="rect1464" /><rect
       x="276.59204"
       y="280.4877"
       width="272.69638"
       height="292.17471"
       id="rect1465" /><rect
       x="276.59204"
       y="280.4877"
       width="272.69638"
       height="292.17471"
       id="rect1466" /><rect
       x="276.59204"
       y="280.4877"
       width="272.69638"
       height="292.17471"
       id="rect591" /><rect
       x="276.59204"
       y="280.4877"
       width="272.69638"
       height="292.17471"
       id="rect592" /><rect
       x="276.59204"
       y="280.4877"
       width="272.69638"
       height="292.17471"
       id="rect593" /><rect
       x="276.59204"
       y="280.4877"
       width="272.69638"
       height="292.17471"
       id="rect803" /><rect
       x="276.59204"
       y="280.4877"
       width="272.69638"
       height="292.17471"
       id="rect804" /><rect
       x="276.59204"
       y="280.4877"
       width="272.69638"
       height="292.17471"
       id="rect805" /><rect
       x="276.59204"
       y="280.4877"
       width="272.69638"
       height="292.17471"
       id="rect903" /><rect
       x="276.59204"
       y="280.4877"
       width="272.69638"
       height="292.17471"
       id="rect904" /><rect
       x="276.59204"
       y="280.4877"
       width="272.69638"
       height="292.17471"
       id="rect905" /></defs><g
     id="g220"><g
       id="layer1"
       style="display:inline;fill:#ffffff"><path
         id="rect4"
         style="display:inline;fill:#ffffff;fill-opacity:1;stroke:none;stroke-width:2.365;stroke-linejoin:bevel;stroke-opacity:1"
         d="M 53.211222,0 A 53.211304,53.211304 0 0 0 0,53.211222 V 926.78891 a 53.211304,53.211304 0 0 0 53.211222,53.21122 H 476.78847 a 53.211304,53.211304 0 0 0 53.21174,-53.21122 V 53.211222 A 53.211304,53.211304 0 0 0 476.78847,0 Z" /><path
         id="path7"
         style="display:inline;fill:none;fill-opacity:1;stroke:#000000;stroke-width:4;stroke-linejoin:bevel;stroke-dasharray:none;stroke-opacity:1"
         d="M 84.38306,39.04751 A 45.33562,49.009618 0 0 0 39.04751,88.057052 V 892.65504 a 45.33562,49.009618 0 0 0 45.33555,49.00955 H 445.26759 A 45.33562,49.009618 0 0 0 490.6036,892.65504 V 88.057052 A 45.33562,49.009618 0 0 0 445.26759,39.04751 Z" /></g></g><g
     id="g902"
     style="display:inline"><text
       xml:space="preserve"
       transform="matrix(-0.26458333,0,0,-0.26458333,532.81125,1002.2008)"
       id="text817"
       style="font-size:192px;line-height:1.25;font-family:sans-serif;white-space:pre;shape-inside:url(#rect903);display:inline;fill:#ffffff"><tspan
         x="276.5918"
         y="455.18432"
         id="tspan2"><tspan
           style="font-family:Centaur;-inkscape-font-specification:Centaur;fill:#000000"
           id="tspan1">7</tspan></tspan></text><text
       xml:space="preserve"
       transform="matrix(0.26458333,0,0,0.26458333,0,-21.566005)"
       id="text819"
       style="font-size:192px;line-height:1.25;font-family:sans-serif;white-space:pre;shape-inside:url(#rect904);display:inline;fill:#ffffff"><tspan
         x="276.5918"
         y="455.18432"
         id="tspan4"><tspan
           style="font-family:Centaur;-inkscape-font-specification:Centaur;fill:#000000"
           id="tspan3">7</tspan></tspan></text><g
       id="g910"
       style="display:inline;stroke-width:1.85137;stroke-dasharray:none"
       transform="matrix(-0.7928686,-3.4819167e-4,-2.5555375e-4,1.0802825,409.01066,-21.716928)"><rect
         style="display:inline;fill:#c8ab37;fill-opacity:1;stroke:none;stroke-width:1.85137;stroke-linejoin:bevel;stroke-dasharray:none;stroke-opacity:1"
         id="rect906"
         width="72.565323"
         height="502.6835"
         x="145.19966"
         y="222.16383" /><path
         style="display:inline;fill:#dc1436;fill-opacity:1;stroke:none;stroke-width:1.85137;stroke-linejoin:bevel;stroke-dasharray:none;stroke-opacity:0.867537"
         d="m 138.47853,156.1623 h 86.00244 c 0,0 7.41857,-50.47177 -43.00122,-50.47177 -50.41974,0 -43.00122,50.47177 -43.00122,50.47177 z"
         id="path906" /><circle
         style="display:inline;fill:#c8ab37;fill-opacity:1;stroke:none;stroke-width:1.85137;stroke-linejoin:bevel;stroke-dasharray:none;stroke-opacity:0.867537"
         id="circle906"
         cx="181.47974"
         cy="98.721024"
         r="6.9695058" /><path
         id="path907"
         style="fill:#c8ab37;fill-opacity:1;stroke:none;stroke-width:1.85137;stroke-linejoin:bevel;stroke-dasharray:none;stroke-opacity:0.867537"
         d="m 138.02127,163.91296 7.2192,51.17259 h 36.23913 36.23965 l 7.21919,-51.17259 H 181.4796 Z" /><rect
         style="display:inline;fill:#dc1436;fill-opacity:1;stroke:none;stroke-width:1.85137;stroke-linejoin:bevel;stroke-dasharray:none;stroke-opacity:0.867537"
         id="rect907"
         width="95.696815"
         height="11.984084"
         x="133.63132"
         y="214.84229" /><rect
         style="display:inline;fill:#dc1436;fill-opacity:1;stroke:none;stroke-width:1.85137;stroke-linejoin:bevel;stroke-dasharray:none;stroke-opacity:0.867537"
         id="rect908"
         width="103.94265"
         height="11.984084"
         x="129.50842"
         y="151.92899" /><path
         style="display:inline;fill:#dc1436;fill-opacity:1;stroke:none;stroke-width:1.85137;stroke-linejoin:bevel;stroke-dasharray:none;stroke-opacity:0.867537"
         d="m 138.47853,791.33081 h 86.00244 c 0,0 7.41857,50.47177 -43.00122,50.47177 -50.41974,0 -43.00122,-50.47177 -43.00122,-50.47177 z"
         id="path908" /><circle
         style="display:inline;fill:#c8ab37;fill-opacity:1;stroke:none;stroke-width:1.85137;stroke-linejoin:bevel;stroke-dasharray:none;stroke-opacity:0.867537"
         id="circle908"
         cx="181.47974"
         cy="-848.77209"
         r="6.9695058"
         transform="scale(1,-1)" /><path
         id="path909"
         style="fill:#c8ab37;fill-opacity:1;stroke:none;stroke-width:1.85137;stroke-linejoin:bevel;stroke-dasharray:none;stroke-opacity:0.867537"
         d="m 138.02127,783.58015 7.2192,-51.17259 h 36.23913 36.23965 l 7.21919,51.17259 H 181.4796 Z" /><rect
         style="display:inline;fill:#dc1436;fill-opacity:1;stroke:none;stroke-width:1.85137;stroke-linejoin:bevel;stroke-dasharray:none;stroke-opacity:0.867537"
         id="rect909"
         width="95.696815"
         height="11.984084"
         x="133.63132"
         y="-732.65082"
         transform="scale(1,-1)" /><rect
         style="display:inline;fill:#dc1436;fill-opacity:1;stroke:none;stroke-width:1.85137;stroke-linejoin:bevel;stroke-dasharray:none;stroke-opacity:0.867537"
         id="rect910"
         width="103.94265"
         height="11.984084"
         x="129.50842"
         y="-795.56409"
         transform="scale(1,-1)" /></g><g
       id="g837"
       transform="matrix(0.76551888,0.12172601,-0.16466197,1.0355375,163.68201,-10.983184)"
       style="display:inline"><g
         id="g823"
         style="display:inline"
         transform="matrix(0.69194849,0.54573779,-0.54573779,0.69194849,435.62097,86.69258)"><rect
           style="display:inline;fill:#dc1436;fill-opacity:1;stroke:none;stroke-width:0.851334;stroke-linejoin:bevel;stroke-dasharray:none;stroke-opacity:0.867537"
           id="rect819"
           width="72.602997"
           height="494.32437"
           x="145.17822"
           y="226.34238" /><path
           style="display:inline;fill:#1f70ab;fill-opacity:1;stroke:none;stroke-width:1.08339;stroke-linejoin:bevel;stroke-dasharray:none;stroke-opacity:0.867537"
           d="m 138.47853,156.1623 h 86.00244 c 0,0 7.41857,-50.47177 -43.00122,-50.47177 -50.41974,0 -43.00122,50.47177 -43.00122,50.47177 z"
           id="path819" /><circle
           style="display:inline;fill:#c8ab37;fill-opacity:1;stroke:none;stroke-width:1;stroke-linejoin:bevel;stroke-dasharray:none;stroke-opacity:0.867537"
           id="circle819"
           cx="181.47974"
           cy="98.721024"
           r="6.9695058" /><path
           id="path820"
           style="fill:#c8ab37;fill-opacity:1;stroke:none;stroke-width:1;stroke-linejoin:bevel;stroke-dasharray:none;stroke-opacity:0.867537"
           d="m 138.02127,163.91296 7.2192,51.17259 h 36.23913 36.23965 l 7.21919,-51.17259 H 181.4796 Z" /><rect
           style="display:inline;fill:#1f70ab;fill-opacity:1;stroke:none;stroke-width:0.612623;stroke-linejoin:bevel;stroke-dasharray:none;stroke-opacity:0.867537"
           id="rect820"
           width="95.696815"
           height="11.984084"
           x="133.63132"
           y="214.84229" /><rect
           style="display:inline;fill:#1f70ab;fill-opacity:1;stroke:none;stroke-width:0.646726;stroke-linejoin:bevel;stroke-dasharray:none;stroke-opacity:0.867537"
           id="rect821"
           width="105.28652"
           height="12.139026"
           x="128.83649"
           y="151.85152" /><path
           style="display:inline;fill:#1f70ab;fill-opacity:1;stroke:none;stroke-width:1.08339;stroke-linejoin:bevel;stroke-dasharray:none;stroke-opacity:0.867537"
           d="m 138.47853,791.33081 h 86.00244 c 0,0 7.41857,50.47177 -43.00122,50.47177 -50.41974,0 -43.00122,-50.47177 -43.00122,-50.47177 z"
           id="path821" /><circle
           style="display:inline;fill:#c8ab37;fill-opacity:1;stroke:none;stroke-width:1;stroke-linejoin:bevel;stroke-dasharray:none;stroke-opacity:0.867537"
           id="circle821"
           cx="181.47974"
           cy="-848.77209"
           r="6.9695058"
           transform="scale(1,-1)" /><path
           id="path822"
           style="fill:#c8ab37;fill-opacity:1;stroke:none;stroke-width:1;stroke-linejoin:bevel;stroke-dasharray:none;stroke-opacity:0.867537"
           d="m 138.02127,783.58015 7.2192,-51.17259 h 36.23913 36.23965 l 7.21919,51.17259 H 181.4796 Z" /><rect
           style="display:inline;fill:#1f70ab;fill-opacity:1;stroke:none;stroke-width:0.64949;stroke-linejoin:bevel;stroke-dasharray:none;stroke-opacity:0.867537"
           id="rect822"
           width="95.696823"
           height="13.469859"
           x="122.9734"
           y="-735.99512"
           transform="matrix(0.9998909,-0.01477101,-0.01464025,-0.99989283,0,0)" /><rect
           style="display:inline;fill:#1f70ab;fill-opacity:1;stroke:none;stroke-width:0.678997;stroke-linejoin:bevel;stroke-dasharray:none;stroke-opacity:0.867537"
           id="rect823"
           width="110.54012"
           height="12.744741"
           x="126.20969"
           y="-795.9444"
           transform="scale(1,-1)" /></g><g
         id="g828"
         style="display:inline"
         transform="matrix(0.6919485,0.54573779,-0.54573779,0.6919485,291.48144,-27.018548)"><rect
           style="display:inline;fill:#dc1436;fill-opacity:1;stroke:none;stroke-width:0.851334;stroke-linejoin:bevel;stroke-dasharray:none;stroke-opacity:0.867537"
           id="rect824"
           width="72.602997"
           height="494.32437"
           x="145.17822"
           y="226.34238" /><path
           style="display:inline;fill:#1f70ab;fill-opacity:1;stroke:none;stroke-width:1.08339;stroke-linejoin:bevel;stroke-dasharray:none;stroke-opacity:0.867537"
           d="m 138.47853,156.1623 h 86.00244 c 0,0 7.41857,-50.47177 -43.00122,-50.47177 -50.41974,0 -43.00122,50.47177 -43.00122,50.47177 z"
           id="path824" /><circle
           style="display:inline;fill:#c8ab37;fill-opacity:1;stroke:none;stroke-width:1;stroke-linejoin:bevel;stroke-dasharray:none;stroke-opacity:0.867537"
           id="circle824"
           cx="181.47974"
           cy="98.721024"
           r="6.9695058" /><path
           id="path825"
           style="fill:#c8ab37;fill-opacity:1;stroke:none;stroke-width:1;stroke-linejoin:bevel;stroke-dasharray:none;stroke-opacity:0.867537"
           d="m 138.02127,163.91296 7.2192,51.17259 h 36.23913 36.23965 l 7.21919,-51.17259 H 181.4796 Z" /><rect
           style="display:inline;fill:#1f70ab;fill-opacity:1;stroke:none;stroke-width:0.612623;stroke-linejoin:bevel;stroke-dasharray:none;stroke-opacity:0.867537"
           id="rect825"
           width="95.696815"
           height="11.984084"
           x="133.63132"
           y="214.84229" /><rect
           style="display:inline;fill:#1f70ab;fill-opacity:1;stroke:none;stroke-width:0.64106;stroke-linejoin:bevel;stroke-dasharray:none;stroke-opacity:0.867537"
           id="rect826"
           width="104.36403"
           height="12.032667"
           x="129.29773"
           y="151.90469" /><path
           style="display:inline;fill:#1f70ab;fill-opacity:1;stroke:none;stroke-width:1.08339;stroke-linejoin:bevel;stroke-dasharray:none;stroke-opacity:0.867537"
           d="m 138.47853,791.33081 h 86.00244 c 0,0 7.41857,50.47177 -43.00122,50.47177 -50.41974,0 -43.00122,-50.47177 -43.00122,-50.47177 z"
           id="path826" /><circle
           style="display:inline;fill:#c8ab37;fill-opacity:1;stroke:none;stroke-width:1;stroke-linejoin:bevel;stroke-dasharray:none;stroke-opacity:0.867537"
           id="circle826"
           cx="181.47974"
           cy="-848.77209"
           r="6.9695058"
           transform="scale(1,-1)" /><path
           id="path827"
           style="fill:#c8ab37;fill-opacity:1;stroke:none;stroke-width:1;stroke-linejoin:bevel;stroke-dasharray:none;stroke-opacity:0.867537"
           d="m 138.02127,783.58015 7.2192,-51.17259 h 36.23913 36.23965 l 7.21919,51.17259 H 181.4796 Z" /><rect
           style="display:inline;fill:#1f70ab;fill-opacity:1;stroke:none;stroke-width:0.64949;stroke-linejoin:bevel;stroke-dasharray:none;stroke-opacity:0.867537"
           id="rect827"
           width="95.696823"
           height="13.469859"
           x="122.9734"
           y="-735.99512"
           transform="matrix(0.9998909,-0.01477101,-0.01464025,-0.99989283,0,0)" /><rect
           style="display:inline;fill:#1f70ab;fill-opacity:1;stroke:none;stroke-width:0.681601;stroke-linejoin:bevel;stroke-dasharray:none;stroke-opacity:0.867537"
           id="rect828"
           width="110.96399"
           height="12.793611"
           x="125.99776"
           y="-795.96887"
           transform="scale(1,-1)" /></g><g
         id="g836"
         style="display:inline"
         transform="matrix(0.6919485,0.54573779,-0.54573779,0.6919485,363.74299,29.985232)"><rect
           style="display:inline;fill:#1f70ab;fill-opacity:1;stroke:none;stroke-width:0.851334;stroke-linejoin:bevel;stroke-dasharray:none;stroke-opacity:0.867537"
           id="rect829"
           width="72.602997"
           height="494.32437"
           x="145.17822"
           y="226.34238" /><path
           style="display:inline;fill:#dc1436;fill-opacity:1;stroke:none;stroke-width:1.08339;stroke-linejoin:bevel;stroke-dasharray:none;stroke-opacity:0.867537"
           d="m 138.47853,156.1623 h 86.00244 c 0,0 7.41857,-50.47177 -43.00122,-50.47177 -50.41974,0 -43.00122,50.47177 -43.00122,50.47177 z"
           id="path829" /><circle
           style="display:inline;fill:#c8ab37;fill-opacity:1;stroke:none;stroke-width:1;stroke-linejoin:bevel;stroke-dasharray:none;stroke-opacity:0.867537"
           id="circle829"
           cx="181.47974"
           cy="98.721024"
           r="6.9695058" /><path
           id="path830"
           style="fill:#c8ab37;fill-opacity:1;stroke:none;stroke-width:1;stroke-linejoin:bevel;stroke-dasharray:none;stroke-opacity:0.867537"
           d="m 138.02127,163.91296 7.2192,51.17259 h 36.23913 36.23965 l 7.21919,-51.17259 H 181.4796 Z" /><rect
           style="display:inline;fill:#dc1436;fill-opacity:1;stroke:none;stroke-width:0.612623;stroke-linejoin:bevel;stroke-dasharray:none;stroke-opacity:0.867537"
           id="rect830"
           width="95.696815"
           height="11.984084"
           x="133.63132"
           y="214.84229" /><rect
           style="display:inline;fill:#dc1436;fill-opacity:1;stroke:none;stroke-width:0.647039;stroke-linejoin:bevel;stroke-dasharray:none;stroke-opacity:0.867537"
           id="rect831"
           width="105.33729"
           height="12.14488"
           x="128.8111"
           y="151.84859" /><path
           style="display:inline;fill:#dc1436;fill-opacity:1;stroke:none;stroke-width:1.08339;stroke-linejoin:bevel;stroke-dasharray:none;stroke-opacity:0.867537"
           d="m 138.47853,791.33081 h 86.00244 c 0,0 7.41857,50.47177 -43.00122,50.47177 -50.41974,0 -43.00122,-50.47177 -43.00122,-50.47177 z"
           id="path831" /><circle
           style="display:inline;fill:#c8ab37;fill-opacity:1;stroke:none;stroke-width:1;stroke-linejoin:bevel;stroke-dasharray:none;stroke-opacity:0.867537"
           id="circle831"
           cx="181.47974"
           cy="-848.77209"
           r="6.9695058"
           transform="scale(1,-1)" /><path
           id="path832"
           style="fill:#c8ab37;fill-opacity:1;stroke:none;stroke-width:1;stroke-linejoin:bevel;stroke-dasharray:none;stroke-opacity:0.867537"
           d="m 138.02127,783.58015 7.2192,-51.17259 h 36.23913 36.23965 l 7.21919,51.17259 H 181.4796 Z" /><rect
           style="display:inline;fill:#dc1436;fill-opacity:1;stroke:none;stroke-width:0.612623;stroke-linejoin:bevel;stroke-dasharray:none;stroke-opacity:0.867537"
           id="rect832"
           width="95.696815"
           height="11.984084"
           x="134.13586"
           y="-732.4339"
           transform="scale(1,-1)" /><rect
           style="display:inline;fill:#dc1436;fill-opacity:1;stroke:none;stroke-width:0.676731;stroke-linejoin:bevel;stroke-dasharray:none;stroke-opacity:0.867537"
           id="rect836"
           width="110.17119"
           height="12.702204"
           x="126.39416"
           y="-795.92316"
           transform="scale(1,-1)" /></g></g><g
       id="g898"
       transform="matrix(0.766461,-0.12030419,0.16272836,1.0367464,-38.319266,52.11708)"
       style="display:inline"><g
         id="g852"
         style="display:inline"
         transform="matrix(-0.69194849,0.54573779,0.54573779,0.69194849,94.025363,86.715507)"><rect
           style="display:inline;fill:#1f70ab;fill-opacity:1;stroke:none;stroke-width:0.855766;stroke-linejoin:bevel;stroke-dasharray:none;stroke-opacity:0.867537"
           id="rect837"
           width="72.978897"
           height="496.91187"
           x="144.9239"
           y="226.50471"
           transform="matrix(0.99999999,1.1818271e-4,1.1817602e-4,0.99999999,0,0)" /><path
           style="display:inline;fill:#dc1436;fill-opacity:1;stroke:none;stroke-width:1.08339;stroke-linejoin:bevel;stroke-dasharray:none;stroke-opacity:0.867537"
           d="m 138.47853,156.1623 h 86.00244 c 0,0 7.41857,-50.47177 -43.00122,-50.47177 -50.41974,0 -43.00122,50.47177 -43.00122,50.47177 z"
           id="path842" /><circle
           style="display:inline;fill:#c8ab37;fill-opacity:1;stroke:none;stroke-width:1;stroke-linejoin:bevel;stroke-dasharray:none;stroke-opacity:0.867537"
           id="circle842"
           cx="181.47974"
           cy="98.721024"
           r="6.9695058" /><path
           id="path849"
           style="fill:#c8ab37;fill-opacity:1;stroke:none;stroke-width:1;stroke-linejoin:bevel;stroke-dasharray:none;stroke-opacity:0.867537"
           d="m 138.02127,163.91296 7.2192,51.17259 h 36.23913 36.23965 l 7.21919,-51.17259 H 181.4796 Z" /><rect
           style="display:inline;fill:#dc1436;fill-opacity:1;stroke:none;stroke-width:0.612623;stroke-linejoin:bevel;stroke-dasharray:none;stroke-opacity:1"
           id="rect849"
           width="95.696815"
           height="11.984084"
           x="133.63132"
           y="214.84229" /><rect
           style="display:inline;fill:#dc1436;fill-opacity:1;stroke:none;stroke-width:0.638472;stroke-linejoin:bevel;stroke-dasharray:none;stroke-opacity:1"
           id="rect850"
           width="103.94265"
           height="11.984084"
           x="129.50842"
           y="151.92899" /><path
           style="display:inline;fill:#dc1436;fill-opacity:1;stroke:none;stroke-width:1.08339;stroke-linejoin:bevel;stroke-dasharray:none;stroke-opacity:0.867537"
           d="m 138.47853,791.33081 h 86.00244 c 0,0 7.41857,50.47177 -43.00122,50.47177 -50.41974,0 -43.00122,-50.47177 -43.00122,-50.47177 z"
           id="path850" /><circle
           style="display:inline;fill:#c8ab37;fill-opacity:1;stroke:none;stroke-width:1;stroke-linejoin:bevel;stroke-dasharray:none;stroke-opacity:0.867537"
           id="circle850"
           cx="181.47974"
           cy="-848.77209"
           r="6.9695058"
           transform="scale(1,-1)" /><path
           id="path851"
           style="fill:#c8ab37;fill-opacity:1;stroke:none;stroke-width:1;stroke-linejoin:bevel;stroke-dasharray:none;stroke-opacity:0.867537"
           d="m 138.02127,783.58015 7.2192,-51.17259 h 36.23913 36.23965 l 7.21919,51.17259 H 181.4796 Z" /><rect
           style="display:inline;fill:#dc1436;fill-opacity:1;stroke:none;stroke-width:0.612623;stroke-linejoin:bevel;stroke-dasharray:none;stroke-opacity:0.867537"
           id="rect851"
           width="95.696815"
           height="11.984084"
           x="133.63132"
           y="-732.65082"
           transform="scale(1,-1)" /><rect
           style="display:inline;fill:#dc1436;fill-opacity:1;stroke:none;stroke-width:0.638472;stroke-linejoin:bevel;stroke-dasharray:none;stroke-opacity:0.867537"
           id="rect852"
           width="103.94265"
           height="11.984084"
           x="129.50842"
           y="-795.56409"
           transform="scale(1,-1)" /></g><g
         id="g890"
         style="display:inline"
         transform="matrix(-0.69194849,0.5457378,0.5457378,0.69194849,165.90572,30.038634)"><rect
           style="display:inline;fill:#dc1436;fill-opacity:1;stroke:none;stroke-width:0.855401;stroke-linejoin:bevel;stroke-dasharray:none;stroke-opacity:0.867537"
           id="rect853"
           width="72.976532"
           height="496.50388"
           x="145.24065"
           y="226.78885"
           transform="matrix(0.99999883,-0.00152761,-0.00152873,0.99999883,0,0)" /><path
           style="display:inline;fill:#1f70ab;fill-opacity:1;stroke:none;stroke-width:1.08339;stroke-linejoin:bevel;stroke-dasharray:none;stroke-opacity:0.867537"
           d="m 138.47853,156.1623 h 86.00244 c 0,0 7.41857,-50.47177 -43.00122,-50.47177 -50.41974,0 -43.00122,50.47177 -43.00122,50.47177 z"
           id="path855" /><path
           style="display:inline;fill:#1f70ab;fill-opacity:1;stroke:none;stroke-width:1.08339;stroke-linejoin:bevel;stroke-dasharray:none;stroke-opacity:0.867537"
           d="m 138.47853,156.1623 h 86.00244 c 0,0 7.41857,-50.47177 -43.00122,-50.47177 -50.41974,0 -43.00122,50.47177 -43.00122,50.47177 z"
           id="path856" /><circle
           style="display:inline;fill:#c8ab37;fill-opacity:1;stroke:none;stroke-width:1;stroke-linejoin:bevel;stroke-dasharray:none;stroke-opacity:0.867537"
           id="circle856"
           cx="181.47974"
           cy="98.721024"
           r="6.9695058" /><path
           id="path857"
           style="fill:#c8ab37;fill-opacity:1;stroke:none;stroke-width:1;stroke-linejoin:bevel;stroke-dasharray:none;stroke-opacity:0.867537"
           d="m 138.02127,163.91296 7.2192,51.17259 h 36.23913 36.23965 l 7.21919,-51.17259 H 181.4796 Z" /><rect
           style="display:inline;fill:#1f70ab;fill-opacity:1;stroke:none;stroke-width:0.612623;stroke-linejoin:bevel;stroke-dasharray:none;stroke-opacity:0.867537"
           id="rect883"
           width="95.696815"
           height="11.984084"
           x="133.63132"
           y="214.84229" /><rect
           style="display:inline;fill:#1f70ab;fill-opacity:1;stroke:none;stroke-width:0.638472;stroke-linejoin:bevel;stroke-dasharray:none;stroke-opacity:0.867537"
           id="rect884"
           width="103.94265"
           height="11.984084"
           x="129.50842"
           y="151.92899" /><path
           style="display:inline;fill:#1f70ab;fill-opacity:1;stroke:none;stroke-width:1.08339;stroke-linejoin:bevel;stroke-dasharray:none;stroke-opacity:0.867537"
           d="m 138.47853,791.33081 h 86.00244 c 0,0 7.41857,50.47177 -43.00122,50.47177 -50.41974,0 -43.00122,-50.47177 -43.00122,-50.47177 z"
           id="path884" /><circle
           style="display:inline;fill:#c8ab37;fill-opacity:1;stroke:none;stroke-width:1;stroke-linejoin:bevel;stroke-dasharray:none;stroke-opacity:0.867537"
           id="circle884"
           cx="181.47974"
           cy="-848.77209"
           r="6.9695058"
           transform="scale(1,-1)" /><path
           id="path885"
           style="fill:#c8ab37;fill-opacity:1;stroke:none;stroke-width:1;stroke-linejoin:bevel;stroke-dasharray:none;stroke-opacity:0.867537"
           d="m 138.02127,783.58015 7.2192,-51.17259 h 36.23913 36.23965 l 7.21919,51.17259 H 181.4796 Z" /><rect
           style="display:inline;fill:#1f70ab;fill-opacity:1;stroke:none;stroke-width:0.612623;stroke-linejoin:bevel;stroke-dasharray:none;stroke-opacity:0.867537"
           id="rect889"
           width="95.696815"
           height="11.984084"
           x="134.13586"
           y="-732.4339"
           transform="scale(1,-1)" /><rect
           style="display:inline;fill:#1f70ab;fill-opacity:1;stroke:none;stroke-width:0.638472;stroke-linejoin:bevel;stroke-dasharray:none;stroke-opacity:0.867537"
           id="rect890"
           width="103.94265"
           height="11.984084"
           x="129.50842"
           y="-795.56409"
           transform="scale(1,-1)" /></g><g
         id="g897"
         style="display:inline"
         transform="matrix(-0.69194849,0.5457378,0.5457378,0.69194849,237.45798,-26.363104)"><rect
           style="display:inline;fill:#1f70ab;fill-opacity:1;stroke:none;stroke-width:0.855401;stroke-linejoin:bevel;stroke-dasharray:none;stroke-opacity:0.867537"
           id="rect891"
           width="72.976532"
           height="496.50388"
           x="145.24065"
           y="226.78885"
           transform="matrix(0.99999883,-0.00152761,-0.00152873,0.99999883,0,0)" /><path
           style="display:inline;fill:#1f70ab;fill-opacity:1;stroke:none;stroke-width:1.08339;stroke-linejoin:bevel;stroke-dasharray:none;stroke-opacity:0.867537"
           d="m 138.47853,156.1623 h 86.00244 c 0,0 7.41857,-50.47177 -43.00122,-50.47177 -50.41974,0 -43.00122,50.47177 -43.00122,50.47177 z"
           id="path892" /><path
           style="display:inline;fill:#dc1436;fill-opacity:1;stroke:none;stroke-width:1.08339;stroke-linejoin:bevel;stroke-dasharray:none;stroke-opacity:0.867537"
           d="m 138.47853,156.1623 h 86.00244 c 0,0 7.41857,-50.47177 -43.00122,-50.47177 -50.41974,0 -43.00122,50.47177 -43.00122,50.47177 z"
           id="path893" /><circle
           style="display:inline;fill:#c8ab37;fill-opacity:1;stroke:none;stroke-width:1;stroke-linejoin:bevel;stroke-dasharray:none;stroke-opacity:0.867537"
           id="circle893"
           cx="181.47974"
           cy="98.721024"
           r="6.9695058" /><path
           id="path894"
           style="fill:#c8ab37;fill-opacity:1;stroke:none;stroke-width:1;stroke-linejoin:bevel;stroke-dasharray:none;stroke-opacity:0.867537"
           d="m 138.02127,163.91296 7.2192,51.17259 h 36.23913 36.23965 l 7.21919,-51.17259 H 181.4796 Z" /><rect
           style="display:inline;fill:#dc1436;fill-opacity:1;stroke:none;stroke-width:0.612623;stroke-linejoin:bevel;stroke-dasharray:none;stroke-opacity:0.867537"
           id="rect894"
           width="95.696815"
           height="11.984084"
           x="133.63132"
           y="214.84229" /><rect
           style="display:inline;fill:#dc1436;fill-opacity:1;stroke:none;stroke-width:0.638472;stroke-linejoin:bevel;stroke-dasharray:none;stroke-opacity:0.867537"
           id="rect895"
           width="103.94265"
           height="11.984084"
           x="129.50842"
           y="151.92899" /><path
           style="display:inline;fill:#dc1436;fill-opacity:1;stroke:none;stroke-width:1.08339;stroke-linejoin:bevel;stroke-dasharray:none;stroke-opacity:0.867537"
           d="m 138.47853,791.33081 h 86.00244 c 0,0 7.41857,50.47177 -43.00122,50.47177 -50.41974,0 -43.00122,-50.47177 -43.00122,-50.47177 z"
           id="path895" /><circle
           style="display:inline;fill:#c8ab37;fill-opacity:1;stroke:none;stroke-width:1;stroke-linejoin:bevel;stroke-dasharray:none;stroke-opacity:0.867537"
           id="circle895"
           cx="181.47974"
           cy="-848.77209"
           r="6.9695058"
           transform="scale(1,-1)" /><path
           id="path896"
           style="fill:#c8ab37;fill-opacity:1;stroke:none;stroke-width:1;stroke-linejoin:bevel;stroke-dasharray:none;stroke-opacity:0.867537"
           d="m 138.02127,783.58015 7.2192,-51.17259 h 36.23913 36.23965 l 7.21919,51.17259 H 181.4796 Z" /><rect
           style="display:inline;fill:#dc1436;fill-opacity:1;stroke:none;stroke-width:0.612623;stroke-linejoin:bevel;stroke-dasharray:none;stroke-opacity:0.867537"
           id="rect896"
           width="95.696815"
           height="11.984084"
           x="134.13586"
           y="-732.4339"
           transform="scale(1,-1)" /><rect
           style="display:inline;fill:#dc1436;fill-opacity:1;stroke:none;stroke-width:0.638472;stroke-linejoin:bevel;stroke-dasharray:none;stroke-opacity:0.867537"
           id="rect897"
           width="103.94265"
           height="11.984084"
           x="129.50842"
           y="-795.56409"
           transform="scale(1,-1)" /></g></g><path
       style="display:inline;fill:#c8ab37;fill-opacity:1;stroke:#ffffff;stroke-width:10.1216;stroke-linecap:butt;stroke-linejoin:miter;stroke-dasharray:none;stroke-opacity:1"
       d="M 264.89349,330.21433 395.86903,489.78176 264.86284,649.78251 134.12795,490.09646 Z"
       id="path898" /><text
       xml:space="preserve"
       transform="matrix(0.88955696,0,0,0.88955696,-24.535154,139.2533)"
       id="text899"
       style="font-size:192px;line-height:1.25;font-family:sans-serif;white-space:pre;shape-inside:url(#rect905);display:inline;fill:#ffffff"><tspan
         x="276.5918"
         y="455.18432"
         id="tspan6"><tspan
           style="font-family:Centaur;-inkscape-font-specification:Centaur;fill:#000000"
           id="tspan5">7</tspan></tspan></text><rect
       style="fill:#ffffff;fill-opacity:1;stroke:none;stroke-width:5.7584;stroke-linejoin:round;stroke-miterlimit:0"
       id="rect899"
       width="37.133144"
       height="490.11566"
       x="0"
       y="242.97171" /><rect
       style="fill:#ffffff;fill-opacity:1;stroke:none;stroke-width:6.0359;stroke-linejoin:round;stroke-miterlimit:0"
       id="rect900"
       width="36.944157"
       height="541.24548"
       x="492.52667"
       y="218.56885" /><rect
       style="display:none;fill:#000000;fill-opacity:1;stroke:none;stroke-width:2.7568;stroke-linejoin:round;stroke-miterlimit:0"
       id="rect901"
       width="3.9082987"
       height="491.31839"
       x="37.136097"
       y="242.97171" /><rect
       style="display:none;fill:#000000;fill-opacity:1;stroke:none;stroke-width:2.69427;stroke-linejoin:round;stroke-miterlimit:0"
       id="rect902"
       width="3.8256164"
       height="479.4249"
       x="488.66959"
       y="242.97171" /><path
       id="path910"
       style="display:inline;fill:none;fill-opacity:1;stroke:#000000;stroke-width:4;stroke-linejoin:bevel;stroke-dasharray:none;stroke-opacity:1"
       d="M 84.38306,39.04751 A 45.33562,49.009618 0 0 0 39.04751,88.057052 V 892.65504 a 45.33562,49.009618 0 0 0 45.33555,49.00955 H 445.26759 A 45.33562,49.009618 0 0 0 490.6036,892.65504 V 88.057052 A 45.33562,49.009618 0 0 0 445.26759,39.04751 Z" /></g></svg>
