<?xml version="1.0" encoding="UTF-8" standalone="no"?>
<!-- Created with Inkscape (http://www.inkscape.org/) -->

<svg
   width="530mm"
   height="980mm"
   viewBox="0 0 530 980"
   version="1.1"
   id="svg1"
   xml:space="preserve"
   sodipodi:docname="11_d.svg"
   inkscape:version="1.4 (86a8ad7, 2024-10-11)"
   xmlns:inkscape="http://www.inkscape.org/namespaces/inkscape"
   xmlns:sodipodi="http://sodipodi.sourceforge.net/DTD/sodipodi-0.dtd"
   xmlns="http://www.w3.org/2000/svg"
   xmlns:svg="http://www.w3.org/2000/svg"><sodipodi:namedview
     id="namedview1"
     pagecolor="#ffffff"
     bordercolor="#000000"
     borderopacity="0.25"
     inkscape:showpageshadow="2"
     inkscape:pageopacity="0.0"
     inkscape:pagecheckerboard="0"
     inkscape:deskcolor="#d1d1d1"
     inkscape:document-units="mm"
     inkscape:zoom="0.22003614"
     inkscape:cx="999.83576"
     inkscape:cy="1851.9685"
     inkscape:window-width="1920"
     inkscape:window-height="1017"
     inkscape:window-x="-8"
     inkscape:window-y="32"
     inkscape:window-maximized="1"
     inkscape:current-layer="svg1" /><defs
     id="defs1"><rect
       x="276.59204"
       y="280.4877"
       width="272.69638"
       height="292.17471"
       id="rect221" /><linearGradient
       id="swatch181"><stop
         style="stop-color:#0f70ff;stop-opacity:1;"
         offset="0"
         id="stop181" /></linearGradient><rect
       x="276.59204"
       y="280.4877"
       width="272.69638"
       height="292.17471"
       id="rect222" /><rect
       x="276.59204"
       y="280.4877"
       width="272.69638"
       height="292.17471"
       id="rect85" /><rect
       x="276.59204"
       y="280.4877"
       width="272.69638"
       height="292.17471"
       id="rect86" /><rect
       x="276.59204"
       y="280.4877"
       width="272.69638"
       height="292.17471"
       id="rect144" /><rect
       x="276.59204"
       y="280.4877"
       width="272.69638"
       height="292.17471"
       id="rect145" /><rect
       x="276.59204"
       y="280.4877"
       width="272.69638"
       height="292.17471"
       id="rect227" /><rect
       x="276.59204"
       y="280.4877"
       width="272.69638"
       height="292.17471"
       id="rect228" /><rect
       x="276.59204"
       y="280.4877"
       width="272.69638"
       height="292.17471"
       id="rect336" /><rect
       x="276.59204"
       y="280.4877"
       width="272.69638"
       height="292.17471"
       id="rect337" /><rect
       x="276.59204"
       y="280.4877"
       width="272.69638"
       height="292.17471"
       id="rect392" /><rect
       x="276.59204"
       y="280.4877"
       width="272.69638"
       height="292.17471"
       id="rect393" /><rect
       x="276.59204"
       y="280.4877"
       width="272.69638"
       height="292.17471"
       id="rect422" /><rect
       x="276.59204"
       y="280.4877"
       width="272.69638"
       height="292.17471"
       id="rect423" /><rect
       x="276.59204"
       y="280.4877"
       width="272.69638"
       height="292.17471"
       id="rect1304" /><rect
       x="276.59204"
       y="280.4877"
       width="272.69638"
       height="292.17471"
       id="rect1305" /><rect
       x="276.59204"
       y="280.4877"
       width="272.69638"
       height="292.17471"
       id="rect1174" /><rect
       x="276.59204"
       y="280.4877"
       width="272.69638"
       height="292.17471"
       id="rect1175" /><rect
       x="276.59204"
       y="280.4877"
       width="272.69638"
       height="292.17471"
       id="rect834" /><rect
       x="276.59204"
       y="280.4877"
       width="272.69638"
       height="292.17471"
       id="rect835" /><rect
       x="276.59204"
       y="280.4877"
       width="272.69638"
       height="292.17471"
       id="rect620" /><rect
       x="276.59204"
       y="280.4877"
       width="272.69638"
       height="292.17471"
       id="rect621" /><rect
       x="276.59204"
       y="280.4877"
       width="272.69638"
       height="292.17471"
       id="rect365" /><rect
       x="276.59204"
       y="280.4877"
       width="272.69638"
       height="292.17471"
       id="rect364" /><rect
       x="276.59204"
       y="280.4877"
       width="272.69638"
       height="292.17471"
       id="rect221-7" /><rect
       x="276.59204"
       y="280.4877"
       width="272.69638"
       height="292.17471"
       id="rect222-6" /><rect
       x="276.59204"
       y="280.4877"
       width="272.69638"
       height="292.17471"
       id="rect190" /><rect
       x="276.59204"
       y="280.4877"
       width="272.69638"
       height="292.17471"
       id="rect189" /><rect
       x="276.59204"
       y="280.4877"
       width="272.69638"
       height="292.17471"
       id="rect234" /><rect
       x="276.59204"
       y="280.4877"
       width="272.69638"
       height="292.17471"
       id="rect235" /><rect
       x="276.59204"
       y="280.4877"
       width="272.69638"
       height="292.17471"
       id="rect885" /><rect
       x="276.59204"
       y="280.4877"
       width="272.69638"
       height="292.17471"
       id="rect886" /><rect
       x="276.59204"
       y="280.4877"
       width="1712.1638"
       height="367.93616"
       id="rect888" /><rect
       x="276.59204"
       y="280.4877"
       width="272.69638"
       height="292.17471"
       id="rect1322" /><rect
       x="276.59204"
       y="280.4877"
       width="272.69638"
       height="292.17471"
       id="rect1323" /><rect
       x="276.59204"
       y="280.4877"
       width="1712.1638"
       height="367.93616"
       id="rect1324" /><rect
       x="276.59204"
       y="280.4877"
       width="272.69638"
       height="292.17471"
       id="rect1395" /><rect
       x="276.59204"
       y="280.4877"
       width="272.69638"
       height="292.17471"
       id="rect1423" /><rect
       x="276.59204"
       y="280.4877"
       width="272.69638"
       height="292.17471"
       id="rect1424" /><rect
       x="276.59204"
       y="280.4877"
       width="272.69638"
       height="292.17471"
       id="rect1425" /><rect
       x="276.59204"
       y="280.4877"
       width="272.69638"
       height="292.17471"
       id="rect1464" /><rect
       x="276.59204"
       y="280.4877"
       width="272.69638"
       height="292.17471"
       id="rect1465" /><rect
       x="276.59204"
       y="280.4877"
       width="272.69638"
       height="292.17471"
       id="rect1466" /><rect
       x="276.59204"
       y="280.4877"
       width="272.69638"
       height="292.17471"
       id="rect591" /><rect
       x="276.59204"
       y="280.4877"
       width="272.69638"
       height="292.17471"
       id="rect592" /><rect
       x="276.59204"
       y="280.4877"
       width="272.69638"
       height="292.17471"
       id="rect593" /><rect
       x="276.59204"
       y="280.4877"
       width="272.69638"
       height="292.17471"
       id="rect803" /><rect
       x="276.59204"
       y="280.4877"
       width="272.69638"
       height="292.17471"
       id="rect804" /><rect
       x="276.59204"
       y="280.4877"
       width="272.69638"
       height="292.17471"
       id="rect805" /><rect
       x="276.59204"
       y="280.4877"
       width="272.69638"
       height="292.17471"
       id="rect903" /><rect
       x="276.59204"
       y="280.4877"
       width="272.69638"
       height="292.17471"
       id="rect904" /><rect
       x="276.59204"
       y="280.4877"
       width="272.69638"
       height="292.17471"
       id="rect905" /><rect
       x="276.59204"
       y="280.4877"
       width="272.69638"
       height="292.17471"
       id="rect1538" /><rect
       x="276.59204"
       y="280.4877"
       width="272.69638"
       height="292.17471"
       id="rect1539" /><rect
       x="276.59204"
       y="280.4877"
       width="1712.1638"
       height="367.93616"
       id="rect1540" /><rect
       x="276.59204"
       y="280.4877"
       width="272.69638"
       height="292.17471"
       id="rect750" /><rect
       x="276.59204"
       y="280.4877"
       width="272.69638"
       height="292.17471"
       id="rect751" /><rect
       x="276.59204"
       y="280.4877"
       width="272.69638"
       height="292.17471"
       id="rect752" /><rect
       x="276.59204"
       y="280.4877"
       width="272.69638"
       height="292.17471"
       id="rect1002" /><rect
       x="276.59204"
       y="280.4877"
       width="272.69638"
       height="292.17471"
       id="rect1003" /><rect
       x="276.59204"
       y="280.4877"
       width="272.69638"
       height="292.17471"
       id="rect537" /><rect
       x="276.59204"
       y="280.4877"
       width="272.69638"
       height="292.17471"
       id="rect538" /><rect
       x="276.59204"
       y="280.4877"
       width="272.69638"
       height="292.17471"
       id="rect539" /><rect
       x="276.59204"
       y="280.4877"
       width="272.69638"
       height="292.17471"
       id="rect540" /><rect
       x="276.59204"
       y="280.4877"
       width="1712.1638"
       height="367.93616"
       id="rect541" /></defs><g
     id="g220"
     style="display:inline"><g
       id="layer1"
       style="display:inline;fill:#ffffff"><path
         id="rect4"
         style="display:inline;fill:#ffffff;fill-opacity:1;stroke:none;stroke-width:2.365;stroke-linejoin:bevel;stroke-opacity:1"
         d="M 53.211222,0 A 53.211304,53.211304 0 0 0 0,53.211222 V 926.78891 a 53.211304,53.211304 0 0 0 53.211222,53.21122 H 476.78847 a 53.211304,53.211304 0 0 0 53.21174,-53.21122 V 53.211222 A 53.211304,53.211304 0 0 0 476.78847,0 Z" /><path
         id="path7"
         style="display:inline;fill:none;fill-opacity:1;stroke:#000000;stroke-width:4;stroke-linejoin:bevel;stroke-dasharray:none;stroke-opacity:1"
         d="M 84.38306,39.04751 A 45.33562,49.009618 0 0 0 39.04751,88.057052 V 892.65504 a 45.33562,49.009618 0 0 0 45.33555,49.00955 H 445.26759 A 45.33562,49.009618 0 0 0 490.6036,892.65504 V 88.057052 A 45.33562,49.009618 0 0 0 445.26759,39.04751 Z" /></g></g><g
     id="g1322"
     transform="translate(-0.07639736,0.07586746)"
     style="display:inline"><text
       xml:space="preserve"
       transform="matrix(-0.26458333,0,0,-0.26458333,532.81123,1002.2008)"
       id="text828"
       style="font-size:192px;line-height:1.25;font-family:sans-serif;white-space:pre;shape-inside:url(#rect1322);display:inline;fill:#ffffff"><tspan
         x="276.5918"
         y="455.18432"
         id="tspan2"><tspan
           style="font-family:Centaur;-inkscape-font-specification:Centaur;fill:#000000"
           id="tspan1">11</tspan></tspan></text><text
       xml:space="preserve"
       transform="matrix(0.26458333,0,0,0.26458333,0,-21.566009)"
       id="text830"
       style="font-size:192px;line-height:1.25;font-family:sans-serif;white-space:pre;shape-inside:url(#rect1323);display:inline;fill:#ffffff"><tspan
         x="276.5918"
         y="455.18432"
         id="tspan4"><tspan
           style="font-family:Centaur;-inkscape-font-specification:Centaur;fill:#000000"
           id="tspan3">11</tspan></tspan></text><text
       xml:space="preserve"
       transform="matrix(0.26458333,0,0,0.26458333,4.9768847,394.26009)"
       id="text833"
       style="font-size:146.667px;line-height:1.25;font-family:sans-serif;letter-spacing:10px;white-space:pre;shape-inside:url(#rect1324);display:inline;fill:#ffffff"><tspan
         x="276.5918"
         y="413.93695"
         id="tspan6"><tspan
           style="font-family:'Noto Serif';-inkscape-font-specification:'Noto Serif';fill:#000000"
           id="tspan5">FANTE DI DENARI</tspan></tspan></text><rect
       style="display:inline;fill:none;stroke:#000000;stroke-width:3;stroke-dasharray:none;stroke-opacity:1"
       id="rect833"
       width="452.28424"
       height="37.760498"
       x="38.934277"
       y="471.04388" /><g
       id="g1060"
       transform="rotate(180,265.0591,490.08665)"
       style="display:inline"><path
         style="display:inline;fill:#f7ab89;fill-opacity:1;stroke:#000000;stroke-width:4;stroke-linecap:butt;stroke-linejoin:miter;stroke-dasharray:none;stroke-opacity:1"
         d="m 309.907,128.02996 51.59015,1.73899 c 0,0 -0.87237,28.30862 8.40512,52.1698 2.10061,5.40264 -17.38992,0 -17.38992,0 0,0 0.60558,11.13922 -0.57968,16.52043 -0.85683,3.89012 -4.6373,11.01363 -4.6373,11.01363 0,0 4.67228,6.95161 4.05765,10.72379 -0.51364,3.15235 -6.06039,7.42173 -6.06039,7.42173 0,0 -24.01901,4.40332 -35.14972,9.17097 -23.55717,10.09031 -36.79831,1.35964 -36.79831,1.35964 l 10.00577,-62.3582 z"
         id="path833" /><path
         style="display:inline;fill:#6c5a58;fill-opacity:1;stroke:#000000;stroke-width:4;stroke-linecap:butt;stroke-linejoin:miter;stroke-dasharray:none;stroke-opacity:1"
         d="m 273.34459,238.14894 -26.92754,-8.27954 -32.04386,9.78736 c 0,0 -3.35511,-15.73383 -3.00913,-23.51781 0.44782,-10.07512 11.88312,-27.82389 11.88312,-27.82389 0,0 -2.55245,-13.1639 -1.73899,-19.70859 1.66573,-13.40166 13.33228,-38.25785 13.33228,-38.25785 l 75.06653,-2.31866 -17.38993,44.92399 c 0,0 6.25884,18.44105 4.3475,27.53406 -3.05799,14.54807 -23.51998,37.66093 -23.51998,37.66093 z"
         id="path834" /><path
         style="display:inline;fill:#dc1436;fill-opacity:1;stroke:#000000;stroke-width:4;stroke-linecap:butt;stroke-linejoin:miter;stroke-dasharray:none;stroke-opacity:1"
         d="m 190.78598,246.86116 c 0,0 36.25235,-16.34863 55.63107,-16.99176 15.56764,-0.51665 29.94122,11.45084 45.49719,10.657 12.55717,-0.6408 33.61054,-9.01746 33.61054,-9.01746 0,0 38.01076,-9.765 54.10477,-3.27908 24.32056,9.80124 111.05043,47.9565 111.05043,47.9565 l -0.58867,194.85752 H 249.91174 Z"
         id="path835" /><path
         style="display:inline;fill:#1f70ab;fill-opacity:1;stroke:#000000;stroke-width:4;stroke-linecap:butt;stroke-linejoin:round;stroke-dasharray:none;stroke-opacity:1"
         d="m 256.8813,231.05446 -13.30375,173.39221 h 66.28915 l 69.76285,-176.21681 c 0,0 -12.35163,-6.05796 -38.25362,-1.03644 -21.96212,4.25771 -42.81597,12.94397 -49.67243,12.98442 -4.49903,0.0265 -10.9694,-0.21214 -18.17409,-2.77205 -7.59865,-2.69989 -16.64811,-6.35133 -16.64811,-6.35133 z"
         id="path836" /><path
         style="fill:#e7d06c;fill-opacity:1;stroke:#000000;stroke-width:4;stroke-linecap:butt;stroke-linejoin:miter;stroke-dasharray:none;stroke-opacity:1"
         d="m 249.83534,471.11975 h 121.93001 l 4.31408,-66.59721 H 243.50116 Z"
         id="path837"
         transform="translate(0.07639736,-0.07586746)" /><path
         style="display:inline;fill:#f39f33;fill-opacity:1;stroke:#000000;stroke-width:4;stroke-linecap:butt;stroke-linejoin:miter;stroke-dasharray:none;stroke-opacity:1"
         d="m 443.98778,256.0226 46.6922,21.39341 -0.58867,193.62787 H 371.84175 c 0,0 0.79986,-72.41163 12.70641,-110.54507 11.96998,-38.33657 59.43962,-104.47621 59.43962,-104.47621 z"
         id="path838" /><path
         style="display:inline;fill:#f39f33;fill-opacity:1;stroke:#000000;stroke-width:4;stroke-linecap:butt;stroke-linejoin:miter;stroke-dasharray:none;stroke-opacity:1"
         d="m 75.495166,471.04388 c 0,0 4.804322,-158.40445 56.165044,-209.11145 14.47352,-14.2893 43.14053,-27.6466 59.12577,-15.07127 49.80454,39.18043 59.12576,224.18272 59.12576,224.18272 z"
         id="path839" /><path
         style="display:inline;fill:#e7d06c;fill-opacity:1;stroke:#000000;stroke-width:4;stroke-linecap:butt;stroke-linejoin:miter;stroke-dasharray:none;stroke-opacity:1"
         d="M 94.622991,470.51471 H 203.86941 c 0,0 -2.66077,-58.63908 -10.25884,-78.93584 -10.16837,-27.16282 -77.38383,-25.4456 -86.98989,1.92114 -6.1836,17.61648 -11.997689,77.0147 -11.997689,77.0147 z"
         id="path840" /><path
         style="display:inline;fill:#dc1436;fill-opacity:1;stroke:#000000;stroke-width:4;stroke-linecap:butt;stroke-linejoin:miter;stroke-dasharray:none;stroke-opacity:1"
         d="m 124.56287,350.2608 c 0,0 -34.706514,30.41782 -24.568458,43.7035 3.545268,4.64597 17.008928,-4.25222 17.008928,-4.25222 0,0 6.42142,13.65586 12.7567,14.1741 7.0355,0.57552 16.53646,-13.22917 16.53646,-13.22917 0,0 10.72988,17.33917 18.89881,16.06399 8.24709,-1.28738 13.22916,-21.26115 13.22916,-21.26115 0,0 17.96286,10.9909 22.2061,4.72469 8.62334,-12.73454 -25.66856,-38.33928 -25.66856,-38.33928 z"
         id="path841" /><g
         id="g1349"
         transform="matrix(0.7110885,0,0,-0.7110885,-35.235716,600.73992)"
         style="display:inline"><g
           id="g1348"
           style="display:inline"
           transform="translate(0,9.6741359)"><path
             style="fill:#ffdd55;fill-opacity:1;stroke:#000000;stroke-width:5.62518;stroke-dasharray:none;stroke-opacity:1"
             id="path1336"
             d="M 373.59632,490 A 108.59632,108.59632 0 0 1 265.02275,598.59632 108.59632,108.59632 0 0 1 156.40369,490.04549 108.59632,108.59632 0 0 1 264.93176,381.4037 108.59632,108.59632 0 0 1 373.59628,489.90902" /><path
             style="fill:#000000;stroke:#000000;stroke-width:5.62518;stroke-dasharray:none;stroke-opacity:1"
             id="path1337"
             d="m 359.28433,490 a 94.284332,94.284332 0 0 1 -94.26458,94.28433 94.284332,94.284332 0 0 1 -94.30407,-94.24483 94.284332,94.284332 0 0 1 94.22508,-94.32381 94.284332,94.284332 0 0 1 94.34354,94.20532" /><path
             style="fill:#ff0000;stroke:#4d4d4d;stroke-width:0.181798"
             id="path1338"
             d="m 290.80717,490 a 25.807169,25.807169 0 0 1 -25.80176,25.80717 25.807169,25.807169 0 0 1 -25.81258,-25.79636 25.807169,25.807169 0 0 1 25.79095,-25.81797 25.807169,25.807169 0 0 1 25.82338,25.78554" /><path
             style="fill:#000000;stroke:#4d4d4d;stroke-width:0.090899"
             id="path1339"
             d="m 277.90359,490 a 12.903586,12.903586 0 0 1 -12.90089,12.90359 12.903586,12.903586 0 0 1 -12.90629,-12.89818 12.903586,12.903586 0 0 1 12.89548,-12.90899 12.903586,12.903586 0 0 1 12.91169,12.89277" /><g
             id="g1347"
             transform="rotate(-22.935032,264.99937,490.00026)"><path
               id="path1340"
               style="fill:#ffdd55;fill-opacity:1;stroke:none;stroke-width:1.96672;stroke-dasharray:none"
               d="m 257.09483,522.01902 c -6.04454,6.5783 -13.30949,22.20556 -13.30949,38.97832 h 7.9e-4 l -7.9e-4,0.009 c 0.005,11.71472 9.50428,21.20806 21.219,21.2056 11.71479,-0.002 21.21031,-8.67777 21.21031,-21.2145 -0.0104,-15.17056 -7.97447,-32.34476 -13.87718,-38.97831 -5.90269,-6.63356 -9.19812,-6.57831 -15.24264,0 z" /><path
               id="path1341"
               style="fill:#0f70ff;fill-opacity:1;stroke:none;stroke-width:1.96672;stroke-dasharray:none"
               d="m 257.09483,457.98098 c -6.04454,-6.5783 -13.30949,-22.20556 -13.30949,-38.97832 h 7.9e-4 l -7.9e-4,-0.009 c 0.005,-11.71472 9.50428,-21.20806 21.219,-21.2056 11.71479,0.002 21.21031,8.67777 21.21031,21.2145 -0.0104,15.17056 -7.97447,32.34476 -13.87718,38.97831 -5.90269,6.63356 -9.19812,6.57831 -15.24264,0 z" /><path
               id="path1342"
               style="fill:#ffdd55;fill-opacity:1;stroke:none;stroke-width:1.96672;stroke-dasharray:none"
               d="m 282.04137,462.53106 c 0.17264,-8.93201 5.71292,-25.25059 17.29796,-37.37958 l 5.7e-4,5.5e-4 0.006,-0.007 c 8.09504,-8.46788 21.52141,-8.77166 29.99105,-0.67846 8.47001,8.09291 9.34417,20.92528 0.68498,29.99105 -10.4859,10.9632 -28.10732,17.88166 -36.95762,18.60159 -8.85028,0.71995 -11.19516,-1.59618 -11.0225,-10.52817 z" /><path
               id="path1343"
               style="fill:#0f70ff;fill-opacity:1;stroke:none;stroke-width:1.96672;stroke-dasharray:none"
               d="m 247.10581,462.53106 c -0.17264,-8.93201 -5.71292,-25.25059 -17.29796,-37.37958 l -5.7e-4,5.5e-4 -0.006,-0.007 c -8.09504,-8.46788 -21.52141,-8.77166 -29.99105,-0.67846 -8.47001,8.09291 -9.34417,20.92528 -0.68498,29.99105 10.4859,10.9632 28.10732,17.88166 36.95762,18.60159 8.85028,0.71995 11.19516,-1.59618 11.0225,-10.52817 z" /><path
               id="path1344"
               style="fill:#0f70ff;fill-opacity:1;stroke:none;stroke-width:1.96672;stroke-dasharray:none"
               d="m 247.10581,517.41838 c -0.17264,8.93201 -5.71292,25.25059 -17.29796,37.37958 l -5.7e-4,-5.5e-4 -0.006,0.007 c -8.09504,8.46788 -21.52141,8.77166 -29.99105,0.67846 -8.47001,-8.09291 -9.34417,-20.92528 -0.68498,-29.99105 10.4859,-10.9632 28.10732,-17.88166 36.95762,-18.60159 8.85028,-0.71995 11.19516,1.59618 11.0225,10.52817 z" /><path
               id="path1345"
               style="fill:#ffdd55;fill-opacity:1;stroke:none;stroke-width:1.96672;stroke-dasharray:none"
               d="m 282.04137,517.41838 c 0.17264,8.93201 5.71292,25.25059 17.29796,37.37958 l 5.7e-4,-5.5e-4 0.006,0.007 c 8.09504,8.46788 21.52141,8.77166 29.99105,0.67846 8.47001,-8.09291 9.34417,-20.92528 0.68498,-29.99105 -10.4859,-10.9632 -28.10732,-17.88166 -36.95762,-18.60159 -8.85028,-0.71995 -11.19516,1.59618 -11.0225,10.52817 z" /><path
               id="path1346"
               style="fill:#ffdd55;fill-opacity:1;stroke:none;stroke-width:1.96672;stroke-dasharray:none"
               d="m 297.27583,482.09483 c 6.5783,-6.04454 22.20556,-13.30949 38.97832,-13.30949 v 7.9e-4 l 0.009,-7.9e-4 c 11.71472,0.005 21.20806,9.50428 21.2056,21.219 -0.002,11.71479 -8.67777,21.21031 -21.2145,21.21031 -15.17056,-0.0104 -32.34476,-7.97447 -38.97831,-13.87718 -6.63356,-5.90269 -6.57831,-9.19812 0,-15.24264 z" /><path
               id="path1347"
               style="fill:#0f70ff;fill-opacity:1;stroke:none;stroke-width:1.96672;stroke-dasharray:none"
               d="m 232.72417,482.09483 c -6.5783,-6.04454 -22.20556,-13.30949 -38.97832,-13.30949 v 7.9e-4 l -0.009,-7.9e-4 c -11.71472,0.005 -21.20806,9.50428 -21.2056,21.219 0.002,11.71479 8.67777,21.21031 21.2145,21.21031 15.17056,-0.0104 32.34476,-7.97447 38.97831,-13.87718 6.63356,-5.90269 6.57831,-9.19812 0,-15.24264 z" /></g></g></g><path
         style="display:inline;fill:#f0aa83;fill-opacity:1;stroke:#000000;stroke-width:4;stroke-linecap:butt;stroke-linejoin:miter;stroke-dasharray:none;stroke-opacity:1"
         d="m 120.54687,318.84153 c -5.68551,4.62902 1.66506,25.61815 4.016,31.41927 2.09572,5.17134 36.07812,11.20357 50.39914,1.58446 7.51948,-5.05066 8.30094,-7.53614 11.62792,-16.53154 2.20883,-5.97216 2.66666,-16.14328 0.81148,-22.37806 -1.52663,-5.13062 -3.80669,-10.18033 -7.08705,-14.41035 -1.7796,-2.29479 -3.78513,-6.32321 -6.61459,-5.66962 -3.09287,0.71443 -3.63231,5.56981 -3.77976,8.74069 -0.17698,3.80588 3.60133,7.05726 3.54353,10.86681 -0.0635,4.18414 -4.25224,11.81177 -4.25224,11.81177 0,0 -9.0911,-2.66319 -12.88813,-0.31526 -3.35533,2.0748 -5.53821,10.7096 -5.53821,10.7096 0,0 0.0969,-9.22279 -3.14516,-11.17226 -4.36315,-2.62357 -21.53619,-9.17968 -27.09293,-4.65551 z"
         id="path1059" /><path
         style="fill:#1f70ab;fill-opacity:1;stroke:#000000;stroke-width:4;stroke-linecap:butt;stroke-linejoin:miter;stroke-dasharray:none;stroke-opacity:1"
         d="m 234.84047,130.34862 c 0,0 -29.28558,-28.41987 -19.41876,-39.127348 36.48439,-39.592881 129.64871,-38.691558 166.65351,-2.318657 10.87701,10.691272 -20.57807,40.866335 -20.57807,40.866335 z"
         id="path1060" /></g><g
       id="g1372"
       transform="translate(0,-0.52916668)"
       style="display:inline"><path
         style="display:inline;fill:#f7ab89;fill-opacity:1;stroke:#000000;stroke-width:4;stroke-linecap:butt;stroke-linejoin:miter;stroke-dasharray:none;stroke-opacity:1"
         d="m 309.907,128.02996 51.59015,1.73899 c 0,0 -0.87237,28.30862 8.40512,52.1698 2.10061,5.40264 -17.38992,0 -17.38992,0 0,0 0.60558,11.13922 -0.57968,16.52043 -0.85683,3.89012 -4.6373,11.01363 -4.6373,11.01363 0,0 4.67228,6.95161 4.05765,10.72379 -0.51364,3.15235 -6.06039,7.42173 -6.06039,7.42173 0,0 -24.01901,4.40332 -35.14972,9.17097 -23.55717,10.09031 -36.79831,1.35964 -36.79831,1.35964 l 10.00577,-62.3582 z"
         id="path1349" /><path
         style="display:inline;fill:#6c5a58;fill-opacity:1;stroke:#000000;stroke-width:4;stroke-linecap:butt;stroke-linejoin:miter;stroke-dasharray:none;stroke-opacity:1"
         d="m 273.34459,238.14894 -26.92754,-8.27954 -32.04386,9.78736 c 0,0 -3.35511,-15.73383 -3.00913,-23.51781 0.44782,-10.07512 11.88312,-27.82389 11.88312,-27.82389 0,0 -2.55245,-13.1639 -1.73899,-19.70859 1.66573,-13.40166 13.33228,-38.25785 13.33228,-38.25785 l 75.06653,-2.31866 -17.38993,44.92399 c 0,0 6.25884,18.44105 4.3475,27.53406 -3.05799,14.54807 -23.51998,37.66093 -23.51998,37.66093 z"
         id="path1350" /><path
         style="display:inline;fill:#dc1436;fill-opacity:1;stroke:#000000;stroke-width:4;stroke-linecap:butt;stroke-linejoin:miter;stroke-dasharray:none;stroke-opacity:1"
         d="m 190.78598,246.86116 c 0,0 36.25235,-16.34863 55.63107,-16.99176 15.56764,-0.51665 29.94122,11.45084 45.49719,10.657 12.55717,-0.6408 33.61054,-9.01746 33.61054,-9.01746 0,0 38.01076,-9.765 54.10477,-3.27908 24.32056,9.80124 111.05043,47.9565 111.05043,47.9565 l -0.58867,194.85752 H 249.91174 Z"
         id="path1351" /><path
         style="display:inline;fill:#1f70ab;fill-opacity:1;stroke:#000000;stroke-width:4;stroke-linecap:butt;stroke-linejoin:round;stroke-dasharray:none;stroke-opacity:1"
         d="m 256.8813,231.05446 -13.30375,173.39221 h 66.28915 l 69.76285,-176.21681 c 0,0 -12.35163,-6.05796 -38.25362,-1.03644 -21.96212,4.25771 -42.81597,12.94397 -49.67243,12.98442 -4.49903,0.0265 -10.9694,-0.21214 -18.17409,-2.77205 -7.59865,-2.69989 -16.64811,-6.35133 -16.64811,-6.35133 z"
         id="path1352" /><path
         style="fill:#e7d06c;fill-opacity:1;stroke:#000000;stroke-width:4;stroke-linecap:butt;stroke-linejoin:miter;stroke-dasharray:none;stroke-opacity:1"
         d="m 249.83534,471.11975 h 121.93001 l 4.31408,-66.59721 H 243.50116 Z"
         id="path1353"
         transform="translate(0.07639736,-0.07586746)" /><path
         style="display:inline;fill:#f39f33;fill-opacity:1;stroke:#000000;stroke-width:4;stroke-linecap:butt;stroke-linejoin:miter;stroke-dasharray:none;stroke-opacity:1"
         d="m 443.98778,256.0226 46.6922,21.39341 -0.58867,193.62787 H 371.84175 c 0,0 0.79986,-72.41163 12.70641,-110.54507 11.96998,-38.33657 59.43962,-104.47621 59.43962,-104.47621 z"
         id="path1354" /><path
         style="display:inline;fill:#f39f33;fill-opacity:1;stroke:#000000;stroke-width:4;stroke-linecap:butt;stroke-linejoin:miter;stroke-dasharray:none;stroke-opacity:1"
         d="m 75.495166,471.04388 c 0,0 4.804322,-158.40445 56.165044,-209.11145 14.47352,-14.2893 43.14053,-27.6466 59.12577,-15.07127 49.80454,39.18043 59.12576,224.18272 59.12576,224.18272 z"
         id="path1355" /><path
         style="display:inline;fill:#e7d06c;fill-opacity:1;stroke:#000000;stroke-width:4;stroke-linecap:butt;stroke-linejoin:miter;stroke-dasharray:none;stroke-opacity:1"
         d="M 94.622991,471.04388 H 203.86941 c 0,0 -2.66077,-58.63908 -10.25884,-78.93584 -10.16837,-27.16282 -77.38383,-25.4456 -86.98989,1.92114 -6.1836,17.61648 -11.997689,77.0147 -11.997689,77.0147 z"
         id="path1356" /><path
         style="display:inline;fill:#dc1436;fill-opacity:1;stroke:#000000;stroke-width:4;stroke-linecap:butt;stroke-linejoin:miter;stroke-dasharray:none;stroke-opacity:1"
         d="m 124.56287,350.2608 c 0,0 -34.706514,30.41782 -24.568458,43.7035 3.545268,4.64597 17.008928,-4.25222 17.008928,-4.25222 0,0 6.42142,13.65586 12.7567,14.1741 7.0355,0.57552 16.53646,-13.22917 16.53646,-13.22917 0,0 10.72988,17.33917 18.89881,16.06399 8.24709,-1.28738 13.22916,-21.26115 13.22916,-21.26115 0,0 17.96286,10.9909 22.2061,4.72469 8.62334,-12.73454 -25.66856,-38.33928 -25.66856,-38.33928 z"
         id="path1357" /><g
         id="g1371"
         transform="matrix(0.7110885,0,0,-0.7110885,-35.235716,600.73992)"
         style="display:inline"><g
           id="g1370"
           style="display:inline"
           transform="translate(0,9.6741359)"><path
             style="fill:#ffdd55;fill-opacity:1;stroke:#000000;stroke-width:5.62518;stroke-dasharray:none;stroke-opacity:1"
             id="path1358"
             d="M 373.59632,490 A 108.59632,108.59632 0 0 1 265.02275,598.59632 108.59632,108.59632 0 0 1 156.40369,490.04549 108.59632,108.59632 0 0 1 264.93176,381.4037 108.59632,108.59632 0 0 1 373.59628,489.90902" /><path
             style="fill:#000000;stroke:#000000;stroke-width:5.62518;stroke-dasharray:none;stroke-opacity:1"
             id="path1359"
             d="m 359.28433,490 a 94.284332,94.284332 0 0 1 -94.26458,94.28433 94.284332,94.284332 0 0 1 -94.30407,-94.24483 94.284332,94.284332 0 0 1 94.22508,-94.32381 94.284332,94.284332 0 0 1 94.34354,94.20532" /><path
             style="fill:#ff0000;stroke:#4d4d4d;stroke-width:0.181798"
             id="path1360"
             d="m 290.80717,490 a 25.807169,25.807169 0 0 1 -25.80176,25.80717 25.807169,25.807169 0 0 1 -25.81258,-25.79636 25.807169,25.807169 0 0 1 25.79095,-25.81797 25.807169,25.807169 0 0 1 25.82338,25.78554" /><path
             style="fill:#000000;stroke:#4d4d4d;stroke-width:0.090899"
             id="path1361"
             d="m 277.90359,490 a 12.903586,12.903586 0 0 1 -12.90089,12.90359 12.903586,12.903586 0 0 1 -12.90629,-12.89818 12.903586,12.903586 0 0 1 12.89548,-12.90899 12.903586,12.903586 0 0 1 12.91169,12.89277" /><g
             id="g1369"
             transform="rotate(-22.935032,264.99937,490.00026)"><path
               id="path1362"
               style="fill:#ffdd55;fill-opacity:1;stroke:none;stroke-width:1.96672;stroke-dasharray:none"
               d="m 257.09483,522.01902 c -6.04454,6.5783 -13.30949,22.20556 -13.30949,38.97832 h 7.9e-4 l -7.9e-4,0.009 c 0.005,11.71472 9.50428,21.20806 21.219,21.2056 11.71479,-0.002 21.21031,-8.67777 21.21031,-21.2145 -0.0104,-15.17056 -7.97447,-32.34476 -13.87718,-38.97831 -5.90269,-6.63356 -9.19812,-6.57831 -15.24264,0 z" /><path
               id="path1363"
               style="fill:#0f70ff;fill-opacity:1;stroke:none;stroke-width:1.96672;stroke-dasharray:none"
               d="m 257.09483,457.98098 c -6.04454,-6.5783 -13.30949,-22.20556 -13.30949,-38.97832 h 7.9e-4 l -7.9e-4,-0.009 c 0.005,-11.71472 9.50428,-21.20806 21.219,-21.2056 11.71479,0.002 21.21031,8.67777 21.21031,21.2145 -0.0104,15.17056 -7.97447,32.34476 -13.87718,38.97831 -5.90269,6.63356 -9.19812,6.57831 -15.24264,0 z" /><path
               id="path1364"
               style="fill:#ffdd55;fill-opacity:1;stroke:none;stroke-width:1.96672;stroke-dasharray:none"
               d="m 282.04137,462.53106 c 0.17264,-8.93201 5.71292,-25.25059 17.29796,-37.37958 l 5.7e-4,5.5e-4 0.006,-0.007 c 8.09504,-8.46788 21.52141,-8.77166 29.99105,-0.67846 8.47001,8.09291 9.34417,20.92528 0.68498,29.99105 -10.4859,10.9632 -28.10732,17.88166 -36.95762,18.60159 -8.85028,0.71995 -11.19516,-1.59618 -11.0225,-10.52817 z" /><path
               id="path1365"
               style="fill:#0f70ff;fill-opacity:1;stroke:none;stroke-width:1.96672;stroke-dasharray:none"
               d="m 247.10581,462.53106 c -0.17264,-8.93201 -5.71292,-25.25059 -17.29796,-37.37958 l -5.7e-4,5.5e-4 -0.006,-0.007 c -8.09504,-8.46788 -21.52141,-8.77166 -29.99105,-0.67846 -8.47001,8.09291 -9.34417,20.92528 -0.68498,29.99105 10.4859,10.9632 28.10732,17.88166 36.95762,18.60159 8.85028,0.71995 11.19516,-1.59618 11.0225,-10.52817 z" /><path
               id="path1366"
               style="fill:#0f70ff;fill-opacity:1;stroke:none;stroke-width:1.96672;stroke-dasharray:none"
               d="m 247.10581,517.41838 c -0.17264,8.93201 -5.71292,25.25059 -17.29796,37.37958 l -5.7e-4,-5.5e-4 -0.006,0.007 c -8.09504,8.46788 -21.52141,8.77166 -29.99105,0.67846 -8.47001,-8.09291 -9.34417,-20.92528 -0.68498,-29.99105 10.4859,-10.9632 28.10732,-17.88166 36.95762,-18.60159 8.85028,-0.71995 11.19516,1.59618 11.0225,10.52817 z" /><path
               id="path1367"
               style="fill:#ffdd55;fill-opacity:1;stroke:none;stroke-width:1.96672;stroke-dasharray:none"
               d="m 282.04137,517.41838 c 0.17264,8.93201 5.71292,25.25059 17.29796,37.37958 l 5.7e-4,-5.5e-4 0.006,0.007 c 8.09504,8.46788 21.52141,8.77166 29.99105,0.67846 8.47001,-8.09291 9.34417,-20.92528 0.68498,-29.99105 -10.4859,-10.9632 -28.10732,-17.88166 -36.95762,-18.60159 -8.85028,-0.71995 -11.19516,1.59618 -11.0225,10.52817 z" /><path
               id="path1368"
               style="fill:#ffdd55;fill-opacity:1;stroke:none;stroke-width:1.96672;stroke-dasharray:none"
               d="m 297.27583,482.09483 c 6.5783,-6.04454 22.20556,-13.30949 38.97832,-13.30949 v 7.9e-4 l 0.009,-7.9e-4 c 11.71472,0.005 21.20806,9.50428 21.2056,21.219 -0.002,11.71479 -8.67777,21.21031 -21.2145,21.21031 -15.17056,-0.0104 -32.34476,-7.97447 -38.97831,-13.87718 -6.63356,-5.90269 -6.57831,-9.19812 0,-15.24264 z" /><path
               id="path1369"
               style="fill:#0f70ff;fill-opacity:1;stroke:none;stroke-width:1.96672;stroke-dasharray:none"
               d="m 232.72417,482.09483 c -6.5783,-6.04454 -22.20556,-13.30949 -38.97832,-13.30949 v 7.9e-4 l -0.009,-7.9e-4 c -11.71472,0.005 -21.20806,9.50428 -21.2056,21.219 0.002,11.71479 8.67777,21.21031 21.2145,21.21031 15.17056,-0.0104 32.34476,-7.97447 38.97831,-13.87718 6.63356,-5.90269 6.57831,-9.19812 0,-15.24264 z" /></g></g></g><path
         style="display:inline;fill:#f0aa83;fill-opacity:1;stroke:#000000;stroke-width:4;stroke-linecap:butt;stroke-linejoin:miter;stroke-dasharray:none;stroke-opacity:1"
         d="m 120.54687,318.84153 c -5.68551,4.62902 1.66506,25.61815 4.016,31.41927 2.09572,5.17134 36.07812,11.20357 50.39914,1.58446 7.51948,-5.05066 8.30094,-7.53614 11.62792,-16.53154 2.20883,-5.97216 2.66666,-16.14328 0.81148,-22.37806 -1.52663,-5.13062 -3.80669,-10.18033 -7.08705,-14.41035 -1.7796,-2.29479 -3.78513,-6.32321 -6.61459,-5.66962 -3.09287,0.71443 -3.63231,5.56981 -3.77976,8.74069 -0.17698,3.80588 3.60133,7.05726 3.54353,10.86681 -0.0635,4.18414 -4.25224,11.81177 -4.25224,11.81177 0,0 -9.0911,-2.66319 -12.88813,-0.31526 -3.35533,2.0748 -5.53821,10.7096 -5.53821,10.7096 0,0 0.0969,-9.22279 -3.14516,-11.17226 -4.36315,-2.62357 -21.53619,-9.17968 -27.09293,-4.65551 z"
         id="path1371" /><path
         style="fill:#1f70ab;fill-opacity:1;stroke:#000000;stroke-width:4;stroke-linecap:butt;stroke-linejoin:miter;stroke-dasharray:none;stroke-opacity:1"
         d="m 234.84047,130.34862 c 0,0 -29.28558,-28.41987 -19.41876,-39.127348 36.48439,-39.592881 129.64871,-38.691558 166.65351,-2.318657 10.87701,10.691272 -20.57807,40.866335 -20.57807,40.866335 z"
         id="path1372" /></g></g></svg>
