<?xml version="1.0" encoding="UTF-8" standalone="no"?>
<!-- Created with Inkscape (http://www.inkscape.org/) -->

<svg
   width="530mm"
   height="980mm"
   viewBox="0 0 530 980"
   version="1.1"
   id="svg1"
   xml:space="preserve"
   xmlns="http://www.w3.org/2000/svg"
   xmlns:svg="http://www.w3.org/2000/svg"><defs
     id="defs1"><rect
       x="276.59204"
       y="280.4877"
       width="272.69638"
       height="292.17471"
       id="rect221" /><linearGradient
       id="swatch181"><stop
         style="stop-color:#0f70ff;stop-opacity:1;"
         offset="0"
         id="stop181" /></linearGradient><rect
       x="276.59204"
       y="280.4877"
       width="272.69638"
       height="292.17471"
       id="rect222" /><rect
       x="276.59204"
       y="280.4877"
       width="272.69638"
       height="292.17471"
       id="rect85" /><rect
       x="276.59204"
       y="280.4877"
       width="272.69638"
       height="292.17471"
       id="rect86" /></defs><g
     id="layer2"
     style="display:none"><path
       style="fill:none;stroke:#000000;stroke-width:4;stroke-dasharray:none;stroke-opacity:1"
       id="path1"
       d="M 373.59632,490 A 108.59632,108.59632 0 0 1 265.02275,598.59632 108.59632,108.59632 0 0 1 156.40369,490.04549 108.59632,108.59632 0 0 1 264.93176,381.4037 108.59632,108.59632 0 0 1 373.59628,489.90902" /><path
       style="fill:#000000;stroke:#000000;stroke-width:0.66418;stroke-opacity:1"
       id="path1-8"
       d="m 359.28433,490 a 94.284332,94.284332 0 0 1 -94.26458,94.28433 94.284332,94.284332 0 0 1 -94.30407,-94.24483 94.284332,94.284332 0 0 1 94.22508,-94.32381 94.284332,94.284332 0 0 1 94.34354,94.20532" /><path
       style="fill:#ff0000;stroke:#4d4d4d;stroke-width:0.181798"
       id="path1-8-5"
       d="m 290.80717,490 a 25.807169,25.807169 0 0 1 -25.80176,25.80717 25.807169,25.807169 0 0 1 -25.81258,-25.79636 25.807169,25.807169 0 0 1 25.79095,-25.81797 25.807169,25.807169 0 0 1 25.82338,25.78554" /><path
       style="fill:#000000;stroke:#4d4d4d;stroke-width:0.090899"
       id="path1-8-5-1"
       d="m 277.90359,490 a 12.903586,12.903586 0 0 1 -12.90089,12.90359 12.903586,12.903586 0 0 1 -12.90629,-12.89818 12.903586,12.903586 0 0 1 12.89548,-12.90899 12.903586,12.903586 0 0 1 12.91169,12.89277" /><g
       id="layer3"><path
         id="path2"
         style="fill:#0000ff;stroke:none;stroke-width:1.96672;stroke-dasharray:none"
         d="m 257.09483,522.01902 c -6.04454,6.5783 -13.30949,22.20556 -13.30949,38.97832 h 7.9e-4 l -7.9e-4,0.009 c 0.005,11.71472 9.50428,21.20806 21.219,21.2056 11.71479,-0.002 21.21031,-8.67777 21.21031,-21.2145 -0.0104,-15.17056 -7.97447,-32.34476 -13.87718,-38.97831 -5.90269,-6.63356 -9.19812,-6.57831 -15.24264,0 z" /><path
         id="path2-7"
         style="fill:#0000ff;stroke:none;stroke-width:1.96672;stroke-dasharray:none"
         d="m 257.09483,457.98098 c -6.04454,-6.5783 -13.30949,-22.20556 -13.30949,-38.97832 h 7.9e-4 l -7.9e-4,-0.009 c 0.005,-11.71472 9.50428,-21.20806 21.219,-21.2056 11.71479,0.002 21.21031,8.67777 21.21031,21.2145 -0.0104,15.17056 -7.97447,32.34476 -13.87718,38.97831 -5.90269,6.63356 -9.19812,6.57831 -15.24264,0 z" /><path
         id="path2-7-7"
         style="fill:#0000ff;stroke:none;stroke-width:1.96672;stroke-dasharray:none"
         d="m 282.04137,462.53106 c 0.17264,-8.93201 5.71292,-25.25059 17.29796,-37.37958 l 5.7e-4,5.5e-4 0.006,-0.007 c 8.09504,-8.46788 21.52141,-8.77166 29.99105,-0.67846 8.47001,8.09291 9.34417,20.92528 0.68498,29.99105 -10.4859,10.9632 -28.10732,17.88166 -36.95762,18.60159 -8.85028,0.71995 -11.19516,-1.59618 -11.0225,-10.52817 z" /><path
         id="path2-7-7-2"
         style="fill:#0000ff;stroke:none;stroke-width:1.96672;stroke-dasharray:none"
         d="m 247.10581,462.53106 c -0.17264,-8.93201 -5.71292,-25.25059 -17.29796,-37.37958 l -5.7e-4,5.5e-4 -0.006,-0.007 c -8.09504,-8.46788 -21.52141,-8.77166 -29.99105,-0.67846 -8.47001,8.09291 -9.34417,20.92528 -0.68498,29.99105 10.4859,10.9632 28.10732,17.88166 36.95762,18.60159 8.85028,0.71995 11.19516,-1.59618 11.0225,-10.52817 z" /><path
         id="path2-7-7-9"
         style="fill:#0000ff;stroke:none;stroke-width:1.96672;stroke-dasharray:none"
         d="m 247.10581,517.41838 c -0.17264,8.93201 -5.71292,25.25059 -17.29796,37.37958 l -5.7e-4,-5.5e-4 -0.006,0.007 c -8.09504,8.46788 -21.52141,8.77166 -29.99105,0.67846 -8.47001,-8.09291 -9.34417,-20.92528 -0.68498,-29.99105 10.4859,-10.9632 28.10732,-17.88166 36.95762,-18.60159 8.85028,-0.71995 11.19516,1.59618 11.0225,10.52817 z" /><path
         id="path2-7-7-9-5"
         style="fill:#0000ff;stroke:none;stroke-width:1.96672;stroke-dasharray:none"
         d="m 282.04137,517.41838 c 0.17264,8.93201 5.71292,25.25059 17.29796,37.37958 l 5.7e-4,-5.5e-4 0.006,0.007 c 8.09504,8.46788 21.52141,8.77166 29.99105,0.67846 8.47001,-8.09291 9.34417,-20.92528 0.68498,-29.99105 -10.4859,-10.9632 -28.10732,-17.88166 -36.95762,-18.60159 -8.85028,-0.71995 -11.19516,1.59618 -11.0225,10.52817 z" /><path
         id="path2-7-2"
         style="fill:#0000ff;stroke:none;stroke-width:1.96672;stroke-dasharray:none"
         d="m 297.27583,482.09483 c 6.5783,-6.04454 22.20556,-13.30949 38.97832,-13.30949 v 7.9e-4 l 0.009,-7.9e-4 c 11.71472,0.005 21.20806,9.50428 21.2056,21.219 -0.002,11.71479 -8.67777,21.21031 -21.2145,21.21031 -15.17056,-0.0104 -32.34476,-7.97447 -38.97831,-13.87718 -6.63356,-5.90269 -6.57831,-9.19812 0,-15.24264 z" /><path
         id="path2-7-2-1"
         style="fill:#0000ff;stroke:none;stroke-width:1.96672;stroke-dasharray:none"
         d="m 232.72417,482.09483 c -6.5783,-6.04454 -22.20556,-13.30949 -38.97832,-13.30949 v 7.9e-4 l -0.009,-7.9e-4 c -11.71472,0.005 -21.20806,9.50428 -21.2056,21.219 0.002,11.71479 8.67777,21.21031 21.2145,21.21031 15.17056,-0.0104 32.34476,-7.97447 38.97831,-13.87718 6.63356,-5.90269 6.57831,-9.19812 0,-15.24264 z" /></g></g><g
     id="g220"><g
       id="layer1"
       style="display:inline;fill:#ffffff"><path
         id="rect4"
         style="display:inline;fill:#ffffff;fill-opacity:1;stroke:none;stroke-width:2.365;stroke-linejoin:bevel;stroke-opacity:1"
         d="M 53.211222,0 A 53.211304,53.211304 0 0 0 0,53.211222 V 926.78891 a 53.211304,53.211304 0 0 0 53.211222,53.21122 H 476.78847 a 53.211304,53.211304 0 0 0 53.21174,-53.21122 V 53.211222 A 53.211304,53.211304 0 0 0 476.78847,0 Z" /><path
         id="path7"
         style="display:inline;fill:none;fill-opacity:1;stroke:#000000;stroke-width:4;stroke-linejoin:bevel;stroke-dasharray:none;stroke-opacity:1"
         d="M 84.38306,39.04751 A 45.33562,49.009618 0 0 0 39.04751,88.057052 V 892.65504 a 45.33562,49.009618 0 0 0 45.33555,49.00955 H 445.26759 A 45.33562,49.009618 0 0 0 490.6036,892.65504 V 88.057052 A 45.33562,49.009618 0 0 0 445.26759,39.04751 Z" /></g></g><g
     id="g1"
     style="display:none"><g
       id="g50"
       transform="translate(-4.9000848e-6,-272.07703)"><g
         id="g25"
         style="display:inline"><path
           style="fill:none;stroke:#000000;stroke-width:4;stroke-dasharray:none;stroke-opacity:1"
           id="path13"
           d="M 373.59632,490 A 108.59632,108.59632 0 0 1 265.02275,598.59632 108.59632,108.59632 0 0 1 156.40369,490.04549 108.59632,108.59632 0 0 1 264.93176,381.4037 108.59632,108.59632 0 0 1 373.59628,489.90902" /><path
           style="fill:#000000;stroke:#000000;stroke-width:0.66418;stroke-opacity:1"
           id="path14"
           d="m 359.28433,490 a 94.284332,94.284332 0 0 1 -94.26458,94.28433 94.284332,94.284332 0 0 1 -94.30407,-94.24483 94.284332,94.284332 0 0 1 94.22508,-94.32381 94.284332,94.284332 0 0 1 94.34354,94.20532" /><path
           style="fill:#ff0000;stroke:#4d4d4d;stroke-width:0.181798"
           id="path15"
           d="m 290.80717,490 a 25.807169,25.807169 0 0 1 -25.80176,25.80717 25.807169,25.807169 0 0 1 -25.81258,-25.79636 25.807169,25.807169 0 0 1 25.79095,-25.81797 25.807169,25.807169 0 0 1 25.82338,25.78554" /><path
           style="fill:#000000;stroke:#4d4d4d;stroke-width:0.090899"
           id="path16"
           d="m 277.90359,490 a 12.903586,12.903586 0 0 1 -12.90089,12.90359 12.903586,12.903586 0 0 1 -12.90629,-12.89818 12.903586,12.903586 0 0 1 12.89548,-12.90899 12.903586,12.903586 0 0 1 12.91169,12.89277" /><g
           id="g24"
           transform="rotate(-22.935032,264.99937,490.00026)"><path
             id="path17"
             style="fill:#ffdd55;fill-opacity:1;stroke:none;stroke-width:1.96672;stroke-dasharray:none"
             d="m 257.09483,522.01902 c -6.04454,6.5783 -13.30949,22.20556 -13.30949,38.97832 h 7.9e-4 l -7.9e-4,0.009 c 0.005,11.71472 9.50428,21.20806 21.219,21.2056 11.71479,-0.002 21.21031,-8.67777 21.21031,-21.2145 -0.0104,-15.17056 -7.97447,-32.34476 -13.87718,-38.97831 -5.90269,-6.63356 -9.19812,-6.57831 -15.24264,0 z" /><path
             id="path18"
             style="fill:#0f70ff;fill-opacity:1;stroke:none;stroke-width:1.96672;stroke-dasharray:none"
             d="m 257.09483,457.98098 c -6.04454,-6.5783 -13.30949,-22.20556 -13.30949,-38.97832 h 7.9e-4 l -7.9e-4,-0.009 c 0.005,-11.71472 9.50428,-21.20806 21.219,-21.2056 11.71479,0.002 21.21031,8.67777 21.21031,21.2145 -0.0104,15.17056 -7.97447,32.34476 -13.87718,38.97831 -5.90269,6.63356 -9.19812,6.57831 -15.24264,0 z" /><path
             id="path19"
             style="fill:#ffdd55;fill-opacity:1;stroke:none;stroke-width:1.96672;stroke-dasharray:none"
             d="m 282.04137,462.53106 c 0.17264,-8.93201 5.71292,-25.25059 17.29796,-37.37958 l 5.7e-4,5.5e-4 0.006,-0.007 c 8.09504,-8.46788 21.52141,-8.77166 29.99105,-0.67846 8.47001,8.09291 9.34417,20.92528 0.68498,29.99105 -10.4859,10.9632 -28.10732,17.88166 -36.95762,18.60159 -8.85028,0.71995 -11.19516,-1.59618 -11.0225,-10.52817 z" /><path
             id="path20"
             style="fill:#0f70ff;fill-opacity:1;stroke:none;stroke-width:1.96672;stroke-dasharray:none"
             d="m 247.10581,462.53106 c -0.17264,-8.93201 -5.71292,-25.25059 -17.29796,-37.37958 l -5.7e-4,5.5e-4 -0.006,-0.007 c -8.09504,-8.46788 -21.52141,-8.77166 -29.99105,-0.67846 -8.47001,8.09291 -9.34417,20.92528 -0.68498,29.99105 10.4859,10.9632 28.10732,17.88166 36.95762,18.60159 8.85028,0.71995 11.19516,-1.59618 11.0225,-10.52817 z" /><path
             id="path21"
             style="fill:#0f70ff;fill-opacity:1;stroke:none;stroke-width:1.96672;stroke-dasharray:none"
             d="m 247.10581,517.41838 c -0.17264,8.93201 -5.71292,25.25059 -17.29796,37.37958 l -5.7e-4,-5.5e-4 -0.006,0.007 c -8.09504,8.46788 -21.52141,8.77166 -29.99105,0.67846 -8.47001,-8.09291 -9.34417,-20.92528 -0.68498,-29.99105 10.4859,-10.9632 28.10732,-17.88166 36.95762,-18.60159 8.85028,-0.71995 11.19516,1.59618 11.0225,10.52817 z" /><path
             id="path22"
             style="fill:#ffdd55;fill-opacity:1;stroke:none;stroke-width:1.96672;stroke-dasharray:none"
             d="m 282.04137,517.41838 c 0.17264,8.93201 5.71292,25.25059 17.29796,37.37958 l 5.7e-4,-5.5e-4 0.006,0.007 c 8.09504,8.46788 21.52141,8.77166 29.99105,0.67846 8.47001,-8.09291 9.34417,-20.92528 0.68498,-29.99105 -10.4859,-10.9632 -28.10732,-17.88166 -36.95762,-18.60159 -8.85028,-0.71995 -11.19516,1.59618 -11.0225,10.52817 z" /><path
             id="path23"
             style="fill:#ffdd55;fill-opacity:1;stroke:none;stroke-width:1.96672;stroke-dasharray:none"
             d="m 297.27583,482.09483 c 6.5783,-6.04454 22.20556,-13.30949 38.97832,-13.30949 v 7.9e-4 l 0.009,-7.9e-4 c 11.71472,0.005 21.20806,9.50428 21.2056,21.219 -0.002,11.71479 -8.67777,21.21031 -21.2145,21.21031 -15.17056,-0.0104 -32.34476,-7.97447 -38.97831,-13.87718 -6.63356,-5.90269 -6.57831,-9.19812 0,-15.24264 z" /><path
             id="path24"
             style="fill:#0f70ff;fill-opacity:1;stroke:none;stroke-width:1.96672;stroke-dasharray:none"
             d="m 232.72417,482.09483 c -6.5783,-6.04454 -22.20556,-13.30949 -38.97832,-13.30949 v 7.9e-4 l -0.009,-7.9e-4 c -11.71472,0.005 -21.20806,9.50428 -21.2056,21.219 0.002,11.71479 8.67777,21.21031 21.2145,21.21031 15.17056,-0.0104 32.34476,-7.97447 38.97831,-13.87718 6.63356,-5.90269 6.57831,-9.19812 0,-15.24264 z" /></g></g></g><g
       id="g51"><g
         id="g37"
         style="display:inline"><path
           style="fill:none;stroke:#000000;stroke-width:4;stroke-dasharray:none;stroke-opacity:1"
           id="path25"
           d="M 373.59632,490 A 108.59632,108.59632 0 0 1 265.02275,598.59632 108.59632,108.59632 0 0 1 156.40369,490.04549 108.59632,108.59632 0 0 1 264.93176,381.4037 108.59632,108.59632 0 0 1 373.59628,489.90902" /><path
           style="fill:#000000;stroke:#000000;stroke-width:0.66418;stroke-opacity:1"
           id="path26"
           d="m 359.28433,490 a 94.284332,94.284332 0 0 1 -94.26458,94.28433 94.284332,94.284332 0 0 1 -94.30407,-94.24483 94.284332,94.284332 0 0 1 94.22508,-94.32381 94.284332,94.284332 0 0 1 94.34354,94.20532" /><path
           style="fill:#ff0000;stroke:#4d4d4d;stroke-width:0.181798"
           id="path27"
           d="m 290.80717,490 a 25.807169,25.807169 0 0 1 -25.80176,25.80717 25.807169,25.807169 0 0 1 -25.81258,-25.79636 25.807169,25.807169 0 0 1 25.79095,-25.81797 25.807169,25.807169 0 0 1 25.82338,25.78554" /><path
           style="fill:#000000;stroke:#4d4d4d;stroke-width:0.090899"
           id="path28"
           d="m 277.90359,490 a 12.903586,12.903586 0 0 1 -12.90089,12.90359 12.903586,12.903586 0 0 1 -12.90629,-12.89818 12.903586,12.903586 0 0 1 12.89548,-12.90899 12.903586,12.903586 0 0 1 12.91169,12.89277" /><g
           id="g36"><path
             id="path29"
             style="fill:#0f70ff;fill-opacity:1;stroke:none;stroke-width:1.96672;stroke-dasharray:none"
             d="m 257.09483,522.01902 c -6.04454,6.5783 -13.30949,22.20556 -13.30949,38.97832 h 7.9e-4 l -7.9e-4,0.009 c 0.005,11.71472 9.50428,21.20806 21.219,21.2056 11.71479,-0.002 21.21031,-8.67777 21.21031,-21.2145 -0.0104,-15.17056 -7.97447,-32.34476 -13.87718,-38.97831 -5.90269,-6.63356 -9.19812,-6.57831 -15.24264,0 z" /><path
             id="path30"
             style="fill:#0f70ff;fill-opacity:1;stroke:none;stroke-width:1.96672;stroke-dasharray:none"
             d="m 257.09483,457.98098 c -6.04454,-6.5783 -13.30949,-22.20556 -13.30949,-38.97832 h 7.9e-4 l -7.9e-4,-0.009 c 0.005,-11.71472 9.50428,-21.20806 21.219,-21.2056 11.71479,0.002 21.21031,8.67777 21.21031,21.2145 -0.0104,15.17056 -7.97447,32.34476 -13.87718,38.97831 -5.90269,6.63356 -9.19812,6.57831 -15.24264,0 z" /><path
             id="path31"
             style="fill:#0f70ff;fill-opacity:1;stroke:none;stroke-width:1.96672;stroke-dasharray:none"
             d="m 282.04137,462.53106 c 0.17264,-8.93201 5.71292,-25.25059 17.29796,-37.37958 l 5.7e-4,5.5e-4 0.006,-0.007 c 8.09504,-8.46788 21.52141,-8.77166 29.99105,-0.67846 8.47001,8.09291 9.34417,20.92528 0.68498,29.99105 -10.4859,10.9632 -28.10732,17.88166 -36.95762,18.60159 -8.85028,0.71995 -11.19516,-1.59618 -11.0225,-10.52817 z" /><path
             id="path32"
             style="fill:#0f70ff;fill-opacity:1;stroke:none;stroke-width:1.96672;stroke-dasharray:none"
             d="m 247.10581,462.53106 c -0.17264,-8.93201 -5.71292,-25.25059 -17.29796,-37.37958 l -5.7e-4,5.5e-4 -0.006,-0.007 c -8.09504,-8.46788 -21.52141,-8.77166 -29.99105,-0.67846 -8.47001,8.09291 -9.34417,20.92528 -0.68498,29.99105 10.4859,10.9632 28.10732,17.88166 36.95762,18.60159 8.85028,0.71995 11.19516,-1.59618 11.0225,-10.52817 z" /><path
             id="path33"
             style="fill:#0f70ff;fill-opacity:1;stroke:none;stroke-width:1.96672;stroke-dasharray:none"
             d="m 247.10581,517.41838 c -0.17264,8.93201 -5.71292,25.25059 -17.29796,37.37958 l -5.7e-4,-5.5e-4 -0.006,0.007 c -8.09504,8.46788 -21.52141,8.77166 -29.99105,0.67846 -8.47001,-8.09291 -9.34417,-20.92528 -0.68498,-29.99105 10.4859,-10.9632 28.10732,-17.88166 36.95762,-18.60159 8.85028,-0.71995 11.19516,1.59618 11.0225,10.52817 z" /><path
             id="path34"
             style="fill:#0f70ff;fill-opacity:1;stroke:none;stroke-width:1.96672;stroke-dasharray:none"
             d="m 282.04137,517.41838 c 0.17264,8.93201 5.71292,25.25059 17.29796,37.37958 l 5.7e-4,-5.5e-4 0.006,0.007 c 8.09504,8.46788 21.52141,8.77166 29.99105,0.67846 8.47001,-8.09291 9.34417,-20.92528 0.68498,-29.99105 -10.4859,-10.9632 -28.10732,-17.88166 -36.95762,-18.60159 -8.85028,-0.71995 -11.19516,1.59618 -11.0225,10.52817 z" /><path
             id="path35"
             style="fill:#ffdd55;fill-opacity:1;stroke:none;stroke-width:1.96672;stroke-dasharray:none"
             d="m 297.27583,482.09483 c 6.5783,-6.04454 22.20556,-13.30949 38.97832,-13.30949 v 7.9e-4 l 0.009,-7.9e-4 c 11.71472,0.005 21.20806,9.50428 21.2056,21.219 -0.002,11.71479 -8.67777,21.21031 -21.2145,21.21031 -15.17056,-0.0104 -32.34476,-7.97447 -38.97831,-13.87718 -6.63356,-5.90269 -6.57831,-9.19812 0,-15.24264 z" /><path
             id="path36"
             style="fill:#ffdd55;stroke:none;stroke-width:1.96672;stroke-dasharray:none"
             d="m 232.72417,482.09483 c -6.5783,-6.04454 -22.20556,-13.30949 -38.97832,-13.30949 v 7.9e-4 l -0.009,-7.9e-4 c -11.71472,0.005 -21.20806,9.50428 -21.2056,21.219 0.002,11.71479 8.67777,21.21031 21.2145,21.21031 15.17056,-0.0104 32.34476,-7.97447 38.97831,-13.87718 6.63356,-5.90269 6.57831,-9.19812 0,-15.24264 z" /></g></g></g><g
       id="g52"
       transform="translate(-4.9000848e-6,272.07702)"><g
         id="g49"
         style="display:inline"><path
           style="fill:none;stroke:#000000;stroke-width:4;stroke-dasharray:none;stroke-opacity:1"
           id="path37"
           d="M 373.59632,490 A 108.59632,108.59632 0 0 1 265.02275,598.59632 108.59632,108.59632 0 0 1 156.40369,490.04549 108.59632,108.59632 0 0 1 264.93176,381.4037 108.59632,108.59632 0 0 1 373.59628,489.90902" /><path
           style="fill:#000000;stroke:#000000;stroke-width:0.66418;stroke-opacity:1"
           id="path38"
           d="m 359.28433,490 a 94.284332,94.284332 0 0 1 -94.26458,94.28433 94.284332,94.284332 0 0 1 -94.30407,-94.24483 94.284332,94.284332 0 0 1 94.22508,-94.32381 94.284332,94.284332 0 0 1 94.34354,94.20532" /><path
           style="fill:#ff0000;stroke:#4d4d4d;stroke-width:0.181798"
           id="path39"
           d="m 290.80717,490 a 25.807169,25.807169 0 0 1 -25.80176,25.80717 25.807169,25.807169 0 0 1 -25.81258,-25.79636 25.807169,25.807169 0 0 1 25.79095,-25.81797 25.807169,25.807169 0 0 1 25.82338,25.78554" /><path
           style="fill:#000000;stroke:#4d4d4d;stroke-width:0.090899"
           id="path40"
           d="m 277.90359,490 a 12.903586,12.903586 0 0 1 -12.90089,12.90359 12.903586,12.903586 0 0 1 -12.90629,-12.89818 12.903586,12.903586 0 0 1 12.89548,-12.90899 12.903586,12.903586 0 0 1 12.91169,12.89277" /><g
           id="g48"><path
             id="path41"
             style="fill:#0f70ff;fill-opacity:1;stroke:none;stroke-width:1.96672;stroke-dasharray:none"
             d="m 270.07823,522.58775 c -3.03406,8.40267 -3.6981,25.6233 2.78134,41.09399 l 7.3e-4,-3e-4 0.003,0.009 c 4.5301,10.80337 16.95929,15.8901 27.76365,11.36235 10.8046,-4.52735 16.21147,-16.19781 11.36844,-27.76132 -5.87009,-13.98885 -19.85043,-26.75324 -27.8575,-30.59156 -8.00706,-3.83835 -11.02532,-2.51434 -14.05936,5.88833 z" /><path
             id="path42"
             style="fill:#ffdd55;fill-opacity:1;stroke:none;stroke-width:1.96672;stroke-dasharray:none"
             d="m 245.33987,463.52098 c -8.11655,-3.73258 -20.85445,-15.3402 -27.33389,-30.81089 l 7.2e-4,-3e-4 -0.004,-0.008 c -4.52087,-10.80724 0.57363,-23.23325 11.37989,-27.75646 10.80615,-4.52367 22.91604,-0.18963 27.75908,11.37391 5.8509,13.99689 5.1396,32.91444 2.25771,41.31329 -2.88187,8.39885 -5.94282,9.62094 -14.05935,5.88835 z" /><path
             id="path43"
             style="fill:#0f70ff;fill-opacity:1;stroke:none;stroke-width:1.96672;stroke-dasharray:none"
             d="m 270.10754,458.0808 c -3.29126,-8.30531 -4.48507,-25.49733 1.51512,-41.16014 l 7.3e-4,2.9e-4 0.003,-0.009 c 4.19542,-10.93769 16.46215,-16.40459 27.40075,-12.21155 10.93884,4.19263 16.70237,15.69113 12.21757,27.39823 -5.43672,14.16292 -19.01754,27.35158 -26.90267,31.43456 -7.88511,4.08299 -10.9427,2.8525 -14.23394,-5.4528 z" /><path
             id="path44"
             style="fill:#ffdd55;fill-opacity:1;stroke:none;stroke-width:1.96672;stroke-dasharray:none"
             d="m 237.88402,471.57666 c -3.60974,-8.17192 -15.02391,-21.08344 -30.39513,-27.79547 l -3.1e-4,7.2e-4 -0.008,-0.004 c -10.73782,-4.68335 -23.23925,0.22314 -27.92494,10.95997 -4.68613,10.73668 -0.53519,22.91057 10.95396,27.92746 13.90704,6.06134 32.83317,5.63544 41.27453,2.88055 8.44136,-2.75487 9.70947,-5.79704 6.09972,-13.96894 z" /><path
             id="path45"
             style="fill:#ffdd55;fill-opacity:1;stroke:none;stroke-width:1.96672;stroke-dasharray:none"
             d="m 259.0874,522.20309 c 3.29127,8.30531 4.48506,25.49733 -1.51511,41.16014 l -7.5e-4,-3e-4 -0.003,0.009 c -4.19542,10.9377 -16.46215,16.4046 -27.40076,12.21156 -10.93883,-4.19263 -16.70237,-15.69114 -12.21756,-27.39824 5.43671,-14.16291 19.01753,-27.35157 26.90267,-31.43455 7.88511,-4.08298 10.94269,-2.8525 14.23393,5.4528 z" /><path
             id="path46"
             style="fill:#0f70ff;fill-opacity:1;stroke:none;stroke-width:1.96672;stroke-dasharray:none"
             d="m 291.31091,508.70722 c 3.60974,8.17193 15.02393,21.08345 30.39513,27.79549 l 3.1e-4,-7.4e-4 0.008,0.004 c 10.73783,4.68336 23.23927,-0.22314 27.92494,-10.95997 4.68614,-10.73668 0.5352,-22.91057 -10.95396,-27.92746 -13.90704,-6.06134 -32.83316,-5.63544 -41.27453,-2.88055 -8.44135,2.75487 -9.70947,5.79704 -6.09971,13.96894 z" /><path
             id="path47"
             style="fill:#0f70ff;fill-opacity:1;stroke:none;stroke-width:1.96672;stroke-dasharray:none"
             d="m 291.71698,470.24066 c 3.73258,-8.11656 15.34019,-20.85445 30.81089,-27.33389 l 2.9e-4,7.2e-4 0.008,-0.004 c 10.80725,-4.52087 23.23326,0.57363 27.75647,11.37989 4.52367,10.80615 0.18963,22.91604 -11.37391,27.75908 -13.9969,5.8509 -32.91445,5.1396 -41.31329,2.25771 -8.39885,-2.88187 -9.62095,-5.94283 -5.88835,-14.05935 z" /><path
             id="path48"
             style="fill:#ffdd55;fill-opacity:1;stroke:none;stroke-width:1.96672;stroke-dasharray:none"
             d="m 232.17646,495.17744 c -8.40268,-3.03406 -25.6233,-3.6981 -41.094,2.78134 l 3.1e-4,7.2e-4 -0.009,0.003 c -10.80338,4.53009 -15.89011,16.95929 -11.36236,27.76364 4.52736,10.8046 16.19781,16.21148 27.76132,11.36844 13.98886,-5.87009 26.75324,-19.85043 30.59157,-27.85751 3.83834,-8.00705 2.51434,-11.02531 -5.88834,-14.05935 z" /></g></g></g><text
       xml:space="preserve"
       transform="matrix(0.26458333,0,0,0.26458333,0,-21.566009)"
       id="text220"
       style="font-size:192px;line-height:1.25;font-family:sans-serif;white-space:pre;shape-inside:url(#rect221);display:inline;fill:#ffffff"><tspan
         x="276.5918"
         y="455.18432"
         id="tspan6"><tspan
           style="font-family:Centaur;-inkscape-font-specification:Centaur;fill:#000000"
           id="tspan5">3</tspan></tspan></text><text
       xml:space="preserve"
       transform="matrix(-0.26458333,0,0,-0.26458333,532.81125,1002.2008)"
       id="text222"
       style="font-size:192px;line-height:1.25;font-family:sans-serif;white-space:pre;shape-inside:url(#rect222);display:inline;fill:#ffffff"><tspan
         x="276.5918"
         y="455.18432"
         id="tspan8"><tspan
           style="font-family:Centaur;-inkscape-font-specification:Centaur;fill:#000000"
           id="tspan7">3</tspan></tspan></text></g><g
     id="g82"><g
       id="g55"
       transform="matrix(-0.7110885,0,0,0.7110885,565.04187,-132.73776)"><g
         id="g54"
         style="display:inline"><path
           style="fill:none;stroke:#000000;stroke-width:4;stroke-dasharray:none;stroke-opacity:1"
           id="path3"
           d="M 373.59632,490 A 108.59632,108.59632 0 0 1 265.02275,598.59632 108.59632,108.59632 0 0 1 156.40369,490.04549 108.59632,108.59632 0 0 1 264.93176,381.4037 108.59632,108.59632 0 0 1 373.59628,489.90902" /><path
           style="fill:#000000;stroke:#000000;stroke-width:0.66418;stroke-opacity:1"
           id="path4"
           d="m 359.28433,490 a 94.284332,94.284332 0 0 1 -94.26458,94.28433 94.284332,94.284332 0 0 1 -94.30407,-94.24483 94.284332,94.284332 0 0 1 94.22508,-94.32381 94.284332,94.284332 0 0 1 94.34354,94.20532" /><path
           style="fill:#ff0000;stroke:#4d4d4d;stroke-width:0.181798"
           id="path5"
           d="m 290.80717,490 a 25.807169,25.807169 0 0 1 -25.80176,25.80717 25.807169,25.807169 0 0 1 -25.81258,-25.79636 25.807169,25.807169 0 0 1 25.79095,-25.81797 25.807169,25.807169 0 0 1 25.82338,25.78554" /><path
           style="fill:#000000;stroke:#4d4d4d;stroke-width:0.090899"
           id="path6"
           d="m 277.90359,490 a 12.903586,12.903586 0 0 1 -12.90089,12.90359 12.903586,12.903586 0 0 1 -12.90629,-12.89818 12.903586,12.903586 0 0 1 12.89548,-12.90899 12.903586,12.903586 0 0 1 12.91169,12.89277" /><g
           id="g53"
           transform="rotate(-22.935032,264.99937,490.00026)"><path
             id="path8"
             style="fill:#ffdd55;fill-opacity:1;stroke:none;stroke-width:1.96672;stroke-dasharray:none"
             d="m 257.09483,522.01902 c -6.04454,6.5783 -13.30949,22.20556 -13.30949,38.97832 h 7.9e-4 l -7.9e-4,0.009 c 0.005,11.71472 9.50428,21.20806 21.219,21.2056 11.71479,-0.002 21.21031,-8.67777 21.21031,-21.2145 -0.0104,-15.17056 -7.97447,-32.34476 -13.87718,-38.97831 -5.90269,-6.63356 -9.19812,-6.57831 -15.24264,0 z" /><path
             id="path9"
             style="fill:#0f70ff;fill-opacity:1;stroke:none;stroke-width:1.96672;stroke-dasharray:none"
             d="m 257.09483,457.98098 c -6.04454,-6.5783 -13.30949,-22.20556 -13.30949,-38.97832 h 7.9e-4 l -7.9e-4,-0.009 c 0.005,-11.71472 9.50428,-21.20806 21.219,-21.2056 11.71479,0.002 21.21031,8.67777 21.21031,21.2145 -0.0104,15.17056 -7.97447,32.34476 -13.87718,38.97831 -5.90269,6.63356 -9.19812,6.57831 -15.24264,0 z" /><path
             id="path10"
             style="fill:#ffdd55;fill-opacity:1;stroke:none;stroke-width:1.96672;stroke-dasharray:none"
             d="m 282.04137,462.53106 c 0.17264,-8.93201 5.71292,-25.25059 17.29796,-37.37958 l 5.7e-4,5.5e-4 0.006,-0.007 c 8.09504,-8.46788 21.52141,-8.77166 29.99105,-0.67846 8.47001,8.09291 9.34417,20.92528 0.68498,29.99105 -10.4859,10.9632 -28.10732,17.88166 -36.95762,18.60159 -8.85028,0.71995 -11.19516,-1.59618 -11.0225,-10.52817 z" /><path
             id="path11"
             style="fill:#0f70ff;fill-opacity:1;stroke:none;stroke-width:1.96672;stroke-dasharray:none"
             d="m 247.10581,462.53106 c -0.17264,-8.93201 -5.71292,-25.25059 -17.29796,-37.37958 l -5.7e-4,5.5e-4 -0.006,-0.007 c -8.09504,-8.46788 -21.52141,-8.77166 -29.99105,-0.67846 -8.47001,8.09291 -9.34417,20.92528 -0.68498,29.99105 10.4859,10.9632 28.10732,17.88166 36.95762,18.60159 8.85028,0.71995 11.19516,-1.59618 11.0225,-10.52817 z" /><path
             id="path12"
             style="fill:#0f70ff;fill-opacity:1;stroke:none;stroke-width:1.96672;stroke-dasharray:none"
             d="m 247.10581,517.41838 c -0.17264,8.93201 -5.71292,25.25059 -17.29796,37.37958 l -5.7e-4,-5.5e-4 -0.006,0.007 c -8.09504,8.46788 -21.52141,8.77166 -29.99105,0.67846 -8.47001,-8.09291 -9.34417,-20.92528 -0.68498,-29.99105 10.4859,-10.9632 28.10732,-17.88166 36.95762,-18.60159 8.85028,-0.71995 11.19516,1.59618 11.0225,10.52817 z" /><path
             id="path49"
             style="fill:#ffdd55;fill-opacity:1;stroke:none;stroke-width:1.96672;stroke-dasharray:none"
             d="m 282.04137,517.41838 c 0.17264,8.93201 5.71292,25.25059 17.29796,37.37958 l 5.7e-4,-5.5e-4 0.006,0.007 c 8.09504,8.46788 21.52141,8.77166 29.99105,0.67846 8.47001,-8.09291 9.34417,-20.92528 0.68498,-29.99105 -10.4859,-10.9632 -28.10732,-17.88166 -36.95762,-18.60159 -8.85028,-0.71995 -11.19516,1.59618 -11.0225,10.52817 z" /><path
             id="path50"
             style="fill:#ffdd55;fill-opacity:1;stroke:none;stroke-width:1.96672;stroke-dasharray:none"
             d="m 297.27583,482.09483 c 6.5783,-6.04454 22.20556,-13.30949 38.97832,-13.30949 v 7.9e-4 l 0.009,-7.9e-4 c 11.71472,0.005 21.20806,9.50428 21.2056,21.219 -0.002,11.71479 -8.67777,21.21031 -21.2145,21.21031 -15.17056,-0.0104 -32.34476,-7.97447 -38.97831,-13.87718 -6.63356,-5.90269 -6.57831,-9.19812 0,-15.24264 z" /><path
             id="path51"
             style="fill:#0f70ff;fill-opacity:1;stroke:none;stroke-width:1.96672;stroke-dasharray:none"
             d="m 232.72417,482.09483 c -6.5783,-6.04454 -22.20556,-13.30949 -38.97832,-13.30949 v 7.9e-4 l -0.009,-7.9e-4 c -11.71472,0.005 -21.20806,9.50428 -21.2056,21.219 0.002,11.71479 8.67777,21.21031 21.2145,21.21031 15.17056,-0.0104 32.34476,-7.97447 38.97831,-13.87718 6.63356,-5.90269 6.57831,-9.19812 0,-15.24264 z" /></g></g></g><g
       id="g99"
       transform="matrix(0.7110885,0,0,0.7110885,-38.595053,-132.73776)"><g
         id="g98"
         style="display:inline"><path
           style="fill:none;stroke:#000000;stroke-width:4;stroke-dasharray:none;stroke-opacity:1"
           id="path86"
           d="M 373.59632,490 A 108.59632,108.59632 0 0 1 265.02275,598.59632 108.59632,108.59632 0 0 1 156.40369,490.04549 108.59632,108.59632 0 0 1 264.93176,381.4037 108.59632,108.59632 0 0 1 373.59628,489.90902" /><path
           style="fill:#000000;stroke:#000000;stroke-width:0.66418;stroke-opacity:1"
           id="path87"
           d="m 359.28433,490 a 94.284332,94.284332 0 0 1 -94.26458,94.28433 94.284332,94.284332 0 0 1 -94.30407,-94.24483 94.284332,94.284332 0 0 1 94.22508,-94.32381 94.284332,94.284332 0 0 1 94.34354,94.20532" /><path
           style="fill:#ff0000;stroke:#4d4d4d;stroke-width:0.181798"
           id="path88"
           d="m 290.80717,490 a 25.807169,25.807169 0 0 1 -25.80176,25.80717 25.807169,25.807169 0 0 1 -25.81258,-25.79636 25.807169,25.807169 0 0 1 25.79095,-25.81797 25.807169,25.807169 0 0 1 25.82338,25.78554" /><path
           style="fill:#000000;stroke:#4d4d4d;stroke-width:0.090899"
           id="path89"
           d="m 277.90359,490 a 12.903586,12.903586 0 0 1 -12.90089,12.90359 12.903586,12.903586 0 0 1 -12.90629,-12.89818 12.903586,12.903586 0 0 1 12.89548,-12.90899 12.903586,12.903586 0 0 1 12.91169,12.89277" /><g
           id="g97"
           transform="rotate(-22.935032,264.99937,490.00026)"><path
             id="path90"
             style="fill:#ffdd55;fill-opacity:1;stroke:none;stroke-width:1.96672;stroke-dasharray:none"
             d="m 257.09483,522.01902 c -6.04454,6.5783 -13.30949,22.20556 -13.30949,38.97832 h 7.9e-4 l -7.9e-4,0.009 c 0.005,11.71472 9.50428,21.20806 21.219,21.2056 11.71479,-0.002 21.21031,-8.67777 21.21031,-21.2145 -0.0104,-15.17056 -7.97447,-32.34476 -13.87718,-38.97831 -5.90269,-6.63356 -9.19812,-6.57831 -15.24264,0 z" /><path
             id="path91"
             style="fill:#0f70ff;fill-opacity:1;stroke:none;stroke-width:1.96672;stroke-dasharray:none"
             d="m 257.09483,457.98098 c -6.04454,-6.5783 -13.30949,-22.20556 -13.30949,-38.97832 h 7.9e-4 l -7.9e-4,-0.009 c 0.005,-11.71472 9.50428,-21.20806 21.219,-21.2056 11.71479,0.002 21.21031,8.67777 21.21031,21.2145 -0.0104,15.17056 -7.97447,32.34476 -13.87718,38.97831 -5.90269,6.63356 -9.19812,6.57831 -15.24264,0 z" /><path
             id="path92"
             style="fill:#ffdd55;fill-opacity:1;stroke:none;stroke-width:1.96672;stroke-dasharray:none"
             d="m 282.04137,462.53106 c 0.17264,-8.93201 5.71292,-25.25059 17.29796,-37.37958 l 5.7e-4,5.5e-4 0.006,-0.007 c 8.09504,-8.46788 21.52141,-8.77166 29.99105,-0.67846 8.47001,8.09291 9.34417,20.92528 0.68498,29.99105 -10.4859,10.9632 -28.10732,17.88166 -36.95762,18.60159 -8.85028,0.71995 -11.19516,-1.59618 -11.0225,-10.52817 z" /><path
             id="path93"
             style="fill:#0f70ff;fill-opacity:1;stroke:none;stroke-width:1.96672;stroke-dasharray:none"
             d="m 247.10581,462.53106 c -0.17264,-8.93201 -5.71292,-25.25059 -17.29796,-37.37958 l -5.7e-4,5.5e-4 -0.006,-0.007 c -8.09504,-8.46788 -21.52141,-8.77166 -29.99105,-0.67846 -8.47001,8.09291 -9.34417,20.92528 -0.68498,29.99105 10.4859,10.9632 28.10732,17.88166 36.95762,18.60159 8.85028,0.71995 11.19516,-1.59618 11.0225,-10.52817 z" /><path
             id="path94"
             style="fill:#0f70ff;fill-opacity:1;stroke:none;stroke-width:1.96672;stroke-dasharray:none"
             d="m 247.10581,517.41838 c -0.17264,8.93201 -5.71292,25.25059 -17.29796,37.37958 l -5.7e-4,-5.5e-4 -0.006,0.007 c -8.09504,8.46788 -21.52141,8.77166 -29.99105,0.67846 -8.47001,-8.09291 -9.34417,-20.92528 -0.68498,-29.99105 10.4859,-10.9632 28.10732,-17.88166 36.95762,-18.60159 8.85028,-0.71995 11.19516,1.59618 11.0225,10.52817 z" /><path
             id="path95"
             style="fill:#ffdd55;fill-opacity:1;stroke:none;stroke-width:1.96672;stroke-dasharray:none"
             d="m 282.04137,517.41838 c 0.17264,8.93201 5.71292,25.25059 17.29796,37.37958 l 5.7e-4,-5.5e-4 0.006,0.007 c 8.09504,8.46788 21.52141,8.77166 29.99105,0.67846 8.47001,-8.09291 9.34417,-20.92528 0.68498,-29.99105 -10.4859,-10.9632 -28.10732,-17.88166 -36.95762,-18.60159 -8.85028,-0.71995 -11.19516,1.59618 -11.0225,10.52817 z" /><path
             id="path96"
             style="fill:#ffdd55;fill-opacity:1;stroke:none;stroke-width:1.96672;stroke-dasharray:none"
             d="m 297.27583,482.09483 c 6.5783,-6.04454 22.20556,-13.30949 38.97832,-13.30949 v 7.9e-4 l 0.009,-7.9e-4 c 11.71472,0.005 21.20806,9.50428 21.2056,21.219 -0.002,11.71479 -8.67777,21.21031 -21.2145,21.21031 -15.17056,-0.0104 -32.34476,-7.97447 -38.97831,-13.87718 -6.63356,-5.90269 -6.57831,-9.19812 0,-15.24264 z" /><path
             id="path97"
             style="fill:#0f70ff;fill-opacity:1;stroke:none;stroke-width:1.96672;stroke-dasharray:none"
             d="m 232.72417,482.09483 c -6.5783,-6.04454 -22.20556,-13.30949 -38.97832,-13.30949 v 7.9e-4 l -0.009,-7.9e-4 c -11.71472,0.005 -21.20806,9.50428 -21.2056,21.219 0.002,11.71479 8.67777,21.21031 21.2145,21.21031 15.17056,-0.0104 32.34476,-7.97447 38.97831,-13.87718 6.63356,-5.90269 6.57831,-9.19812 0,-15.24264 z" /></g></g></g><text
       xml:space="preserve"
       transform="matrix(-0.26458333,0,0,-0.26458333,532.81125,1002.2008)"
       id="text85"
       style="font-size:192px;line-height:1.25;font-family:sans-serif;white-space:pre;shape-inside:url(#rect86);display:inline;fill:#ffffff"><tspan
         x="276.5918"
         y="455.18432"
         id="tspan10"><tspan
           style="font-family:Centaur;-inkscape-font-specification:Centaur;fill:#000000"
           id="tspan9">4</tspan></tspan></text><text
       xml:space="preserve"
       transform="matrix(0.26458333,0,0,0.26458333,0,-21.566009)"
       id="text83"
       style="font-size:192px;line-height:1.25;font-family:sans-serif;white-space:pre;shape-inside:url(#rect85);display:inline;fill:#ffffff"><tspan
         x="276.5918"
         y="455.18432"
         id="tspan12"><tspan
           style="font-family:Centaur;-inkscape-font-specification:Centaur;fill:#000000"
           id="tspan11">4</tspan></tspan></text><g
       id="g112"
       transform="matrix(-0.7110885,0,0,0.7110885,566.4897,416.49243)"><g
         id="g111"
         style="display:inline"><path
           style="fill:none;stroke:#000000;stroke-width:4;stroke-dasharray:none;stroke-opacity:1"
           id="path99"
           d="M 373.59632,490 A 108.59632,108.59632 0 0 1 265.02275,598.59632 108.59632,108.59632 0 0 1 156.40369,490.04549 108.59632,108.59632 0 0 1 264.93176,381.4037 108.59632,108.59632 0 0 1 373.59628,489.90902" /><path
           style="fill:#000000;stroke:#000000;stroke-width:0.66418;stroke-opacity:1"
           id="path100"
           d="m 359.28433,490 a 94.284332,94.284332 0 0 1 -94.26458,94.28433 94.284332,94.284332 0 0 1 -94.30407,-94.24483 94.284332,94.284332 0 0 1 94.22508,-94.32381 94.284332,94.284332 0 0 1 94.34354,94.20532" /><path
           style="fill:#ff0000;stroke:#4d4d4d;stroke-width:0.181798"
           id="path101"
           d="m 290.80717,490 a 25.807169,25.807169 0 0 1 -25.80176,25.80717 25.807169,25.807169 0 0 1 -25.81258,-25.79636 25.807169,25.807169 0 0 1 25.79095,-25.81797 25.807169,25.807169 0 0 1 25.82338,25.78554" /><path
           style="fill:#000000;stroke:#4d4d4d;stroke-width:0.090899"
           id="path102"
           d="m 277.90359,490 a 12.903586,12.903586 0 0 1 -12.90089,12.90359 12.903586,12.903586 0 0 1 -12.90629,-12.89818 12.903586,12.903586 0 0 1 12.89548,-12.90899 12.903586,12.903586 0 0 1 12.91169,12.89277" /><g
           id="g110"
           transform="rotate(-22.935032,264.99937,490.00026)"><path
             id="path103"
             style="fill:#ffdd55;fill-opacity:1;stroke:none;stroke-width:1.96672;stroke-dasharray:none"
             d="m 257.09483,522.01902 c -6.04454,6.5783 -13.30949,22.20556 -13.30949,38.97832 h 7.9e-4 l -7.9e-4,0.009 c 0.005,11.71472 9.50428,21.20806 21.219,21.2056 11.71479,-0.002 21.21031,-8.67777 21.21031,-21.2145 -0.0104,-15.17056 -7.97447,-32.34476 -13.87718,-38.97831 -5.90269,-6.63356 -9.19812,-6.57831 -15.24264,0 z" /><path
             id="path104"
             style="fill:#0f70ff;fill-opacity:1;stroke:none;stroke-width:1.96672;stroke-dasharray:none"
             d="m 257.09483,457.98098 c -6.04454,-6.5783 -13.30949,-22.20556 -13.30949,-38.97832 h 7.9e-4 l -7.9e-4,-0.009 c 0.005,-11.71472 9.50428,-21.20806 21.219,-21.2056 11.71479,0.002 21.21031,8.67777 21.21031,21.2145 -0.0104,15.17056 -7.97447,32.34476 -13.87718,38.97831 -5.90269,6.63356 -9.19812,6.57831 -15.24264,0 z" /><path
             id="path105"
             style="fill:#ffdd55;fill-opacity:1;stroke:none;stroke-width:1.96672;stroke-dasharray:none"
             d="m 282.04137,462.53106 c 0.17264,-8.93201 5.71292,-25.25059 17.29796,-37.37958 l 5.7e-4,5.5e-4 0.006,-0.007 c 8.09504,-8.46788 21.52141,-8.77166 29.99105,-0.67846 8.47001,8.09291 9.34417,20.92528 0.68498,29.99105 -10.4859,10.9632 -28.10732,17.88166 -36.95762,18.60159 -8.85028,0.71995 -11.19516,-1.59618 -11.0225,-10.52817 z" /><path
             id="path106"
             style="fill:#0f70ff;fill-opacity:1;stroke:none;stroke-width:1.96672;stroke-dasharray:none"
             d="m 247.10581,462.53106 c -0.17264,-8.93201 -5.71292,-25.25059 -17.29796,-37.37958 l -5.7e-4,5.5e-4 -0.006,-0.007 c -8.09504,-8.46788 -21.52141,-8.77166 -29.99105,-0.67846 -8.47001,8.09291 -9.34417,20.92528 -0.68498,29.99105 10.4859,10.9632 28.10732,17.88166 36.95762,18.60159 8.85028,0.71995 11.19516,-1.59618 11.0225,-10.52817 z" /><path
             id="path107"
             style="fill:#0f70ff;fill-opacity:1;stroke:none;stroke-width:1.96672;stroke-dasharray:none"
             d="m 247.10581,517.41838 c -0.17264,8.93201 -5.71292,25.25059 -17.29796,37.37958 l -5.7e-4,-5.5e-4 -0.006,0.007 c -8.09504,8.46788 -21.52141,8.77166 -29.99105,0.67846 -8.47001,-8.09291 -9.34417,-20.92528 -0.68498,-29.99105 10.4859,-10.9632 28.10732,-17.88166 36.95762,-18.60159 8.85028,-0.71995 11.19516,1.59618 11.0225,10.52817 z" /><path
             id="path108"
             style="fill:#ffdd55;fill-opacity:1;stroke:none;stroke-width:1.96672;stroke-dasharray:none"
             d="m 282.04137,517.41838 c 0.17264,8.93201 5.71292,25.25059 17.29796,37.37958 l 5.7e-4,-5.5e-4 0.006,0.007 c 8.09504,8.46788 21.52141,8.77166 29.99105,0.67846 8.47001,-8.09291 9.34417,-20.92528 0.68498,-29.99105 -10.4859,-10.9632 -28.10732,-17.88166 -36.95762,-18.60159 -8.85028,-0.71995 -11.19516,1.59618 -11.0225,10.52817 z" /><path
             id="path109"
             style="fill:#ffdd55;fill-opacity:1;stroke:none;stroke-width:1.96672;stroke-dasharray:none"
             d="m 297.27583,482.09483 c 6.5783,-6.04454 22.20556,-13.30949 38.97832,-13.30949 v 7.9e-4 l 0.009,-7.9e-4 c 11.71472,0.005 21.20806,9.50428 21.2056,21.219 -0.002,11.71479 -8.67777,21.21031 -21.2145,21.21031 -15.17056,-0.0104 -32.34476,-7.97447 -38.97831,-13.87718 -6.63356,-5.90269 -6.57831,-9.19812 0,-15.24264 z" /><path
             id="path110"
             style="fill:#0f70ff;fill-opacity:1;stroke:none;stroke-width:1.96672;stroke-dasharray:none"
             d="m 232.72417,482.09483 c -6.5783,-6.04454 -22.20556,-13.30949 -38.97832,-13.30949 v 7.9e-4 l -0.009,-7.9e-4 c -11.71472,0.005 -21.20806,9.50428 -21.2056,21.219 0.002,11.71479 8.67777,21.21031 21.2145,21.21031 15.17056,-0.0104 32.34476,-7.97447 38.97831,-13.87718 6.63356,-5.90269 6.57831,-9.19812 0,-15.24264 z" /></g></g></g><g
       id="g125"
       transform="matrix(0.7110885,0,0,0.7110885,-37.147225,416.49243)"><g
         id="g124"
         style="display:inline"><path
           style="fill:none;stroke:#000000;stroke-width:4;stroke-dasharray:none;stroke-opacity:1"
           id="path112"
           d="M 373.59632,490 A 108.59632,108.59632 0 0 1 265.02275,598.59632 108.59632,108.59632 0 0 1 156.40369,490.04549 108.59632,108.59632 0 0 1 264.93176,381.4037 108.59632,108.59632 0 0 1 373.59628,489.90902" /><path
           style="fill:#000000;stroke:#000000;stroke-width:0.66418;stroke-opacity:1"
           id="path113"
           d="m 359.28433,490 a 94.284332,94.284332 0 0 1 -94.26458,94.28433 94.284332,94.284332 0 0 1 -94.30407,-94.24483 94.284332,94.284332 0 0 1 94.22508,-94.32381 94.284332,94.284332 0 0 1 94.34354,94.20532" /><path
           style="fill:#ff0000;stroke:#4d4d4d;stroke-width:0.181798"
           id="path114"
           d="m 290.80717,490 a 25.807169,25.807169 0 0 1 -25.80176,25.80717 25.807169,25.807169 0 0 1 -25.81258,-25.79636 25.807169,25.807169 0 0 1 25.79095,-25.81797 25.807169,25.807169 0 0 1 25.82338,25.78554" /><path
           style="fill:#000000;stroke:#4d4d4d;stroke-width:0.090899"
           id="path115"
           d="m 277.90359,490 a 12.903586,12.903586 0 0 1 -12.90089,12.90359 12.903586,12.903586 0 0 1 -12.90629,-12.89818 12.903586,12.903586 0 0 1 12.89548,-12.90899 12.903586,12.903586 0 0 1 12.91169,12.89277" /><g
           id="g123"
           transform="rotate(-22.935032,264.99937,490.00026)"><path
             id="path116"
             style="fill:#ffdd55;fill-opacity:1;stroke:none;stroke-width:1.96672;stroke-dasharray:none"
             d="m 257.09483,522.01902 c -6.04454,6.5783 -13.30949,22.20556 -13.30949,38.97832 h 7.9e-4 l -7.9e-4,0.009 c 0.005,11.71472 9.50428,21.20806 21.219,21.2056 11.71479,-0.002 21.21031,-8.67777 21.21031,-21.2145 -0.0104,-15.17056 -7.97447,-32.34476 -13.87718,-38.97831 -5.90269,-6.63356 -9.19812,-6.57831 -15.24264,0 z" /><path
             id="path117"
             style="fill:#0f70ff;fill-opacity:1;stroke:none;stroke-width:1.96672;stroke-dasharray:none"
             d="m 257.09483,457.98098 c -6.04454,-6.5783 -13.30949,-22.20556 -13.30949,-38.97832 h 7.9e-4 l -7.9e-4,-0.009 c 0.005,-11.71472 9.50428,-21.20806 21.219,-21.2056 11.71479,0.002 21.21031,8.67777 21.21031,21.2145 -0.0104,15.17056 -7.97447,32.34476 -13.87718,38.97831 -5.90269,6.63356 -9.19812,6.57831 -15.24264,0 z" /><path
             id="path118"
             style="fill:#ffdd55;fill-opacity:1;stroke:none;stroke-width:1.96672;stroke-dasharray:none"
             d="m 282.04137,462.53106 c 0.17264,-8.93201 5.71292,-25.25059 17.29796,-37.37958 l 5.7e-4,5.5e-4 0.006,-0.007 c 8.09504,-8.46788 21.52141,-8.77166 29.99105,-0.67846 8.47001,8.09291 9.34417,20.92528 0.68498,29.99105 -10.4859,10.9632 -28.10732,17.88166 -36.95762,18.60159 -8.85028,0.71995 -11.19516,-1.59618 -11.0225,-10.52817 z" /><path
             id="path119"
             style="fill:#0f70ff;fill-opacity:1;stroke:none;stroke-width:1.96672;stroke-dasharray:none"
             d="m 247.10581,462.53106 c -0.17264,-8.93201 -5.71292,-25.25059 -17.29796,-37.37958 l -5.7e-4,5.5e-4 -0.006,-0.007 c -8.09504,-8.46788 -21.52141,-8.77166 -29.99105,-0.67846 -8.47001,8.09291 -9.34417,20.92528 -0.68498,29.99105 10.4859,10.9632 28.10732,17.88166 36.95762,18.60159 8.85028,0.71995 11.19516,-1.59618 11.0225,-10.52817 z" /><path
             id="path120"
             style="fill:#0f70ff;fill-opacity:1;stroke:none;stroke-width:1.96672;stroke-dasharray:none"
             d="m 247.10581,517.41838 c -0.17264,8.93201 -5.71292,25.25059 -17.29796,37.37958 l -5.7e-4,-5.5e-4 -0.006,0.007 c -8.09504,8.46788 -21.52141,8.77166 -29.99105,0.67846 -8.47001,-8.09291 -9.34417,-20.92528 -0.68498,-29.99105 10.4859,-10.9632 28.10732,-17.88166 36.95762,-18.60159 8.85028,-0.71995 11.19516,1.59618 11.0225,10.52817 z" /><path
             id="path121"
             style="fill:#ffdd55;fill-opacity:1;stroke:none;stroke-width:1.96672;stroke-dasharray:none"
             d="m 282.04137,517.41838 c 0.17264,8.93201 5.71292,25.25059 17.29796,37.37958 l 5.7e-4,-5.5e-4 0.006,0.007 c 8.09504,8.46788 21.52141,8.77166 29.99105,0.67846 8.47001,-8.09291 9.34417,-20.92528 0.68498,-29.99105 -10.4859,-10.9632 -28.10732,-17.88166 -36.95762,-18.60159 -8.85028,-0.71995 -11.19516,1.59618 -11.0225,10.52817 z" /><path
             id="path122"
             style="fill:#ffdd55;fill-opacity:1;stroke:none;stroke-width:1.96672;stroke-dasharray:none"
             d="m 297.27583,482.09483 c 6.5783,-6.04454 22.20556,-13.30949 38.97832,-13.30949 v 7.9e-4 l 0.009,-7.9e-4 c 11.71472,0.005 21.20806,9.50428 21.2056,21.219 -0.002,11.71479 -8.67777,21.21031 -21.2145,21.21031 -15.17056,-0.0104 -32.34476,-7.97447 -38.97831,-13.87718 -6.63356,-5.90269 -6.57831,-9.19812 0,-15.24264 z" /><path
             id="path123"
             style="fill:#0f70ff;fill-opacity:1;stroke:none;stroke-width:1.96672;stroke-dasharray:none"
             d="m 232.72417,482.09483 c -6.5783,-6.04454 -22.20556,-13.30949 -38.97832,-13.30949 v 7.9e-4 l -0.009,-7.9e-4 c -11.71472,0.005 -21.20806,9.50428 -21.2056,21.219 0.002,11.71479 8.67777,21.21031 21.2145,21.21031 15.17056,-0.0104 32.34476,-7.97447 38.97831,-13.87718 6.63356,-5.90269 6.57831,-9.19812 0,-15.24264 z" /></g></g></g></g></svg>
