<?xml version="1.0" encoding="UTF-8" standalone="no"?>
<!-- Created with Inkscape (http://www.inkscape.org/) -->

<svg
   width="530mm"
   height="980mm"
   viewBox="0 0 530 980"
   version="1.1"
   id="svg1"
   xml:space="preserve"
   sodipodi:docname="6_d.svg"
   inkscape:version="1.4 (86a8ad7, 2024-10-11)"
   xmlns:inkscape="http://www.inkscape.org/namespaces/inkscape"
   xmlns:sodipodi="http://sodipodi.sourceforge.net/DTD/sodipodi-0.dtd"
   xmlns="http://www.w3.org/2000/svg"
   xmlns:svg="http://www.w3.org/2000/svg"><sodipodi:namedview
     id="namedview1"
     pagecolor="#ffffff"
     bordercolor="#000000"
     borderopacity="0.25"
     inkscape:showpageshadow="2"
     inkscape:pageopacity="0.0"
     inkscape:pagecheckerboard="0"
     inkscape:deskcolor="#d1d1d1"
     inkscape:document-units="mm"
     inkscape:zoom="0.22003614"
     inkscape:cx="999.83576"
     inkscape:cy="1851.9685"
     inkscape:window-width="1920"
     inkscape:window-height="1017"
     inkscape:window-x="-8"
     inkscape:window-y="32"
     inkscape:window-maximized="1"
     inkscape:current-layer="svg1" /><defs
     id="defs1"><rect
       x="276.59204"
       y="280.4877"
       width="272.69638"
       height="292.17471"
       id="rect221" /><linearGradient
       id="swatch181"><stop
         style="stop-color:#0f70ff;stop-opacity:1;"
         offset="0"
         id="stop181" /></linearGradient><rect
       x="276.59204"
       y="280.4877"
       width="272.69638"
       height="292.17471"
       id="rect222" /><rect
       x="276.59204"
       y="280.4877"
       width="272.69638"
       height="292.17471"
       id="rect85" /><rect
       x="276.59204"
       y="280.4877"
       width="272.69638"
       height="292.17471"
       id="rect86" /><rect
       x="276.59204"
       y="280.4877"
       width="272.69638"
       height="292.17471"
       id="rect144" /><rect
       x="276.59204"
       y="280.4877"
       width="272.69638"
       height="292.17471"
       id="rect145" /><rect
       x="276.59204"
       y="280.4877"
       width="272.69638"
       height="292.17471"
       id="rect227" /><rect
       x="276.59204"
       y="280.4877"
       width="272.69638"
       height="292.17471"
       id="rect228" /></defs><g
     id="g220"><g
       id="layer1"
       style="display:inline;fill:#ffffff"><path
         id="rect4"
         style="display:inline;fill:#ffffff;fill-opacity:1;stroke:none;stroke-width:2.365;stroke-linejoin:bevel;stroke-opacity:1"
         d="M 53.211222,0 A 53.211304,53.211304 0 0 0 0,53.211222 V 926.78891 a 53.211304,53.211304 0 0 0 53.211222,53.21122 H 476.78847 a 53.211304,53.211304 0 0 0 53.21174,-53.21122 V 53.211222 A 53.211304,53.211304 0 0 0 476.78847,0 Z" /><path
         id="path7"
         style="display:inline;fill:none;fill-opacity:1;stroke:#000000;stroke-width:4;stroke-linejoin:bevel;stroke-dasharray:none;stroke-opacity:1"
         d="M 84.38306,39.04751 A 45.33562,49.009618 0 0 0 39.04751,88.057052 V 892.65504 a 45.33562,49.009618 0 0 0 45.33555,49.00955 H 445.26759 A 45.33562,49.009618 0 0 0 490.6036,892.65504 V 88.057052 A 45.33562,49.009618 0 0 0 445.26759,39.04751 Z" /></g></g><g
     id="g227"><g
       id="g171"
       transform="matrix(-0.7110885,0,0,0.7110885,565.04187,-132.73776)"><g
         id="g170"
         style="display:inline"><path
           style="fill:none;stroke:#000000;stroke-width:4;stroke-dasharray:none;stroke-opacity:1"
           id="path158"
           d="M 373.59632,490 A 108.59632,108.59632 0 0 1 265.02275,598.59632 108.59632,108.59632 0 0 1 156.40369,490.04549 108.59632,108.59632 0 0 1 264.93176,381.4037 108.59632,108.59632 0 0 1 373.59628,489.90902" /><path
           style="fill:#000000;stroke:#000000;stroke-width:0.66418;stroke-opacity:1"
           id="path159"
           d="m 359.28433,490 a 94.284332,94.284332 0 0 1 -94.26458,94.28433 94.284332,94.284332 0 0 1 -94.30407,-94.24483 94.284332,94.284332 0 0 1 94.22508,-94.32381 94.284332,94.284332 0 0 1 94.34354,94.20532" /><path
           style="fill:#ff0000;stroke:#4d4d4d;stroke-width:0.181798"
           id="path160"
           d="m 290.80717,490 a 25.807169,25.807169 0 0 1 -25.80176,25.80717 25.807169,25.807169 0 0 1 -25.81258,-25.79636 25.807169,25.807169 0 0 1 25.79095,-25.81797 25.807169,25.807169 0 0 1 25.82338,25.78554" /><path
           style="fill:#000000;stroke:#4d4d4d;stroke-width:0.090899"
           id="path161"
           d="m 277.90359,490 a 12.903586,12.903586 0 0 1 -12.90089,12.90359 12.903586,12.903586 0 0 1 -12.90629,-12.89818 12.903586,12.903586 0 0 1 12.89548,-12.90899 12.903586,12.903586 0 0 1 12.91169,12.89277" /><g
           id="g169"
           transform="rotate(-22.935032,264.99937,490.00026)"><path
             id="path162"
             style="fill:#ffdd55;fill-opacity:1;stroke:none;stroke-width:1.96672;stroke-dasharray:none"
             d="m 257.09483,522.01902 c -6.04454,6.5783 -13.30949,22.20556 -13.30949,38.97832 h 7.9e-4 l -7.9e-4,0.009 c 0.005,11.71472 9.50428,21.20806 21.219,21.2056 11.71479,-0.002 21.21031,-8.67777 21.21031,-21.2145 -0.0104,-15.17056 -7.97447,-32.34476 -13.87718,-38.97831 -5.90269,-6.63356 -9.19812,-6.57831 -15.24264,0 z" /><path
             id="path163"
             style="fill:#0f70ff;fill-opacity:1;stroke:none;stroke-width:1.96672;stroke-dasharray:none"
             d="m 257.09483,457.98098 c -6.04454,-6.5783 -13.30949,-22.20556 -13.30949,-38.97832 h 7.9e-4 l -7.9e-4,-0.009 c 0.005,-11.71472 9.50428,-21.20806 21.219,-21.2056 11.71479,0.002 21.21031,8.67777 21.21031,21.2145 -0.0104,15.17056 -7.97447,32.34476 -13.87718,38.97831 -5.90269,6.63356 -9.19812,6.57831 -15.24264,0 z" /><path
             id="path164"
             style="fill:#ffdd55;fill-opacity:1;stroke:none;stroke-width:1.96672;stroke-dasharray:none"
             d="m 282.04137,462.53106 c 0.17264,-8.93201 5.71292,-25.25059 17.29796,-37.37958 l 5.7e-4,5.5e-4 0.006,-0.007 c 8.09504,-8.46788 21.52141,-8.77166 29.99105,-0.67846 8.47001,8.09291 9.34417,20.92528 0.68498,29.99105 -10.4859,10.9632 -28.10732,17.88166 -36.95762,18.60159 -8.85028,0.71995 -11.19516,-1.59618 -11.0225,-10.52817 z" /><path
             id="path165"
             style="fill:#0f70ff;fill-opacity:1;stroke:none;stroke-width:1.96672;stroke-dasharray:none"
             d="m 247.10581,462.53106 c -0.17264,-8.93201 -5.71292,-25.25059 -17.29796,-37.37958 l -5.7e-4,5.5e-4 -0.006,-0.007 c -8.09504,-8.46788 -21.52141,-8.77166 -29.99105,-0.67846 -8.47001,8.09291 -9.34417,20.92528 -0.68498,29.99105 10.4859,10.9632 28.10732,17.88166 36.95762,18.60159 8.85028,0.71995 11.19516,-1.59618 11.0225,-10.52817 z" /><path
             id="path166"
             style="fill:#0f70ff;fill-opacity:1;stroke:none;stroke-width:1.96672;stroke-dasharray:none"
             d="m 247.10581,517.41838 c -0.17264,8.93201 -5.71292,25.25059 -17.29796,37.37958 l -5.7e-4,-5.5e-4 -0.006,0.007 c -8.09504,8.46788 -21.52141,8.77166 -29.99105,0.67846 -8.47001,-8.09291 -9.34417,-20.92528 -0.68498,-29.99105 10.4859,-10.9632 28.10732,-17.88166 36.95762,-18.60159 8.85028,-0.71995 11.19516,1.59618 11.0225,10.52817 z" /><path
             id="path167"
             style="fill:#ffdd55;fill-opacity:1;stroke:none;stroke-width:1.96672;stroke-dasharray:none"
             d="m 282.04137,517.41838 c 0.17264,8.93201 5.71292,25.25059 17.29796,37.37958 l 5.7e-4,-5.5e-4 0.006,0.007 c 8.09504,8.46788 21.52141,8.77166 29.99105,0.67846 8.47001,-8.09291 9.34417,-20.92528 0.68498,-29.99105 -10.4859,-10.9632 -28.10732,-17.88166 -36.95762,-18.60159 -8.85028,-0.71995 -11.19516,1.59618 -11.0225,10.52817 z" /><path
             id="path168"
             style="fill:#ffdd55;fill-opacity:1;stroke:none;stroke-width:1.96672;stroke-dasharray:none"
             d="m 297.27583,482.09483 c 6.5783,-6.04454 22.20556,-13.30949 38.97832,-13.30949 v 7.9e-4 l 0.009,-7.9e-4 c 11.71472,0.005 21.20806,9.50428 21.2056,21.219 -0.002,11.71479 -8.67777,21.21031 -21.2145,21.21031 -15.17056,-0.0104 -32.34476,-7.97447 -38.97831,-13.87718 -6.63356,-5.90269 -6.57831,-9.19812 0,-15.24264 z" /><path
             id="path169"
             style="fill:#0f70ff;fill-opacity:1;stroke:none;stroke-width:1.96672;stroke-dasharray:none"
             d="m 232.72417,482.09483 c -6.5783,-6.04454 -22.20556,-13.30949 -38.97832,-13.30949 v 7.9e-4 l -0.009,-7.9e-4 c -11.71472,0.005 -21.20806,9.50428 -21.2056,21.219 0.002,11.71479 8.67777,21.21031 21.2145,21.21031 15.17056,-0.0104 32.34476,-7.97447 38.97831,-13.87718 6.63356,-5.90269 6.57831,-9.19812 0,-15.24264 z" /></g></g></g><g
       id="g184"
       transform="matrix(0.7110885,0,0,0.7110885,-38.595053,-132.73776)"><g
         id="g183"
         style="display:inline"><path
           style="fill:none;stroke:#000000;stroke-width:4;stroke-dasharray:none;stroke-opacity:1"
           id="path171"
           d="M 373.59632,490 A 108.59632,108.59632 0 0 1 265.02275,598.59632 108.59632,108.59632 0 0 1 156.40369,490.04549 108.59632,108.59632 0 0 1 264.93176,381.4037 108.59632,108.59632 0 0 1 373.59628,489.90902" /><path
           style="fill:#000000;stroke:#000000;stroke-width:0.66418;stroke-opacity:1"
           id="path172"
           d="m 359.28433,490 a 94.284332,94.284332 0 0 1 -94.26458,94.28433 94.284332,94.284332 0 0 1 -94.30407,-94.24483 94.284332,94.284332 0 0 1 94.22508,-94.32381 94.284332,94.284332 0 0 1 94.34354,94.20532" /><path
           style="fill:#ff0000;stroke:#4d4d4d;stroke-width:0.181798"
           id="path173"
           d="m 290.80717,490 a 25.807169,25.807169 0 0 1 -25.80176,25.80717 25.807169,25.807169 0 0 1 -25.81258,-25.79636 25.807169,25.807169 0 0 1 25.79095,-25.81797 25.807169,25.807169 0 0 1 25.82338,25.78554" /><path
           style="fill:#000000;stroke:#4d4d4d;stroke-width:0.090899"
           id="path174"
           d="m 277.90359,490 a 12.903586,12.903586 0 0 1 -12.90089,12.90359 12.903586,12.903586 0 0 1 -12.90629,-12.89818 12.903586,12.903586 0 0 1 12.89548,-12.90899 12.903586,12.903586 0 0 1 12.91169,12.89277" /><g
           id="g182"
           transform="rotate(-22.935032,264.99937,490.00026)"><path
             id="path175"
             style="fill:#ffdd55;fill-opacity:1;stroke:none;stroke-width:1.96672;stroke-dasharray:none"
             d="m 257.09483,522.01902 c -6.04454,6.5783 -13.30949,22.20556 -13.30949,38.97832 h 7.9e-4 l -7.9e-4,0.009 c 0.005,11.71472 9.50428,21.20806 21.219,21.2056 11.71479,-0.002 21.21031,-8.67777 21.21031,-21.2145 -0.0104,-15.17056 -7.97447,-32.34476 -13.87718,-38.97831 -5.90269,-6.63356 -9.19812,-6.57831 -15.24264,0 z" /><path
             id="path176"
             style="fill:#0f70ff;fill-opacity:1;stroke:none;stroke-width:1.96672;stroke-dasharray:none"
             d="m 257.09483,457.98098 c -6.04454,-6.5783 -13.30949,-22.20556 -13.30949,-38.97832 h 7.9e-4 l -7.9e-4,-0.009 c 0.005,-11.71472 9.50428,-21.20806 21.219,-21.2056 11.71479,0.002 21.21031,8.67777 21.21031,21.2145 -0.0104,15.17056 -7.97447,32.34476 -13.87718,38.97831 -5.90269,6.63356 -9.19812,6.57831 -15.24264,0 z" /><path
             id="path177"
             style="fill:#ffdd55;fill-opacity:1;stroke:none;stroke-width:1.96672;stroke-dasharray:none"
             d="m 282.04137,462.53106 c 0.17264,-8.93201 5.71292,-25.25059 17.29796,-37.37958 l 5.7e-4,5.5e-4 0.006,-0.007 c 8.09504,-8.46788 21.52141,-8.77166 29.99105,-0.67846 8.47001,8.09291 9.34417,20.92528 0.68498,29.99105 -10.4859,10.9632 -28.10732,17.88166 -36.95762,18.60159 -8.85028,0.71995 -11.19516,-1.59618 -11.0225,-10.52817 z" /><path
             id="path178"
             style="fill:#0f70ff;fill-opacity:1;stroke:none;stroke-width:1.96672;stroke-dasharray:none"
             d="m 247.10581,462.53106 c -0.17264,-8.93201 -5.71292,-25.25059 -17.29796,-37.37958 l -5.7e-4,5.5e-4 -0.006,-0.007 c -8.09504,-8.46788 -21.52141,-8.77166 -29.99105,-0.67846 -8.47001,8.09291 -9.34417,20.92528 -0.68498,29.99105 10.4859,10.9632 28.10732,17.88166 36.95762,18.60159 8.85028,0.71995 11.19516,-1.59618 11.0225,-10.52817 z" /><path
             id="path179"
             style="fill:#0f70ff;fill-opacity:1;stroke:none;stroke-width:1.96672;stroke-dasharray:none"
             d="m 247.10581,517.41838 c -0.17264,8.93201 -5.71292,25.25059 -17.29796,37.37958 l -5.7e-4,-5.5e-4 -0.006,0.007 c -8.09504,8.46788 -21.52141,8.77166 -29.99105,0.67846 -8.47001,-8.09291 -9.34417,-20.92528 -0.68498,-29.99105 10.4859,-10.9632 28.10732,-17.88166 36.95762,-18.60159 8.85028,-0.71995 11.19516,1.59618 11.0225,10.52817 z" /><path
             id="path180"
             style="fill:#ffdd55;fill-opacity:1;stroke:none;stroke-width:1.96672;stroke-dasharray:none"
             d="m 282.04137,517.41838 c 0.17264,8.93201 5.71292,25.25059 17.29796,37.37958 l 5.7e-4,-5.5e-4 0.006,0.007 c 8.09504,8.46788 21.52141,8.77166 29.99105,0.67846 8.47001,-8.09291 9.34417,-20.92528 0.68498,-29.99105 -10.4859,-10.9632 -28.10732,-17.88166 -36.95762,-18.60159 -8.85028,-0.71995 -11.19516,1.59618 -11.0225,10.52817 z" /><path
             id="path181"
             style="fill:#ffdd55;fill-opacity:1;stroke:none;stroke-width:1.96672;stroke-dasharray:none"
             d="m 297.27583,482.09483 c 6.5783,-6.04454 22.20556,-13.30949 38.97832,-13.30949 v 7.9e-4 l 0.009,-7.9e-4 c 11.71472,0.005 21.20806,9.50428 21.2056,21.219 -0.002,11.71479 -8.67777,21.21031 -21.2145,21.21031 -15.17056,-0.0104 -32.34476,-7.97447 -38.97831,-13.87718 -6.63356,-5.90269 -6.57831,-9.19812 0,-15.24264 z" /><path
             id="path182"
             style="fill:#0f70ff;fill-opacity:1;stroke:none;stroke-width:1.96672;stroke-dasharray:none"
             d="m 232.72417,482.09483 c -6.5783,-6.04454 -22.20556,-13.30949 -38.97832,-13.30949 v 7.9e-4 l -0.009,-7.9e-4 c -11.71472,0.005 -21.20806,9.50428 -21.2056,21.219 0.002,11.71479 8.67777,21.21031 21.2145,21.21031 15.17056,-0.0104 32.34476,-7.97447 38.97831,-13.87718 6.63356,-5.90269 6.57831,-9.19812 0,-15.24264 z" /></g></g></g><text
       xml:space="preserve"
       transform="matrix(-0.26458333,0,0,-0.26458333,532.81125,1002.2008)"
       id="text185"
       style="font-size:192px;line-height:1.25;font-family:sans-serif;white-space:pre;shape-inside:url(#rect227);display:inline;fill:#ffffff"><tspan
         x="276.5918"
         y="455.18432"
         id="tspan2"><tspan
           style="font-family:Centaur;-inkscape-font-specification:Centaur;fill:#000000"
           id="tspan1">6</tspan></tspan></text><text
       xml:space="preserve"
       transform="matrix(0.26458333,0,0,0.26458333,0,-21.566009)"
       id="text187"
       style="font-size:192px;line-height:1.25;font-family:sans-serif;white-space:pre;shape-inside:url(#rect228);display:inline;fill:#ffffff"><tspan
         x="276.5918"
         y="455.18432"
         id="tspan4"><tspan
           style="font-family:Centaur;-inkscape-font-specification:Centaur;fill:#000000"
           id="tspan3">6</tspan></tspan></text><g
       id="g200"
       transform="matrix(-0.7110885,0,0,0.7110885,566.4897,416.49243)"><g
         id="g199"
         style="display:inline"><path
           style="fill:none;stroke:#000000;stroke-width:4;stroke-dasharray:none;stroke-opacity:1"
           id="path187"
           d="M 373.59632,490 A 108.59632,108.59632 0 0 1 265.02275,598.59632 108.59632,108.59632 0 0 1 156.40369,490.04549 108.59632,108.59632 0 0 1 264.93176,381.4037 108.59632,108.59632 0 0 1 373.59628,489.90902" /><path
           style="fill:#000000;stroke:#000000;stroke-width:0.66418;stroke-opacity:1"
           id="path188"
           d="m 359.28433,490 a 94.284332,94.284332 0 0 1 -94.26458,94.28433 94.284332,94.284332 0 0 1 -94.30407,-94.24483 94.284332,94.284332 0 0 1 94.22508,-94.32381 94.284332,94.284332 0 0 1 94.34354,94.20532" /><path
           style="fill:#ff0000;stroke:#4d4d4d;stroke-width:0.181798"
           id="path189"
           d="m 290.80717,490 a 25.807169,25.807169 0 0 1 -25.80176,25.80717 25.807169,25.807169 0 0 1 -25.81258,-25.79636 25.807169,25.807169 0 0 1 25.79095,-25.81797 25.807169,25.807169 0 0 1 25.82338,25.78554" /><path
           style="fill:#000000;stroke:#4d4d4d;stroke-width:0.090899"
           id="path190"
           d="m 277.90359,490 a 12.903586,12.903586 0 0 1 -12.90089,12.90359 12.903586,12.903586 0 0 1 -12.90629,-12.89818 12.903586,12.903586 0 0 1 12.89548,-12.90899 12.903586,12.903586 0 0 1 12.91169,12.89277" /><g
           id="g198"
           transform="rotate(-22.935032,264.99937,490.00026)"><path
             id="path191"
             style="fill:#ffdd55;fill-opacity:1;stroke:none;stroke-width:1.96672;stroke-dasharray:none"
             d="m 257.09483,522.01902 c -6.04454,6.5783 -13.30949,22.20556 -13.30949,38.97832 h 7.9e-4 l -7.9e-4,0.009 c 0.005,11.71472 9.50428,21.20806 21.219,21.2056 11.71479,-0.002 21.21031,-8.67777 21.21031,-21.2145 -0.0104,-15.17056 -7.97447,-32.34476 -13.87718,-38.97831 -5.90269,-6.63356 -9.19812,-6.57831 -15.24264,0 z" /><path
             id="path192"
             style="fill:#0f70ff;fill-opacity:1;stroke:none;stroke-width:1.96672;stroke-dasharray:none"
             d="m 257.09483,457.98098 c -6.04454,-6.5783 -13.30949,-22.20556 -13.30949,-38.97832 h 7.9e-4 l -7.9e-4,-0.009 c 0.005,-11.71472 9.50428,-21.20806 21.219,-21.2056 11.71479,0.002 21.21031,8.67777 21.21031,21.2145 -0.0104,15.17056 -7.97447,32.34476 -13.87718,38.97831 -5.90269,6.63356 -9.19812,6.57831 -15.24264,0 z" /><path
             id="path193"
             style="fill:#ffdd55;fill-opacity:1;stroke:none;stroke-width:1.96672;stroke-dasharray:none"
             d="m 282.04137,462.53106 c 0.17264,-8.93201 5.71292,-25.25059 17.29796,-37.37958 l 5.7e-4,5.5e-4 0.006,-0.007 c 8.09504,-8.46788 21.52141,-8.77166 29.99105,-0.67846 8.47001,8.09291 9.34417,20.92528 0.68498,29.99105 -10.4859,10.9632 -28.10732,17.88166 -36.95762,18.60159 -8.85028,0.71995 -11.19516,-1.59618 -11.0225,-10.52817 z" /><path
             id="path194"
             style="fill:#0f70ff;fill-opacity:1;stroke:none;stroke-width:1.96672;stroke-dasharray:none"
             d="m 247.10581,462.53106 c -0.17264,-8.93201 -5.71292,-25.25059 -17.29796,-37.37958 l -5.7e-4,5.5e-4 -0.006,-0.007 c -8.09504,-8.46788 -21.52141,-8.77166 -29.99105,-0.67846 -8.47001,8.09291 -9.34417,20.92528 -0.68498,29.99105 10.4859,10.9632 28.10732,17.88166 36.95762,18.60159 8.85028,0.71995 11.19516,-1.59618 11.0225,-10.52817 z" /><path
             id="path195"
             style="fill:#0f70ff;fill-opacity:1;stroke:none;stroke-width:1.96672;stroke-dasharray:none"
             d="m 247.10581,517.41838 c -0.17264,8.93201 -5.71292,25.25059 -17.29796,37.37958 l -5.7e-4,-5.5e-4 -0.006,0.007 c -8.09504,8.46788 -21.52141,8.77166 -29.99105,0.67846 -8.47001,-8.09291 -9.34417,-20.92528 -0.68498,-29.99105 10.4859,-10.9632 28.10732,-17.88166 36.95762,-18.60159 8.85028,-0.71995 11.19516,1.59618 11.0225,10.52817 z" /><path
             id="path196"
             style="fill:#ffdd55;fill-opacity:1;stroke:none;stroke-width:1.96672;stroke-dasharray:none"
             d="m 282.04137,517.41838 c 0.17264,8.93201 5.71292,25.25059 17.29796,37.37958 l 5.7e-4,-5.5e-4 0.006,0.007 c 8.09504,8.46788 21.52141,8.77166 29.99105,0.67846 8.47001,-8.09291 9.34417,-20.92528 0.68498,-29.99105 -10.4859,-10.9632 -28.10732,-17.88166 -36.95762,-18.60159 -8.85028,-0.71995 -11.19516,1.59618 -11.0225,10.52817 z" /><path
             id="path197"
             style="fill:#ffdd55;fill-opacity:1;stroke:none;stroke-width:1.96672;stroke-dasharray:none"
             d="m 297.27583,482.09483 c 6.5783,-6.04454 22.20556,-13.30949 38.97832,-13.30949 v 7.9e-4 l 0.009,-7.9e-4 c 11.71472,0.005 21.20806,9.50428 21.2056,21.219 -0.002,11.71479 -8.67777,21.21031 -21.2145,21.21031 -15.17056,-0.0104 -32.34476,-7.97447 -38.97831,-13.87718 -6.63356,-5.90269 -6.57831,-9.19812 0,-15.24264 z" /><path
             id="path198"
             style="fill:#0f70ff;fill-opacity:1;stroke:none;stroke-width:1.96672;stroke-dasharray:none"
             d="m 232.72417,482.09483 c -6.5783,-6.04454 -22.20556,-13.30949 -38.97832,-13.30949 v 7.9e-4 l -0.009,-7.9e-4 c -11.71472,0.005 -21.20806,9.50428 -21.2056,21.219 0.002,11.71479 8.67777,21.21031 21.2145,21.21031 15.17056,-0.0104 32.34476,-7.97447 38.97831,-13.87718 6.63356,-5.90269 6.57831,-9.19812 0,-15.24264 z" /></g></g></g><g
       id="g213"
       transform="matrix(0.7110885,0,0,0.7110885,-37.147225,416.49243)"><g
         id="g212"
         style="display:inline"><path
           style="fill:none;stroke:#000000;stroke-width:4;stroke-dasharray:none;stroke-opacity:1"
           id="path200"
           d="M 373.59632,490 A 108.59632,108.59632 0 0 1 265.02275,598.59632 108.59632,108.59632 0 0 1 156.40369,490.04549 108.59632,108.59632 0 0 1 264.93176,381.4037 108.59632,108.59632 0 0 1 373.59628,489.90902" /><path
           style="fill:#000000;stroke:#000000;stroke-width:0.66418;stroke-opacity:1"
           id="path201"
           d="m 359.28433,490 a 94.284332,94.284332 0 0 1 -94.26458,94.28433 94.284332,94.284332 0 0 1 -94.30407,-94.24483 94.284332,94.284332 0 0 1 94.22508,-94.32381 94.284332,94.284332 0 0 1 94.34354,94.20532" /><path
           style="fill:#ff0000;stroke:#4d4d4d;stroke-width:0.181798"
           id="path202"
           d="m 290.80717,490 a 25.807169,25.807169 0 0 1 -25.80176,25.80717 25.807169,25.807169 0 0 1 -25.81258,-25.79636 25.807169,25.807169 0 0 1 25.79095,-25.81797 25.807169,25.807169 0 0 1 25.82338,25.78554" /><path
           style="fill:#000000;stroke:#4d4d4d;stroke-width:0.090899"
           id="path203"
           d="m 277.90359,490 a 12.903586,12.903586 0 0 1 -12.90089,12.90359 12.903586,12.903586 0 0 1 -12.90629,-12.89818 12.903586,12.903586 0 0 1 12.89548,-12.90899 12.903586,12.903586 0 0 1 12.91169,12.89277" /><g
           id="g211"
           transform="rotate(-22.935032,264.99937,490.00026)"><path
             id="path204"
             style="fill:#ffdd55;fill-opacity:1;stroke:none;stroke-width:1.96672;stroke-dasharray:none"
             d="m 257.09483,522.01902 c -6.04454,6.5783 -13.30949,22.20556 -13.30949,38.97832 h 7.9e-4 l -7.9e-4,0.009 c 0.005,11.71472 9.50428,21.20806 21.219,21.2056 11.71479,-0.002 21.21031,-8.67777 21.21031,-21.2145 -0.0104,-15.17056 -7.97447,-32.34476 -13.87718,-38.97831 -5.90269,-6.63356 -9.19812,-6.57831 -15.24264,0 z" /><path
             id="path205"
             style="fill:#0f70ff;fill-opacity:1;stroke:none;stroke-width:1.96672;stroke-dasharray:none"
             d="m 257.09483,457.98098 c -6.04454,-6.5783 -13.30949,-22.20556 -13.30949,-38.97832 h 7.9e-4 l -7.9e-4,-0.009 c 0.005,-11.71472 9.50428,-21.20806 21.219,-21.2056 11.71479,0.002 21.21031,8.67777 21.21031,21.2145 -0.0104,15.17056 -7.97447,32.34476 -13.87718,38.97831 -5.90269,6.63356 -9.19812,6.57831 -15.24264,0 z" /><path
             id="path206"
             style="fill:#ffdd55;fill-opacity:1;stroke:none;stroke-width:1.96672;stroke-dasharray:none"
             d="m 282.04137,462.53106 c 0.17264,-8.93201 5.71292,-25.25059 17.29796,-37.37958 l 5.7e-4,5.5e-4 0.006,-0.007 c 8.09504,-8.46788 21.52141,-8.77166 29.99105,-0.67846 8.47001,8.09291 9.34417,20.92528 0.68498,29.99105 -10.4859,10.9632 -28.10732,17.88166 -36.95762,18.60159 -8.85028,0.71995 -11.19516,-1.59618 -11.0225,-10.52817 z" /><path
             id="path207"
             style="fill:#0f70ff;fill-opacity:1;stroke:none;stroke-width:1.96672;stroke-dasharray:none"
             d="m 247.10581,462.53106 c -0.17264,-8.93201 -5.71292,-25.25059 -17.29796,-37.37958 l -5.7e-4,5.5e-4 -0.006,-0.007 c -8.09504,-8.46788 -21.52141,-8.77166 -29.99105,-0.67846 -8.47001,8.09291 -9.34417,20.92528 -0.68498,29.99105 10.4859,10.9632 28.10732,17.88166 36.95762,18.60159 8.85028,0.71995 11.19516,-1.59618 11.0225,-10.52817 z" /><path
             id="path208"
             style="fill:#0f70ff;fill-opacity:1;stroke:none;stroke-width:1.96672;stroke-dasharray:none"
             d="m 247.10581,517.41838 c -0.17264,8.93201 -5.71292,25.25059 -17.29796,37.37958 l -5.7e-4,-5.5e-4 -0.006,0.007 c -8.09504,8.46788 -21.52141,8.77166 -29.99105,0.67846 -8.47001,-8.09291 -9.34417,-20.92528 -0.68498,-29.99105 10.4859,-10.9632 28.10732,-17.88166 36.95762,-18.60159 8.85028,-0.71995 11.19516,1.59618 11.0225,10.52817 z" /><path
             id="path209"
             style="fill:#ffdd55;fill-opacity:1;stroke:none;stroke-width:1.96672;stroke-dasharray:none"
             d="m 282.04137,517.41838 c 0.17264,8.93201 5.71292,25.25059 17.29796,37.37958 l 5.7e-4,-5.5e-4 0.006,0.007 c 8.09504,8.46788 21.52141,8.77166 29.99105,0.67846 8.47001,-8.09291 9.34417,-20.92528 0.68498,-29.99105 -10.4859,-10.9632 -28.10732,-17.88166 -36.95762,-18.60159 -8.85028,-0.71995 -11.19516,1.59618 -11.0225,10.52817 z" /><path
             id="path210"
             style="fill:#ffdd55;fill-opacity:1;stroke:none;stroke-width:1.96672;stroke-dasharray:none"
             d="m 297.27583,482.09483 c 6.5783,-6.04454 22.20556,-13.30949 38.97832,-13.30949 v 7.9e-4 l 0.009,-7.9e-4 c 11.71472,0.005 21.20806,9.50428 21.2056,21.219 -0.002,11.71479 -8.67777,21.21031 -21.2145,21.21031 -15.17056,-0.0104 -32.34476,-7.97447 -38.97831,-13.87718 -6.63356,-5.90269 -6.57831,-9.19812 0,-15.24264 z" /><path
             id="path211"
             style="fill:#0f70ff;fill-opacity:1;stroke:none;stroke-width:1.96672;stroke-dasharray:none"
             d="m 232.72417,482.09483 c -6.5783,-6.04454 -22.20556,-13.30949 -38.97832,-13.30949 v 7.9e-4 l -0.009,-7.9e-4 c -11.71472,0.005 -21.20806,9.50428 -21.2056,21.219 0.002,11.71479 8.67777,21.21031 21.2145,21.21031 15.17056,-0.0104 32.34476,-7.97447 38.97831,-13.87718 6.63356,-5.90269 6.57831,-9.19812 0,-15.24264 z" /></g></g></g><g
       id="g241"
       transform="matrix(-0.7110885,0,0,0.7110885,566.4897,141.56664)"><g
         id="g240"
         style="display:inline"><path
           style="fill:none;stroke:#000000;stroke-width:4;stroke-dasharray:none;stroke-opacity:1"
           id="path228"
           d="M 373.59632,490 A 108.59632,108.59632 0 0 1 265.02275,598.59632 108.59632,108.59632 0 0 1 156.40369,490.04549 108.59632,108.59632 0 0 1 264.93176,381.4037 108.59632,108.59632 0 0 1 373.59628,489.90902" /><path
           style="fill:#000000;stroke:#000000;stroke-width:0.66418;stroke-opacity:1"
           id="path229"
           d="m 359.28433,490 a 94.284332,94.284332 0 0 1 -94.26458,94.28433 94.284332,94.284332 0 0 1 -94.30407,-94.24483 94.284332,94.284332 0 0 1 94.22508,-94.32381 94.284332,94.284332 0 0 1 94.34354,94.20532" /><path
           style="fill:#ff0000;stroke:#4d4d4d;stroke-width:0.181798"
           id="path230"
           d="m 290.80717,490 a 25.807169,25.807169 0 0 1 -25.80176,25.80717 25.807169,25.807169 0 0 1 -25.81258,-25.79636 25.807169,25.807169 0 0 1 25.79095,-25.81797 25.807169,25.807169 0 0 1 25.82338,25.78554" /><path
           style="fill:#000000;stroke:#4d4d4d;stroke-width:0.090899"
           id="path231"
           d="m 277.90359,490 a 12.903586,12.903586 0 0 1 -12.90089,12.90359 12.903586,12.903586 0 0 1 -12.90629,-12.89818 12.903586,12.903586 0 0 1 12.89548,-12.90899 12.903586,12.903586 0 0 1 12.91169,12.89277" /><g
           id="g239"
           transform="rotate(-22.935032,264.99937,490.00026)"><path
             id="path232"
             style="fill:#ffdd55;fill-opacity:1;stroke:none;stroke-width:1.96672;stroke-dasharray:none"
             d="m 257.09483,522.01902 c -6.04454,6.5783 -13.30949,22.20556 -13.30949,38.97832 h 7.9e-4 l -7.9e-4,0.009 c 0.005,11.71472 9.50428,21.20806 21.219,21.2056 11.71479,-0.002 21.21031,-8.67777 21.21031,-21.2145 -0.0104,-15.17056 -7.97447,-32.34476 -13.87718,-38.97831 -5.90269,-6.63356 -9.19812,-6.57831 -15.24264,0 z" /><path
             id="path233"
             style="fill:#0f70ff;fill-opacity:1;stroke:none;stroke-width:1.96672;stroke-dasharray:none"
             d="m 257.09483,457.98098 c -6.04454,-6.5783 -13.30949,-22.20556 -13.30949,-38.97832 h 7.9e-4 l -7.9e-4,-0.009 c 0.005,-11.71472 9.50428,-21.20806 21.219,-21.2056 11.71479,0.002 21.21031,8.67777 21.21031,21.2145 -0.0104,15.17056 -7.97447,32.34476 -13.87718,38.97831 -5.90269,6.63356 -9.19812,6.57831 -15.24264,0 z" /><path
             id="path234"
             style="fill:#ffdd55;fill-opacity:1;stroke:none;stroke-width:1.96672;stroke-dasharray:none"
             d="m 282.04137,462.53106 c 0.17264,-8.93201 5.71292,-25.25059 17.29796,-37.37958 l 5.7e-4,5.5e-4 0.006,-0.007 c 8.09504,-8.46788 21.52141,-8.77166 29.99105,-0.67846 8.47001,8.09291 9.34417,20.92528 0.68498,29.99105 -10.4859,10.9632 -28.10732,17.88166 -36.95762,18.60159 -8.85028,0.71995 -11.19516,-1.59618 -11.0225,-10.52817 z" /><path
             id="path235"
             style="fill:#0f70ff;fill-opacity:1;stroke:none;stroke-width:1.96672;stroke-dasharray:none"
             d="m 247.10581,462.53106 c -0.17264,-8.93201 -5.71292,-25.25059 -17.29796,-37.37958 l -5.7e-4,5.5e-4 -0.006,-0.007 c -8.09504,-8.46788 -21.52141,-8.77166 -29.99105,-0.67846 -8.47001,8.09291 -9.34417,20.92528 -0.68498,29.99105 10.4859,10.9632 28.10732,17.88166 36.95762,18.60159 8.85028,0.71995 11.19516,-1.59618 11.0225,-10.52817 z" /><path
             id="path236"
             style="fill:#0f70ff;fill-opacity:1;stroke:none;stroke-width:1.96672;stroke-dasharray:none"
             d="m 247.10581,517.41838 c -0.17264,8.93201 -5.71292,25.25059 -17.29796,37.37958 l -5.7e-4,-5.5e-4 -0.006,0.007 c -8.09504,8.46788 -21.52141,8.77166 -29.99105,0.67846 -8.47001,-8.09291 -9.34417,-20.92528 -0.68498,-29.99105 10.4859,-10.9632 28.10732,-17.88166 36.95762,-18.60159 8.85028,-0.71995 11.19516,1.59618 11.0225,10.52817 z" /><path
             id="path237"
             style="fill:#ffdd55;fill-opacity:1;stroke:none;stroke-width:1.96672;stroke-dasharray:none"
             d="m 282.04137,517.41838 c 0.17264,8.93201 5.71292,25.25059 17.29796,37.37958 l 5.7e-4,-5.5e-4 0.006,0.007 c 8.09504,8.46788 21.52141,8.77166 29.99105,0.67846 8.47001,-8.09291 9.34417,-20.92528 0.68498,-29.99105 -10.4859,-10.9632 -28.10732,-17.88166 -36.95762,-18.60159 -8.85028,-0.71995 -11.19516,1.59618 -11.0225,10.52817 z" /><path
             id="path238"
             style="fill:#ffdd55;fill-opacity:1;stroke:none;stroke-width:1.96672;stroke-dasharray:none"
             d="m 297.27583,482.09483 c 6.5783,-6.04454 22.20556,-13.30949 38.97832,-13.30949 v 7.9e-4 l 0.009,-7.9e-4 c 11.71472,0.005 21.20806,9.50428 21.2056,21.219 -0.002,11.71479 -8.67777,21.21031 -21.2145,21.21031 -15.17056,-0.0104 -32.34476,-7.97447 -38.97831,-13.87718 -6.63356,-5.90269 -6.57831,-9.19812 0,-15.24264 z" /><path
             id="path239"
             style="fill:#0f70ff;fill-opacity:1;stroke:none;stroke-width:1.96672;stroke-dasharray:none"
             d="m 232.72417,482.09483 c -6.5783,-6.04454 -22.20556,-13.30949 -38.97832,-13.30949 v 7.9e-4 l -0.009,-7.9e-4 c -11.71472,0.005 -21.20806,9.50428 -21.2056,21.219 0.002,11.71479 8.67777,21.21031 21.2145,21.21031 15.17056,-0.0104 32.34476,-7.97447 38.97831,-13.87718 6.63356,-5.90269 6.57831,-9.19812 0,-15.24264 z" /></g></g></g><g
       id="g254"
       transform="matrix(0.7110885,0,0,0.7110885,-37.147225,141.56664)"><g
         id="g253"
         style="display:inline"><path
           style="fill:none;stroke:#000000;stroke-width:4;stroke-dasharray:none;stroke-opacity:1"
           id="path241"
           d="M 373.59632,490 A 108.59632,108.59632 0 0 1 265.02275,598.59632 108.59632,108.59632 0 0 1 156.40369,490.04549 108.59632,108.59632 0 0 1 264.93176,381.4037 108.59632,108.59632 0 0 1 373.59628,489.90902" /><path
           style="fill:#000000;stroke:#000000;stroke-width:0.66418;stroke-opacity:1"
           id="path242"
           d="m 359.28433,490 a 94.284332,94.284332 0 0 1 -94.26458,94.28433 94.284332,94.284332 0 0 1 -94.30407,-94.24483 94.284332,94.284332 0 0 1 94.22508,-94.32381 94.284332,94.284332 0 0 1 94.34354,94.20532" /><path
           style="fill:#ff0000;stroke:#4d4d4d;stroke-width:0.181798"
           id="path243"
           d="m 290.80717,490 a 25.807169,25.807169 0 0 1 -25.80176,25.80717 25.807169,25.807169 0 0 1 -25.81258,-25.79636 25.807169,25.807169 0 0 1 25.79095,-25.81797 25.807169,25.807169 0 0 1 25.82338,25.78554" /><path
           style="fill:#000000;stroke:#4d4d4d;stroke-width:0.090899"
           id="path244"
           d="m 277.90359,490 a 12.903586,12.903586 0 0 1 -12.90089,12.90359 12.903586,12.903586 0 0 1 -12.90629,-12.89818 12.903586,12.903586 0 0 1 12.89548,-12.90899 12.903586,12.903586 0 0 1 12.91169,12.89277" /><g
           id="g252"
           transform="rotate(-22.935032,264.99937,490.00026)"><path
             id="path245"
             style="fill:#ffdd55;fill-opacity:1;stroke:none;stroke-width:1.96672;stroke-dasharray:none"
             d="m 257.09483,522.01902 c -6.04454,6.5783 -13.30949,22.20556 -13.30949,38.97832 h 7.9e-4 l -7.9e-4,0.009 c 0.005,11.71472 9.50428,21.20806 21.219,21.2056 11.71479,-0.002 21.21031,-8.67777 21.21031,-21.2145 -0.0104,-15.17056 -7.97447,-32.34476 -13.87718,-38.97831 -5.90269,-6.63356 -9.19812,-6.57831 -15.24264,0 z" /><path
             id="path246"
             style="fill:#0f70ff;fill-opacity:1;stroke:none;stroke-width:1.96672;stroke-dasharray:none"
             d="m 257.09483,457.98098 c -6.04454,-6.5783 -13.30949,-22.20556 -13.30949,-38.97832 h 7.9e-4 l -7.9e-4,-0.009 c 0.005,-11.71472 9.50428,-21.20806 21.219,-21.2056 11.71479,0.002 21.21031,8.67777 21.21031,21.2145 -0.0104,15.17056 -7.97447,32.34476 -13.87718,38.97831 -5.90269,6.63356 -9.19812,6.57831 -15.24264,0 z" /><path
             id="path247"
             style="fill:#ffdd55;fill-opacity:1;stroke:none;stroke-width:1.96672;stroke-dasharray:none"
             d="m 282.04137,462.53106 c 0.17264,-8.93201 5.71292,-25.25059 17.29796,-37.37958 l 5.7e-4,5.5e-4 0.006,-0.007 c 8.09504,-8.46788 21.52141,-8.77166 29.99105,-0.67846 8.47001,8.09291 9.34417,20.92528 0.68498,29.99105 -10.4859,10.9632 -28.10732,17.88166 -36.95762,18.60159 -8.85028,0.71995 -11.19516,-1.59618 -11.0225,-10.52817 z" /><path
             id="path248"
             style="fill:#0f70ff;fill-opacity:1;stroke:none;stroke-width:1.96672;stroke-dasharray:none"
             d="m 247.10581,462.53106 c -0.17264,-8.93201 -5.71292,-25.25059 -17.29796,-37.37958 l -5.7e-4,5.5e-4 -0.006,-0.007 c -8.09504,-8.46788 -21.52141,-8.77166 -29.99105,-0.67846 -8.47001,8.09291 -9.34417,20.92528 -0.68498,29.99105 10.4859,10.9632 28.10732,17.88166 36.95762,18.60159 8.85028,0.71995 11.19516,-1.59618 11.0225,-10.52817 z" /><path
             id="path249"
             style="fill:#0f70ff;fill-opacity:1;stroke:none;stroke-width:1.96672;stroke-dasharray:none"
             d="m 247.10581,517.41838 c -0.17264,8.93201 -5.71292,25.25059 -17.29796,37.37958 l -5.7e-4,-5.5e-4 -0.006,0.007 c -8.09504,8.46788 -21.52141,8.77166 -29.99105,0.67846 -8.47001,-8.09291 -9.34417,-20.92528 -0.68498,-29.99105 10.4859,-10.9632 28.10732,-17.88166 36.95762,-18.60159 8.85028,-0.71995 11.19516,1.59618 11.0225,10.52817 z" /><path
             id="path250"
             style="fill:#ffdd55;fill-opacity:1;stroke:none;stroke-width:1.96672;stroke-dasharray:none"
             d="m 282.04137,517.41838 c 0.17264,8.93201 5.71292,25.25059 17.29796,37.37958 l 5.7e-4,-5.5e-4 0.006,0.007 c 8.09504,8.46788 21.52141,8.77166 29.99105,0.67846 8.47001,-8.09291 9.34417,-20.92528 0.68498,-29.99105 -10.4859,-10.9632 -28.10732,-17.88166 -36.95762,-18.60159 -8.85028,-0.71995 -11.19516,1.59618 -11.0225,10.52817 z" /><path
             id="path251"
             style="fill:#ffdd55;fill-opacity:1;stroke:none;stroke-width:1.96672;stroke-dasharray:none"
             d="m 297.27583,482.09483 c 6.5783,-6.04454 22.20556,-13.30949 38.97832,-13.30949 v 7.9e-4 l 0.009,-7.9e-4 c 11.71472,0.005 21.20806,9.50428 21.2056,21.219 -0.002,11.71479 -8.67777,21.21031 -21.2145,21.21031 -15.17056,-0.0104 -32.34476,-7.97447 -38.97831,-13.87718 -6.63356,-5.90269 -6.57831,-9.19812 0,-15.24264 z" /><path
             id="path252"
             style="fill:#0f70ff;fill-opacity:1;stroke:none;stroke-width:1.96672;stroke-dasharray:none"
             d="m 232.72417,482.09483 c -6.5783,-6.04454 -22.20556,-13.30949 -38.97832,-13.30949 v 7.9e-4 l -0.009,-7.9e-4 c -11.71472,0.005 -21.20806,9.50428 -21.2056,21.219 0.002,11.71479 8.67777,21.21031 21.2145,21.21031 15.17056,-0.0104 32.34476,-7.97447 38.97831,-13.87718 6.63356,-5.90269 6.57831,-9.19812 0,-15.24264 z" /></g></g></g></g></svg>
