<?xml version="1.0" encoding="UTF-8" standalone="no"?>
<!-- Created with Inkscape (http://www.inkscape.org/) -->

<svg
   width="530mm"
   height="980mm"
   viewBox="0 0 530 980"
   version="1.1"
   id="svg1"
   xml:space="preserve"
   sodipodi:docname="1_c.svg"
   inkscape:version="1.4 (86a8ad7, 2024-10-11)"
   xmlns:inkscape="http://www.inkscape.org/namespaces/inkscape"
   xmlns:sodipodi="http://sodipodi.sourceforge.net/DTD/sodipodi-0.dtd"
   xmlns="http://www.w3.org/2000/svg"
   xmlns:svg="http://www.w3.org/2000/svg"><sodipodi:namedview
     id="namedview1"
     pagecolor="#ffffff"
     bordercolor="#000000"
     borderopacity="0.25"
     inkscape:showpageshadow="2"
     inkscape:pageopacity="0.0"
     inkscape:pagecheckerboard="0"
     inkscape:deskcolor="#d1d1d1"
     inkscape:document-units="mm"
     inkscape:zoom="0.22003614"
     inkscape:cx="999.83576"
     inkscape:cy="1851.9685"
     inkscape:window-width="1920"
     inkscape:window-height="1017"
     inkscape:window-x="-8"
     inkscape:window-y="32"
     inkscape:window-maximized="1"
     inkscape:current-layer="g1304" /><defs
     id="defs1"><rect
       x="276.59204"
       y="280.4877"
       width="272.69638"
       height="292.17471"
       id="rect221" /><linearGradient
       id="swatch181"><stop
         style="stop-color:#0f70ff;stop-opacity:1;"
         offset="0"
         id="stop181" /></linearGradient><rect
       x="276.59204"
       y="280.4877"
       width="272.69638"
       height="292.17471"
       id="rect222" /><rect
       x="276.59204"
       y="280.4877"
       width="272.69638"
       height="292.17471"
       id="rect85" /><rect
       x="276.59204"
       y="280.4877"
       width="272.69638"
       height="292.17471"
       id="rect86" /><rect
       x="276.59204"
       y="280.4877"
       width="272.69638"
       height="292.17471"
       id="rect144" /><rect
       x="276.59204"
       y="280.4877"
       width="272.69638"
       height="292.17471"
       id="rect145" /><rect
       x="276.59204"
       y="280.4877"
       width="272.69638"
       height="292.17471"
       id="rect227" /><rect
       x="276.59204"
       y="280.4877"
       width="272.69638"
       height="292.17471"
       id="rect228" /><rect
       x="276.59204"
       y="280.4877"
       width="272.69638"
       height="292.17471"
       id="rect336" /><rect
       x="276.59204"
       y="280.4877"
       width="272.69638"
       height="292.17471"
       id="rect337" /><rect
       x="276.59204"
       y="280.4877"
       width="272.69638"
       height="292.17471"
       id="rect392" /><rect
       x="276.59204"
       y="280.4877"
       width="272.69638"
       height="292.17471"
       id="rect393" /><rect
       x="276.59204"
       y="280.4877"
       width="272.69638"
       height="292.17471"
       id="rect422" /><rect
       x="276.59204"
       y="280.4877"
       width="272.69638"
       height="292.17471"
       id="rect423" /><rect
       x="276.59204"
       y="280.4877"
       width="272.69638"
       height="292.17471"
       id="rect1304" /><rect
       x="276.59204"
       y="280.4877"
       width="272.69638"
       height="292.17471"
       id="rect1305" /><rect
       x="276.59204"
       y="280.4877"
       width="272.69638"
       height="292.17471"
       id="rect1174" /><rect
       x="276.59204"
       y="280.4877"
       width="272.69638"
       height="292.17471"
       id="rect1175" /><rect
       x="276.59204"
       y="280.4877"
       width="272.69638"
       height="292.17471"
       id="rect834" /><rect
       x="276.59204"
       y="280.4877"
       width="272.69638"
       height="292.17471"
       id="rect835" /><rect
       x="276.59204"
       y="280.4877"
       width="272.69638"
       height="292.17471"
       id="rect620" /><rect
       x="276.59204"
       y="280.4877"
       width="272.69638"
       height="292.17471"
       id="rect621" /><rect
       x="276.59204"
       y="280.4877"
       width="272.69638"
       height="292.17471"
       id="rect365" /><rect
       x="276.59204"
       y="280.4877"
       width="272.69638"
       height="292.17471"
       id="rect364" /><rect
       x="276.59204"
       y="280.4877"
       width="272.69638"
       height="292.17471"
       id="rect221-7" /><rect
       x="276.59204"
       y="280.4877"
       width="272.69638"
       height="292.17471"
       id="rect222-6" /><rect
       x="276.59204"
       y="280.4877"
       width="272.69638"
       height="292.17471"
       id="rect190" /><rect
       x="276.59204"
       y="280.4877"
       width="272.69638"
       height="292.17471"
       id="rect189" /><rect
       x="276.59204"
       y="280.4877"
       width="272.69638"
       height="292.17471"
       id="rect234" /><rect
       x="276.59204"
       y="280.4877"
       width="272.69638"
       height="292.17471"
       id="rect235" /></defs><g
     id="g220"><g
       id="layer1"
       style="display:inline;fill:#ffffff"><path
         id="rect4"
         style="display:inline;fill:#ffffff;fill-opacity:1;stroke:none;stroke-width:2.365;stroke-linejoin:bevel;stroke-opacity:1"
         d="M 53.211222,0 A 53.211304,53.211304 0 0 0 0,53.211222 V 926.78891 a 53.211304,53.211304 0 0 0 53.211222,53.21122 H 476.78847 a 53.211304,53.211304 0 0 0 53.21174,-53.21122 V 53.211222 A 53.211304,53.211304 0 0 0 476.78847,0 Z" /><path
         id="path7"
         style="display:inline;fill:none;fill-opacity:1;stroke:#000000;stroke-width:4;stroke-linejoin:bevel;stroke-dasharray:none;stroke-opacity:1"
         d="M 84.38306,39.04751 A 45.33562,49.009618 0 0 0 39.04751,88.057052 V 892.65504 a 45.33562,49.009618 0 0 0 45.33555,49.00955 H 445.26759 A 45.33562,49.009618 0 0 0 490.6036,892.65504 V 88.057052 A 45.33562,49.009618 0 0 0 445.26759,39.04751 Z" /></g></g><g
     id="g1304"
     transform="translate(-0.07639736,0.07586746)"
     style="display:inline"><g
       id="g1301"
       style="display:inline;fill:#dc1436;fill-opacity:1"
       transform="matrix(-1.7043917,0,0,1.5079977,716.74018,87.539965)"><path
         style="display:inline;fill:#c8ab37;fill-opacity:1;stroke:none;stroke-width:0.264583px;stroke-linecap:butt;stroke-linejoin:miter;stroke-opacity:1"
         d="m 165.92759,412.75464 v -54.82329 l 49.5362,37.22774 h 99.0724 l 49.53621,-37.22774 v 54.82329 l -49.53621,37.22774 h -99.0724 z"
         id="path1260" /><rect
         style="opacity:1;fill:#1a1a1a;fill-opacity:1;stroke:#000000;stroke-width:3;stroke-dasharray:none;stroke-opacity:1"
         id="rect1260"
         width="46.197643"
         height="13.510632"
         x="241.44804"
         y="348.66147" /><path
         style="display:inline;opacity:1;fill:#1a1a1a;fill-opacity:1;stroke:none;stroke-width:0.264583px;stroke-linecap:butt;stroke-linejoin:miter;stroke-opacity:1"
         d="m 165.92759,357.93135 49.5362,37.22774 h 99.0724 l 49.53621,-37.22774 z"
         id="path1261" /><path
         style="display:inline;opacity:1;fill:#1a1a1a;fill-opacity:1;stroke:none;stroke-width:0.264583px;stroke-linecap:butt;stroke-linejoin:miter;stroke-opacity:1"
         d="m 165.92759,358.28226 49.5362,-37.22774 h 99.0724 l 49.53621,37.22774 z"
         id="path1318" /><path
         id="path1262"
         style="display:inline;opacity:1;fill:#1f70ab;fill-opacity:1;stroke:none;stroke-width:0.264583px;stroke-linecap:butt;stroke-linejoin:miter;stroke-opacity:1"
         d="m 264.85427,375.01393 -15.10089,-22.18831 c 0,0 -12.22447,16.58151 -35.17563,20.99303 -13.58984,2.61215 -30.01271,-0.71338 -32.53238,-13.24519 -0.99483,-4.94788 0.83406,-12.06231 0.83406,-12.06231 0,0 -7.63916,-3.27328 -10.64328,-12.08763 -1.99303,-5.84775 3.2857,-18.6427 15.90394,-15.73858 12.35679,2.84394 8.60723,15.19081 8.60723,15.19081 0,0 16.58681,1.39667 23.42131,-2.46549 4.66105,-2.63394 7.62457,-7.87269 9.68106,-12.81575 3.24926,-7.81005 7.23064,-19.47442 8.59224,-19.45721 4.67328,0.0591 25.37794,-0.0138 26.26661,5.2e-4 v -5.2e-4 c 0.002,-1.1e-4 0.14172,1e-4 0.14573,0 0.004,1e-4 0.14336,-1.1e-4 0.14573,0 v 5.2e-4 c 0.88867,-0.0143 21.59333,0.0585 26.26661,-5.2e-4 1.3616,-0.0172 5.34298,11.64716 8.59224,19.45721 2.05649,4.94306 5.02001,10.18181 9.68106,12.81575 6.8345,3.86216 23.42131,2.46549 23.42131,2.46549 0,0 -3.74956,-12.34687 8.60723,-15.19081 12.61824,-2.90412 17.89697,9.89083 15.90394,15.73858 -3.00412,8.81435 -10.64328,12.08763 -10.64328,12.08763 0,0 1.82889,7.11443 0.83406,12.06231 -2.51967,12.53181 -18.94254,15.85734 -32.53238,13.24519 -22.95116,-4.41152 -35.17563,-20.99303 -35.17563,-20.99303 z" /><path
         style="display:inline;opacity:1;fill:#1a1a1a;fill-opacity:1;stroke:none;stroke-width:0.677108px;stroke-linecap:butt;stroke-linejoin:miter;stroke-opacity:1"
         d="M 337.4171,205.26608 H 192.58288 l 50.3411,103.90768 h 44.15204 z"
         id="path1263" /><path
         id="path1264"
         style="display:inline;opacity:1;fill:#1f70ab;fill-opacity:1;stroke:none;stroke-width:0.264583px;stroke-linecap:butt;stroke-linejoin:miter;stroke-opacity:1"
         d="m 265,235.29713 -15.10089,22.18831 c 0,0 -12.22447,-16.58151 -35.17563,-20.99303 -13.58984,-2.61215 -30.01271,0.71338 -32.53238,13.24519 -0.99483,4.94788 0.83406,12.06231 0.83406,12.06231 0,0 -7.63916,3.27328 -10.64328,12.08763 -1.99303,5.84775 3.2857,18.6427 15.90394,15.73858 12.35679,-2.84394 8.60723,-15.19081 8.60723,-15.19081 0,0 16.58681,-1.39667 23.42131,2.46549 4.66105,2.63394 7.62457,7.87269 9.68106,12.81575 3.24926,7.81005 7.23064,19.47442 8.59224,19.45721 4.67328,-0.0591 25.37794,0.0138 26.26661,-5.2e-4 v 5.2e-4 c 0.002,1.1e-4 0.14172,-1e-4 0.14573,0 0.004,-1e-4 0.14336,1.1e-4 0.14573,0 v -5.2e-4 c 0.88867,0.0143 21.59333,-0.0585 26.26661,5.2e-4 1.3616,0.0172 5.34298,-11.64716 8.59224,-19.45721 2.05649,-4.94306 5.02001,-10.18181 9.68106,-12.81575 6.8345,-3.86216 23.42131,-2.46549 23.42131,-2.46549 0,0 -3.74956,12.34687 8.60723,15.19081 12.61824,2.90412 17.89697,-9.89083 15.90394,-15.73858 -3.00412,-8.81435 -10.64328,-12.08763 -10.64328,-12.08763 0,0 1.82889,-7.11443 0.83406,-12.06231 -2.51967,-12.53181 -18.94254,-15.85734 -32.53238,-13.24519 -22.95116,4.41152 -35.17563,20.99303 -35.17563,20.99303 z" /><path
         style="display:inline;opacity:1;fill:#dc1436;fill-opacity:1;stroke:none;stroke-width:3.92327"
         id="path1265"
         d="m 322.69997,306.7753 a 57.699974,15.903986 0 0 1 -57.68788,15.90398 57.699974,15.903986 0 0 1 -57.71206,-15.89732 57.699974,15.903986 0 0 1 57.66371,-15.91064 57.699974,15.903986 0 0 1 57.73621,15.89065" /><path
         style="display:inline;opacity:1;fill:#c8ab37;fill-opacity:1;stroke:none;stroke-width:0.264583px;stroke-linecap:butt;stroke-linejoin:miter;stroke-opacity:1"
         d="m 165.92759,197.06367 v -54.82326 l 49.5362,37.22771 h 99.0724 l 49.53621,-37.22771 v 54.82326 l -49.53621,37.22772 h -99.0724 z"
         id="path1270" /><path
         style="display:inline;opacity:1;fill:#c8ab37;fill-opacity:1;stroke:none;stroke-width:0.264583px;stroke-linecap:butt;stroke-linejoin:miter;stroke-opacity:1"
         d="m 165.92759,179.32905 v -54.82326 l 49.5362,37.22771 h 99.0724 l 49.53621,-37.22771 v 54.82326 l -49.53621,37.22772 h -99.0724 z"
         id="path1305" /><path
         style="display:inline;opacity:1;fill:#c8ab37;fill-opacity:1;stroke:none;stroke-width:4"
         id="path1271"
         d="m 272.11856,247.37457 -40.71699,70.52391 h -81.43399 l -40.717,-70.52391 40.717,-70.5239 81.43399,0 z"
         transform="matrix(1.2165977,0,0,0.52787417,33.01358,-5.725988)" /><path
         style="display:inline;opacity:1;fill:#1a1a1a;fill-opacity:1;stroke:none;stroke-width:4"
         id="path1300"
         d="m 272.11856,247.37457 -40.71699,70.52391 h -81.43399 l -40.717,-70.52391 40.717,-70.5239 81.43399,0 z"
         transform="matrix(0.99902467,0,0,0.40445333,74.5014,24.454282)" /><path
         style="fill:#1a1a1a;fill-opacity:1;stroke:none;stroke-width:0.0892984px;stroke-linecap:butt;stroke-linejoin:miter;stroke-opacity:1"
         d="m 202.54497,167.29644 v 44.49604 L 175.7417,191.64913 v -44.49602 z"
         id="path1306" /><path
         style="display:inline;fill:#1a1a1a;fill-opacity:1;stroke:none;stroke-width:0.114174px;stroke-linecap:butt;stroke-linejoin:miter;stroke-opacity:1"
         d="m 225.32857,172.98745 h 79.34286 v 49.14564 h -79.34286 z"
         id="path1308" /><path
         style="fill:#1a1a1a;fill-opacity:1;stroke:none;stroke-width:0.103718px;stroke-linecap:butt;stroke-linejoin:miter;stroke-opacity:1"
         d="m 324.72593,398.41009 31.13154,-23.39616 v 34.45426 l -31.13154,23.39616 z"
         id="path1311" /><path
         style="display:inline;fill:#1a1a1a;fill-opacity:1;stroke:none;stroke-width:0.0902623px;stroke-linecap:butt;stroke-linejoin:miter;stroke-opacity:1"
         d="m 229.85415,405.23516 h 70.29168 v 34.67115 h -70.29168 z"
         id="path1310" /><path
         style="fill:#1a1a1a;fill-opacity:1;stroke:none;stroke-width:0.102578px;stroke-linecap:butt;stroke-linejoin:miter;stroke-opacity:1"
         d="M 204.98894,398.15285 174.1997,375.01393 v 34.07544 l 30.78924,23.13892 z"
         id="path1312" /><path
         style="fill:#1a1a1a;fill-opacity:1;stroke:none;stroke-width:0.0892984px;stroke-linecap:butt;stroke-linejoin:miter;stroke-opacity:1"
         d="m 327.25106,167.64735 v 44.49604 l 26.80327,-20.14335 v -44.49602 z"
         id="path1314" /><path
         style="display:inline;opacity:1;fill:#dc1436;fill-opacity:1;stroke:none;stroke-width:4"
         id="path1315"
         d="m 272.11856,247.37457 -40.71699,70.52391 h -81.43399 l -40.717,-70.52391 40.717,-70.5239 81.43399,0 z"
         transform="matrix(0.81532956,0,0,0.29338284,109.52923,51.930297)" /></g><text
       xml:space="preserve"
       transform="matrix(-0.26458333,0,0,-0.26458333,350.75954,1002.2008)"
       id="text1302"
       style="font-size:192px;line-height:1.25;font-family:sans-serif;white-space:pre;shape-inside:url(#rect1304);display:inline;fill:#ffffff"><tspan
         x="276.5918"
         y="455.18432"
         id="tspan2"><tspan
           style="font-family:Centaur;-inkscape-font-specification:Centaur;fill:#000000"
           id="tspan1">1</tspan></tspan></text><text
       xml:space="preserve"
       transform="matrix(0.26458333,0,0,0.26458333,179.39326,-21.566009)"
       id="text1304"
       style="font-size:192px;line-height:1.25;font-family:sans-serif;white-space:pre;shape-inside:url(#rect1305);display:inline;fill:#ffffff"><tspan
         x="276.5918"
         y="455.18432"
         id="tspan4"><tspan
           style="font-family:Centaur;-inkscape-font-specification:Centaur;fill:#000000"
           id="tspan3">1</tspan></tspan></text><path
       style="-inkscape-font-specification:'Noto Serif';stroke-width:5.524;stroke-linejoin:bevel;stroke-opacity:0.867537"
       d="m 72.407659,256.82736 q -2.242805,1.94488 -4.686998,2.23865 -2.444194,0.29376 -4.848014,-0.87633 -2.400811,-1.2124 -4.581433,-3.72706 -2.121685,-2.44669 -2.917029,-5.0116 -0.792335,-2.6072 -0.08754,-5.04413 0.707804,-2.47922 3.086537,-4.54197 2.310769,-2.00381 4.072146,-2.26113 1.761378,-0.25731 2.704349,0.83011 0.628648,0.72494 0.435543,1.64651 -0.193106,0.92157 -1.031326,1.64845 -0.609002,-0.7023 -1.427915,-1.14318 -0.838558,-0.46354 -1.800837,-0.3832 -0.959269,0.038 -1.956072,0.90242 -2.559969,2.21992 -2.03648,5.02057 0.526498,2.75834 3.473284,6.15653 1.748426,2.01626 3.579694,3.16688 1.834277,1.10832 3.622908,1.06551 1.78863,-0.0428 3.442416,-1.47691 1.653785,-1.4341 2.091493,-2.80592 0.440717,-1.41412 0.339144,-2.67551 0.279463,-0.0439 0.589188,0.0844 0.312735,0.086 0.607413,0.42584 0.491131,0.56637 0.480852,1.60723 -0.01028,1.04086 -0.744086,2.39161 -0.730797,1.30846 -2.407238,2.7622 z m 6.3941,-5.96028 -0.755313,-1.00778 0.311934,-0.23379 q 0.815827,-0.61144 1.1759,-1.33099 0.342091,-0.74354 -0.50314,-1.8713 l -8.811982,-11.7575 q -0.79128,-1.05577 -1.606956,-0.89412 -0.791681,0.14367 -1.583512,0.73713 l -0.311934,0.23378 -0.755313,-1.00778 6.982515,-5.23324 0.755313,1.00779 -0.311934,0.23378 q -0.815826,0.61145 -1.157917,1.35499 -0.360074,0.71954 0.485157,1.8473 l 3.632695,4.84697 7.798341,-5.84468 -3.632695,-4.84697 q -0.845231,-1.12776 -1.636912,-0.98409 -0.809664,0.11967 -1.625491,0.73112 l -0.311933,0.23378 -0.755313,-1.00778 6.982514,-5.23324 0.755313,1.00779 -0.311934,0.23378 q -0.815826,0.61145 -1.157916,1.35499 -0.360074,0.71954 0.485157,1.8473 l 8.829965,11.7815 q 0.79128,1.05577 1.582961,0.9121 0.797692,-0.18564 1.589524,-0.7791 l 0.311933,-0.23379 0.755313,1.00779 -6.982514,5.23323 -0.755313,-1.00778 0.311934,-0.23379 q 0.815826,-0.61144 1.1759,-1.33099 0.34209,-0.74354 -0.503141,-1.8713 l -4.208171,-5.61481 -7.79834,5.84469 4.20817,5.6148 q 0.845231,1.12776 1.654896,1.00809 0.791681,-0.14367 1.607507,-0.75511 l 0.311934,-0.23379 0.755313,1.00778 z m 19.178693,-14.05608 -0.694882,-1.05037 0.325114,-0.21508 q 0.850296,-0.56253 1.251968,-1.25971 0.385127,-0.72218 -0.392478,-1.89759 l -8.040769,-12.15424 q -0.777605,-1.17541 -1.576352,-1.07844 -0.815292,0.072 -1.665588,0.63448 l -0.325113,0.21509 -0.694882,-1.05037 7.277538,-4.81453 0.694881,1.05036 -0.325114,0.21508 q -0.850296,0.56253 -1.235423,1.28472 -0.401672,0.69717 0.375934,1.87258 l 8.040764,12.15424 q 0.77761,1.17541 1.5929,1.10345 0.79875,-0.097 1.64904,-0.65949 l 0.32512,-0.21509 0.69488,1.05037 z m 15.782218,-10.23326 -0.60485,-1.10467 0.34192,-0.18721 q 0.89426,-0.48964 1.35268,-1.15089 0.44402,-0.68755 -0.23284,-1.92372 L 107.563,209.32349 q -0.63365,-1.15727 -1.464,-1.11286 -0.80406,0.03 -1.67201,0.50525 l -0.34192,0.18721 -0.60485,-1.10466 4.81319,-2.63542 17.37981,9.38913 -6.37973,-11.65158 q -0.63365,-1.15727 -1.464,-1.11286 -0.80405,0.03 -1.672,0.50525 l -0.34192,0.18721 -0.60485,-1.10466 6.60169,-3.6147 0.60485,1.10466 -0.34192,0.18722 q -0.89426,0.48964 -1.33828,1.17719 -0.45842,0.66125 0.21843,1.89742 l 8.64072,15.78093 -1.86741,1.02249 -18.15817,-9.74925 6.65335,12.15132 q 0.67686,1.23617 1.49531,1.23246 0.80405,-0.03 1.6983,-0.51965 l 0.34192,-0.18721 0.60485,1.10466 z m 29.3437,-14.74676 q -2.89604,1.30996 -5.37699,0.91825 -2.48095,-0.39171 -4.46291,-2.22683 -1.95463,-1.84749 -3.32638,-4.88013 -1.37174,-3.03265 -1.45618,-5.69316 -0.0571,-2.67286 1.29924,-4.76738 1.37133,-2.13419 4.26738,-3.44414 2.75943,-1.24817 5.21306,-0.8441 2.46859,0.36439 4.47787,2.18715 2.02424,1.78309 3.39599,4.81574 1.37174,3.03264 1.38658,5.75754 0.0298,2.68523 -1.31421,4.80706 -1.34401,2.12184 -4.10345,3.37 z m -0.66733,-1.47534 q 3.05997,-1.3841 3.2637,-4.20787 0.23105,-2.83612 -1.59794,-6.87965 -1.84135,-4.07085 -4.11148,-5.74271 -2.24281,-1.68423 -5.27546,-0.31248 -3.05997,1.3841 -3.3307,4.20526 -0.24341,2.80881 1.59794,6.87966 1.82899,4.04352 4.11148,5.74271 2.30981,1.68683 5.34246,0.31508 z m 11.75667,-3.78727 -0.43021,-1.18366 0.36637,-0.13316 q 0.95819,-0.34827 1.51165,-0.9323 0.54321,-0.61221 0.0618,-1.93677 l -5.01919,-13.80933 q -0.4507,-1.24002 -1.27818,-1.32213 -0.7993,-0.0924 -1.72931,0.24568 l -0.36637,0.13316 -0.43022,-1.18365 5.15736,-1.87452 15.75378,11.91773 -4.53776,-12.48476 q -0.4507,-1.24002 -1.27818,-1.32213 -0.79929,-0.0924 -1.72931,0.24568 l -0.36637,0.13316 -0.43021,-1.18365 7.07375,-2.57106 0.43022,1.18366 -0.36637,0.13316 q -0.9582,0.34827 -1.50141,0.96048 -0.55346,0.58402 -0.072,1.90859 l 6.14595,16.90938 -2.00095,0.72727 -16.46847,-12.39178 4.73238,13.02022 q 0.48143,1.32457 1.29097,1.4451 0.7993,0.0923 1.75749,-0.25592 l 0.36637,-0.13316 0.43022,1.18365 z m 29.02237,-9.93764 -0.3123,-1.22009 0.37764,-0.0967 q 0.98768,-0.25282 1.59564,-0.77987 0.60053,-0.5561 0.25105,-1.92143 l -3.64353,-14.23427 q -0.32717,-1.27818 -1.14264,-1.44088 -0.78641,-0.17014 -1.74505,0.0752 l -0.37764,0.0967 -0.31231,-1.22008 7.78528,-1.99279 q 3.77644,-0.96665 5.93373,-0.15692 2.17891,0.77324 2.863,3.4458 0.4982,1.94632 -0.27246,3.28884 -0.74905,1.30603 -2.16227,2.19397 l 0.0298,0.1162 q 2.0646,-0.15704 3.64834,0.83045 1.5763,0.95844 2.17116,3.28241 1.4351,5.60656 -6.03063,7.51755 z m 4.73126,-13.56125 q 2.55636,-0.65434 3.248,-1.82187 0.72069,-1.17497 0.18531,-3.26654 -0.55024,-2.14966 -1.76774,-2.67375 -1.22494,-0.55313 -3.69415,0.0789 l -1.94632,0.49819 1.97048,7.69813 z m 3.40846,9.93009 q 2.46922,-0.63204 3.24057,-1.85093 0.77135,-1.21888 0.17649,-3.54285 -0.57999,-2.26586 -1.81375,-3.09531 -1.21214,-0.86594 -3.7685,-0.21159 l -2.8759,0.73614 2.22329,8.68581 z m 10.88605,-1.13876 -0.23411,-1.23747 0.38303,-0.0725 q 0.97229,-0.18394 1.6181,-0.64181 0.6697,-0.49292 0.42445,-1.78931 l -2.73681,-14.46657 q -0.26197,-1.38479 -1.03599,-1.60457 -0.77958,-0.24925 -1.78134,-0.0597 l -0.38302,0.0725 -0.23411,-1.23747 14.8496,-2.80927 1.12276,5.12825 -1.5321,0.28984 -0.387,-1.23906 q -0.3018,-0.95 -1.02484,-1.54564 -0.69916,-0.63069 -2.02501,-0.37986 l -4.94987,0.93643 1.48267,7.83728 7.1007,-1.34332 0.27313,1.44371 -7.1007,1.34332 1.66661,8.80959 5.68645,-1.07577 q 1.38478,-0.26198 1.86974,-1.08616 0.50885,-0.85921 0.47223,-1.85938 l -0.0334,-1.30594 1.5321,-0.28985 0.7692,5.19513 z m 16.88405,-21.91487 q -0.41468,-0.91581 -0.92745,-1.1549 -0.51643,-0.26886 -1.37954,-0.16278 l -0.3869,0.0476 -0.15364,-1.25001 8.18459,-1.00594 0.15364,1.25001 -0.68453,0.0841 q -1.78573,0.21948 -1.61015,1.64806 0.0293,0.2381 0.12171,0.49864 0.0925,0.26055 0.25173,0.5733 l 4.46267,9.27032 q 0.60738,1.25467 1.0884,2.46444 0.48102,1.20977 0.8508,2.25195 0.10641,-1.10071 0.28382,-2.36119 0.17741,-1.26049 0.48534,-2.68807 l 2.11061,-9.86674 q 0.0751,-0.37178 0.0944,-0.70648 0.0454,-0.36812 0.0161,-0.60622 -0.17924,-1.45834 -2.14354,-1.21692 l -0.68453,0.0841 -0.15363,-1.25001 7.26196,-0.89254 0.15364,1.25001 -0.56548,0.0695 q -0.86311,0.10608 -1.25467,0.60738 -0.39522,0.47154 -0.72194,1.99207 l -3.98794,18.43591 -2.17263,0.26703 z m 21.00077,16.22132 -0.0712,-1.2574 0.38919,-0.0221 q 0.98796,-0.056 1.68781,-0.42602 0.7281,-0.40166 0.65346,-1.71894 l -0.83292,-14.69959 q -0.0797,-1.40709 -0.81859,-1.72564 -0.74057,-0.34848 -1.75847,-0.2908 l -0.38919,0.0221 -0.0712,-1.2574 15.08879,-0.85497 0.44656,5.23069 -1.55678,0.0882 -0.22264,-1.27886 q -0.17573,-0.98117 -0.8152,-1.66576 -0.61124,-0.71622 -1.95845,-0.63988 l -5.0296,0.28499 0.45124,7.96353 7.21507,-0.40883 0.0831,1.46697 -7.21507,0.40882 0.50721,8.95149 5.77805,-0.3274 q 1.40709,-0.0797 1.99508,-0.83387 0.61622,-0.78577 0.70993,-1.78221 l 0.13663,-1.29921 1.55678,-0.0882 0.0873,5.25104 z m 26.45632,-0.96667 0.025,-1.25917 0.38974,0.008 q 1.01933,0.0202 1.74598,-0.3253 0.72725,-0.37548 0.75518,-1.78455 l 0.2888,-14.57038 q 0.0279,-1.40907 -0.68446,-1.7831 -0.7118,-0.404 -1.73113,-0.42421 l -0.38974,-0.008 0.025,-1.25917 8.72424,0.17292 -0.025,1.25917 -0.38974,-0.008 q -1.01933,-0.0202 -1.74658,0.35527 -0.72666,0.34551 -0.75459,1.75458 l -0.2888,14.57038 q -0.0279,1.40907 0.68387,1.81307 0.7124,0.37403 1.73172,0.39423 l 0.38975,0.008 -0.025,1.25916 z m 11.01244,0.11385 0.0969,-1.25569 0.38866,0.03 q 1.01651,0.0784 1.76172,-0.22497 0.74753,-0.3333 0.85595,-1.73847 l 1.13036,-14.64964 q 0.1015,-1.31548 -0.61825,-1.73192 -0.68985,-0.41413 -1.67646,-0.49026 l -0.38867,-0.03 0.0969,-1.25569 5.4712,0.42216 9.42752,17.35902 1.02193,-13.24447 q 0.1015,-1.31548 -0.61825,-1.73192 -0.68985,-0.41413 -1.67646,-0.49026 l -0.38866,-0.03 0.0969,-1.25568 7.5042,0.57902 -0.0969,1.25568 -0.38867,-0.03 q -1.0165,-0.0784 -1.76403,0.25487 -0.74521,0.3034 -0.85363,1.70857 l -1.38412,17.93834 -2.1227,-0.16378 -9.88272,-18.08588 -1.06576,13.81252 q -0.10842,1.40517 0.57912,1.8492 0.68985,0.41413 1.70636,0.49256 l 0.38866,0.03 -0.0969,1.25569 z m 40.02226,4.91142 q -2.92431,-0.51104 -4.69546,-2.22084 -1.77116,-1.70979 -2.38171,-4.31261 -0.57585,-2.62721 -0.003,-5.90597 0.55751,-3.19015 2.04419,-5.42647 1.52138,-2.26069 3.85606,-3.25294 2.36939,-1.01664 5.47092,-0.47461 3.01292,0.52653 4.32466,1.72987 1.31173,1.20333 1.06395,2.62118 -0.16519,0.94523 -1.00173,1.3774 -0.83654,0.43218 -1.92946,0.24118 0.16002,-0.91569 -0.0152,-1.82909 -0.17006,-0.94293 -0.83998,-1.63838 -0.63521,-0.71982 -1.93491,-0.94695 -3.33784,-0.58332 -5.17898,1.59105 -1.80643,2.14999 -2.58075,6.58075 -0.45943,2.62892 -0.19531,4.77548 0.29882,2.12218 1.46143,3.4821 1.16261,1.35992 3.31891,1.73675 2.15631,0.37684 3.49644,-0.14998 1.37482,-0.55119 2.2888,-1.42644 0.21049,0.18899 0.30656,0.51018 0.13078,0.29682 0.0533,0.7399 -0.12905,0.73846 -0.94265,1.38773 -0.8136,0.64927 -2.32436,0.93318 -1.47606,0.25953 -3.6619,-0.12247 z m 18.27614,3.90111 q -3.08618,-0.7606 -4.79415,-2.60217 -1.70797,-1.84157 -2.13143,-4.50925 -0.39434,-2.6605 0.40214,-5.89226 0.79648,-3.23175 2.37477,-5.37521 1.60742,-2.13628 3.96836,-2.94417 2.39723,-0.82983 5.48341,-0.0692 2.94061,0.72473 4.61946,2.55912 1.71515,1.81246 2.16772,4.48731 0.48887,2.65292 -0.30761,5.88468 -0.79648,3.23175 -2.4693,5.3828 -1.63652,2.1291 -4.00464,2.96611 -2.36812,0.837 -5.30873,0.11227 z m 0.38748,-1.5722 q 3.26087,0.80365 5.16661,-1.28999 1.93485,-2.08646 2.99682,-6.39547 1.06915,-4.33813 0.31825,-7.05562 -0.72178,-2.71032 -3.95354,-3.5068 -3.26087,-0.80365 -5.21766,1.24652 -1.92767,2.05735 -2.99682,6.39548 -1.06197,4.309 -0.31825,7.05561 0.77283,2.75379 4.00459,3.55027 z m 11.61469,4.19318 0.40413,-1.19282 0.3692,0.12509 q 0.93721,0.31752 1.72467,0.23605 0.82547,-0.10026 1.24884,-1.34988 l 4.7629,-14.05819 q 0.42337,-1.24962 -0.17117,-1.83098 -0.56615,-0.57173 -1.50336,-0.88926 l -0.36921,-0.12508 0.40413,-1.19282 6.47529,2.19382 0.37508,18.23679 11.32588,-14.27251 6.30489,2.13609 -0.40412,1.19281 -0.36921,-0.12508 q -0.96561,-0.32715 -1.77231,-0.18888 -0.79707,0.10988 -1.24931,1.4447 l -4.6763,13.80259 q -0.45224,1.33482 0.10429,1.93496 0.56614,0.57173 1.53176,0.89888 l 0.3692,0.12509 -0.40412,1.19281 -7.55451,-2.55946 0.40413,-1.19281 0.0852,0.0289 q 0.90881,0.30791 1.55426,0.17832 0.64545,-0.12958 1.09675,-1.27476 l 5.13817,-15.16581 -12.65217,15.94441 -1.53362,-0.51959 -0.45967,-20.32336 -5.03232,14.85341 q -0.45223,1.33482 -0.0377,1.88684 0.42414,0.52362 1.38976,0.85077 l 0.0852,0.0289 -0.40413,1.19281 z m 26.54143,9.31267 0.49295,-1.15894 0.35872,0.15259 q 0.93818,0.39906 1.74127,0.34962 0.81483,-0.077 1.36647,-1.37393 L 384.15,190.50909 q 0.51643,-1.21412 -0.0326,-1.83867 -0.5214,-0.61281 -1.43199,-1.00013 l -0.35872,-0.15259 0.49296,-1.15893 7.75381,3.29811 q 3.47679,1.47887 4.47514,3.72834 1.01007,2.22187 -0.14016,4.92604 -0.69248,1.62803 -2.02024,2.75773 -1.30017,1.14144 -3.30378,1.33195 -2.00361,0.19051 -4.73538,-0.97145 l -1.73839,-0.73944 -1.98357,4.66332 q -0.51643,1.21412 0.005,1.82694 0.56073,0.59695 1.47132,0.98427 l 0.91059,0.38733 -0.49296,1.15893 z m 10.68535,-6.0454 q 2.51102,1.06807 4.05665,0.42207 1.58496,-0.66186 2.69998,-3.28325 0.98592,-2.31787 0.48962,-3.83241 -0.48456,-1.54213 -2.83001,-2.53978 l -1.87637,-0.79812 -4.00233,9.40942 z m 3.58439,12.04842 0.56461,-1.12576 0.50927,0.25542 q 0.77731,0.38985 1.35422,0.17599 0.6037,-0.20041 1.73144,-1.24502 l 13.93567,-12.93715 2.0907,1.04856 -2.26359,19.62976 q -0.1219,0.97879 0.13229,1.47528 0.28099,0.50994 1.0583,0.89978 l 0.34845,0.17477 -0.56461,1.12576 -7.37107,-3.69685 0.56461,-1.12577 0.61649,0.30919 q 1.60823,0.80659 2.2535,-0.48 0.10754,-0.21443 0.17492,-0.48255 0.0674,-0.26812 0.10804,-0.61674 l 0.43347,-3.53976 -7.04942,-3.53553 -2.43008,2.30357 q -0.56387,0.52231 -0.81929,1.03158 -0.65871,1.31339 1.11035,2.20064 l 0.61649,0.30919 -0.56461,1.12576 z m 9.80872,-4.7754 6.05768,3.03814 0.6907,-5.52415 q 0.16263,-1.39446 0.33846,-2.61458 0.17583,-1.22011 0.44535,-2.2926 -0.67158,0.87084 -1.41004,1.6075 -0.73847,0.73665 -1.82596,1.7679 z m 18.75404,20.37003 q -2.99115,-1.77545 -4.27259,-4.14013 -1.25566,-2.34937 -0.98046,-5.04541 0.31629,-2.70653 2.01521,-5.56874 1.65301,-2.78486 3.91371,-4.30238 2.3018,-1.52799 5.01714,-1.5203 2.73065,-0.0181 5.69601,1.74205 2.86222,1.69893 3.79066,3.36588 0.92844,1.66695 0.19377,2.90467 -0.48978,0.82514 -1.4768,0.90182 -0.98703,0.0767 -1.99267,-0.52024 0.47447,-0.79936 0.58312,-1.74612 0.14974,-0.95724 -0.30724,-1.89103 -0.44167,-0.95958 -1.70518,-1.70955 -3.27479,-1.94382 -5.92227,-0.65589 -2.63219,1.26215 -4.92803,5.13001 -2.29584,3.86786 -2.09159,6.81362 0.24534,2.93528 3.7522,5.01684 0.74779,0.44386 1.48992,0.77976 0.74213,0.33589 1.37546,0.50259 l 2.46421,-4.1515 q 0.67344,-1.13457 0.21247,-1.82664 -0.4352,-0.67677 -1.28612,-1.18185 l -0.10315,-0.0612 0.64284,-1.08301 6.70429,3.97946 -0.64283,1.083 -0.10315,-0.0612 q -0.722,-0.42856 -1.46247,-0.41476 -0.69938,0.003 -1.41875,1.21525 l -2.75501,4.64143 q -1.64131,-0.17221 -3.19162,-0.67397 -1.53501,-0.52756 -3.21108,-1.52242 z m 9.18129,5.16851 0.72192,-1.03197 0.31942,0.22345 q 0.8354,0.58441 1.63136,0.70209 0.81315,0.0931 1.62101,-1.06172 l 8.42239,-12.03965 q 0.75629,-1.08111 0.34829,-1.80568 -0.38344,-0.70737 -1.19427,-1.27459 l -0.31942,-0.22345 0.72192,-1.03197 4.49644,3.1455 -0.70895,19.74111 7.61453,-10.88483 q 0.75629,-1.08111 0.34829,-1.80567 -0.38344,-0.70738 -1.19427,-1.2746 l -0.31942,-0.22345 0.72192,-1.03197 6.16725,4.31432 -0.72192,1.03197 -0.31942,-0.22345 q -0.8354,-0.58441 -1.64855,-0.67751 -0.79596,-0.11768 -1.60382,1.03714 l -10.31313,14.74243 -1.74452,-1.22038 0.68658,-20.59844 -7.94111,11.35167 q -0.80786,1.15482 -0.44161,1.88677 0.38343,0.70737 1.21884,1.29178 l 0.31942,0.22345 -0.72192,1.03197 z m 18.6111,13.30619 0.77973,-0.98902 0.30612,0.24134 q 0.80064,0.63121 1.58857,0.79419 0.8065,0.13943 1.67904,-0.96733 l 9.02251,-11.44438 q 0.87255,-1.10676 0.53018,-1.83489 -0.32382,-0.75169 -1.12445,-1.38289 l -0.30613,-0.24134 0.77973,-0.98902 6.85249,5.40236 -0.77972,0.98903 -0.30613,-0.24135 q -0.80063,-0.6312 -1.60713,-0.77063 -0.78793,-0.16298 -1.66048,0.94378 l -9.02251,11.44437 q -0.87255,1.10676 -0.54874,1.85845 0.34238,0.72813 1.14302,1.35933 l 0.30612,0.24135 -0.77972,0.98902 z m 7.83839,6.00479 0.83221,-0.94529 0.42762,0.37648 q 0.6527,0.57462 1.26501,0.51442 0.63482,-0.0404 1.99103,-0.76405 l 16.76629,-8.9702 1.75552,1.54553 -7.17862,18.40974 q -0.36667,0.91567 -0.24703,1.46046 0.14215,0.5646 0.79485,1.13922 l 0.29258,0.25759 -0.8322,0.94528 -6.18936,-5.44897 0.83221,-0.94528 0.51765,0.45573 q 1.35041,1.18887 2.3015,0.10854 0.15852,-0.18005 0.29183,-0.42224 0.13332,-0.24219 0.26125,-0.56902 l 1.31895,-3.31334 -5.91927,-5.2112 -2.93578,1.61026 q -0.6781,0.36183 -1.05458,0.78946 -0.97091,1.10283 0.51454,2.41059 l 0.51765,0.45573 -0.8322,0.94528 z m 10.70037,-2.12546 5.08652,4.47806 2.07211,-5.16717 q 0.51173,-1.30733 0.99191,-2.44268 0.48017,-1.13535 1.01344,-2.10411 -0.87087,0.67154 -1.77232,1.1963 -0.90145,0.52477 -2.21535,1.24574 z"
       id="text255"
       aria-label="CHI NON BEVE IN COMPAGNIA" /><path
       d="m 115.27529,789.88663 q -2.7963,-1.51122 -3.98709,-3.72268 -1.1908,-2.21146 -0.93079,-4.9 0.28639,-2.67428 1.8689,-5.60247 1.5825,-2.92819 3.64848,-4.60663 2.09236,-1.66418 4.58052,-1.85331 2.5288,-0.20126 5.32509,1.30996 2.6644,1.43994 3.82881,3.63714 1.20505,2.18508 0.97142,4.88787 -0.19299,2.69067 -1.77549,5.61887 -1.58251,2.92819 -3.74188,4.59024 -2.11874,1.64992 -4.62116,1.86543 -2.50242,0.21551 -5.16681,-1.22442 z m 0.76986,-1.42453 q 2.95457,1.59676 5.32499,0.0488 2.3968,-1.53374 4.50681,-5.438 2.12426,-3.93063 2.07983,-6.74961 -0.018,-2.80473 -2.94624,-4.38723 -2.95457,-1.59676 -5.3635,-0.10366 -2.38254,1.50736 -4.5068,5.43799 -2.11,3.90426 -2.07983,6.74962 0.0566,2.85962 2.98474,4.44212 z m 22.09632,12.4023 0.4775,-1.16538 0.36071,0.1478 q 0.91566,0.37518 1.70666,0.34282 0.83011,-0.0487 1.33035,-1.26962 l 5.58226,-13.62388 q 0.53435,-1.30412 0.005,-1.90995 -0.51813,-0.63357 -1.46154,-1.02012 l -0.36071,-0.1478 0.4775,-1.16539 13.9846,5.73006 -1.85086,4.91261 -1.44286,-0.5912 0.35014,-1.24998 q 0.26419,-0.96113 -0.0179,-1.85445 -0.24297,-0.90969 -1.4916,-1.4213 l -4.66153,-1.91002 -3.02419,7.38076 6.68708,2.73997 -0.55709,1.35961 -6.68708,-2.73997 -3.39938,8.29642 5.35521,2.19425 q 1.30412,0.53435 2.15967,0.10717 0.89467,-0.44356 1.40859,-1.30237 l 0.68311,-1.11355 1.44285,0.5912 -2.18383,4.77618 z m 16.70132,-18.14153 q -0.51678,-0.79505 -1.08636,-1.93578 -0.5582,-1.16849 -0.97767,-2.28012 -0.39172,-1.10027 -0.55916,-1.71977 l 0.11369,-0.27747 2.96895,1.21649 q 0.0574,1.12532 0.24583,2.56356 0.21618,1.44961 0.49691,2.5044 l -0.14779,0.36072 z m 12.97911,29.46467 0.35766,-1.20756 0.37377,0.1107 q 0.97755,0.28953 1.76977,0.14889 0.80074,-0.1694 1.20097,-1.52072 l 4.13857,-13.97325 q 0.40023,-1.35133 -0.18762,-1.90072 -0.57933,-0.57814 -1.55689,-0.86767 l -0.37377,-0.1107 0.35766,-1.20757 8.3667,2.47803 -0.35766,1.20757 -0.37377,-0.11071 q -0.9488,-0.28101 -1.76977,-0.14888 -0.79223,0.14064 -1.16691,1.40571 l -4.71763,15.92836 5.66406,1.67756 q 0.86254,0.25547 1.49077,0.035 0.6655,-0.24072 1.10309,-0.76787 0.43759,-0.52714 0.70267,-1.10538 l 0.92619,-2.07121 1.49508,0.44281 -2.03211,6.12198 z m 19.37876,5.68636 0.27027,-1.23007 0.55646,0.12227 q 0.84934,0.18661 1.35589,-0.16261 0.53584,-0.34278 1.3719,-1.63275 l 10.32428,-15.96815 2.28443,0.50194 2.63562,19.58328 q 0.12267,0.9787 0.4912,1.39738 0.39781,0.42513 1.24714,0.61175 l 0.38074,0.0837 -0.27027,1.23008 -8.05405,-1.76966 0.27027,-1.23008 0.67361,0.14801 q 1.75725,0.38611 2.06614,-1.01969 0.0515,-0.2343 0.0508,-0.51076 -6.6e-4,-0.27645 -0.047,-0.62436 l -0.45077,-3.5376 -7.7026,-1.69244 -1.78861,2.83065 q -0.41803,0.64499 -0.5403,1.20145 -0.31532,1.43508 1.61765,1.8598 l 0.67361,0.14801 -0.27027,1.23007 z m 8.33228,-7.04191 6.61896,1.45434 -0.68967,-5.52429 q -0.18545,-1.39161 -0.31522,-2.61747 -0.12977,-1.22587 -0.1324,-2.3317 -0.43668,1.0093 -0.9712,1.905 -0.53452,0.8957 -1.33486,2.16282 z m 16.05549,12.21996 0.17534,-1.24716 0.38602,0.0543 q 1.0096,0.14194 1.77235,-0.1142 0.76693,-0.28583 0.96314,-1.68145 l 2.04556,-14.5501 q 0.18368,-1.30654 -0.50857,-1.76724 -0.66257,-0.45652 -1.64247,-0.59428 l -0.38602,-0.0543 0.17533,-1.24715 9.08639,1.27743 q 4.60258,0.64707 6.73834,3.76346 2.16545,3.12057 1.45577,8.16856 -0.45504,3.23666 -1.89186,5.48742 -1.40296,2.22524 -3.72461,3.2312 -2.32166,1.00597 -5.55832,0.55094 z m 8.61633,-0.33299 q 3.5336,0.49678 5.61535,-1.60275 2.11561,-2.12505 2.73345,-6.51977 0.62202,-4.42442 -0.80431,-6.98686 -1.42216,-2.59214 -4.95575,-3.08892 l -2.61308,-0.36736 -2.55904,18.20247 z m 15.62557,3.50801 0.0835,-1.25664 0.38896,0.0258 q 0.98737,0.0656 1.72732,-0.21581 0.77186,-0.30934 0.85933,-1.62583 l 0.98404,-14.81046 q 0.0875,-1.31649 -0.63668,-1.72523 -0.69423,-0.40675 -1.68159,-0.47235 l -0.38896,-0.0258 0.0835,-1.25664 8.04852,0.53476 q 7.68947,0.51091 7.30579,6.28549 -0.10536,1.58577 -0.83715,2.64908 -0.72981,1.03339 -1.79083,1.62404 -1.0311,0.59264 -2.13208,0.88011 l 3.66767,6.76502 q 0.6984,1.24849 1.37673,1.89461 0.67832,0.64611 1.60584,0.70774 l 0.0898,0.006 -0.0835,1.25665 -0.41888,-0.0278 q -1.85505,-0.12326 -2.89033,-0.37236 -1.00337,-0.27703 -1.59392,-0.88726 -0.58856,-0.64015 -1.20118,-1.82284 l -3.59193,-7.0004 -2.48337,-0.165 -0.40952,6.16355 q -0.0875,1.31648 0.60676,1.72324 0.72614,0.37882 1.7135,0.44442 l 0.38896,0.0258 -0.0835,1.25665 z m 8.6784,-10.30229 q 2.63297,0.17494 3.66794,-0.92833 1.0649,-1.10128 1.21996,-3.43505 0.15903,-2.39361 -0.82058,-3.48047 -0.97961,-1.08687 -3.52283,-1.25584 l -2.03456,-0.13519 -0.60434,9.09572 z m 22.99267,11.84197 q -3.17843,0.0245 -5.28802,-1.33869 -2.10958,-1.36317 -3.17822,-3.84386 -1.03865,-2.48093 -1.06427,-5.80929 -0.0256,-3.32835 0.97495,-5.79499 1.03056,-2.46686 3.11914,-3.83236 2.11833,-1.3957 5.29676,-1.42017 3.02851,-0.0233 5.10811,1.34009 2.10935,1.33318 3.20797,3.81364 1.12838,2.45025 1.154,5.7786 0.0256,3.32836 -1.06468,5.82568 -1.06054,2.46709 -3.14889,3.86257 -2.08835,1.39547 -5.11685,1.41878 z m -0.0125,-1.6192 q 3.35834,-0.0259 4.68852,-2.52501 1.36016,-2.49939 1.326,-6.9372 -0.0344,-4.46779 -1.43263,-6.91596 -1.36826,-2.4484 -4.69662,-2.42279 -3.35835,0.0258 -4.74872,2.49549 -1.3604,2.4694 -1.32601,6.9372 0.0342,4.43781 1.43264,6.91597 1.42846,2.47792 4.75682,2.4523 z m 35.29335,-0.63581 q -3.15568,0.38039 -5.4047,-0.73786 -2.24901,-1.11825 -3.58883,-3.46361 -1.31005,-2.34895 -1.70838,-5.65349 -0.39833,-3.30453 0.31961,-5.86773 0.74771,-2.56679 2.67017,-4.15766 1.94864,-1.62424 5.10432,-2.00462 3.00683,-0.36245 5.22608,0.75939 2.24542,1.08848 3.61501,3.43025 1.39578,2.30842 1.7941,5.61295 0.39833,3.30454 -0.40533,5.90827 -0.77748,2.57038 -2.69635,4.19103 -1.91887,1.62064 -4.9257,1.98308 z m -0.19378,-1.60761 q 3.33431,-0.40191 4.37613,-3.03436 1.0716,-2.63603 0.5405,-7.04208 -0.5347,-4.43582 -2.1984,-6.71193 -1.63394,-2.27971 -4.93848,-1.88138 -3.3343,0.40192 -4.43926,3.01177 -1.07519,2.60626 -0.5405,7.04208 0.53111,4.40605 2.1984,6.71193 1.69707,2.3023 5.00161,1.90397 z m 25.2019,-2.62959 -0.28289,-1.22723 0.37985,-0.0876 q 0.96426,-0.22228 1.59144,-0.70535 0.64967,-0.51903 0.35331,-1.8047 l -3.30718,-14.34693 q -0.31657,-1.37333 -1.09867,-1.56232 -0.78884,-0.2182 -1.78231,0.0108 l -0.37986,0.0876 -0.2829,-1.22723 14.72679,-3.39474 1.32483,5.0798 -1.51943,0.35025 -0.43573,-1.22278 q -0.33915,-0.93731 -1.0852,-1.50387 -0.72357,-0.60252 -2.03846,-0.29942 l -4.90893,1.13158 1.79166,7.77247 7.04198,-1.62328 0.33004,1.43177 -7.04197,1.62328 2.01394,8.73673 5.63942,-1.29997 q 1.37333,-0.31657 1.8253,-1.1593 0.47444,-0.87867 0.39827,-1.87661 l -0.0851,-1.3036 1.51943,-0.35025 0.97419,5.16062 z m 3.16373,-24.45486 q -0.88095,-0.35083 -2.00458,-0.95345 -1.13037,-0.63183 -2.11464,-1.29735 -0.95504,-0.67225 -1.44941,-1.08142 l -0.0674,-0.2922 3.12652,-0.72071 q 0.69653,0.88571 1.6807,1.95129 1.01339,1.05884 1.85156,1.75803 l 0.0876,0.37986 z m 33.63555,14.82934 q -2.786,0.93477 -4.60786,0.31252 -1.79343,-0.63179 -2.39435,-2.42279 -0.28616,-0.85285 0.0823,-1.5458 0.35891,-0.72137 1.32549,-1.04568 0.44793,1.14649 1.19885,2.06481 0.74139,0.88989 1.7852,1.26713 1.03428,0.34881 2.37042,-0.0995 1.90471,-0.63907 2.67977,-1.91125 0.76551,-1.30061 0.18367,-3.03475 -0.35293,-1.05186 -1.01782,-1.61949 -0.646,-0.60561 -1.82242,-0.90673 -1.14799,-0.31066 -3.05419,-0.43017 -3.00632,-0.19321 -4.8005,-1.20429 -1.76575,-1.02063 -2.54791,-3.35177 -0.54369,-1.62043 -0.12923,-3.02465 0.43335,-1.44219 1.62604,-2.50657 1.21159,-1.10236 3.00259,-1.70328 2.53014,-0.84892 4.24745,-0.34974 1.7173,0.49919 2.137,1.75004 0.30523,0.90972 -0.15805,1.60285 -0.44438,0.65516 -1.46781,0.99855 -0.29569,-0.88129 -0.88502,-1.60079 -0.5609,-0.72904 -1.45285,-1.03072 -0.86352,-0.31122 -2.05751,0.0894 -1.64886,0.55323 -2.26288,1.73975 -0.61402,1.18652 -0.11802,2.6648 0.38154,1.13715 1.04661,1.79961 0.68397,0.62449 1.86039,0.92561 1.16688,0.27269 3.04466,0.40175 2.8451,0.18404 4.68641,1.0528 1.84131,0.86875 2.57577,3.05775 0.90616,2.70072 -0.49302,4.84651 -1.37074,2.13625 -4.58317,3.2141 z m 11.89861,-4.44266 -0.47509,-1.16637 0.36102,-0.14705 q 0.9442,-0.3846 1.47496,-0.98933 0.51944,-0.6325 -0.0122,-1.93772 l -5.54277,-13.60763 q -0.49772,-1.22191 -1.32773,-1.27236 -0.80223,-0.0618 -1.71867,0.31152 l -0.36101,0.14705 -0.4751,-1.16637 7.80356,-3.1786 q 3.4991,-1.42529 5.7988,-0.54883 2.28839,0.84868 3.39694,3.5702 0.6674,1.63847 0.53357,3.37665 -0.10605,1.72687 -1.38255,3.28293 -1.27649,1.55605 -4.02578,2.67592 l -1.74956,0.71264 1.91169,4.69324 q 0.49772,1.22191 1.29996,1.28368 0.81869,0.0227 1.73513,-0.35061 l 0.91643,-0.37329 0.47509,1.16637 z m 3.23858,-11.8421 q 2.52713,-1.02937 3.15771,-2.58135 0.64705,-1.59107 -0.42757,-4.22928 -0.95019,-2.33274 -2.37463,-3.04766 -1.43576,-0.74268 -3.79627,0.21882 l -1.8884,0.7692 3.85731,9.4698 z m 15.89603,3.79791 -0.5381,-1.13867 0.35245,-0.16656 q 0.92178,-0.4356 1.41871,-1.06842 0.48411,-0.65994 -0.11805,-1.93417 l -6.2266,-13.17607 q -0.60216,-1.27423 -1.40657,-1.29208 -0.81723,-0.045 -1.73901,0.39065 l -0.35245,0.16656 -0.5381,-1.13868 7.88938,-3.72827 0.5381,1.13867 -0.35245,0.16656 q -0.92178,0.4356 -1.4059,1.09554 -0.49692,0.63282 0.10524,1.90705 l 6.2266,13.17607 q 0.60216,1.27423 1.41939,1.31919 0.80441,0.0178 1.72619,-0.41776 l 0.35245,-0.16655 0.5381,1.13867 z m 11.34942,-5.28396 -0.60483,-1.10468 0.49974,-0.27361 q 0.76275,-0.41761 0.91497,-1.01375 0.17852,-0.61054 -0.0393,-2.13224 l -2.7149,-18.82025 2.05155,-1.12325 14.85817,13.02636 q 0.73574,0.65696 1.28867,0.73027 0.57924,0.0589 1.34199,-0.3587 l 0.34193,-0.18721 0.60482,1.10468 -7.23302,3.96015 -0.60483,-1.10468 0.60495,-0.33121 q 1.57811,-0.86404 0.88689,-2.12653 -0.11521,-0.21041 -0.29742,-0.41833 -0.18221,-0.20792 -0.44582,-0.43963 l -2.66494,-2.3698 -6.9174,3.78735 0.51259,3.30892 q 0.10889,0.76085 0.3825,1.26058 0.70563,1.2888 2.44155,0.33836 l 0.60495,-0.33121 0.60482,1.10468 z m 1.65096,-10.78377 5.94423,-3.25452 -4.15081,-3.71 q -1.05446,-0.92688 -1.958,-1.76545 -0.90355,-0.83856 -1.63238,-1.67023 0.3343,1.04767 0.5202,2.07404 0.1859,1.02637 0.41559,2.50737 z"
       id="text256"
       style="-inkscape-font-specification:'Noto Serif';stroke-width:5.524;stroke-linejoin:bevel;stroke-opacity:0.867537"
       aria-label="O È LADRO O È SPIA" /></g></svg>
