<?xml version="1.0" encoding="UTF-8" standalone="no"?>
<!-- Created with Inkscape (http://www.inkscape.org/) -->

<svg
   width="530mm"
   height="980mm"
   viewBox="0 0 530 980"
   version="1.1"
   id="svg1"
   xml:space="preserve"
   sodipodi:docname="2_c.svg"
   inkscape:version="1.4 (86a8ad7, 2024-10-11)"
   xmlns:inkscape="http://www.inkscape.org/namespaces/inkscape"
   xmlns:sodipodi="http://sodipodi.sourceforge.net/DTD/sodipodi-0.dtd"
   xmlns="http://www.w3.org/2000/svg"
   xmlns:svg="http://www.w3.org/2000/svg"><sodipodi:namedview
     id="namedview1"
     pagecolor="#ffffff"
     bordercolor="#000000"
     borderopacity="0.25"
     inkscape:showpageshadow="2"
     inkscape:pageopacity="0.0"
     inkscape:pagecheckerboard="0"
     inkscape:deskcolor="#d1d1d1"
     inkscape:document-units="mm"
     inkscape:zoom="0.22003614"
     inkscape:cx="999.83576"
     inkscape:cy="1851.9685"
     inkscape:window-width="1920"
     inkscape:window-height="1017"
     inkscape:window-x="-8"
     inkscape:window-y="32"
     inkscape:window-maximized="1"
     inkscape:current-layer="svg1" /><defs
     id="defs1"><rect
       x="276.59204"
       y="280.4877"
       width="272.69638"
       height="292.17471"
       id="rect221" /><linearGradient
       id="swatch181"><stop
         style="stop-color:#0f70ff;stop-opacity:1;"
         offset="0"
         id="stop181" /></linearGradient><rect
       x="276.59204"
       y="280.4877"
       width="272.69638"
       height="292.17471"
       id="rect222" /><rect
       x="276.59204"
       y="280.4877"
       width="272.69638"
       height="292.17471"
       id="rect189" /><rect
       x="276.59204"
       y="280.4877"
       width="272.69638"
       height="292.17471"
       id="rect190" /></defs><g
     id="g220"
     style="display:inline"><g
       id="layer1"
       style="display:inline;fill:#ffffff"><path
         id="rect4"
         style="display:inline;fill:#ffffff;fill-opacity:1;stroke:none;stroke-width:2.365;stroke-linejoin:bevel;stroke-opacity:1"
         d="M 53.211222,0 A 53.211304,53.211304 0 0 0 0,53.211222 V 926.78891 a 53.211304,53.211304 0 0 0 53.211222,53.21122 H 476.78847 a 53.211304,53.211304 0 0 0 53.21174,-53.21122 V 53.211222 A 53.211304,53.211304 0 0 0 476.78847,0 Z" /><path
         id="path7"
         style="display:inline;fill:none;fill-opacity:1;stroke:#000000;stroke-width:4;stroke-linejoin:bevel;stroke-dasharray:none;stroke-opacity:1"
         d="M 84.38306,39.04751 A 45.33562,49.009618 0 0 0 39.04751,88.057052 V 892.65504 a 45.33562,49.009618 0 0 0 45.33555,49.00955 H 445.26759 A 45.33562,49.009618 0 0 0 490.6036,892.65504 V 88.057052 A 45.33562,49.009618 0 0 0 445.26759,39.04751 Z" /></g></g><g
     id="g189"
     transform="translate(-2.31673)"><g
       id="g102"
       style="display:inline;fill:#dc1436;fill-opacity:1"
       transform="translate(0.5291837,19.909274)"><path
         style="display:inline;fill:#c8ab37;fill-opacity:1;stroke:none;stroke-width:0.264583px;stroke-linecap:butt;stroke-linejoin:miter;stroke-opacity:1"
         d="m 165.92759,412.75464 v -54.82329 l 49.5362,37.22774 h 99.0724 l 49.53621,-37.22774 v 54.82329 l -49.53621,37.22774 h -99.0724 z"
         id="path49" /><rect
         style="opacity:1;fill:#000000;fill-opacity:1;stroke:#000000;stroke-width:3;stroke-dasharray:none;stroke-opacity:1"
         id="rect49"
         width="46.197643"
         height="13.510632"
         x="241.44804"
         y="348.66147" /><path
         style="display:inline;opacity:1;fill:#000000;fill-opacity:1;stroke:none;stroke-width:0.264583px;stroke-linecap:butt;stroke-linejoin:miter;stroke-opacity:1"
         d="m 165.92759,357.93135 49.5362,37.22774 h 99.0724 l 49.53621,-37.22774 z"
         id="path53" /><path
         id="path54"
         style="display:inline;opacity:1;fill:#1f70ab;fill-opacity:1;stroke:none;stroke-width:0.264583px;stroke-linecap:butt;stroke-linejoin:miter;stroke-opacity:1"
         d="m 264.85427,375.01393 -15.10089,-22.18831 c 0,0 -12.22447,16.58151 -35.17563,20.99303 -13.58984,2.61215 -30.01271,-0.71338 -32.53238,-13.24519 -0.99483,-4.94788 0.83406,-12.06231 0.83406,-12.06231 0,0 -7.63916,-3.27328 -10.64328,-12.08763 -1.99303,-5.84775 3.2857,-18.6427 15.90394,-15.73858 12.35679,2.84394 8.60723,15.19081 8.60723,15.19081 0,0 16.58681,1.39667 23.42131,-2.46549 4.66105,-2.63394 7.62457,-7.87269 9.68106,-12.81575 3.24926,-7.81005 7.23064,-19.47442 8.59224,-19.45721 4.67328,0.0591 25.37794,-0.0138 26.26661,5.2e-4 v -5.2e-4 c 0.002,-1.1e-4 0.14172,1e-4 0.14573,0 0.004,1e-4 0.14336,-1.1e-4 0.14573,0 v 5.2e-4 c 0.88867,-0.0143 21.59333,0.0585 26.26661,-5.2e-4 1.3616,-0.0172 5.34298,11.64716 8.59224,19.45721 2.05649,4.94306 5.02001,10.18181 9.68106,12.81575 6.8345,3.86216 23.42131,2.46549 23.42131,2.46549 0,0 -3.74956,-12.34687 8.60723,-15.19081 12.61824,-2.90412 17.89697,9.89083 15.90394,15.73858 -3.00412,8.81435 -10.64328,12.08763 -10.64328,12.08763 0,0 1.82889,7.11443 0.83406,12.06231 -2.51967,12.53181 -18.94254,15.85734 -32.53238,13.24519 -22.95116,-4.41152 -35.17563,-20.99303 -35.17563,-20.99303 z" /><path
         style="display:inline;opacity:1;fill:#000000;fill-opacity:1;stroke:none;stroke-width:0.677108px;stroke-linecap:butt;stroke-linejoin:miter;stroke-opacity:1"
         d="M 337.4171,205.26608 H 192.58288 l 50.3411,103.90768 h 44.15204 z"
         id="path55" /><path
         id="path56"
         style="display:inline;opacity:1;fill:#1f70ab;fill-opacity:1;stroke:none;stroke-width:0.264583px;stroke-linecap:butt;stroke-linejoin:miter;stroke-opacity:1"
         d="m 265,235.29713 -15.10089,22.18831 c 0,0 -12.22447,-16.58151 -35.17563,-20.99303 -13.58984,-2.61215 -30.01271,0.71338 -32.53238,13.24519 -0.99483,4.94788 0.83406,12.06231 0.83406,12.06231 0,0 -7.63916,3.27328 -10.64328,12.08763 -1.99303,5.84775 3.2857,18.6427 15.90394,15.73858 12.35679,-2.84394 8.60723,-15.19081 8.60723,-15.19081 0,0 16.58681,-1.39667 23.42131,2.46549 4.66105,2.63394 7.62457,7.87269 9.68106,12.81575 3.24926,7.81005 7.23064,19.47442 8.59224,19.45721 4.67328,-0.0591 25.37794,0.0138 26.26661,-5.2e-4 v 5.2e-4 c 0.002,1.1e-4 0.14172,-1e-4 0.14573,0 0.004,-1e-4 0.14336,1.1e-4 0.14573,0 v -5.2e-4 c 0.88867,0.0143 21.59333,-0.0585 26.26661,5.2e-4 1.3616,0.0172 5.34298,-11.64716 8.59224,-19.45721 2.05649,-4.94306 5.02001,-10.18181 9.68106,-12.81575 6.8345,-3.86216 23.42131,-2.46549 23.42131,-2.46549 0,0 -3.74956,12.34687 8.60723,15.19081 12.61824,2.90412 17.89697,-9.89083 15.90394,-15.73858 -3.00412,-8.81435 -10.64328,-12.08763 -10.64328,-12.08763 0,0 1.82889,-7.11443 0.83406,-12.06231 -2.51967,-12.53181 -18.94254,-15.85734 -32.53238,-13.24519 -22.95116,4.41152 -35.17563,20.99303 -35.17563,20.99303 z" /><path
         style="display:inline;opacity:1;fill:#dc1436;fill-opacity:1;stroke:none;stroke-width:3.92327"
         id="path57"
         d="m 322.69997,306.7753 a 57.699974,15.903986 0 0 1 -57.68788,15.90398 57.699974,15.903986 0 0 1 -57.71206,-15.89732 57.699974,15.903986 0 0 1 57.66371,-15.91064 57.699974,15.903986 0 0 1 57.73621,15.89065" /><path
         style="display:inline;opacity:1;fill:#c8ab37;fill-opacity:1;stroke:none;stroke-width:0.264583px;stroke-linecap:butt;stroke-linejoin:miter;stroke-opacity:1"
         d="m 165.92759,197.06367 v -54.82329 l 49.5362,37.22774 h 99.0724 l 49.53621,-37.22774 v 54.82329 l -49.53621,37.22774 h -99.0724 z"
         id="path62" /><path
         style="display:inline;opacity:1;fill:#000000;fill-opacity:1;stroke:none;stroke-width:4"
         id="path63"
         d="m 272.11856,247.37457 -40.71699,70.52391 h -81.43399 l -40.717,-70.52391 40.717,-70.5239 81.43399,0 z"
         transform="matrix(1.2165977,0,0,0.52787418,33.013589,11.657726)" /><g
         id="g88"><g
           id="g79"
           transform="matrix(1,0,0,0.84175875,0,33.416714)"><rect
             style="opacity:1;fill:#000000;fill-opacity:1;stroke:none;stroke-width:3;stroke-dasharray:none;stroke-opacity:1"
             id="rect75"
             width="7.7823024"
             height="44.799271"
             x="228.05298"
             y="184.48015" /><rect
             style="display:inline;fill:#000000;fill-opacity:1;stroke:none;stroke-width:3;stroke-dasharray:none;stroke-opacity:1"
             id="rect76"
             width="7.7823024"
             height="44.799271"
             x="294.26273"
             y="184.48015" /><rect
             style="display:inline;fill:#000000;fill-opacity:1;stroke:none;stroke-width:3;stroke-dasharray:none;stroke-opacity:1"
             id="rect77"
             width="7.7823024"
             height="44.799271"
             x="277.7103"
             y="184.48015" /><rect
             style="display:inline;fill:#000000;fill-opacity:1;stroke:none;stroke-width:3;stroke-dasharray:none;stroke-opacity:1"
             id="rect78"
             width="7.7823024"
             height="44.799271"
             x="244.60541"
             y="184.48015" /><rect
             style="display:inline;fill:#000000;fill-opacity:1;stroke:none;stroke-width:3;stroke-dasharray:none;stroke-opacity:1"
             id="rect79"
             width="7.7823024"
             height="44.799271"
             x="261.15784"
             y="184.72971" /></g><rect
           style="display:inline;opacity:1;fill:#000000;fill-opacity:1;stroke:none;stroke-width:3;stroke-dasharray:none;stroke-opacity:1"
           id="rect80"
           width="7.7823024"
           height="44.799271"
           x="294.26273"
           y="184.48015"
           transform="matrix(0.69979426,0.52733297,0,0.69979447,0.89141057,-99.485024)" /><rect
           style="display:inline;opacity:1;fill:#000000;fill-opacity:1;stroke:none;stroke-width:3;stroke-dasharray:none;stroke-opacity:1"
           id="rect81"
           width="7.7823024"
           height="44.799271"
           x="277.7103"
           y="184.48015"
           transform="matrix(0.69979426,0.52733297,0,0.69979447,0.89141057,-99.485024)" /><rect
           style="display:inline;opacity:1;fill:#000000;fill-opacity:1;stroke:none;stroke-width:3;stroke-dasharray:none;stroke-opacity:1"
           id="rect82"
           width="7.7823024"
           height="44.799271"
           x="244.60541"
           y="184.48015"
           transform="matrix(0.69979426,0.52733297,0,0.69979447,0.89141057,-99.485024)" /><rect
           style="display:inline;opacity:1;fill:#000000;fill-opacity:1;stroke:none;stroke-width:3;stroke-dasharray:none;stroke-opacity:1"
           id="rect83"
           width="7.7823024"
           height="44.799271"
           x="261.15784"
           y="184.72971"
           transform="matrix(0.69979426,0.52733297,0,0.69979447,0.89141057,-99.485024)" /><g
           id="g83"
           transform="matrix(0.69979427,0.52733296,0,0.69979448,0.89141056,-99.485023)" /><g
           id="g87"
           transform="matrix(-0.69979427,0.52733296,0,0.69979448,529.11132,-99.511503)"
           style="display:inline;fill:#dc1436;fill-opacity:1"><rect
             style="display:inline;fill:#000000;fill-opacity:1;stroke:none;stroke-width:3;stroke-dasharray:none;stroke-opacity:1"
             id="rect84"
             width="7.7823024"
             height="44.799271"
             x="294.26273"
             y="184.48015" /><rect
             style="display:inline;fill:#000000;fill-opacity:1;stroke:none;stroke-width:3;stroke-dasharray:none;stroke-opacity:1"
             id="rect85"
             width="7.7823024"
             height="44.799271"
             x="277.7103"
             y="184.48015" /><rect
             style="display:inline;fill:#000000;fill-opacity:1;stroke:none;stroke-width:3;stroke-dasharray:none;stroke-opacity:1"
             id="rect86"
             width="7.7823024"
             height="44.799271"
             x="244.60541"
             y="184.48015" /><rect
             style="display:inline;fill:#000000;fill-opacity:1;stroke:none;stroke-width:3;stroke-dasharray:none;stroke-opacity:1"
             id="rect87"
             width="7.7823024"
             height="44.799271"
             x="261.15784"
             y="184.72971" /></g></g><g
         id="g101"
         transform="translate(-0.05595709,216.43875)"><g
           id="g92"
           transform="matrix(1,0,0,0.84175875,0,33.416714)"><rect
             style="opacity:1;fill:#000000;fill-opacity:1;stroke:none;stroke-width:3;stroke-dasharray:none;stroke-opacity:1"
             id="rect88"
             width="7.7823024"
             height="44.799271"
             x="228.05298"
             y="184.48015" /><rect
             style="display:inline;fill:#000000;fill-opacity:1;stroke:none;stroke-width:3;stroke-dasharray:none;stroke-opacity:1"
             id="rect89"
             width="7.7823024"
             height="44.799271"
             x="294.26273"
             y="184.48015" /><rect
             style="display:inline;fill:#000000;fill-opacity:1;stroke:none;stroke-width:3;stroke-dasharray:none;stroke-opacity:1"
             id="rect90"
             width="7.7823024"
             height="44.799271"
             x="277.7103"
             y="184.48015" /><rect
             style="display:inline;fill:#000000;fill-opacity:1;stroke:none;stroke-width:3;stroke-dasharray:none;stroke-opacity:1"
             id="rect91"
             width="7.7823024"
             height="44.799271"
             x="244.60541"
             y="184.48015" /><rect
             style="display:inline;fill:#000000;fill-opacity:1;stroke:none;stroke-width:3;stroke-dasharray:none;stroke-opacity:1"
             id="rect92"
             width="7.7823024"
             height="44.799271"
             x="261.15784"
             y="184.72971" /></g><rect
           style="display:inline;opacity:1;fill:#000000;fill-opacity:1;stroke:none;stroke-width:3;stroke-dasharray:none;stroke-opacity:1"
           id="rect93"
           width="7.7823024"
           height="44.799271"
           x="294.26273"
           y="184.48015"
           transform="matrix(0.69979426,0.52733297,0,0.69979447,0.89141057,-99.485024)" /><rect
           style="display:inline;opacity:1;fill:#000000;fill-opacity:1;stroke:none;stroke-width:3;stroke-dasharray:none;stroke-opacity:1"
           id="rect94"
           width="7.7823024"
           height="44.799271"
           x="277.7103"
           y="184.48015"
           transform="matrix(0.69979426,0.52733297,0,0.69979447,0.89141057,-99.485024)" /><rect
           style="display:inline;opacity:1;fill:#000000;fill-opacity:1;stroke:none;stroke-width:3;stroke-dasharray:none;stroke-opacity:1"
           id="rect95"
           width="7.7823024"
           height="44.799271"
           x="244.60541"
           y="184.48015"
           transform="matrix(0.69979426,0.52733297,0,0.69979447,0.89141057,-99.485024)" /><rect
           style="display:inline;opacity:1;fill:#000000;fill-opacity:1;stroke:none;stroke-width:3;stroke-dasharray:none;stroke-opacity:1"
           id="rect96"
           width="7.7823024"
           height="44.799271"
           x="261.15784"
           y="184.72971"
           transform="matrix(0.69979426,0.52733297,0,0.69979447,0.89141057,-99.485024)" /><g
           id="g96"
           transform="matrix(0.69979427,0.52733296,0,0.69979448,0.89141056,-99.485023)" /><g
           id="g100"
           transform="matrix(-0.69979427,0.52733296,0,0.69979448,529.11132,-99.511503)"
           style="display:inline;fill:#dc1436;fill-opacity:1"><rect
             style="display:inline;fill:#000000;fill-opacity:1;stroke:none;stroke-width:3;stroke-dasharray:none;stroke-opacity:1"
             id="rect97"
             width="7.7823024"
             height="44.799271"
             x="294.26273"
             y="184.48015" /><rect
             style="display:inline;fill:#000000;fill-opacity:1;stroke:none;stroke-width:3;stroke-dasharray:none;stroke-opacity:1"
             id="rect98"
             width="7.7823024"
             height="44.799271"
             x="277.7103"
             y="184.48015" /><rect
             style="display:inline;fill:#000000;fill-opacity:1;stroke:none;stroke-width:3;stroke-dasharray:none;stroke-opacity:1"
             id="rect99"
             width="7.7823024"
             height="44.799271"
             x="244.60541"
             y="184.48015" /><rect
             style="display:inline;fill:#000000;fill-opacity:1;stroke:none;stroke-width:3;stroke-dasharray:none;stroke-opacity:1"
             id="rect100"
             width="7.7823024"
             height="44.799271"
             x="261.15784"
             y="184.72971" /></g></g><path
         style="display:inline;opacity:1;fill:#dc1436;fill-opacity:1;stroke:none;stroke-width:4"
         id="path101"
         d="m 272.11856,247.37457 -40.71699,70.52391 h -81.43399 l -40.717,-70.52391 40.717,-70.5239 81.43399,0 z"
         transform="matrix(0.99902466,0,0,0.40445334,74.501409,42.188904)" /></g><g
       id="g235"
       style="display:inline;fill:#dc1436;fill-opacity:1"
       transform="translate(0.5291837,406.06029)"><path
         style="display:inline;fill:#c8ab37;fill-opacity:1;stroke:none;stroke-width:0.264583px;stroke-linecap:butt;stroke-linejoin:miter;stroke-opacity:1"
         d="m 165.92759,412.75464 v -54.82329 l 49.5362,37.22774 h 99.0724 l 49.53621,-37.22774 v 54.82329 l -49.53621,37.22774 h -99.0724 z"
         id="path191" /><rect
         style="opacity:1;fill:#000000;fill-opacity:1;stroke:#000000;stroke-width:3;stroke-dasharray:none;stroke-opacity:1"
         id="rect191"
         width="46.197643"
         height="13.510632"
         x="241.44804"
         y="348.66147" /><path
         style="display:inline;opacity:1;fill:#000000;fill-opacity:1;stroke:none;stroke-width:0.264583px;stroke-linecap:butt;stroke-linejoin:miter;stroke-opacity:1"
         d="m 165.92759,357.93135 49.5362,37.22774 h 99.0724 l 49.53621,-37.22774 z"
         id="path192" /><path
         id="path193"
         style="display:inline;opacity:1;fill:#1f70ab;fill-opacity:1;stroke:none;stroke-width:0.264583px;stroke-linecap:butt;stroke-linejoin:miter;stroke-opacity:1"
         d="m 264.85427,375.01393 -15.10089,-22.18831 c 0,0 -12.22447,16.58151 -35.17563,20.99303 -13.58984,2.61215 -30.01271,-0.71338 -32.53238,-13.24519 -0.99483,-4.94788 0.83406,-12.06231 0.83406,-12.06231 0,0 -7.63916,-3.27328 -10.64328,-12.08763 -1.99303,-5.84775 3.2857,-18.6427 15.90394,-15.73858 12.35679,2.84394 8.60723,15.19081 8.60723,15.19081 0,0 16.58681,1.39667 23.42131,-2.46549 4.66105,-2.63394 7.62457,-7.87269 9.68106,-12.81575 3.24926,-7.81005 7.23064,-19.47442 8.59224,-19.45721 4.67328,0.0591 25.37794,-0.0138 26.26661,5.2e-4 v -5.2e-4 c 0.002,-1.1e-4 0.14172,1e-4 0.14573,0 0.004,1e-4 0.14336,-1.1e-4 0.14573,0 v 5.2e-4 c 0.88867,-0.0143 21.59333,0.0585 26.26661,-5.2e-4 1.3616,-0.0172 5.34298,11.64716 8.59224,19.45721 2.05649,4.94306 5.02001,10.18181 9.68106,12.81575 6.8345,3.86216 23.42131,2.46549 23.42131,2.46549 0,0 -3.74956,-12.34687 8.60723,-15.19081 12.61824,-2.90412 17.89697,9.89083 15.90394,15.73858 -3.00412,8.81435 -10.64328,12.08763 -10.64328,12.08763 0,0 1.82889,7.11443 0.83406,12.06231 -2.51967,12.53181 -18.94254,15.85734 -32.53238,13.24519 -22.95116,-4.41152 -35.17563,-20.99303 -35.17563,-20.99303 z" /><path
         style="display:inline;opacity:1;fill:#000000;fill-opacity:1;stroke:none;stroke-width:0.677108px;stroke-linecap:butt;stroke-linejoin:miter;stroke-opacity:1"
         d="M 337.4171,205.26608 H 192.58288 l 50.3411,103.90768 h 44.15204 z"
         id="path194" /><path
         id="path195"
         style="display:inline;opacity:1;fill:#1f70ab;fill-opacity:1;stroke:none;stroke-width:0.264583px;stroke-linecap:butt;stroke-linejoin:miter;stroke-opacity:1"
         d="m 265,235.29713 -15.10089,22.18831 c 0,0 -12.22447,-16.58151 -35.17563,-20.99303 -13.58984,-2.61215 -30.01271,0.71338 -32.53238,13.24519 -0.99483,4.94788 0.83406,12.06231 0.83406,12.06231 0,0 -7.63916,3.27328 -10.64328,12.08763 -1.99303,5.84775 3.2857,18.6427 15.90394,15.73858 12.35679,-2.84394 8.60723,-15.19081 8.60723,-15.19081 0,0 16.58681,-1.39667 23.42131,2.46549 4.66105,2.63394 7.62457,7.87269 9.68106,12.81575 3.24926,7.81005 7.23064,19.47442 8.59224,19.45721 4.67328,-0.0591 25.37794,0.0138 26.26661,-5.2e-4 v 5.2e-4 c 0.002,1.1e-4 0.14172,-1e-4 0.14573,0 0.004,-1e-4 0.14336,1.1e-4 0.14573,0 v -5.2e-4 c 0.88867,0.0143 21.59333,-0.0585 26.26661,5.2e-4 1.3616,0.0172 5.34298,-11.64716 8.59224,-19.45721 2.05649,-4.94306 5.02001,-10.18181 9.68106,-12.81575 6.8345,-3.86216 23.42131,-2.46549 23.42131,-2.46549 0,0 -3.74956,12.34687 8.60723,15.19081 12.61824,2.90412 17.89697,-9.89083 15.90394,-15.73858 -3.00412,-8.81435 -10.64328,-12.08763 -10.64328,-12.08763 0,0 1.82889,-7.11443 0.83406,-12.06231 -2.51967,-12.53181 -18.94254,-15.85734 -32.53238,-13.24519 -22.95116,4.41152 -35.17563,20.99303 -35.17563,20.99303 z" /><path
         style="display:inline;opacity:1;fill:#dc1436;fill-opacity:1;stroke:none;stroke-width:3.92327"
         id="path196"
         d="m 322.69997,306.7753 a 57.699974,15.903986 0 0 1 -57.68788,15.90398 57.699974,15.903986 0 0 1 -57.71206,-15.89732 57.699974,15.903986 0 0 1 57.66371,-15.91064 57.699974,15.903986 0 0 1 57.73621,15.89065" /><path
         style="display:inline;opacity:1;fill:#c8ab37;fill-opacity:1;stroke:none;stroke-width:0.264583px;stroke-linecap:butt;stroke-linejoin:miter;stroke-opacity:1"
         d="m 165.92759,197.06367 v -54.82329 l 49.5362,37.22774 h 99.0724 l 49.53621,-37.22774 v 54.82329 l -49.53621,37.22774 h -99.0724 z"
         id="path201" /><path
         style="display:inline;opacity:1;fill:#000000;fill-opacity:1;stroke:none;stroke-width:4"
         id="path202"
         d="m 272.11856,247.37457 -40.71699,70.52391 h -81.43399 l -40.717,-70.52391 40.717,-70.5239 81.43399,0 z"
         transform="matrix(1.2165977,0,0,0.52787418,33.013589,11.657726)" /><g
         id="g218"><g
           id="g209"
           transform="matrix(1,0,0,0.84175875,0,33.416714)"><rect
             style="opacity:1;fill:#000000;fill-opacity:1;stroke:none;stroke-width:3;stroke-dasharray:none;stroke-opacity:1"
             id="rect205"
             width="7.7823024"
             height="44.799271"
             x="228.05298"
             y="184.48015" /><rect
             style="display:inline;fill:#000000;fill-opacity:1;stroke:none;stroke-width:3;stroke-dasharray:none;stroke-opacity:1"
             id="rect206"
             width="7.7823024"
             height="44.799271"
             x="294.26273"
             y="184.48015" /><rect
             style="display:inline;fill:#000000;fill-opacity:1;stroke:none;stroke-width:3;stroke-dasharray:none;stroke-opacity:1"
             id="rect207"
             width="7.7823024"
             height="44.799271"
             x="277.7103"
             y="184.48015" /><rect
             style="display:inline;fill:#000000;fill-opacity:1;stroke:none;stroke-width:3;stroke-dasharray:none;stroke-opacity:1"
             id="rect208"
             width="7.7823024"
             height="44.799271"
             x="244.60541"
             y="184.48015" /><rect
             style="display:inline;fill:#000000;fill-opacity:1;stroke:none;stroke-width:3;stroke-dasharray:none;stroke-opacity:1"
             id="rect209"
             width="7.7823024"
             height="44.799271"
             x="261.15784"
             y="184.72971" /></g><rect
           style="display:inline;opacity:1;fill:#000000;fill-opacity:1;stroke:none;stroke-width:3;stroke-dasharray:none;stroke-opacity:1"
           id="rect210"
           width="7.7823024"
           height="44.799271"
           x="294.26273"
           y="184.48015"
           transform="matrix(0.69979426,0.52733297,0,0.69979447,0.89141057,-99.485024)" /><rect
           style="display:inline;opacity:1;fill:#000000;fill-opacity:1;stroke:none;stroke-width:3;stroke-dasharray:none;stroke-opacity:1"
           id="rect211"
           width="7.7823024"
           height="44.799271"
           x="277.7103"
           y="184.48015"
           transform="matrix(0.69979426,0.52733297,0,0.69979447,0.89141057,-99.485024)" /><rect
           style="display:inline;opacity:1;fill:#000000;fill-opacity:1;stroke:none;stroke-width:3;stroke-dasharray:none;stroke-opacity:1"
           id="rect212"
           width="7.7823024"
           height="44.799271"
           x="244.60541"
           y="184.48015"
           transform="matrix(0.69979426,0.52733297,0,0.69979447,0.89141057,-99.485024)" /><rect
           style="display:inline;opacity:1;fill:#000000;fill-opacity:1;stroke:none;stroke-width:3;stroke-dasharray:none;stroke-opacity:1"
           id="rect213"
           width="7.7823024"
           height="44.799271"
           x="261.15784"
           y="184.72971"
           transform="matrix(0.69979426,0.52733297,0,0.69979447,0.89141057,-99.485024)" /><g
           id="g213"
           transform="matrix(0.69979427,0.52733296,0,0.69979448,0.89141056,-99.485023)" /><g
           id="g217"
           transform="matrix(-0.69979427,0.52733296,0,0.69979448,529.11132,-99.511503)"
           style="display:inline;fill:#dc1436;fill-opacity:1"><rect
             style="display:inline;fill:#000000;fill-opacity:1;stroke:none;stroke-width:3;stroke-dasharray:none;stroke-opacity:1"
             id="rect214"
             width="7.7823024"
             height="44.799271"
             x="294.26273"
             y="184.48015" /><rect
             style="display:inline;fill:#000000;fill-opacity:1;stroke:none;stroke-width:3;stroke-dasharray:none;stroke-opacity:1"
             id="rect215"
             width="7.7823024"
             height="44.799271"
             x="277.7103"
             y="184.48015" /><rect
             style="display:inline;fill:#000000;fill-opacity:1;stroke:none;stroke-width:3;stroke-dasharray:none;stroke-opacity:1"
             id="rect216"
             width="7.7823024"
             height="44.799271"
             x="244.60541"
             y="184.48015" /><rect
             style="display:inline;fill:#000000;fill-opacity:1;stroke:none;stroke-width:3;stroke-dasharray:none;stroke-opacity:1"
             id="rect217"
             width="7.7823024"
             height="44.799271"
             x="261.15784"
             y="184.72971" /></g></g><g
         id="g234"
         transform="translate(-0.05595709,216.43875)"><g
           id="g225"
           transform="matrix(1,0,0,0.84175875,0,33.416714)"><rect
             style="opacity:1;fill:#000000;fill-opacity:1;stroke:none;stroke-width:3;stroke-dasharray:none;stroke-opacity:1"
             id="rect218"
             width="7.7823024"
             height="44.799271"
             x="228.05298"
             y="184.48015" /><rect
             style="display:inline;fill:#000000;fill-opacity:1;stroke:none;stroke-width:3;stroke-dasharray:none;stroke-opacity:1"
             id="rect219"
             width="7.7823024"
             height="44.799271"
             x="294.26273"
             y="184.48015" /><rect
             style="display:inline;fill:#000000;fill-opacity:1;stroke:none;stroke-width:3;stroke-dasharray:none;stroke-opacity:1"
             id="rect223"
             width="7.7823024"
             height="44.799271"
             x="277.7103"
             y="184.48015" /><rect
             style="display:inline;fill:#000000;fill-opacity:1;stroke:none;stroke-width:3;stroke-dasharray:none;stroke-opacity:1"
             id="rect224"
             width="7.7823024"
             height="44.799271"
             x="244.60541"
             y="184.48015" /><rect
             style="display:inline;fill:#000000;fill-opacity:1;stroke:none;stroke-width:3;stroke-dasharray:none;stroke-opacity:1"
             id="rect225"
             width="7.7823024"
             height="44.799271"
             x="261.15784"
             y="184.72971" /></g><rect
           style="display:inline;opacity:1;fill:#000000;fill-opacity:1;stroke:none;stroke-width:3;stroke-dasharray:none;stroke-opacity:1"
           id="rect226"
           width="7.7823024"
           height="44.799271"
           x="294.26273"
           y="184.48015"
           transform="matrix(0.69979426,0.52733297,0,0.69979447,0.89141057,-99.485024)" /><rect
           style="display:inline;opacity:1;fill:#000000;fill-opacity:1;stroke:none;stroke-width:3;stroke-dasharray:none;stroke-opacity:1"
           id="rect227"
           width="7.7823024"
           height="44.799271"
           x="277.7103"
           y="184.48015"
           transform="matrix(0.69979426,0.52733297,0,0.69979447,0.89141057,-99.485024)" /><rect
           style="display:inline;opacity:1;fill:#000000;fill-opacity:1;stroke:none;stroke-width:3;stroke-dasharray:none;stroke-opacity:1"
           id="rect228"
           width="7.7823024"
           height="44.799271"
           x="244.60541"
           y="184.48015"
           transform="matrix(0.69979426,0.52733297,0,0.69979447,0.89141057,-99.485024)" /><rect
           style="display:inline;opacity:1;fill:#000000;fill-opacity:1;stroke:none;stroke-width:3;stroke-dasharray:none;stroke-opacity:1"
           id="rect229"
           width="7.7823024"
           height="44.799271"
           x="261.15784"
           y="184.72971"
           transform="matrix(0.69979426,0.52733297,0,0.69979447,0.89141057,-99.485024)" /><g
           id="g229"
           transform="matrix(0.69979427,0.52733296,0,0.69979448,0.89141056,-99.485023)" /><g
           id="g233"
           transform="matrix(-0.69979427,0.52733296,0,0.69979448,529.11132,-99.511503)"
           style="display:inline;fill:#dc1436;fill-opacity:1"><rect
             style="display:inline;fill:#000000;fill-opacity:1;stroke:none;stroke-width:3;stroke-dasharray:none;stroke-opacity:1"
             id="rect230"
             width="7.7823024"
             height="44.799271"
             x="294.26273"
             y="184.48015" /><rect
             style="display:inline;fill:#000000;fill-opacity:1;stroke:none;stroke-width:3;stroke-dasharray:none;stroke-opacity:1"
             id="rect231"
             width="7.7823024"
             height="44.799271"
             x="277.7103"
             y="184.48015" /><rect
             style="display:inline;fill:#000000;fill-opacity:1;stroke:none;stroke-width:3;stroke-dasharray:none;stroke-opacity:1"
             id="rect232"
             width="7.7823024"
             height="44.799271"
             x="244.60541"
             y="184.48015" /><rect
             style="display:inline;fill:#000000;fill-opacity:1;stroke:none;stroke-width:3;stroke-dasharray:none;stroke-opacity:1"
             id="rect233"
             width="7.7823024"
             height="44.799271"
             x="261.15784"
             y="184.72971" /></g></g><path
         style="display:inline;opacity:1;fill:#dc1436;fill-opacity:1;stroke:none;stroke-width:4"
         id="path234"
         d="m 272.11856,247.37457 -40.71699,70.52391 h -81.43399 l -40.717,-70.52391 40.717,-70.5239 81.43399,0 z"
         transform="matrix(0.99902466,0,0,0.40445334,74.501409,42.188904)" /></g><text
       xml:space="preserve"
       transform="matrix(-0.26458333,0,0,-0.26458333,532.81125,1002.2008)"
       id="text189"
       style="font-size:192px;line-height:1.25;font-family:sans-serif;white-space:pre;shape-inside:url(#rect190);display:inline;fill:#ffffff"><tspan
         x="276.5918"
         y="455.18432"
         id="tspan2"><tspan
           style="font-family:Centaur;-inkscape-font-specification:Centaur;fill:#000000"
           id="tspan1">2</tspan></tspan></text><text
       xml:space="preserve"
       transform="matrix(0.26458333,0,0,0.26458333,0,-21.566009)"
       id="text187"
       style="font-size:192px;line-height:1.25;font-family:sans-serif;white-space:pre;shape-inside:url(#rect189);display:inline;fill:#ffffff"><tspan
         x="276.5918"
         y="455.18432"
         id="tspan4"><tspan
           style="font-family:Centaur;-inkscape-font-specification:Centaur;fill:#000000"
           id="tspan3">2</tspan></tspan></text></g></svg>
